<?xml version="1.0" encoding="utf-8"?>
<!-- Generator: Adobe Illustrator 24.2.1, SVG Export Plug-In . SVG Version: 6.00 Build 0)  -->
<svg version="1.1" id="Layer_1" xmlns="http://www.w3.org/2000/svg" xmlns:xlink="http://www.w3.org/1999/xlink" x="0px" y="0px"
	 viewBox="0 0 2200 2200" style="enable-background:new 0 0 2200 2200;" xml:space="preserve">
<style type="text/css">
	.st0{fill:none;stroke:#000000;stroke-miterlimit:10;}
</style>
<g>
	<circle cx="1100" cy="1100" r="1090" fill="#FFF095" />
	<path d="M753,953.9961c0,46.6719-13.1719,86.3438-39.5,119c-26.3438,32.6719-60.1719,56.3438-101.5,71l159,275H632l-145-252h-99
		v252H258v-674h253c38.6563,0,73,5.5,103,16.5s55.3281,25.8438,76,44.5c20.6563,18.6719,36.3281,40.8438,47,66.5
		C747.6563,898.168,753,925.3398,753,953.9961z M623,953.9961c0-29.3281-9.1719-52.8281-27.5-70.5
		c-18.3438-17.6563-46.1719-26.5-83.5-26.5H388v198h124c34.6563,0,61.8281-9,81.5-27C613.1563,1009.9961,623,985.3398,623,953.9961z
		"/>
	<path d="M998.998,1418.9961h-130v-674h130V1418.9961z M1142.998,1060.9961l286,358h-150l-249-315v-82l246-277h146
		L1142.998,1060.9961z"/>
	<path d="M1643.9932,1418.9961h-130v-564l-193,2v-112h516v112l-193-2V1418.9961z"/>
</g>
<g>
	<path d="M1811.5002,973.2856v534.1588c0,2.067-1.1028,3.9771-2.8928,5.0105l-705.7146,407.4446
		c-1.79,1.0334-3.9956,1.0334-5.7856,0L391.3926,1512.455c-1.7901-1.0334-2.8928-2.9435-2.8928-5.0105v-814.889
		c0-2.067,1.1027-3.977,2.8928-5.0105l705.7145-407.4445c1.79-1.0335,3.9956-1.0335,5.7856,0l705.7146,407.4445
		c1.79,1.0335,2.8928,2.9435,2.8928,5.0105v158.1589c0,3.1953,2.5902,5.7856,5.7855,5.7856h142.954
		c3.1953,0,5.7856-2.5903,5.7856-5.7856v-247.374c0-2.067-1.1028-3.977-2.8928-5.0105l-860.2397-496.6597
		c-1.79-1.0335-3.9956-1.0335-5.7856,0L236.8674,598.3298c-1.7901,1.0335-2.8928,2.9435-2.8928,5.0105v993.3193
		c0,2.067,1.1027,3.9771,2.8928,5.0105l860.2397,496.6597c1.79,1.0334,3.9956,1.0334,5.7856,0l860.2397-496.6597
		c1.79-1.0334,2.8928-2.9435,2.8928-5.0105v-623.374c0-3.1953-2.5903-5.7856-5.7856-5.7856h-142.954
		C1814.0905,967.5,1811.5002,970.0903,1811.5002,973.2856z"/>
	<path class="st0" d="M1811.5002,973.2856v534.1588c0,2.067-1.1028,3.9771-2.8928,5.0105l-705.7146,407.4446
		c-1.79,1.0334-3.9956,1.0334-5.7856,0L391.3926,1512.455c-1.7901-1.0334-2.8928-2.9435-2.8928-5.0105v-814.889
		c0-2.067,1.1027-3.977,2.8928-5.0105l705.7145-407.4445c1.79-1.0335,3.9956-1.0335,5.7856,0l705.7146,407.4445
		c1.79,1.0335,2.8928,2.9435,2.8928,5.0105v158.1589c0,3.1953,2.5902,5.7856,5.7855,5.7856h142.954
		c3.1953,0,5.7856-2.5903,5.7856-5.7856v-247.374c0-2.067-1.1028-3.977-2.8928-5.0105l-860.2397-496.6597
		c-1.79-1.0335-3.9956-1.0335-5.7856,0L236.8674,598.3298c-1.7901,1.0335-2.8928,2.9435-2.8928,5.0105v993.3193
		c0,2.067,1.1027,3.9771,2.8928,5.0105l860.2397,496.6597c1.79,1.0334,3.9956,1.0334,5.7856,0l860.2397-496.6597
		c1.79-1.0334,2.8928-2.9435,2.8928-5.0105v-623.374c0-3.1953-2.5903-5.7856-5.7856-5.7856h-142.954
		C1814.0905,967.5,1811.5002,970.0903,1811.5002,973.2856z"/>
</g>
</svg>
