<svg id="Layer_1" data-name="Layer 1" xmlns="http://www.w3.org/2000/svg" viewBox="0 0 800 800">
<defs>
<style>.cls-1{fill:#ff4081;}</style>
</defs>
<rect x="0" y="0" width="800" height="800" fill="white" />
<g transform="translate(150, 150)">
<path class="cls-1" d="M258.69,98.54A98.54,98.54,0,1,0,150.52,196.6a230.43,230.43,0,0,1-13.06,39.54L159.3,252.8,181.13,235a170.05,170.05,0,0,1-13.53-38.23A98.51,98.51,0,0,0,258.69,98.54Zm-92.62,90.27a92.79,92.79,0,0,1-1.6-16.74c0-24.07,8-43.08,12.87-57.16a60.16,60.16,0,0,0,2.06-32.17,20.76,20.76,0,0,0-20.68-15.52c-14.14,0-19,9.77-21.26,16.09s-2,19.71,3.74,33.49,12.35,38.9,12.35,55.57a100.81,100.81,0,0,1-1.47,16.28,90.54,90.54,0,1,1,14,.16Z"/><polygon class="cls-1" points="107.3 286.56 123.24 310.69 194.77 310.69 211.15 286.99 191.76 261.57 126.26 261.57 107.3 286.56"/><path class="cls-1" d="M27.4,357.89l5.29,1.45a16.6,16.6,0,0,1,4.51,1.77S93.22,391,156.14,391c78.75,0,125.82-31.88,129-32.75s4.6-1.43,4.6-1.43v-2.87s-2.59-1.15-6.61-2.88S229.39,320.6,157,320.6c-71.86,0-120.8,30.85-124.39,31.89a32.69,32.69,0,0,1-5.17,1.14Z"/><circle class="cls-1" cx="12.07" cy="355.08" r="12.07"/><path class="cls-1" d="M317.16,355.08A12.07,12.07,0,1,1,305.09,343,12.07,12.07,0,0,1,317.16,355.08Z"/>
</g>
</svg>