<?xml version="1.0" encoding="utf-8"?>
<!-- Generator: Adobe Illustrator 27.6.1, SVG Export Plug-In . SVG Version: 6.00 Build 0)  -->
<svg version="1.1" id="Layer_1" xmlns="http://www.w3.org/2000/svg" xmlns:xlink="http://www.w3.org/1999/xlink" x="0px" y="0px"
	 viewBox="0 0 1060 600" style="enable-background:new 0 0 1060 600;" xml:space="preserve">
<style type="text/css">
	.st0{fill:#002D72;}
	.st1{clip-path:url(#SVGID_00000068637197346242471350000001276593841755692950_);fill:#002D72;}
	.st2{clip-path:url(#SVGID_00000068637197346242471350000001276593841755692950_);fill:#044C7D;}
	.st3{clip-path:url(#SVGID_00000023959444290836736060000016465461816097264514_);fill:#002D72;}
	.st4{clip-path:url(#SVGID_00000016058284810114567800000012321581485870483880_);}
	.st5{clip-path:url(#SVGID_00000037671555901116310050000006925020234080413585_);}
	.st6{display:none;fill:#043673;}
	.st7{fill:#FFFFFF;}
	.st8{clip-path:url(#SVGID_00000006690355589021938850000007500376019769400207_);fill:#FFFFFF;}
	.st9{clip-path:url(#SVGID_00000063594499593738711570000002766895086024106915_);fill:#FFFFFF;}
	.st10{clip-path:url(#SVGID_00000135678615855244138150000017834545028844979124_);fill:#002D72;}
	.st11{clip-path:url(#SVGID_00000135678615855244138150000017834545028844979124_);fill:#044C7D;}
	.st12{clip-path:url(#SVGID_00000149361179798971112070000004872407277246845589_);fill:#002D72;}
	.st13{clip-path:url(#SVGID_00000003089857614477937050000003419295804874660229_);}
	.st14{clip-path:url(#SVGID_00000032643356518577113730000013035310095147575989_);}
	.st15{clip-path:url(#SVGID_00000093862095467934606170000000441614809458133380_);fill:#FFFFFF;}
	.st16{clip-path:url(#SVGID_00000039847692407203284600000017279226445677718666_);fill:#FFFFFF;}
</style>
<g>
	<g>
		<path d="M252.7,474.3c0-3.7-0.1-10.6-1.1-12.4c-0.4-0.7-1.5-1.1-3-1.3l-1.5-0.1c-0.4-0.4-0.2-1.2,0.1-1.4c2.3,0.1,4.5,0.2,6.8,0.2
			c2.5,0,4.1-0.1,6.3-0.2c0.5,0.3,0.4,1.1,0.1,1.4l-1.4,0.1c-1.5,0.1-2.6,0.7-3,1.4c-0.8,2-0.8,8.9-0.8,12.2v6.8
			c0,5.2-0.8,10.7-4.2,14.3c-2.6,2.8-7,4.4-11.5,4.4c-4.1,0-8.3-0.8-11.2-3.3c-3.2-2.6-4.7-7-4.7-14.2v-14.2c0-6.2-0.1-7.3-3.6-7.6
			l-1.5-0.1c-0.4-0.2-0.2-1.3,0.1-1.4c3,0.1,5,0.2,7.4,0.2c2.5,0,4.5-0.1,7.4-0.2c0.4,0.2,0.5,1.2,0.1,1.4l-1.4,0.1
			c-3.5,0.3-3.6,1.3-3.6,7.6v13c0,9.7,3,16,12.2,16c8.7,0,12-6.8,12-16V474.3z"/>
		<path d="M331.2,488.6c0,1.8,0,8.9,0.2,10.5c-0.1,0.4-0.5,0.7-1.1,0.7c-0.7-1-2.5-3.1-7.7-9.1l-13.9-15.9c-1.6-1.9-5.7-6.8-7-8.1
			h-0.1c-0.2,0.7-0.3,2.1-0.3,3.9v13.1c0,2.8,0.1,10.6,1.1,12.4c0.4,0.7,1.6,1,3.1,1.1l1.9,0.2c0.4,0.5,0.3,1.2-0.1,1.5
			c-2.7-0.1-4.8-0.2-7-0.2c-2.5,0-4.1,0.1-6.2,0.2c-0.4-0.3-0.5-1.1-0.1-1.5l1.6-0.2c1.4-0.2,2.3-0.5,2.6-1.2
			c0.8-2.1,0.8-9.5,0.8-12.4v-17.4c0-1.7-0.1-2.9-1.3-4.3c-0.8-0.8-2.3-1.3-3.7-1.4l-1-0.1c-0.4-0.4-0.4-1.3,0.1-1.5
			c2.5,0.2,5.7,0.2,6.8,0.2c1,0,2-0.1,2.8-0.2c1.2,3.1,8.3,11,10.3,13.2l5.8,6.6c4.1,4.6,7.1,8,9.9,10.9h0.1
			c0.2-0.3,0.2-1.3,0.2-2.5v-12.9c0-2.8-0.1-10.6-1.2-12.4c-0.4-0.6-1.3-0.9-3.7-1.2l-1-0.1c-0.4-0.4-0.4-1.3,0.1-1.5
			c2.8,0.1,4.8,0.2,7.1,0.2c2.6,0,4.1-0.1,6.2-0.2c0.5,0.3,0.5,1.1,0.1,1.5l-0.8,0.1c-1.9,0.3-3.1,0.8-3.4,1.3
			c-1,2.2-0.9,9.6-0.9,12.4V488.6z"/>
		<path d="M375.9,468.3c0-6.4-0.1-7.4-3.7-7.7l-1.5-0.1c-0.4-0.2-0.2-1.3,0.1-1.5c3,0.1,5,0.2,7.6,0.2c2.4,0,4.4-0.1,7.4-0.2
			c0.4,0.2,0.5,1.3,0.1,1.5l-1.5,0.1c-3.5,0.3-3.7,1.3-3.7,7.7v21.4c0,6.4,0.1,7.2,3.7,7.6l1.5,0.2c0.4,0.2,0.2,1.3-0.1,1.5
			c-3-0.1-5-0.2-7.4-0.2c-2.5,0-4.6,0.1-7.6,0.2c-0.4-0.2-0.5-1.1-0.1-1.5l1.5-0.2c3.5-0.4,3.7-1.3,3.7-7.6V468.3z"/>
		<path d="M424.6,465.6c-1.4-3.4-2.3-4.6-4.9-4.9l-1.1-0.1c-0.4-0.4-0.4-1.2,0.1-1.5c1.7,0.1,3.7,0.2,6.2,0.2c2.6,0,4.7-0.1,7.3-0.2
			c0.4,0.2,0.5,1.1,0.1,1.5l-0.9,0.1c-2.3,0.3-2.8,0.7-2.8,1.1c0.1,0.6,1.1,3.9,3,8.4c2.8,7,5.5,13.9,8.5,20.7
			c1.9-4,4.4-10.1,5.8-13.3c1.7-4.1,4.6-10.9,5.6-13.5c0.5-1.3,0.5-1.9,0.5-2.3c0-0.4-0.6-0.9-2.7-1.1l-1.1-0.1
			c-0.4-0.4-0.3-1.3,0.1-1.5c1.7,0.1,4,0.2,6.2,0.2c2,0,3.8-0.1,5.8-0.2c0.4,0.2,0.4,1.2,0.1,1.5l-1.8,0.1c-1.4,0.1-2.3,0.8-3.1,2.1
			c-1.7,2.8-4,7.7-6.7,13.8l-3.2,7.4c-2.4,5.5-5.2,12.5-6.2,15.7c-0.2,0.1-0.4,0.2-0.7,0.2c-0.3,0-0.6-0.1-0.9-0.2
			c-0.7-2.5-1.7-5.5-2.8-8L424.6,465.6z"/>
		<path d="M496.9,468.2c0-6.3-0.1-7.2-3.7-7.6l-1-0.1c-0.4-0.2-0.2-1.3,0.1-1.5c2.6,0.1,4.6,0.2,7.1,0.2h11.3c3.8,0,7.4,0,8.1-0.2
			c0.4,1,0.7,5.3,1,8c-0.2,0.4-1.2,0.5-1.5,0.1c-0.9-2.8-1.4-4.9-4.6-5.7c-1.3-0.3-3.2-0.4-5.8-0.4h-4.3c-1.8,0-1.8,0.1-1.8,2.4v12
			c0,1.7,0.2,1.7,2,1.7h3.5c2.5,0,4.4-0.1,5.1-0.4c0.7-0.2,1.1-0.6,1.4-2.1l0.5-2.5c0.3-0.4,1.3-0.4,1.6,0.1c0,1.4-0.2,3.8-0.2,6.1
			c0,2.2,0.2,4.5,0.2,5.8c-0.2,0.4-1.3,0.4-1.6,0.1l-0.6-2.3c-0.2-1.1-0.6-2-1.9-2.3c-0.8-0.2-2.3-0.3-4.6-0.3h-3.5
			c-1.8,0-2,0.1-2,1.6v8.5c0,3.2,0.2,5.2,1.1,6.2c0.7,0.7,2,1.4,7.3,1.4c4.6,0,6.4-0.2,7.7-0.9c1.1-0.6,2.7-2.7,4.3-5.8
			c0.4-0.3,1.3-0.1,1.5,0.4c-0.4,2.1-1.9,6.7-2.7,8.3c-5.4-0.1-10.7-0.2-16.1-0.2h-5.4c-2.6,0-4.6,0.1-8.2,0.2
			c-0.4-0.2-0.5-1.1-0.1-1.5l2-0.2c3.4-0.3,3.7-1.2,3.7-7.5V468.2z"/>
		<path d="M562,468.3c0-5.7-0.2-6.7-2.6-7l-1.9-0.2c-0.4-0.3-0.4-1.3,0.1-1.5c3.4-0.3,7.5-0.5,13.4-0.5c3.7,0,7.3,0.3,10,1.8
			c2.9,1.5,5,4.2,5,8.4c0,5.7-4.5,8.8-7.5,10c-0.3,0.4,0,1,0.3,1.4c4.8,7.7,8,12.6,12.1,16c1,0.9,2.5,1.6,4.1,1.7
			c0.3,0.1,0.4,0.6,0.1,0.8c-0.5,0.2-1.5,0.3-2.6,0.3c-5.1,0-8.2-1.5-12.4-7.6c-1.6-2.2-4-6.4-5.9-9.1c-0.9-1.3-1.9-1.9-4.3-1.9
			c-2.7,0-2.8,0.1-2.8,1.3v7.6c0,6.3,0.1,7,3.6,7.5l1.3,0.2c0.4,0.3,0.2,1.3-0.1,1.5c-2.7-0.1-4.7-0.2-7.2-0.2
			c-2.5,0-4.7,0.1-7.5,0.2c-0.4-0.2-0.5-1.1-0.1-1.5l1.5-0.2c3.5-0.4,3.6-1.2,3.6-7.5V468.3z M566.9,476.9c0,1.1,0,1.7,0.2,2
			c0.2,0.2,1.1,0.3,4.1,0.3c2.2,0,4.5-0.2,6.2-1.6c1.6-1.3,3-3.4,3-7.4c0-4.8-2.9-9.3-9.6-9.3c-3.7,0-3.9,0.2-3.9,1.9V476.9z"/>
		<path d="M634.6,499.8c-5,0-8.2-1.6-9.4-2.2c-0.7-1.3-1.5-5.6-1.6-8.4c0.3-0.4,1.2-0.5,1.4-0.2c0.9,3.1,3.4,8.9,10.3,8.9
			c5,0,7.5-3.3,7.5-6.9c0-2.6-0.5-5.6-4.9-8.4l-5.7-3.7c-3-2-6.5-5.4-6.5-10.3c0-5.7,4.5-10.3,12.3-10.3c1.9,0,4,0.4,5.6,0.8
			c0.8,0.2,1.6,0.4,2.1,0.4c0.5,1.4,1.1,4.8,1.1,7.3c-0.2,0.4-1.2,0.5-1.5,0.2c-0.8-2.9-2.4-6.8-8.2-6.8c-5.9,0-7.2,3.9-7.2,6.7
			c0,3.5,2.9,6,5.1,7.4l4.8,3c3.8,2.3,7.5,5.8,7.5,11.5C647.4,495.3,642.4,499.8,634.6,499.8"/>
		<path d="M688.2,468.3c0-6.4-0.1-7.4-3.7-7.7l-1.5-0.1c-0.4-0.2-0.2-1.3,0.1-1.5c3,0.1,5,0.2,7.6,0.2c2.4,0,4.4-0.1,7.5-0.2
			c0.4,0.2,0.5,1.3,0.1,1.5l-1.5,0.1c-3.5,0.3-3.7,1.3-3.7,7.7v21.4c0,6.4,0.1,7.2,3.7,7.6l1.5,0.2c0.4,0.2,0.2,1.3-0.1,1.5
			c-3-0.1-5-0.2-7.5-0.2c-2.5,0-4.6,0.1-7.6,0.2c-0.4-0.2-0.5-1.1-0.1-1.5l1.5-0.2c3.5-0.4,3.7-1.3,3.7-7.6V468.3z"/>
		<path d="M754.9,489.8c0,6.3,0.1,7.2,3.6,7.5l1.9,0.2c0.4,0.2,0.2,1.3-0.1,1.5c-3.4-0.1-5.5-0.2-7.9-0.2s-4.5,0.1-8.4,0.2
			c-0.4-0.2-0.5-1.2,0-1.5l2.2-0.2c3.4-0.3,3.7-1.2,3.7-7.5V463c0-1.9,0-1.9-1.8-1.9h-3.3c-2.6,0-5.9,0.1-7.4,1.5
			c-1.4,1.3-2,2.6-2.7,4.1c-0.5,0.4-1.3,0.1-1.6-0.4c1-2.7,1.9-6.6,2.3-9c0.2-0.1,1-0.2,1.1,0c0.4,1.9,2.3,1.9,5.1,1.9h24.3
			c3.2,0,3.8-0.1,4.7-1.7c0.3-0.1,1-0.1,1.1,0.2c-0.7,2.5-1.1,7.3-0.9,9.1c-0.2,0.5-1.3,0.5-1.6,0.1c-0.2-1.5-0.6-3.7-1.5-4.4
			c-1.4-1-3.7-1.5-7-1.5h-4.3c-1.8,0-1.7,0.1-1.7,2V489.8z"/>
		<path d="M823.4,489.7c0,6.4,0.4,7.4,3.6,7.6l2.3,0.2c0.4,0.4,0.2,1.3-0.1,1.5c-3.7-0.1-5.8-0.2-8.2-0.2c-2.5,0-4.7,0.1-7.9,0.2
			c-0.4-0.2-0.5-1.1-0.1-1.5l1.9-0.2c3.5-0.4,3.6-1.2,3.6-7.6v-3.1c0-3.3-0.2-4.1-1.9-7.4l-7.1-13.8c-2-4-2.9-4.3-4.8-4.6l-1.7-0.3
			c-0.4-0.4-0.3-1.3,0.1-1.5c1.9,0.1,4.1,0.2,7,0.2c2.8,0,4.9-0.1,6.4-0.2c0.5,0.2,0.5,1.1,0.2,1.5l-0.8,0.1
			c-2.1,0.3-2.5,0.6-2.5,1.1c0,0.6,1.6,4,1.9,4.6c2.2,4.4,4.4,9.2,6.8,13.3c1.9-3.2,3.8-6.7,5.6-10.2c1.7-3.1,3.9-7.2,3.9-7.9
			c0-0.4-1.1-0.8-2.5-1l-1.1-0.1c-0.4-0.4-0.4-1.3,0.1-1.5c2.2,0.1,3.9,0.2,5.8,0.2c1.9,0,3.5-0.1,5.6-0.2c0.5,0.3,0.5,1.1,0.1,1.5
			l-1.7,0.3c-3.1,0.5-4.9,4.3-7.9,9.5l-3.8,6.5c-2.7,4.6-2.8,5.1-2.8,9.7V489.7z"/>
	</g>
	<g>
		<defs>
			<rect id="SVGID_00000003093744644016754000000009455432072469485194_" x="431.5" y="86.8" width="195.1" height="210.2"/>
		</defs>
		<clipPath id="SVGID_00000083058306358390372530000015443820195232680361_">
			<use xlink:href="#SVGID_00000003093744644016754000000009455432072469485194_"  style="overflow:visible;"/>
		</clipPath>
		<path style="clip-path:url(#SVGID_00000083058306358390372530000015443820195232680361_);" d="M533.3,295.3
			c5.1-2.8,11.3-6.8,18.1-11.8v-60.8l-18.1-12V295.3z"/>
		<path style="clip-path:url(#SVGID_00000083058306358390372530000015443820195232680361_);" d="M533.3,168.7l18.1,12V150
			c-6-0.3-12-0.4-18.1-0.5V168.7z"/>
		<path style="clip-path:url(#SVGID_00000083058306358390372530000015443820195232680361_);" d="M587.5,153.2
			c-6-0.8-12-1.4-18.1-1.9v41.5l18.1,12V153.2z"/>
		<path style="clip-path:url(#SVGID_00000083058306358390372530000015443820195232680361_);" d="M569.5,234.8v33
			c6.1-6,12.2-13,18.1-21v-0.1L569.5,234.8z"/>
		<path style="clip-path:url(#SVGID_00000083058306358390372530000015443820195232680361_);" d="M587.5,246.9
			C587.5,246.9,587.5,246.8,587.5,246.9L587.5,246.9L587.5,246.9z"/>
		<path style="clip-path:url(#SVGID_00000083058306358390372530000015443820195232680361_);" d="M605.6,155.9v60.8l0.1,0
			c7.9-16.3,14.2-35.4,17.8-57.5l-0.6-0.1C617.1,158,611.3,156.9,605.6,155.9"/>
		<polygon style="clip-path:url(#SVGID_00000083058306358390372530000015443820195232680361_);" points="551.4,180.7 551.4,222.8 
			569.5,234.8 569.5,192.7 		"/>
		<path style="clip-path:url(#SVGID_00000083058306358390372530000015443820195232680361_);" d="M587.5,204.8v42l0,0
			c6.5-8.7,12.6-18.7,18-29.9v-0.1L587.5,204.8z"/>
		<path style="clip-path:url(#SVGID_00000083058306358390372530000015443820195232680361_);" d="M605.6,216.9
			C605.6,216.9,605.6,216.8,605.6,216.9v-0.1V216.9z"/>
		<path style="clip-path:url(#SVGID_00000083058306358390372530000015443820195232680361_);" d="M493.7,225.5
			c5.3-1.5,10-4.4,13.6-8.5c-2-0.7-4.3-1.4-6.9-2C498.4,219.4,496,222.9,493.7,225.5"/>
		<path style="clip-path:url(#SVGID_00000083058306358390372530000015443820195232680361_);" d="M465.1,217.1c3.6,4,8.3,7,13.6,8.5
			c-2.2-2.6-4.7-6.1-6.7-10.5C469.3,215.6,467,216.3,465.1,217.1"/>
		<path style="clip-path:url(#SVGID_00000083058306358390372530000015443820195232680361_);" d="M483.6,173.3c-2,2.2-4.3,5.2-6.2,9
			c1.9,0.3,4,0.4,6.2,0.5V173.3z"/>
		<path style="clip-path:url(#SVGID_00000083058306358390372530000015443820195232680361_);" d="M502.2,210.1c3.3,0.8,6,1.7,8.3,2.6
			c2.1-3.5,3.5-7.6,3.9-11.9h-10.5C503.7,204.2,503.1,207.3,502.2,210.1"/>
		<path style="clip-path:url(#SVGID_00000083058306358390372530000015443820195232680361_);" d="M478.7,170.9
			c-5.3,1.5-10,4.5-13.6,8.5c2,0.7,4.3,1.4,6.9,2C474,177,476.4,173.5,478.7,170.9"/>
		<path style="clip-path:url(#SVGID_00000083058306358390372530000015443820195232680361_);" d="M507.3,179.3c-3.6-4-8.3-7-13.6-8.5
			c2.2,2.6,4.7,6.1,6.7,10.5C503.1,180.8,505.4,180.1,507.3,179.3"/>
		<path style="clip-path:url(#SVGID_00000083058306358390372530000015443820195232680361_);" d="M503.9,195.6h10.5
			c-0.4-4.3-1.8-8.3-3.9-11.9c-2.3,0.9-5,1.8-8.3,2.6C503.1,189.1,503.7,192.2,503.9,195.6"/>
		<path style="clip-path:url(#SVGID_00000083058306358390372530000015443820195232680361_);" d="M488.8,223.2c2-2.2,4.3-5.2,6.2-9.1
			c-1.9-0.3-4-0.4-6.2-0.5V223.2z"/>
		<path style="clip-path:url(#SVGID_00000083058306358390372530000015443820195232680361_);" d="M483.6,200.8h-9.9
			c0.2,3,0.8,5.8,1.6,8.3c2.5-0.4,5.3-0.6,8.2-0.8V200.8z"/>
		<path style="clip-path:url(#SVGID_00000083058306358390372530000015443820195232680361_);" d="M488.8,208.4c3,0.1,5.7,0.4,8.2,0.7
			c0.8-2.5,1.4-5.3,1.6-8.3h-9.9V208.4z"/>
		<path style="clip-path:url(#SVGID_00000083058306358390372530000015443820195232680361_);" d="M495,182.3
			c-1.9-3.9-4.3-6.9-6.2-9.1v9.6C491,182.7,493.1,182.6,495,182.3"/>
		<path style="clip-path:url(#SVGID_00000083058306358390372530000015443820195232680361_);" d="M498.7,195.6
			c-0.2-3-0.8-5.8-1.6-8.3c-2.5,0.4-5.3,0.6-8.3,0.8v7.6H498.7z"/>
		<path style="clip-path:url(#SVGID_00000083058306358390372530000015443820195232680361_);" d="M477.4,214.1c1.9,3.8,4.2,6.9,6.2,9
			v-9.5C481.4,213.7,479.3,213.9,477.4,214.1"/>
		<path style="clip-path:url(#SVGID_00000083058306358390372530000015443820195232680361_);" d="M470.2,186.3
			c-3.3-0.8-6-1.7-8.3-2.6c-2.1,3.5-3.5,7.6-3.9,11.9h10.5C468.7,192.2,469.3,189.1,470.2,186.3"/>
		<path style="clip-path:url(#SVGID_00000083058306358390372530000015443820195232680361_);" d="M483.6,188
			c-2.9-0.1-5.7-0.4-8.2-0.8c-0.8,2.5-1.4,5.3-1.6,8.3h9.9V188z"/>
		<path style="clip-path:url(#SVGID_00000083058306358390372530000015443820195232680361_);" d="M468.5,200.8H458
			c0.4,4.3,1.8,8.3,3.9,11.9c2.3-0.9,5.1-1.8,8.3-2.6C469.3,207.3,468.7,204.2,468.5,200.8"/>
		<path style="clip-path:url(#SVGID_00000083058306358390372530000015443820195232680361_);" d="M434.7,159.3
			c13.3,81.9,64.5,121.9,90.1,136V149.5c-30.2,0.3-60.3,3.5-89.5,9.7L434.7,159.3z M486.2,164.6c18.5,0,33.6,15.1,33.6,33.6
			c0,18.5-15.1,33.6-33.6,33.6c-18.5,0-33.6-15.1-33.6-33.6C452.6,179.7,467.7,164.6,486.2,164.6"/>
		<path style="clip-path:url(#SVGID_00000083058306358390372530000015443820195232680361_);" d="M622.7,96.7L622.7,96.7
			c-30.3-6.5-61.6-9.9-93.7-9.9c-32.1,0-63.5,3.4-93.7,9.9l-0.1,0c-2.1,0.5-3.7,2.5-3.7,4.8l0,16.9c0,11.1,0.7,21.6,1.9,31.6
			c31.4-6.6,63.6-10,95.7-10c32.1,0,64.3,3.3,95.6,9.9c1.2-9.9,1.9-20.4,1.9-31.6l0-16.9C626.6,99.1,625,97.2,622.7,96.7
			 M601.7,138.6c-23.5-4.5-50.5-5.8-72.6-5.8h0c-22.1,0-49.1,1.4-72.6,5.8c-0.9,0.2-1.7-0.6-1.2-1.6l15.4-34.1
			c0.2-0.3,10.1-5.3,10.1-5.3c12.7-2.7,33.6-1.5,48.1,3.9h0.1c14.6-5.4,35.4-6.5,48.1-3.9c0,0,10,4.9,10.1,5.3l15.4,34.1
			C603.3,138,602.5,138.8,601.7,138.6"/>
		<path style="clip-path:url(#SVGID_00000083058306358390372530000015443820195232680361_);" d="M573.2,103.5l6.5,17.4
			c-15.1-2.1-27.7-1.1-46.2,4.9v1.6c17.5-0.7,39.6-1.6,57.5,2.2l-9.7-22.4L573.2,103.5z"/>
		<path style="clip-path:url(#SVGID_00000083058306358390372530000015443820195232680361_);" d="M478.2,120.9l6.5-17.4l-8.1,3.7
			l-9.7,22.4c17.9-3.8,40-2.9,57.5-2.2v-1.6C505.9,119.8,493.4,118.9,478.2,120.9"/>
	</g>
	<g>
		<defs>
			<rect id="SVGID_00000089547425438901682420000016936546410556552892_" x="92.8" y="330" width="872.5" height="119.2"/>
		</defs>
		<clipPath id="SVGID_00000062160252706232057160000010143576296690607288_">
			<use xlink:href="#SVGID_00000089547425438901682420000016936546410556552892_"  style="overflow:visible;"/>
		</clipPath>
		<path style="clip-path:url(#SVGID_00000062160252706232057160000010143576296690607288_);" d="M117.8,351.4
			c0-15.3-1.4-17-9.5-17.7l-3.4-0.3c-0.8-0.6-0.6-3,0.3-3.4c8,0.3,12.7,0.4,18.5,0.4c5.5,0,10.2-0.1,15.7-0.4
			c0.8,0.4,1.1,2.9,0.3,3.4l-2.1,0.3c-8.1,1.1-8.4,3-8.4,17.7v51.2c0,10.9-0.6,20.4-3.2,26.7c-4.6,11-14.3,19.9-27.2,19.9
			c-1.7,0-5.9-0.1-5.9-2.9c0-2.3,2.1-6.4,5-6.4c1.7,0,3.3,0.3,5.1,0.8c1.9,0.5,3.9,1,5.8,1c2.9,0,4.6-1.7,5.5-3.6
			c3.2-6.5,3.6-27.2,3.6-34.6V351.4z"/>
		<path style="clip-path:url(#SVGID_00000062160252706232057160000010143576296690607288_);" d="M139.3,383.8
			c0-23.3,17.5-41.1,41.4-41.1c26.9,0,40.4,19.4,40.4,39.9c0,23.5-17.9,40.6-40.4,40.6C154.9,423.3,139.3,404.8,139.3,383.8
			 M209.4,386.3c0-19.2-8.5-39.9-30.7-39.9c-12.1,0-27.8,8.3-27.8,33.7c0,17.2,8.4,39.6,31.3,39.6
			C196.2,419.7,209.4,409.2,209.4,386.3"/>
		<path style="clip-path:url(#SVGID_00000062160252706232057160000010143576296690607288_);" d="M247.5,383.8
			c-5.6,0-5.8,0.2-5.8,3.7V404c0,12.2,0.6,13.8,7.1,14.5l3.4,0.4c0.7,0.5,0.5,2.6-0.2,2.9c-6.3-0.2-10.2-0.3-14.8-0.3
			c-5,0-9,0.2-13.5,0.3c-0.7-0.3-0.9-2.2-0.2-2.9l2-0.4c6.5-1.2,6.7-2.3,6.7-14.5v-41.9c0-12.2-0.8-14.2-6.9-14.7l-3-0.2
			c-0.7-0.5-0.5-2.6,0.2-2.9c5.7,0.1,9.7,0.3,14.7,0.3c4.5,0,8.5-0.1,13.5-0.3c0.7,0.3,0.9,2.4,0.2,2.9l-2.2,0.2
			c-6.7,0.7-7,2.4-7,14.7v13.4c0,3.6,0.2,3.7,5.8,3.7h33.3c5.6,0,5.8-0.1,5.8-3.7v-13.4c0-12.2-0.2-14-7.1-14.7l-2.2-0.2
			c-0.7-0.5-0.5-2.6,0.2-2.9c5.4,0.2,9.3,0.3,14.1,0.3c4.5,0,8.5-0.1,13.7-0.3c0.7,0.3,0.9,2.4,0.2,2.9l-2.4,0.2
			c-6.7,0.7-7,2.4-7,14.7V404c0,12.2,0.2,13.7,7,14.5l2.8,0.4c0.7,0.5,0.5,2.6-0.2,2.9c-5.6-0.2-9.5-0.3-14.1-0.3
			c-4.8,0-9,0.1-14.1,0.3c-0.7-0.3-0.9-2.2-0.2-2.9l2.2-0.4c7.1-1.2,7.1-2.3,7.1-14.5v-16.4c0-3.5-0.2-3.7-5.8-3.7H247.5z"/>
		<path style="clip-path:url(#SVGID_00000062160252706232057160000010143576296690607288_);" d="M385.3,401.6c0,3.5,0,17.3,0.3,20.4
			c-0.2,0.7-0.9,1.3-2.2,1.3c-1.4-2-4.8-6-14.9-17.6l-27-30.7c-3.1-3.6-11.1-13.1-13.5-15.7h-0.2c-0.5,1.4-0.6,4.1-0.6,7.6v25.4
			c0,5.5,0.1,20.6,2.1,24.1c0.7,1.3,3,2,5.9,2.2l3.6,0.4c0.7,0.9,0.6,2.3-0.2,2.9c-5.2-0.2-9.3-0.3-13.6-0.3c-4.9,0-8,0.1-12.1,0.3
			c-0.8-0.6-0.9-2.2-0.2-2.9l3.1-0.4c2.7-0.3,4.5-1,5.1-2.3c1.6-4.2,1.5-18.4,1.5-24v-33.6c0-3.3-0.1-5.7-2.6-8.4
			c-1.6-1.6-4.4-2.4-7.2-2.8l-2-0.2c-0.7-0.7-0.7-2.4,0.2-2.9c4.9,0.3,11.1,0.3,13.1,0.3c1.9,0,3.8-0.1,5.4-0.3
			c2.3,5.9,16.1,21.3,19.9,25.6l11.3,12.7c8,9,13.7,15.5,19.2,21.1h0.2c0.5-0.6,0.5-2.4,0.5-4.9v-24.9c0-5.5-0.1-20.6-2.3-24.1
			c-0.7-1-2.6-1.7-7.2-2.3l-2-0.2c-0.8-0.7-0.7-2.6,0.2-2.9c5.4,0.2,9.3,0.3,13.7,0.3c5,0,8-0.1,12-0.3c0.9,0.6,0.9,2.2,0.2,2.9
			l-1.6,0.2c-3.7,0.6-6.1,1.5-6.5,2.4c-2,4.2-1.7,18.6-1.7,24V401.6z"/>
		<path style="clip-path:url(#SVGID_00000062160252706232057160000010143576296690607288_);" d="M416.1,423.3
			c-9.8,0-15.9-3-18.1-4.3c-1.4-2.6-2.9-10.8-3.1-16.3c0.6-0.8,2.3-1.1,2.8-0.3c1.7,5.9,6.5,17.3,20,17.3c9.8,0,14.5-6.4,14.5-13.4
			c0-5.1-1-10.8-9.5-16.3l-11.1-7.2c-5.8-3.8-12.6-10.5-12.6-20c0-11.1,8.6-20,23.7-20c3.6,0,7.8,0.7,10.8,1.5
			c1.5,0.5,3.1,0.7,4.1,0.7c1,2.8,2.1,9.3,2.1,14.2c-0.5,0.7-2.3,1-2.9,0.4c-1.5-5.6-4.6-13.2-15.8-13.2c-11.4,0-13.8,7.6-13.8,12.9
			c0,6.7,5.6,11.6,9.9,14.3l9.3,5.8c7.3,4.5,14.5,11.3,14.5,22.3C440.9,414.6,431.2,423.3,416.1,423.3"/>
		<path style="clip-path:url(#SVGID_00000062160252706232057160000010143576296690607288_);" d="M509.9,376.9
			c-6.6,0-6.9,0.3-6.9,4.4v19.4c0,14.5,0.7,16.4,8.4,17.2l4,0.4c0.8,0.5,0.6,3-0.3,3.4c-7.4-0.3-12.1-0.4-17.5-0.4
			c-5.9,0-10.6,0.3-16,0.4c-0.8-0.4-1.1-2.6-0.3-3.4l2.3-0.4c7.7-1.4,8-2.8,8-17.2v-49.6c0-14.5-1-16.8-8.1-17.4l-3.6-0.3
			c-0.8-0.5-0.6-3,0.3-3.4c6.8,0.1,11.4,0.4,17.4,0.4c5.4,0,10.1-0.1,16-0.4c0.8,0.4,1.1,2.9,0.3,3.4l-2.6,0.3
			c-8,0.8-8.3,2.9-8.3,17.4v15.9c0,4.3,0.3,4.4,6.9,4.4h39.4c6.6,0,6.9-0.1,6.9-4.4v-15.9c0-14.5-0.3-16.5-8.4-17.4l-2.6-0.3
			c-0.8-0.5-0.5-3,0.3-3.4c6.3,0.3,11,0.4,16.7,0.4c5.4,0,10.1-0.1,16.3-0.4c0.8,0.4,1.1,2.9,0.3,3.4l-2.9,0.3
			c-8,0.8-8.3,2.9-8.3,17.4v49.6c0,14.5,0.3,16.3,8.3,17.2l3.3,0.4c0.8,0.5,0.6,3-0.3,3.4c-6.6-0.3-11.3-0.4-16.7-0.4
			c-5.7,0-10.6,0.1-16.7,0.4c-0.8-0.4-1.1-2.6-0.3-3.4l2.6-0.4c8.4-1.4,8.4-2.8,8.4-17.2v-19.4c0-4.1-0.3-4.4-6.9-4.4H509.9z"/>
		<path style="clip-path:url(#SVGID_00000062160252706232057160000010143576296690607288_);" d="M578.3,383.8
			c0-23.3,17.5-41.1,41.4-41.1c26.9,0,40.4,19.4,40.4,39.9c0,23.5-17.9,40.6-40.4,40.6C593.9,423.3,578.3,404.8,578.3,383.8
			 M648.4,386.3c0-19.2-8.5-39.9-30.7-39.9c-12.1,0-27.8,8.3-27.8,33.7c0,17.2,8.4,39.6,31.3,39.6
			C635.2,419.7,648.4,409.2,648.4,386.3"/>
		<path style="clip-path:url(#SVGID_00000062160252706232057160000010143576296690607288_);" d="M681.1,404
			c0,12.2,0.2,13.7,7.7,14.5l3.1,0.3c0.7,0.6,0.5,2.6-0.2,2.9c-6.6-0.2-10.5-0.3-15.1-0.3c-4.9,0-9.1,0.1-14.2,0.3
			c-0.7-0.3-0.9-2.2-0.2-2.9l2.4-0.3c6.7-0.9,7-2.3,7-14.5V361c0-9.9-0.2-11.9-5.5-12.5l-4.2-0.5c-0.8-0.7-0.7-2.4,0.2-2.9
			c6.2-0.8,13.4-0.9,23-0.9c9.7,0,16.9,1.3,22.3,4.7c5.4,3.4,9.3,9.4,9.3,17.4c0,10.7-6.6,16.1-11.6,18.5
			c-5.1,2.4-11.3,3.5-16.1,3.5c-0.8-0.3-0.8-2.1-0.1-2.3c12.6-2.3,17.1-9.4,17.1-19.5c0-11.3-6.6-18.6-18.7-18.6
			c-6.2,0-6.3,0.5-6.3,4.2V404z"/>
		<path style="clip-path:url(#SVGID_00000062160252706232057160000010143576296690607288_);" d="M729.5,362.1
			c0-12.2-0.2-14.1-7-14.7l-2.9-0.2c-0.7-0.5-0.5-2.6,0.2-2.9c5.7,0.2,9.4,0.3,14.7,0.3c4.5,0,8.5-0.1,13.5-0.3
			c0.7,0.3,0.9,2.4,0.2,2.9l-2.2,0.2c-6.7,0.7-7,2.4-7,14.7v13.4c0,2.2,0.2,4.4,1.5,4.4c1,0,2.4-0.7,3.3-1.3
			c1.6-1.4,4.7-4.4,5.9-5.6l12.6-12.4c2.2-2.1,7.9-8,9.1-9.7c0.6-0.8,0.8-1.4,0.8-1.9c0-0.5-0.5-0.8-2-1.2l-3.1-0.7
			c-0.8-0.8-0.7-2.3,0.2-2.9c4.1,0.2,8.7,0.3,12.8,0.3s8-0.1,11.5-0.3c0.8,0.6,0.9,2.2,0.2,2.9c-3,0.2-7.6,1.4-10.8,3.3
			c-3.3,1.9-9.8,7.3-16.3,13.5l-10.5,9.9c-1.6,1.6-2.7,2.7-2.7,3.6c0,0.8,0.7,1.7,2.2,3.6c11.1,12.7,20,23.2,29.1,32.7
			c2.8,2.8,4.9,4.3,8.9,4.8l2.2,0.3c0.8,0.6,0.6,2.6-0.2,2.9c-3-0.2-6.2-0.4-11.7-0.4c-4.8,0-8.9,0.1-14.2,0.4
			c-0.8-0.2-1.2-2.2-0.5-2.9l2.7-0.5c1.6-0.2,2.8-0.6,2.8-1.2c0-0.7-0.8-1.6-1.6-2.7c-2.2-2.8-5.2-5.9-9.7-10.9l-9.3-10.5
			c-6.6-7.4-8.5-9.8-11.3-9.8c-1.7,0-2,1.5-2,5.6v15c0,12.2,0.2,13.8,6.7,14.5l3.1,0.3c0.7,0.5,0.5,2.6-0.2,2.9
			c-5.7-0.2-9.7-0.4-14.2-0.4c-4.8,0-8.7,0.1-13.5,0.4c-0.7-0.4-0.9-2.1-0.2-2.9l2.3-0.3c6.2-0.9,6.4-2.3,6.4-14.5V362.1z"/>
		<path style="clip-path:url(#SVGID_00000062160252706232057160000010143576296690607288_);" d="M809.4,362.3
			c0-12.3-0.2-14.3-7.1-14.9l-2.9-0.2c-0.7-0.5-0.5-2.6,0.2-2.9c5.8,0.2,9.8,0.4,14.7,0.4c4.7,0,8.6-0.1,14.4-0.4
			c0.7,0.4,0.9,2.4,0.2,2.9l-2.9,0.2c-6.9,0.6-7.1,2.6-7.1,14.9v41.4c0,12.3,0.2,14,7.1,14.8l2.9,0.3c0.7,0.5,0.5,2.6-0.2,2.9
			c-5.8-0.2-9.8-0.4-14.4-0.4c-4.9,0-8.4,0.1-14.2,0.4c-0.7-0.4-0.9-2.2-0.2-2.9l2.5-0.3c6.9-0.8,7.1-2.4,7.1-14.8V362.3z"/>
		<path style="clip-path:url(#SVGID_00000062160252706232057160000010143576296690607288_);" d="M910,401.6c0,3.5,0,17.3,0.4,20.4
			c-0.2,0.7-0.9,1.3-2.2,1.3c-1.4-2-4.8-6-14.9-17.6l-27-30.7c-3.1-3.6-11.1-13.1-13.5-15.7h-0.2c-0.5,1.4-0.6,4.1-0.6,7.6v25.4
			c0,5.5,0.1,20.6,2.1,24.1c0.7,1.3,3,2,5.9,2.2l3.6,0.4c0.7,0.9,0.6,2.3-0.2,2.9c-5.2-0.2-9.3-0.3-13.6-0.3c-4.9,0-8,0.1-12.1,0.3
			c-0.8-0.6-0.9-2.2-0.2-2.9l3.1-0.4c2.7-0.3,4.5-1,5.1-2.3c1.6-4.2,1.5-18.4,1.5-24v-33.6c0-3.3-0.1-5.7-2.6-8.4
			c-1.6-1.6-4.4-2.4-7.2-2.8l-2-0.2c-0.7-0.7-0.7-2.4,0.2-2.9c4.9,0.3,11,0.3,13.1,0.3c1.9,0,3.8-0.1,5.4-0.3
			c2.3,5.9,16.1,21.3,19.9,25.6l11.3,12.7c8,9,13.7,15.5,19.2,21.1h0.2c0.5-0.6,0.5-2.4,0.5-4.9v-24.9c0-5.5-0.1-20.6-2.3-24.1
			c-0.7-1-2.6-1.7-7.2-2.3l-2-0.2c-0.8-0.7-0.7-2.6,0.2-2.9c5.4,0.2,9.3,0.3,13.7,0.3c5,0,8-0.1,12-0.3c0.9,0.6,0.9,2.2,0.2,2.9
			l-1.6,0.2c-3.7,0.6-6,1.5-6.5,2.4c-2,4.2-1.7,18.6-1.7,24V401.6z"/>
		<path style="clip-path:url(#SVGID_00000062160252706232057160000010143576296690607288_);" d="M940.6,423.3
			c-9.8,0-15.9-3-18.2-4.3c-1.4-2.6-2.9-10.8-3.1-16.3c0.6-0.8,2.3-1.1,2.8-0.3c1.7,5.9,6.5,17.3,20,17.3c9.8,0,14.5-6.4,14.5-13.4
			c0-5.1-1.1-10.8-9.5-16.3l-11-7.2c-5.8-3.8-12.6-10.5-12.6-20c0-11.1,8.6-20,23.7-20c3.6,0,7.8,0.7,10.8,1.5
			c1.5,0.5,3.1,0.7,4.1,0.7c1.1,2.8,2.1,9.3,2.1,14.2c-0.5,0.7-2.3,1-2.9,0.4c-1.5-5.6-4.6-13.2-15.8-13.2
			c-11.4,0-13.8,7.6-13.8,12.9c0,6.7,5.6,11.6,9.9,14.3l9.3,5.8c7.3,4.5,14.5,11.3,14.5,22.3C965.4,414.6,955.7,423.3,940.6,423.3"
			/>
	</g>
</g>
</svg>
