<?xml version="1.0" encoding="utf-8"?>
<!-- Generator: Adobe Illustrator 27.6.1, SVG Export Plug-In . SVG Version: 6.00 Build 0)  -->
<svg version="1.1" id="Layer_1" xmlns="http://www.w3.org/2000/svg" xmlns:xlink="http://www.w3.org/1999/xlink" x="0px" y="0px"
	 viewBox="0 0 1060 600" style="enable-background:new 0 0 1060 600;" xml:space="preserve">
<style type="text/css">
	.st0{fill:#002D72;}
	.st1{clip-path:url(#SVGID_00000141452171663865530170000011609971672202410391_);fill:#002D72;}
	.st2{clip-path:url(#SVGID_00000141452171663865530170000011609971672202410391_);fill:#044C7D;}
	.st3{clip-path:url(#SVGID_00000075880382663222475540000015352404936990183300_);fill:#002D72;}
	.st4{clip-path:url(#SVGID_00000106831068074293001820000008858956019763423913_);}
	.st5{clip-path:url(#SVGID_00000064330284895083262290000009683037776134514348_);}
	.st6{display:none;fill:#043673;}
	.st7{fill:#FFFFFF;}
	.st8{clip-path:url(#SVGID_00000041293689670149002770000000190489410385077655_);fill:#FFFFFF;}
	.st9{clip-path:url(#SVGID_00000057865510745106524870000000364112594315344040_);fill:#FFFFFF;}
	.st10{clip-path:url(#SVGID_00000129921663512775340250000017212069718775483312_);fill:#002D72;}
	.st11{clip-path:url(#SVGID_00000129921663512775340250000017212069718775483312_);fill:#044C7D;}
	.st12{clip-path:url(#SVGID_00000124137528687071903270000002633397257363005869_);fill:#002D72;}
	.st13{clip-path:url(#SVGID_00000022532318875088299480000003825627387135392182_);}
	.st14{clip-path:url(#SVGID_00000127726526721193781210000003344683809233183393_);}
	.st15{clip-path:url(#SVGID_00000058566739372194260090000001534176278720041622_);fill:#FFFFFF;}
	.st16{clip-path:url(#SVGID_00000009576277091074753700000000769930035674412165_);fill:#FFFFFF;}
</style>
<rect class="st6" width="1060" height="600"/>
<g>
	<g>
		<path class="st7" d="M252.3,474.2c0-3.7-0.1-10.7-1.1-12.5c-0.4-0.7-1.5-1.2-3-1.3l-1.5-0.1c-0.4-0.4-0.2-1.2,0.1-1.5
			c2.3,0.1,4.5,0.2,6.9,0.2c2.5,0,4.2-0.1,6.3-0.2c0.5,0.3,0.4,1.1,0.1,1.5l-1.5,0.1c-1.5,0.1-2.7,0.7-3,1.5
			c-0.8,2-0.8,8.9-0.8,12.3v6.8c0,5.2-0.8,10.8-4.2,14.4c-2.6,2.8-7.1,4.4-11.5,4.4c-4.2,0-8.3-0.8-11.3-3.3
			c-3.2-2.7-4.7-7.1-4.7-14.2V468c0-6.3-0.1-7.3-3.6-7.6l-1.5-0.1c-0.4-0.2-0.2-1.3,0.1-1.5c3,0.1,5.1,0.2,7.5,0.2
			c2.5,0,4.5-0.1,7.4-0.2c0.4,0.2,0.5,1.2,0.1,1.5l-1.5,0.1c-3.5,0.3-3.6,1.3-3.6,7.6v13c0,9.7,3,16.1,12.2,16.1
			c8.8,0,12.1-6.9,12.1-16V474.2z"/>
		<path class="st7" d="M331.2,488.6c0,1.8,0,9,0.2,10.6c-0.1,0.4-0.5,0.7-1.1,0.7c-0.7-1-2.5-3.1-7.7-9.1l-14-15.9
			c-1.6-1.9-5.7-6.8-7-8.2h-0.1c-0.2,0.7-0.3,2.1-0.3,3.9v13.2c0,2.8,0.1,10.7,1.1,12.5c0.4,0.7,1.6,1,3.1,1.1l1.9,0.2
			c0.4,0.5,0.3,1.2-0.1,1.5c-2.7-0.1-4.8-0.2-7.1-0.2c-2.5,0-4.2,0.1-6.3,0.2c-0.4-0.3-0.5-1.1-0.1-1.5l1.6-0.2
			c1.4-0.2,2.4-0.5,2.7-1.2c0.8-2.2,0.8-9.5,0.8-12.4v-17.4c0-1.7-0.1-3-1.3-4.3c-0.8-0.8-2.3-1.3-3.7-1.4l-1-0.1
			c-0.4-0.4-0.4-1.3,0.1-1.5c2.5,0.2,5.7,0.2,6.8,0.2c1,0,2-0.1,2.8-0.2c1.2,3.1,8.3,11.1,10.3,13.3l5.9,6.6c4.2,4.6,7.1,8,10,10.9
			h0.1c0.2-0.3,0.2-1.3,0.2-2.5v-12.9c0-2.8-0.1-10.7-1.2-12.5c-0.4-0.6-1.3-0.9-3.7-1.2l-1-0.1c-0.4-0.4-0.4-1.3,0.1-1.5
			c2.8,0.1,4.8,0.2,7.1,0.2c2.6,0,4.2-0.1,6.2-0.2c0.5,0.3,0.5,1.1,0.1,1.5l-0.8,0.1c-1.9,0.3-3.1,0.8-3.4,1.3
			c-1,2.2-0.9,9.7-0.9,12.4V488.6z"/>
		<path class="st7" d="M376.2,468.2c0-6.4-0.1-7.4-3.7-7.7l-1.5-0.1c-0.4-0.2-0.2-1.3,0.1-1.5c3,0.1,5.1,0.2,7.6,0.2
			c2.4,0,4.5-0.1,7.5-0.2c0.4,0.2,0.5,1.3,0.1,1.5l-1.5,0.1c-3.6,0.3-3.7,1.3-3.7,7.7v21.5c0,6.4,0.1,7.2,3.7,7.7l1.5,0.2
			c0.4,0.2,0.2,1.3-0.1,1.5c-3-0.1-5.1-0.2-7.5-0.2c-2.5,0-4.6,0.1-7.6,0.2c-0.4-0.2-0.5-1.1-0.1-1.5l1.5-0.2
			c3.6-0.4,3.7-1.3,3.7-7.7V468.2z"/>
		<path class="st7" d="M425,465.4c-1.4-3.4-2.3-4.7-4.9-4.9l-1.1-0.1c-0.4-0.4-0.4-1.2,0.1-1.5c1.7,0.1,3.7,0.2,6.3,0.2
			c2.7,0,4.8-0.1,7.3-0.2c0.4,0.2,0.5,1.2,0.1,1.5l-0.9,0.1c-2.3,0.3-2.8,0.7-2.8,1.1c0.1,0.6,1.1,3.9,3,8.5
			c2.8,7,5.6,13.9,8.6,20.8c1.9-4,4.4-10.2,5.8-13.4c1.7-4.1,4.6-10.9,5.6-13.5c0.5-1.3,0.5-1.9,0.5-2.4c0-0.4-0.6-0.9-2.7-1.1
			l-1.1-0.1c-0.4-0.4-0.3-1.3,0.1-1.5c1.7,0.1,4,0.2,6.3,0.2c2,0,3.9-0.1,5.9-0.2c0.4,0.2,0.4,1.2,0.1,1.5l-1.8,0.1
			c-1.4,0.1-2.4,0.8-3.1,2.1c-1.7,2.8-4,7.7-6.8,13.9l-3.3,7.4c-2.4,5.6-5.2,12.6-6.3,15.8c-0.2,0.1-0.4,0.2-0.7,0.2
			c-0.3,0-0.6-0.1-0.9-0.2c-0.7-2.5-1.7-5.5-2.8-8L425,465.4z"/>
		<path class="st7" d="M497.7,468.1c0-6.3-0.1-7.2-3.7-7.6l-1-0.1c-0.4-0.2-0.2-1.3,0.1-1.5c2.6,0.1,4.6,0.2,7.1,0.2h11.3
			c3.9,0,7.4,0,8.1-0.2c0.4,1,0.7,5.4,1,8c-0.2,0.4-1.2,0.5-1.5,0.1c-0.9-2.8-1.4-4.9-4.6-5.7c-1.3-0.3-3.2-0.4-5.9-0.4h-4.3
			c-1.8,0-1.8,0.1-1.8,2.4v12.1c0,1.7,0.2,1.7,2,1.7h3.5c2.5,0,4.4-0.1,5.1-0.4c0.7-0.2,1.2-0.6,1.5-2.1l0.5-2.5
			c0.3-0.4,1.3-0.4,1.6,0.1c0,1.5-0.2,3.8-0.2,6.1c0,2.2,0.2,4.5,0.2,5.8c-0.2,0.4-1.3,0.4-1.6,0.1l-0.6-2.3c-0.2-1.1-0.7-2-1.9-2.3
			c-0.8-0.2-2.3-0.3-4.7-0.3h-3.5c-1.8,0-2,0.1-2,1.6v8.5c0,3.2,0.2,5.2,1.1,6.3c0.7,0.7,2,1.4,7.3,1.4c4.7,0,6.4-0.2,7.7-0.9
			c1.1-0.6,2.7-2.7,4.3-5.8c0.4-0.3,1.3-0.1,1.5,0.4c-0.4,2.1-1.9,6.7-2.7,8.4c-5.4-0.1-10.8-0.2-16.2-0.2h-5.4
			c-2.6,0-4.6,0.1-8.2,0.2c-0.4-0.2-0.5-1.1-0.1-1.5l2-0.2c3.4-0.3,3.7-1.2,3.7-7.5V468.1z"/>
		<path class="st7" d="M563.1,468.1c0-5.7-0.2-6.8-2.7-7.1l-1.9-0.2c-0.4-0.3-0.4-1.3,0.1-1.5c3.4-0.3,7.5-0.5,13.5-0.5
			c3.7,0,7.3,0.3,10.1,1.8c2.9,1.5,5,4.2,5,8.5c0,5.7-4.5,8.9-7.5,10.1c-0.3,0.4,0,1,0.3,1.5c4.8,7.8,8,12.6,12.1,16
			c1,0.9,2.5,1.6,4.2,1.7c0.3,0.1,0.4,0.6,0.1,0.8c-0.5,0.2-1.5,0.3-2.7,0.3c-5.1,0-8.2-1.5-12.5-7.6c-1.6-2.2-4-6.4-5.9-9.1
			c-0.9-1.3-1.9-1.9-4.3-1.9c-2.7,0-2.8,0.1-2.8,1.3v7.6c0,6.3,0.1,7.1,3.6,7.5l1.3,0.2c0.4,0.3,0.2,1.3-0.1,1.5
			c-2.7-0.1-4.8-0.2-7.2-0.2c-2.5,0-4.7,0.1-7.5,0.2c-0.4-0.2-0.5-1.1-0.1-1.5l1.5-0.2c3.5-0.4,3.6-1.2,3.6-7.5V468.1z M568,476.7
			c0,1.1,0,1.7,0.2,2c0.2,0.2,1.1,0.3,4.2,0.3c2.2,0,4.5-0.2,6.2-1.6c1.6-1.3,3-3.4,3-7.5c0-4.8-2.9-9.3-9.7-9.3
			c-3.7,0-3.9,0.2-3.9,1.9V476.7z"/>
		<path class="st7" d="M636,499.8c-5.1,0-8.3-1.6-9.4-2.2c-0.7-1.3-1.5-5.6-1.6-8.4c0.3-0.4,1.2-0.5,1.5-0.2c0.9,3.1,3.4,9,10.4,9
			c5.1,0,7.5-3.3,7.5-6.9c0-2.7-0.6-5.6-5-8.4l-5.7-3.7c-3-2-6.5-5.4-6.5-10.4c0-5.7,4.5-10.4,12.3-10.4c1.9,0,4,0.4,5.6,0.8
			c0.8,0.2,1.6,0.4,2.1,0.4c0.5,1.5,1.1,4.8,1.1,7.4c-0.2,0.4-1.2,0.5-1.5,0.2c-0.8-2.9-2.4-6.8-8.2-6.8c-5.9,0-7.2,3.9-7.2,6.7
			c0,3.5,2.9,6,5.1,7.4l4.8,3c3.8,2.4,7.5,5.8,7.5,11.6C648.9,495.3,643.9,499.8,636,499.8"/>
		<path class="st7" d="M689.9,468.2c0-6.4-0.1-7.4-3.7-7.7l-1.5-0.1c-0.4-0.2-0.2-1.3,0.1-1.5c3,0.1,5.1,0.2,7.6,0.2
			c2.4,0,4.5-0.1,7.5-0.2c0.4,0.2,0.5,1.3,0.1,1.5l-1.5,0.1c-3.6,0.3-3.7,1.3-3.7,7.7v21.5c0,6.4,0.1,7.2,3.7,7.7l1.5,0.2
			c0.4,0.2,0.2,1.3-0.1,1.5c-3-0.1-5.1-0.2-7.5-0.2c-2.5,0-4.6,0.1-7.6,0.2c-0.4-0.2-0.5-1.1-0.1-1.5l1.5-0.2
			c3.6-0.4,3.7-1.3,3.7-7.7V468.2z"/>
		<path class="st7" d="M756.9,489.8c0,6.3,0.1,7.2,3.6,7.5l1.9,0.2c0.4,0.2,0.2,1.3-0.1,1.5c-3.4-0.1-5.5-0.2-7.9-0.2
			c-2.4,0-4.5,0.1-8.4,0.2c-0.4-0.2-0.5-1.2,0-1.5l2.2-0.2c3.4-0.3,3.7-1.2,3.7-7.5v-27c0-1.9,0-1.9-1.8-1.9h-3.3
			c-2.6,0-5.9,0.1-7.4,1.5c-1.4,1.3-2.1,2.7-2.7,4.2c-0.5,0.4-1.3,0.1-1.6-0.4c1-2.7,1.9-6.6,2.3-9c0.2-0.1,1-0.2,1.2,0
			c0.4,1.9,2.4,1.9,5.1,1.9h24.4c3.3,0,3.8-0.1,4.7-1.7c0.3-0.1,1-0.1,1.1,0.2c-0.7,2.5-1.1,7.4-0.9,9.2c-0.2,0.5-1.3,0.5-1.6,0.1
			c-0.2-1.5-0.6-3.7-1.5-4.4c-1.4-1-3.7-1.5-7-1.5h-4.3c-1.8,0-1.7,0.1-1.7,2.1V489.8z"/>
		<path class="st7" d="M825.7,489.7c0,6.4,0.4,7.4,3.6,7.7l2.3,0.2c0.4,0.4,0.2,1.3-0.1,1.5c-3.7-0.1-5.8-0.2-8.2-0.2
			c-2.5,0-4.7,0.1-7.9,0.2c-0.4-0.2-0.5-1.1-0.1-1.5l1.9-0.2c3.5-0.4,3.6-1.2,3.6-7.7v-3.1c0-3.3-0.2-4.1-1.9-7.5l-7.1-13.9
			c-2.1-4-3-4.3-4.8-4.6l-1.7-0.3c-0.4-0.4-0.3-1.3,0.1-1.5c1.9,0.1,4.1,0.2,7,0.2c2.8,0,4.9-0.1,6.5-0.2c0.5,0.2,0.5,1.1,0.2,1.5
			l-0.8,0.1c-2.1,0.3-2.5,0.6-2.5,1.1c0,0.6,1.6,4,1.9,4.7c2.2,4.5,4.5,9.2,6.8,13.4c1.9-3.2,3.9-6.7,5.7-10.2
			c1.7-3.1,3.9-7.2,3.9-8c0-0.4-1.1-0.8-2.5-1l-1.1-0.1c-0.4-0.4-0.4-1.3,0.1-1.5c2.2,0.1,3.9,0.2,5.8,0.2c1.9,0,3.6-0.1,5.6-0.2
			c0.5,0.3,0.5,1.1,0.1,1.5l-1.7,0.3c-3.1,0.5-5,4.3-8,9.5l-3.8,6.6c-2.7,4.6-2.8,5.1-2.8,9.8V489.7z"/>
	</g>
	<g>
		<defs>
			<rect id="SVGID_00000012434834636032752630000007631954536623198120_" x="433.9" y="86.8" width="196" height="211.2"/>
		</defs>
		<clipPath id="SVGID_00000044897505695599005160000013867174986714379944_">
			<use xlink:href="#SVGID_00000012434834636032752630000007631954536623198120_"  style="overflow:visible;"/>
		</clipPath>
		<path style="clip-path:url(#SVGID_00000044897505695599005160000013867174986714379944_);fill:#FFFFFF;" d="M586.7,108.4
			c-0.2-0.3-9.5-4.9-9.5-4.9c-11.9-2.5-31.5-1.4-45.2,3.6h0c-13.7-5-33.3-6.1-45.2-3.6c0,0-9.4,4.6-9.5,4.9l-14.5,32
			c-0.5,0.9,0.3,1.7,1.1,1.5c22.1-4.2,47.4-5.5,68.1-5.5h0c20.7,0,46.1,1.3,68.1,5.5c0.8,0.2,1.6-0.6,1.1-1.5L586.7,108.4z
			 M528.5,131.4c-15.7-0.6-42.9-0.6-56.5,4.2l9.7-24.2l6.6-3.5l-7,19.9c14.2-2.7,29.9-3.7,47.2,2L528.5,131.4z M535.1,131.4v-1.5
			c17.4-5.7,33.1-4.7,47.2-2l-7-19.9l6.6,3.5l9.7,24.2C578.7,130.8,551.6,130.8,535.1,131.4"/>
		<path style="clip-path:url(#SVGID_00000044897505695599005160000013867174986714379944_);fill:#FFFFFF;" d="M621.9,96.4
			L621.9,96.4l-0.7-0.2c-29.2-6.2-59.2-9.4-89.2-9.4c-30,0-60.1,3.2-89.3,9.4l-0.3,0.1l-0.3,0.1c-4.7,1.2-8.1,5.5-8.1,10.6l0,15.9
			c0,114.7,71,161.2,92.7,172.7c1.7,0.9,3.5,1.4,5.3,1.4c1.8,0,3.6-0.5,5.3-1.4c21.7-11.5,92.7-58,92.7-172.7V107
			C629.9,102.1,626.6,97.7,621.9,96.4 M527.9,289c-24-13.2-72.1-50.8-84.6-127.7l0.6-0.1c27.4-5.8,55.7-8.8,84-9.1V289z
			 M603.8,215.3C603.8,215.3,603.8,215.4,603.8,215.3c-5.1,10.6-10.9,20-17,28.2c0,0,0,0,0,0c-5.5,7.5-11.3,14-17,19.7v-31l-17-11.3
			V278c-6.3,4.8-12.1,8.4-17,11.1v-79.4l17,11.3v-39.5l17,11.3v-38.9c5.7,0.5,11.3,1.1,17,1.8V204L603.8,215.3l0-57.2
			c5.4,0.9,10.8,1.9,16.2,3l0.6,0.1C617.2,182.1,611.2,200,603.8,215.3 M535.9,170.1v-18c5.7,0,11.3,0.2,17,0.5v28.8L535.9,170.1z
			 M623.5,122.9c0,10.4-0.6,20.3-1.8,29.6c-58.8-12.4-120.7-12.4-179.7,0c-1.1-9.3-1.8-19.2-1.8-29.7l0-15.9c0-2.2,1.5-4,3.5-4.5
			l0.1,0c28.4-6.1,57.8-9.3,88-9.3c30.2,0,59.6,3.2,87.9,9.3l0.1,0c2.1,0.4,3.7,2.3,3.7,4.5L623.5,122.9z"/>
		<polygon style="clip-path:url(#SVGID_00000044897505695599005160000013867174986714379944_);fill:#FFFFFF;" points="586.8,204 
			569.8,192.7 569.8,232.2 586.8,243.5 		"/>
		<path style="clip-path:url(#SVGID_00000044897505695599005160000013867174986714379944_);fill:#FFFFFF;" d="M491.6,228.9
			c17.1,0,31-13.9,31-31c0-17.1-13.9-31-31-31c-17.1,0-31,13.9-31,31C460.6,214.9,474.5,228.9,491.6,228.9 M497.3,224.3
			c2.4-2.6,5.2-6.4,7.4-11.3c3,0.6,5.6,1.4,7.7,2.2C508.5,219.8,503.3,223.1,497.3,224.3 M514.7,212c-2.3-0.9-5.2-1.9-8.6-2.7
			c0.9-2.9,1.5-6.1,1.7-9.6h10.9C518.3,204.3,516.9,208.4,514.7,212 M514.7,183.6c2.2,3.6,3.7,7.8,4,12.3h-10.9
			c-0.2-3.5-0.8-6.7-1.7-9.6C509.5,185.5,512.4,184.5,514.7,183.6 M512.3,180.3c-2.1,0.8-4.7,1.6-7.7,2.2c-2.2-4.9-5-8.7-7.4-11.3
			C503.3,172.6,508.5,175.8,512.3,180.3 M493.6,173.1c2.1,2.2,4.9,5.6,7.1,10.2c-2.2,0.3-4.5,0.5-7.1,0.6V173.1z M493.6,187.8
			c3.1-0.1,6-0.4,8.6-0.8c0.9,2.7,1.5,5.6,1.7,8.8h-10.3V187.8z M493.6,199.8h10.3c-0.2,3.2-0.8,6.2-1.7,8.8
			c-2.6-0.4-5.5-0.7-8.6-0.8V199.8z M493.6,211.8c2.5,0.1,4.9,0.3,7.1,0.6c-2.2,4.6-5,8-7.1,10.1V211.8z M470.9,215.3
			c2.1-0.8,4.7-1.6,7.7-2.2c2.2,4.9,5,8.7,7.4,11.3C480,223.1,474.8,219.8,470.9,215.3 M489.7,222.5c-2.1-2.2-4.9-5.6-7-10.1
			c2.2-0.3,4.5-0.5,7-0.6V222.5z M489.7,207.9c-3.1,0.1-5.9,0.4-8.5,0.8c-0.9-2.6-1.5-5.6-1.7-8.8h10.3V207.9z M489.7,195.9h-10.3
			c0.2-3.2,0.8-6.2,1.7-8.8c2.6,0.4,5.5,0.7,8.5,0.8V195.9z M489.7,183.9c-2.5-0.1-4.9-0.3-7-0.6c2.2-4.5,4.9-8,7-10.1V183.9z
			 M486,171.3c-2.4,2.6-5.3,6.4-7.4,11.3c-3-0.6-5.6-1.5-7.7-2.2C474.8,175.8,480,172.6,486,171.3 M468.6,183.6
			c2.3,0.9,5.2,1.9,8.6,2.7c-0.9,2.9-1.5,6.1-1.7,9.6h-10.9C464.9,191.4,466.3,187.2,468.6,183.6 M464.6,199.8h10.9
			c0.2,3.5,0.8,6.7,1.7,9.6c-3.5,0.8-6.3,1.7-8.6,2.7C466.3,208.4,464.9,204.3,464.6,199.8"/>
	</g>
	<g>
		<defs>
			<rect id="SVGID_00000140722739807223493480000014904532239454499759_" x="91.7" y="329.2" width="876.6" height="119.7"/>
		</defs>
		<clipPath id="SVGID_00000079443733815863235780000016493245321573560486_">
			<use xlink:href="#SVGID_00000140722739807223493480000014904532239454499759_"  style="overflow:visible;"/>
		</clipPath>
		<path style="clip-path:url(#SVGID_00000079443733815863235780000016493245321573560486_);fill:#FFFFFF;" d="M116.8,350.7
			c0-15.4-1.4-17-9.6-17.7l-3.5-0.3c-0.8-0.6-0.6-3,0.3-3.5c8,0.3,12.7,0.4,18.6,0.4c5.5,0,10.3-0.1,15.8-0.4
			c0.8,0.4,1.1,2.9,0.3,3.5l-2.1,0.3c-8.2,1.1-8.4,3-8.4,17.7v51.4c0,10.9-0.6,20.5-3.2,26.9c-4.6,11.1-14.4,20-27.3,20
			c-1.7,0-6-0.1-6-2.9c0-2.4,2.1-6.4,5-6.4c1.7,0,3.3,0.3,5.1,0.8c1.9,0.6,3.9,1,5.8,1c2.9,0,4.6-1.7,5.5-3.6
			c3.2-6.5,3.6-27.3,3.6-34.8V350.7z"/>
		<path style="clip-path:url(#SVGID_00000079443733815863235780000016493245321573560486_);fill:#FFFFFF;" d="M138.4,383.3
			c0-23.4,17.5-41.3,41.6-41.3c27,0,40.6,19.5,40.6,40.1c0,23.6-18,40.8-40.6,40.8C154,422.9,138.4,404.3,138.4,383.3 M208.8,385.8
			c0-19.3-8.5-40.1-30.9-40.1c-12.2,0-27.9,8.3-27.9,33.9c0,17.3,8.4,39.7,31.4,39.7C195.5,419.3,208.8,408.8,208.8,385.8"/>
		<path style="clip-path:url(#SVGID_00000079443733815863235780000016493245321573560486_);fill:#FFFFFF;" d="M247.1,383.3
			c-5.6,0-5.8,0.2-5.8,3.7v16.5c0,12.3,0.6,13.9,7.1,14.6l3.4,0.4c0.7,0.5,0.5,2.6-0.2,2.9c-6.3-0.2-10.3-0.4-14.8-0.4
			c-5,0-9,0.2-13.6,0.4c-0.7-0.4-0.9-2.2-0.2-2.9l2-0.4c6.5-1.2,6.8-2.3,6.8-14.6v-42.1c0-12.3-0.8-14.3-6.9-14.7l-3-0.2
			c-0.7-0.5-0.5-2.6,0.2-2.9c5.7,0.1,9.7,0.4,14.7,0.4c4.6,0,8.5-0.1,13.6-0.4c0.7,0.4,0.9,2.5,0.2,2.9l-2.2,0.2
			c-6.8,0.7-7,2.5-7,14.7v13.4c0,3.6,0.2,3.7,5.8,3.7h33.4c5.6,0,5.8-0.1,5.8-3.7v-13.4c0-12.3-0.2-14-7.1-14.7l-2.2-0.2
			c-0.7-0.5-0.5-2.6,0.2-2.9c5.4,0.2,9.4,0.4,14.1,0.4c4.6,0,8.5-0.1,13.8-0.4c0.7,0.4,0.9,2.5,0.2,2.9l-2.5,0.2
			c-6.8,0.7-7,2.5-7,14.7v42.1c0,12.3,0.2,13.8,7,14.6l2.8,0.4c0.7,0.5,0.5,2.6-0.2,2.9c-5.6-0.2-9.6-0.4-14.1-0.4
			c-4.8,0-9,0.1-14.1,0.4c-0.7-0.4-0.9-2.2-0.2-2.9l2.2-0.4c7.1-1.2,7.1-2.3,7.1-14.6v-16.5c0-3.5-0.2-3.7-5.8-3.7H247.1z"/>
		<path style="clip-path:url(#SVGID_00000079443733815863235780000016493245321573560486_);fill:#FFFFFF;" d="M385.6,401.2
			c0,3.5,0,17.4,0.3,20.4c-0.2,0.7-0.9,1.3-2.2,1.3c-1.4-2-4.8-6.1-15-17.6l-27.1-30.9c-3.2-3.6-11.1-13.2-13.6-15.8h-0.2
			c-0.5,1.4-0.6,4.1-0.6,7.6v25.5c0,5.5,0.1,20.7,2.1,24.2c0.7,1.3,3,2,6,2.2l3.6,0.4c0.7,0.9,0.6,2.3-0.2,2.9
			c-5.3-0.2-9.4-0.4-13.7-0.4c-4.9,0-8.1,0.1-12.2,0.4c-0.8-0.6-0.9-2.2-0.2-2.9l3.2-0.4c2.7-0.4,4.6-1.1,5.1-2.3
			c1.6-4.2,1.5-18.5,1.5-24.1v-33.8c0-3.3-0.1-5.7-2.6-8.4c-1.6-1.6-4.4-2.5-7.3-2.8l-2-0.2c-0.7-0.7-0.7-2.4,0.2-2.9
			c4.9,0.4,11.1,0.4,13.2,0.4c1.9,0,3.9-0.1,5.4-0.4c2.3,6,16.1,21.4,20,25.7l11.3,12.7c8.1,9,13.8,15.5,19.3,21.2h0.2
			c0.5-0.6,0.5-2.5,0.5-4.9v-25c0-5.5-0.1-20.7-2.3-24.2c-0.7-1.1-2.6-1.8-7.2-2.3l-2-0.2c-0.8-0.7-0.7-2.6,0.2-2.9
			c5.4,0.2,9.4,0.4,13.8,0.4c5,0,8.1-0.1,12-0.4c0.9,0.6,0.9,2.2,0.2,2.9l-1.6,0.2c-3.7,0.6-6.1,1.5-6.5,2.5
			c-2,4.2-1.7,18.7-1.7,24.1V401.2z"/>
		<path style="clip-path:url(#SVGID_00000079443733815863235780000016493245321573560486_);fill:#FFFFFF;" d="M416.5,422.9
			c-9.8,0-16-3-18.2-4.3c-1.4-2.6-2.9-10.9-3.2-16.4c0.6-0.8,2.3-1.1,2.8-0.4c1.7,6,6.5,17.4,20.1,17.4c9.8,0,14.6-6.4,14.6-13.4
			c0-5.1-1-10.9-9.6-16.4l-11.1-7.3c-5.8-3.9-12.6-10.5-12.6-20.1c0-11.1,8.7-20.1,23.8-20.1c3.6,0,7.8,0.7,10.9,1.5
			c1.5,0.5,3.1,0.7,4.1,0.7c1.1,2.8,2.1,9.4,2.1,14.3c-0.5,0.7-2.3,1.1-2.9,0.4c-1.5-5.6-4.7-13.2-15.9-13.2
			c-11.5,0-13.9,7.6-13.9,13c0,6.8,5.6,11.7,9.9,14.4l9.4,5.8c7.4,4.6,14.6,11.3,14.6,22.4C441.4,414.2,431.7,422.9,416.5,422.9"/>
		<path style="clip-path:url(#SVGID_00000079443733815863235780000016493245321573560486_);fill:#FFFFFF;" d="M510.8,376.3
			c-6.6,0-6.9,0.3-6.9,4.4v19.5c0,14.5,0.7,16.5,8.4,17.3l4,0.4c0.8,0.6,0.6,3-0.3,3.4c-7.5-0.3-12.2-0.4-17.6-0.4
			c-6,0-10.7,0.3-16.1,0.4c-0.8-0.4-1.1-2.6-0.3-3.4l2.4-0.4c7.8-1.4,8-2.8,8-17.3v-49.9c0-14.5-1-16.9-8.2-17.5l-3.6-0.3
			c-0.8-0.6-0.6-3,0.3-3.5c6.8,0.1,11.5,0.4,17.5,0.4c5.4,0,10.1-0.1,16.1-0.4c0.8,0.4,1.1,2.9,0.3,3.5l-2.6,0.3
			c-8,0.8-8.3,2.9-8.3,17.5v15.9c0,4.3,0.3,4.4,6.9,4.4h39.6c6.6,0,6.9-0.1,6.9-4.4v-15.9c0-14.5-0.3-16.6-8.5-17.5l-2.6-0.3
			c-0.8-0.6-0.6-3,0.3-3.5c6.4,0.3,11.1,0.4,16.8,0.4c5.4,0,10.1-0.1,16.4-0.4c0.8,0.4,1.1,2.9,0.3,3.5l-2.9,0.3
			c-8,0.8-8.3,2.9-8.3,17.5v49.9c0,14.5,0.3,16.3,8.3,17.3l3.3,0.4c0.8,0.6,0.6,3-0.3,3.4c-6.6-0.3-11.4-0.4-16.8-0.4
			c-5.7,0-10.7,0.1-16.8,0.4c-0.8-0.4-1.1-2.6-0.3-3.4l2.6-0.4c8.5-1.4,8.5-2.8,8.5-17.3v-19.5c0-4.2-0.3-4.4-6.9-4.4H510.8z"/>
		<path style="clip-path:url(#SVGID_00000079443733815863235780000016493245321573560486_);fill:#FFFFFF;" d="M579.4,383.3
			c0-23.4,17.5-41.3,41.6-41.3c27,0,40.6,19.5,40.6,40.1c0,23.6-18,40.8-40.6,40.8C595.1,422.9,579.4,404.3,579.4,383.3
			 M649.9,385.8c0-19.3-8.5-40.1-30.9-40.1c-12.1,0-27.9,8.3-27.9,33.9c0,17.3,8.4,39.7,31.4,39.7
			C636.6,419.3,649.9,408.8,649.9,385.8"/>
		<path style="clip-path:url(#SVGID_00000079443733815863235780000016493245321573560486_);fill:#FFFFFF;" d="M682.8,403.5
			c0,12.3,0.2,13.8,7.7,14.6l3.2,0.4c0.7,0.6,0.5,2.6-0.2,2.9c-6.7-0.2-10.5-0.4-15.2-0.4c-4.9,0-9.1,0.1-14.3,0.4
			c-0.7-0.4-0.9-2.2-0.2-2.9l2.5-0.4c6.8-0.9,7-2.3,7-14.6v-43.1c0-9.9-0.2-11.9-5.5-12.5l-4.2-0.5c-0.8-0.7-0.7-2.4,0.2-2.9
			c6.2-0.8,13.4-0.9,23.1-0.9c9.7,0,16.9,1.3,22.4,4.7c5.4,3.4,9.4,9.5,9.4,17.5c0,10.8-6.7,16.1-11.7,18.6
			c-5.1,2.5-11.3,3.5-16.1,3.5c-0.8-0.3-0.8-2.1-0.1-2.3c12.6-2.3,17.2-9.5,17.2-19.6c0-11.3-6.7-18.7-18.8-18.7
			c-6.2,0-6.3,0.5-6.3,4.2V403.5z"/>
		<path style="clip-path:url(#SVGID_00000079443733815863235780000016493245321573560486_);fill:#FFFFFF;" d="M731.4,361.4
			c0-12.3-0.2-14.1-7-14.7l-2.9-0.2c-0.7-0.5-0.5-2.6,0.2-2.9c5.7,0.2,9.5,0.4,14.7,0.4c4.6,0,8.5-0.1,13.6-0.4
			c0.7,0.4,0.9,2.5,0.2,2.9l-2.2,0.2c-6.8,0.7-7,2.4-7,14.7v13.5c0,2.2,0.2,4.4,1.5,4.4c1,0,2.4-0.7,3.3-1.3c1.6-1.4,4.7-4.4,6-5.6
			l12.6-12.5c2.2-2.1,7.9-8.1,9.1-9.7c0.6-0.8,0.8-1.4,0.8-1.9c0-0.5-0.5-0.8-2-1.2l-3.2-0.7c-0.8-0.8-0.7-2.3,0.2-2.9
			c4.1,0.2,8.8,0.4,12.9,0.4c4.1,0,8.1-0.1,11.6-0.4c0.8,0.6,0.9,2.2,0.2,2.9c-3,0.2-7.6,1.4-10.9,3.3c-3.3,1.9-9.8,7.4-16.4,13.6
			l-10.5,9.9c-1.6,1.6-2.7,2.7-2.7,3.6c0,0.8,0.7,1.8,2.2,3.6c11.1,12.7,20.1,23.3,29.2,32.8c2.8,2.8,4.9,4.3,8.9,4.8l2.3,0.4
			c0.8,0.6,0.6,2.6-0.2,2.9c-3-0.2-6.2-0.4-11.7-0.4c-4.8,0-8.9,0.1-14.3,0.4c-0.8-0.2-1.2-2.2-0.5-2.9l2.7-0.5
			c1.6-0.2,2.8-0.6,2.8-1.2c0-0.7-0.8-1.6-1.6-2.7c-2.2-2.8-5.3-6-9.7-11l-9.4-10.5c-6.7-7.5-8.5-9.8-11.3-9.8c-1.7,0-2,1.5-2,5.6
			v15.1c0,12.3,0.2,13.9,6.8,14.6l3.2,0.4c0.7,0.5,0.5,2.6-0.2,2.9c-5.7-0.2-9.7-0.4-14.3-0.4c-4.8,0-8.8,0.1-13.6,0.4
			c-0.7-0.4-0.9-2.1-0.2-2.9l2.3-0.4c6.2-0.9,6.4-2.3,6.4-14.6V361.4z"/>
		<path style="clip-path:url(#SVGID_00000079443733815863235780000016493245321573560486_);fill:#FFFFFF;" d="M811.6,361.7
			c0-12.4-0.2-14.4-7.1-15l-2.9-0.2c-0.7-0.5-0.5-2.6,0.2-2.9c5.8,0.2,9.8,0.4,14.7,0.4c4.7,0,8.7-0.1,14.5-0.4
			c0.7,0.4,0.9,2.5,0.2,2.9l-2.9,0.2c-6.9,0.6-7.1,2.6-7.1,15v41.6c0,12.4,0.2,14,7.1,14.8l2.9,0.4c0.7,0.5,0.5,2.6-0.2,2.9
			c-5.8-0.2-9.8-0.4-14.5-0.4c-4.9,0-8.4,0.1-14.3,0.4c-0.7-0.4-0.9-2.2-0.2-2.9l2.5-0.4c6.9-0.8,7.1-2.5,7.1-14.8V361.7z"/>
		<path style="clip-path:url(#SVGID_00000079443733815863235780000016493245321573560486_);fill:#FFFFFF;" d="M912.7,401.2
			c0,3.5,0,17.4,0.4,20.4c-0.2,0.7-0.9,1.3-2.2,1.3c-1.4-2-4.8-6.1-15-17.6l-27.1-30.9c-3.2-3.6-11.1-13.2-13.6-15.8H855
			c-0.5,1.4-0.6,4.1-0.6,7.6v25.5c0,5.5,0.1,20.7,2.1,24.2c0.7,1.3,3,2,6,2.2l3.6,0.4c0.7,0.9,0.6,2.3-0.2,2.9
			c-5.3-0.2-9.4-0.4-13.7-0.4c-4.9,0-8.1,0.1-12.2,0.4c-0.8-0.6-0.9-2.2-0.2-2.9l3.2-0.4c2.7-0.4,4.6-1.1,5.1-2.3
			c1.6-4.2,1.5-18.5,1.5-24.1v-33.8c0-3.3-0.1-5.7-2.6-8.4c-1.6-1.6-4.4-2.5-7.3-2.8l-2-0.2c-0.7-0.7-0.7-2.4,0.2-2.9
			c4.9,0.4,11.1,0.4,13.2,0.4c1.9,0,3.9-0.1,5.4-0.4c2.3,6,16.1,21.4,20,25.7l11.3,12.7c8.1,9,13.8,15.5,19.3,21.2h0.2
			c0.5-0.6,0.5-2.5,0.5-4.9v-25c0-5.5-0.1-20.7-2.3-24.2c-0.7-1.1-2.6-1.8-7.2-2.3l-2-0.2c-0.8-0.7-0.7-2.6,0.2-2.9
			c5.4,0.2,9.4,0.4,13.8,0.4c5,0,8.1-0.1,12-0.4c0.9,0.6,0.9,2.2,0.2,2.9l-1.6,0.2c-3.7,0.6-6.1,1.5-6.5,2.5
			c-2,4.2-1.8,18.7-1.8,24.1V401.2z"/>
		<path style="clip-path:url(#SVGID_00000079443733815863235780000016493245321573560486_);fill:#FFFFFF;" d="M943.4,422.9
			c-9.8,0-16-3-18.2-4.3c-1.4-2.6-2.9-10.9-3.2-16.4c0.6-0.8,2.4-1.1,2.8-0.4c1.8,6,6.6,17.4,20.1,17.4c9.8,0,14.6-6.4,14.6-13.4
			c0-5.1-1.1-10.9-9.6-16.4l-11.1-7.3c-5.8-3.9-12.6-10.5-12.6-20.1c0-11.1,8.6-20.1,23.8-20.1c3.6,0,7.8,0.7,10.9,1.5
			c1.5,0.5,3.1,0.7,4.1,0.7c1.1,2.8,2.1,9.4,2.1,14.3c-0.5,0.7-2.3,1.1-2.9,0.4c-1.5-5.6-4.7-13.2-15.9-13.2
			c-11.5,0-13.9,7.6-13.9,13c0,6.8,5.6,11.7,9.9,14.4l9.4,5.8c7.4,4.6,14.6,11.3,14.6,22.4C968.3,414.2,958.6,422.9,943.4,422.9"/>
	</g>
</g>
</svg>
