<?xml version="1.0" encoding="iso-8859-1"?>
<!-- Generator: Adobe Illustrator 27.0.0, SVG Export Plug-In . SVG Version: 6.00 Build 0)  -->
<svg version="1.1" id="Layer_1" xmlns="http://www.w3.org/2000/svg" xmlns:xlink="http://www.w3.org/1999/xlink" x="0px" y="0px"
	 viewBox="0 0 500 500" style="enable-background:new 0 0 500 500;" xml:space="preserve">
<g id="watermark_1_">
	<g>
		<g id="watermark" style="opacity:0.61;">
			<g>
				<g>
					<g>
						<g>
							<polygon style="fill:#FFFFFF;" points="213.765,461.172 208.204,474.017 205.268,474.017 199.726,461.172 202.938,461.172 
								206.846,470.347 210.81,461.172 							"/>
						</g>
						<g>
							<path style="fill:#FFFFFF;" d="M223.507,469.741h-7.469c0.275,1.23,1.321,1.982,2.826,1.982c1.046,0,1.798-0.312,2.477-0.954
								l1.523,1.651c-0.917,1.046-2.294,1.597-4.074,1.597c-3.413,0-5.634-2.147-5.634-5.083c0-2.954,2.257-5.083,5.267-5.083
								c2.899,0,5.138,1.945,5.138,5.12C223.562,469.191,223.526,469.503,223.507,469.741 M216.002,468.071h4.863
								c-0.202-1.248-1.138-2.055-2.422-2.055C217.139,466.016,216.204,466.805,216.002,468.071"/>
						</g>
						<g>
							<path style="fill:#FFFFFF;" d="M224.735,468.934c0-2.973,2.294-5.083,5.505-5.083c2.074,0,3.707,0.899,4.423,2.514
								l-2.22,1.193c-0.532-0.936-1.321-1.358-2.221-1.358c-1.45,0-2.587,1.009-2.587,2.734c0,1.725,1.138,2.734,2.587,2.734
								c0.899,0,1.688-0.404,2.221-1.358l2.22,1.211c-0.716,1.578-2.349,2.495-4.423,2.495
								C227.029,474.017,224.735,471.907,224.735,468.934"/>
						</g>
						<g>
							<path style="fill:#FFFFFF;" d="M242.828,473.393c-0.587,0.422-1.45,0.624-2.331,0.624c-2.33,0-3.688-1.193-3.688-3.542
								v-4.055h-1.523v-2.202h1.523v-2.404h2.863v2.404h2.459v2.202h-2.459v4.019c0,0.844,0.458,1.303,1.229,1.303
								c0.422,0,0.844-0.128,1.156-0.367L242.828,473.393z"/>
						</g>
					</g>
					<g>
						<path style="fill:#FFFFFF;" d="M262.474,463.997v2.643c-0.238-0.018-0.422-0.037-0.642-0.037
							c-1.578,0-2.624,0.862-2.624,2.753v4.661h-2.863v-9.873h2.734v1.303C259.776,464.493,260.951,463.997,262.474,463.997"/>
					</g>
					<g>
						<path style="fill:#FFFFFF;" d="M263.299,472.53l1.009-2.239c1.083,0.789,2.697,1.339,4.239,1.339
							c1.762,0,2.477-0.587,2.477-1.376c0-2.404-7.469-0.752-7.469-5.524c0-2.184,1.762-4,5.413-4c1.615,0,3.267,0.385,4.459,1.138
							l-0.918,2.257c-1.193-0.679-2.422-1.009-3.56-1.009c-1.761,0-2.44,0.66-2.44,1.468c0,2.367,7.468,0.734,7.468,5.45
							c0,2.147-1.78,3.982-5.45,3.982C266.492,474.017,264.437,473.411,263.299,472.53"/>
					</g>
					<g>
						<path style="fill:#FFFFFF;" d="M285.428,469.741h-7.469c0.275,1.23,1.321,1.982,2.826,1.982c1.046,0,1.798-0.312,2.477-0.954
							l1.523,1.651c-0.918,1.046-2.294,1.597-4.074,1.597c-3.413,0-5.634-2.147-5.634-5.083c0-2.954,2.257-5.083,5.267-5.083
							c2.9,0,5.138,1.945,5.138,5.12C285.484,469.191,285.447,469.503,285.428,469.741 M277.923,468.071h4.863
							c-0.202-1.248-1.138-2.055-2.422-2.055C279.061,466.016,278.125,466.805,277.923,468.071"/>
					</g>
					<g>
						<path style="fill:#FFFFFF;" d="M297.007,469.741h-7.469c0.275,1.23,1.321,1.982,2.826,1.982c1.046,0,1.798-0.312,2.477-0.954
							l1.523,1.651c-0.918,1.046-2.294,1.597-4.074,1.597c-3.413,0-5.634-2.147-5.634-5.083c0-2.954,2.257-5.083,5.267-5.083
							c2.899,0,5.138,1.945,5.138,5.12C297.062,469.191,297.025,469.503,297.007,469.741 M289.501,468.071h4.863
							c-0.202-1.248-1.138-2.055-2.422-2.055C290.639,466.016,289.703,466.805,289.501,468.071"/>
					</g>
					<g>
						<polygon style="fill:#FFFFFF;" points="303.208,470.145 301.831,471.503 301.831,474.017 298.969,474.017 298.969,460.401 
							301.831,460.401 301.831,468.108 306.016,464.144 309.429,464.144 305.318,468.328 309.796,474.017 306.327,474.017 						"/>
					</g>
					<g>
						<path style="fill:#FFFFFF;" d="M256.601,475.359L256.601,475.359l-2.86-2.86c-0.435,0.508-0.953,0.943-1.534,1.284
							c-0.092,0.069-0.186,0.136-0.283,0.199l3.027,3.027c0.456,0.456,1.195,0.456,1.65,0
							C257.057,476.554,257.057,475.815,256.601,475.359"/>
					</g>
					<g>
						<path style="fill:#FFFFFF;" d="M249.984,463.244c0.221-0.173,0.495-0.281,0.797-0.281c0.042,0,0.083,0.002,0.124,0.006
							c-0.214-0.156-0.478-0.249-0.764-0.249c-0.395,0-0.744,0.18-0.981,0.458c-0.051,0-0.1,0.006-0.151,0.008
							c0.039-0.077,0.064-0.162,0.064-0.255c0-0.234-0.143-0.434-0.346-0.519c0.087,0.126,0.138,0.279,0.138,0.445
							c0,0.122-0.031,0.237-0.081,0.341c-2.811,0.201-5.03,2.539-5.03,5.4c0,2.993,2.426,5.42,5.42,5.42
							c2.993,0,5.42-2.426,5.42-5.42C254.595,465.879,252.593,463.635,249.984,463.244 M247.983,464.656
							c0.435,0,0.844,0.112,1.199,0.309c0.374-0.245,0.82-0.387,1.299-0.387c0.711,0,1.348,0.312,1.784,0.806
							c-0.435-0.379-1.004-0.61-1.627-0.61c-0.449,0-0.87,0.12-1.234,0.329c-0.079,0.046-0.156,0.096-0.229,0.15
							c-0.065-0.048-0.133-0.093-0.204-0.134c-0.369-0.219-0.8-0.344-1.26-0.344c-0.3,0-0.588,0.054-0.854,0.152
							C247.196,464.754,247.578,464.656,247.983,464.656 M251.772,469.098c0.115,0.305,0.181,0.634,0.181,0.979
							c0,1.534-1.244,2.777-2.778,2.777c-1.534,0-2.777-1.243-2.777-2.777c0-0.345,0.066-0.674,0.181-0.979
							c-0.62-0.382-1.035-1.064-1.035-1.846c0-1.197,0.971-2.168,2.168-2.168c0.565,0,1.078,0.218,1.463,0.572
							c0.386-0.354,0.899-0.572,1.464-0.572c1.197,0,2.168,0.971,2.168,2.168C252.807,468.034,252.392,468.716,251.772,469.098"/>
					</g>
					<g>
						<path style="fill:#FFFFFF;" d="M251.666,467.061c0,0.497-0.404,0.901-0.901,0.901c-0.497,0-0.901-0.404-0.901-0.901
							s0.404-0.901,0.901-0.901c0.101,0,0.197,0.017,0.287,0.047c-0.03,0.062-0.045,0.132-0.045,0.204
							c0,0.273,0.221,0.494,0.494,0.494c0.05,0,0.099-0.008,0.146-0.022C251.66,466.941,251.666,467,251.666,467.061"/>
					</g>
					<g>
						<path style="fill:#FFFFFF;" d="M248.255,467.061c0,0.376-0.305,0.681-0.681,0.681c-0.376,0-0.681-0.305-0.681-0.681
							s0.305-0.681,0.681-0.681c0.076,0,0.149,0.013,0.217,0.035c-0.023,0.047-0.034,0.1-0.034,0.155
							c0,0.206,0.167,0.374,0.374,0.374c0.038,0,0.075-0.006,0.11-0.017C248.25,466.97,248.255,467.015,248.255,467.061"/>
					</g>
					<g>
						<g>
							<g>
								<rect x="242.908" y="467.83" style="fill:#FFFFFF;" width="0.616" height="0.616"/>
							</g>
							<g>
								<rect x="254.827" y="467.83" style="fill:#FFFFFF;" width="0.616" height="0.616"/>
							</g>
							<g>
								<path style="fill:#FFFFFF;" d="M255.205,468.082h-0.14c0-3.248-2.642-5.89-5.89-5.89c-3.248,0-5.89,2.642-5.89,5.89h-0.14
									c0-1.611,0.627-3.125,1.766-4.264c1.139-1.139,2.653-1.766,4.264-1.766c1.611,0,3.125,0.627,4.264,1.766
									C254.578,464.957,255.205,466.471,255.205,468.082"/>
							</g>
						</g>
						<g>
							<rect x="248.868" y="461.814" style="fill:#FFFFFF;" width="0.616" height="0.616"/>
						</g>
						<g>
							<rect x="244.95" y="462.052" style="fill:#FFFFFF;" width="8.45" height="0.14"/>
						</g>
						<g>
							<path style="fill:#FFFFFF;" d="M245.174,462.15c0,0.108-0.088,0.196-0.196,0.196c-0.108,0-0.196-0.088-0.196-0.196
								c0-0.108,0.088-0.196,0.196-0.196C245.086,461.954,245.174,462.042,245.174,462.15"/>
						</g>
						<g>
							<path style="fill:#FFFFFF;" d="M253.596,462.15c0,0.108-0.088,0.196-0.196,0.196c-0.108,0-0.196-0.088-0.196-0.196
								c0-0.108,0.088-0.196,0.196-0.196C253.509,461.954,253.596,462.042,253.596,462.15"/>
						</g>
					</g>
				</g>
				<g>
					<path style="fill:#FFFFFF;" d="M314.356,473.409c0,1.559-2.364,1.559-2.364,0C311.993,471.851,314.356,471.851,314.356,473.409
						z"/>
				</g>
				<g>
					<g>
						<g>
							<path style="fill:#FFFFFF;" d="M161.739,466.549l1.772,6.088l1.855-6.088h2.215l-2.823,8.14h-2.33l-0.837-2.396l-0.722-2.708
								l-0.722,2.708l-0.837,2.396h-2.33l-2.839-8.14h2.231l1.855,6.088l1.756-6.088H161.739z"/>
						</g>
						<g>
							<path style="fill:#FFFFFF;" d="M176.713,466.549l1.772,6.088l1.855-6.088h2.215l-2.823,8.14h-2.33l-0.837-2.396l-0.722-2.708
								l-0.722,2.708l-0.837,2.396h-2.33l-2.839-8.14h2.231l1.855,6.088l1.756-6.088H176.713z"/>
						</g>
						<g>
							<path style="fill:#FFFFFF;" d="M191.687,466.549l1.772,6.088l1.855-6.088h2.215l-2.823,8.14h-2.33l-0.837-2.396l-0.722-2.708
								l-0.722,2.708l-0.837,2.396h-2.33l-2.839-8.14h2.231l1.855,6.088l1.756-6.088H191.687z"/>
						</g>
					</g>
					<g>
						<path style="fill:#FFFFFF;" d="M200.908,473.52c0,1.559-2.364,1.559-2.364,0C198.545,471.962,200.908,471.962,200.908,473.52z
							"/>
					</g>
					<g>
						<path style="fill:#FFFFFF;" d="M322.71,473.409c-0.935,0.919-1.919,1.28-3.117,1.28c-2.346,0-4.3-1.411-4.3-4.282
							s1.953-4.284,4.3-4.284c1.149,0,2.035,0.329,2.921,1.199l-1.264,1.329c-0.476-0.428-1.066-0.64-1.623-0.64
							c-1.346,0-2.33,0.985-2.33,2.396c0,1.542,1.05,2.362,2.297,2.362c0.64,0,1.28-0.18,1.772-0.672L322.71,473.409z"/>
					</g>
					<g>
						<path style="fill:#FFFFFF;" d="M331.805,470.472c0,2.33-1.591,4.217-4.217,4.217c-2.626,0-4.201-1.887-4.201-4.217
							c0-2.314,1.609-4.217,4.185-4.217C330.149,466.255,331.805,468.158,331.805,470.472z M325.389,470.472
							c0,1.231,0.739,2.38,2.199,2.38c1.46,0,2.199-1.149,2.199-2.38c0-1.215-0.854-2.396-2.199-2.396
							C326.144,468.077,325.389,469.258,325.389,470.472z"/>
					</g>
					<g>
						<path style="fill:#FFFFFF;" d="M338.572,474.689v-4.332c0-1.068-0.559-2.035-1.658-2.035c-1.082,0-1.722,0.967-1.722,2.035
							v4.332h-2.003v-8.107h1.855l0.148,0.985c0.426-0.82,1.362-1.116,2.133-1.116c0.969,0,1.937,0.394,2.396,1.51
							c0.723-1.149,1.658-1.478,2.708-1.478c2.297,0,3.43,1.412,3.43,3.84v4.365h-2.003v-4.365c0-1.066-0.442-1.97-1.526-1.97
							c-1.082,0-1.756,0.935-1.756,2.003v4.332H338.572z"/>
					</g>
				</g>
			</g>
		</g>
		<g style="opacity:0.61;">
			<g>
				<g>
					<path style="fill:#FFFFFF;" d="M345.988,431.299c-0.006-1.224-0.959-2.121-2.189-2.14c-0.924-0.014-0.832,0.12-0.834-0.867
						c-0.003-1.097-0.007-2.194,0.003-3.292c0.003-0.379-0.112-0.691-0.362-0.976c-2.342-2.668-4.678-5.342-7.019-8.011
						c-0.12-0.137-0.275-0.244-0.414-0.366c-6.214,0-12.427,0-18.641,0c-0.794,0.293-1.14,0.868-1.138,1.709
						c0.01,3.748,0.004,7.496,0.004,11.243c0,0.556-0.003,0.589-0.55,0.551c-1.497-0.102-2.516,0.986-2.497,2.492
						c0.044,3.476,0.013,6.953,0.014,10.429c0.001,1.58,0.867,2.443,2.45,2.449c0.582,0.002,0.582,0.002,0.582,0.6
						c0,2.219-0.001,4.438,0.001,6.657c0.001,1.192,0.58,1.771,1.768,1.771c8.013,0.001,16.027,0.001,24.04,0
						c1.168,0,1.755-0.583,1.757-1.745c0.002-2.256,0-4.512,0.001-6.768c0-0.512,0.002-0.511,0.52-0.515
						c0.271-0.002,0.541,0.008,0.809-0.058c0.996-0.246,1.69-1.044,1.694-2.069C346.003,438.696,346.005,434.997,345.988,431.299z
						 M317.537,417.162c5.337,0,10.674,0,16.01,0c0.548,0,0.554,0.007,0.554,0.561c0.001,2.243-0.001,4.486,0.001,6.73
						c0.001,0.811,0.249,1.059,1.06,1.059c1.91,0.001,3.821,0,5.731,0.001c0.458,0,0.479,0.021,0.481,0.483
						c0.003,0.887,0.002,1.775,0,2.662c-0.001,0.477-0.024,0.498-0.504,0.499c-3.895,0.001-7.79,0-11.684,0
						c-3.882,0-7.765,0-11.647,0c-0.55,0-0.552-0.001-0.552-0.561c-0.001-3.624-0.001-7.247,0-10.871
						C316.987,417.166,316.991,417.162,317.537,417.162z M340.822,451.579c-3.883,0.001-7.766,0-11.65,0c-3.871,0-7.742,0-11.613,0
						c-0.572,0-0.574-0.002-0.574-0.579c-0.001-1.997-0.001-3.994,0.001-5.991c0-0.464,0.023-0.486,0.478-0.487
						c7.803-0.001,15.607-0.001,23.41,0c0.478,0,0.499,0.02,0.499,0.503c0.002,1.997,0.001,3.994,0,5.991
						C341.375,451.574,341.37,451.579,340.822,451.579z"/>
				</g>
				<g>
					<g>
						<rect x="327.418" y="417.053" style="fill:#FFFFFF;" width="1.757" height="1.054"/>
					</g>
					<g>
						<rect x="325.662" y="418.107" style="fill:#FFFFFF;" width="1.757" height="1.054"/>
					</g>
					<g>
						<rect x="327.418" y="419.161" style="fill:#FFFFFF;" width="1.757" height="1.054"/>
					</g>
					<g>
						<rect x="325.662" y="420.215" style="fill:#FFFFFF;" width="1.757" height="1.054"/>
					</g>
					<g>
						<rect x="327.418" y="421.269" style="fill:#FFFFFF;" width="1.757" height="1.054"/>
					</g>
					<g>
						<rect x="325.662" y="422.323" style="fill:#FFFFFF;" width="1.757" height="1.054"/>
					</g>
					<g>
						<rect x="327.418" y="423.378" style="fill:#FFFFFF;" width="1.757" height="1.054"/>
					</g>
					<g>
						<rect x="325.662" y="424.432" style="fill:#FFFFFF;" width="1.757" height="1.054"/>
					</g>
					<g>
						<rect x="327.418" y="425.486" style="fill:#FFFFFF;" width="1.757" height="1.054"/>
					</g>
					<g>
						<rect x="325.662" y="426.54" style="fill:#FFFFFF;" width="1.757" height="1.054"/>
					</g>
					<g>
						<rect x="327.418" y="427.594" style="fill:#FFFFFF;" width="1.757" height="1.054"/>
					</g>
					<g>
						<rect x="325.662" y="428.648" style="fill:#FFFFFF;" width="1.757" height="1.054"/>
					</g>
				</g>
			</g>
			<g>
				<path style="fill:#FFFFFF;" d="M187.637,431.299c-0.006-1.224-0.959-2.121-2.189-2.14c-0.924-0.014-0.832,0.12-0.834-0.867
					c-0.003-1.097-0.007-2.194,0.003-3.292c0.003-0.379-0.112-0.691-0.362-0.976c-2.342-2.668-4.678-5.342-7.019-8.011
					c-0.12-0.137-0.275-0.244-0.414-0.366c-6.214,0-12.427,0-18.641,0c-0.794,0.293-1.14,0.868-1.138,1.709
					c0.01,3.748,0.004,7.496,0.004,11.243c0,0.556-0.003,0.589-0.55,0.551c-1.497-0.102-2.516,0.986-2.497,2.492
					c0.044,3.476,0.013,6.953,0.014,10.429c0.001,1.58,0.867,2.443,2.45,2.449c0.582,0.002,0.582,0.002,0.582,0.6
					c0,2.219-0.001,4.438,0.001,6.657c0.001,1.192,0.58,1.771,1.768,1.771c8.013,0.001,16.027,0.001,24.04,0
					c1.168,0,1.755-0.583,1.757-1.745c0.002-2.256,0-4.512,0.001-6.768c0-0.512,0.002-0.511,0.52-0.515
					c0.271-0.002,0.541,0.008,0.809-0.058c0.996-0.246,1.69-1.044,1.694-2.069C187.652,438.696,187.655,434.997,187.637,431.299z
					 M159.187,417.162c5.337,0,10.674,0,16.01,0c0.548,0,0.554,0.007,0.554,0.561c0.001,2.243-0.001,4.486,0.001,6.73
					c0.001,0.811,0.249,1.059,1.06,1.059c1.91,0.001,3.821,0,5.731,0.001c0.458,0,0.479,0.021,0.481,0.483
					c0.003,0.887,0.002,1.775,0,2.662c-0.001,0.477-0.024,0.498-0.504,0.499c-3.895,0.001-7.79,0-11.684,0
					c-3.882,0-7.765,0-11.647,0c-0.55,0-0.552-0.001-0.552-0.561c-0.001-3.624-0.001-7.247,0-10.871
					C158.636,417.166,158.64,417.162,159.187,417.162z M182.472,451.579c-3.883,0.001-7.766,0-11.65,0c-3.871,0-7.742,0-11.613,0
					c-0.572,0-0.574-0.002-0.574-0.579c-0.001-1.997-0.001-3.994,0.001-5.991c0-0.464,0.023-0.486,0.478-0.487
					c7.803-0.001,15.607-0.001,23.41,0c0.478,0,0.499,0.02,0.499,0.503c0.002,1.997,0.001,3.994,0,5.991
					C183.024,451.574,183.019,451.579,182.472,451.579z"/>
			</g>
			<g>
				<path style="fill:#FFFFFF;" d="M159.779,440.669v-7.897h2.779c0.375,0,0.726,0.061,1.053,0.182
					c0.327,0.121,0.612,0.292,0.855,0.513c0.242,0.221,0.434,0.483,0.573,0.789c0.14,0.305,0.21,0.642,0.21,1.009
					c0,0.375-0.07,0.715-0.21,1.02c-0.14,0.305-0.331,0.568-0.573,0.789c-0.243,0.221-0.528,0.392-0.855,0.513
					c-0.327,0.121-0.678,0.182-1.053,0.182h-1.29v2.901H159.779z M162.58,436.356c0.39,0,0.684-0.111,0.882-0.331
					c0.199-0.22,0.298-0.474,0.298-0.761c0-0.14-0.024-0.276-0.072-0.408c-0.048-0.132-0.121-0.248-0.221-0.347
					c-0.099-0.099-0.223-0.178-0.37-0.237c-0.147-0.059-0.32-0.089-0.518-0.089h-1.312v2.173H162.58z"/>
				<path style="fill:#FFFFFF;" d="M166.308,432.771h1.731l3.177,5.294h0.088l-0.088-1.522v-3.772h1.478v7.897h-1.566l-3.353-5.592
					h-0.088l0.088,1.522v4.07h-1.467V432.771z"/>
				<path style="fill:#FFFFFF;" d="M177.922,436.334h3.872c0.022,0.089,0.04,0.195,0.055,0.32c0.014,0.125,0.022,0.25,0.022,0.375
					c0,0.507-0.077,0.985-0.231,1.434c-0.154,0.449-0.397,0.849-0.728,1.202c-0.353,0.375-0.776,0.666-1.268,0.871
					c-0.493,0.206-1.055,0.309-1.688,0.309c-0.574,0-1.114-0.103-1.622-0.309c-0.507-0.206-0.948-0.492-1.323-0.86
					c-0.375-0.367-0.673-0.803-0.894-1.307c-0.221-0.504-0.331-1.053-0.331-1.649c0-0.595,0.11-1.145,0.331-1.649
					c0.221-0.504,0.518-0.939,0.894-1.307c0.375-0.367,0.816-0.654,1.323-0.86c0.507-0.206,1.048-0.309,1.622-0.309
					c0.64,0,1.211,0.11,1.715,0.331c0.504,0.221,0.935,0.526,1.296,0.915l-1.025,1.004c-0.258-0.272-0.544-0.48-0.861-0.623
					c-0.316-0.143-0.695-0.215-1.136-0.215c-0.361,0-0.703,0.065-1.026,0.193c-0.324,0.129-0.607,0.311-0.85,0.546
					c-0.242,0.235-0.436,0.52-0.579,0.855c-0.143,0.335-0.215,0.708-0.215,1.119c0,0.412,0.072,0.785,0.215,1.12
					c0.143,0.335,0.338,0.62,0.584,0.855c0.246,0.235,0.531,0.418,0.855,0.546c0.323,0.129,0.669,0.193,1.037,0.193
					c0.419,0,0.773-0.061,1.064-0.182c0.29-0.121,0.538-0.278,0.744-0.469c0.148-0.132,0.275-0.3,0.381-0.502
					c0.106-0.202,0.189-0.428,0.248-0.678h-2.482V436.334z"/>
			</g>
			<g>
				<path style="fill:#FFFFFF;" d="M224.019,431.299c-0.006-1.224-0.959-2.121-2.189-2.14c-0.924-0.014-0.832,0.12-0.834-0.867
					c-0.003-1.097-0.007-2.194,0.003-3.292c0.003-0.379-0.112-0.691-0.362-0.976c-2.342-2.668-4.678-5.342-7.019-8.011
					c-0.12-0.137-0.275-0.244-0.414-0.366c-6.214,0-12.427,0-18.641,0c-0.794,0.293-1.14,0.868-1.138,1.709
					c0.01,3.748,0.004,7.496,0.004,11.243c0,0.556-0.003,0.589-0.55,0.551c-1.497-0.102-2.516,0.986-2.497,2.492
					c0.044,3.476,0.013,6.953,0.014,10.429c0.001,1.58,0.867,2.443,2.45,2.449c0.582,0.002,0.582,0.002,0.582,0.6
					c0,2.219-0.001,4.438,0.001,6.657c0.001,1.192,0.58,1.771,1.768,1.771c8.013,0.001,16.027,0.001,24.04,0
					c1.168,0,1.755-0.583,1.757-1.745c0.002-2.256,0-4.512,0.001-6.768c0-0.512,0.002-0.511,0.52-0.515
					c0.271-0.002,0.541,0.008,0.809-0.058c0.997-0.246,1.69-1.044,1.694-2.069C224.034,438.696,224.036,434.997,224.019,431.299z
					 M195.568,417.162c5.337,0,10.674,0,16.01,0c0.548,0,0.554,0.007,0.554,0.561c0.001,2.243-0.001,4.486,0.001,6.73
					c0.001,0.811,0.249,1.059,1.06,1.059c1.91,0.001,3.821,0,5.731,0.001c0.458,0,0.479,0.021,0.481,0.483
					c0.003,0.887,0.002,1.775,0,2.662c-0.001,0.477-0.024,0.498-0.504,0.499c-3.895,0.001-7.79,0-11.684,0
					c-3.882,0-7.765,0-11.647,0c-0.55,0-0.552-0.001-0.552-0.561c-0.001-3.624-0.001-7.247,0-10.871
					C195.018,417.166,195.022,417.162,195.568,417.162z M218.854,451.579c-3.883,0.001-7.766,0-11.65,0c-3.871,0-7.742,0-11.613,0
					c-0.572,0-0.574-0.002-0.574-0.579c-0.001-1.997-0.001-3.994,0.001-5.991c0-0.464,0.023-0.486,0.478-0.487
					c7.803-0.001,15.607-0.001,23.41,0c0.478,0,0.499,0.02,0.499,0.503c0.002,1.997,0.001,3.994,0,5.991
					C219.406,451.574,219.401,451.579,218.854,451.579z"/>
			</g>
			<g>
				<path style="fill:#FFFFFF;" d="M205.111,432.771h1.699l2.967,7.897h-1.644l-0.651-1.886h-3.044l-0.651,1.886h-1.643
					L205.111,432.771z M206.997,437.415l-0.706-1.974l-0.287-0.96h-0.088l-0.287,0.96l-0.706,1.974H206.997z"/>
				<path style="fill:#FFFFFF;" d="M211.331,434.536c-0.125,0-0.245-0.024-0.359-0.072c-0.114-0.048-0.213-0.114-0.298-0.199
					c-0.084-0.084-0.151-0.182-0.198-0.292c-0.048-0.11-0.072-0.232-0.072-0.364s0.024-0.254,0.072-0.364
					c0.048-0.11,0.114-0.208,0.198-0.292c0.084-0.084,0.184-0.151,0.298-0.198c0.114-0.048,0.233-0.072,0.359-0.072
					c0.257,0,0.478,0.09,0.662,0.27c0.184,0.181,0.276,0.399,0.276,0.656s-0.092,0.476-0.276,0.656
					C211.809,434.446,211.589,434.536,211.331,434.536z M210.615,440.669v-5.404h1.445v5.404H210.615z"/>
			</g>
			<g>
				<path style="fill:#FFFFFF;" d="M261.044,431.299c-0.006-1.224-0.959-2.121-2.189-2.14c-0.924-0.014-0.832,0.12-0.834-0.867
					c-0.003-1.097-0.007-2.194,0.003-3.292c0.003-0.379-0.112-0.691-0.362-0.976c-2.342-2.668-4.678-5.342-7.019-8.011
					c-0.12-0.137-0.275-0.244-0.414-0.366c-6.214,0-12.427,0-18.641,0c-0.794,0.293-1.14,0.868-1.138,1.709
					c0.01,3.748,0.004,7.496,0.004,11.243c0,0.556-0.003,0.589-0.55,0.551c-1.497-0.102-2.516,0.986-2.497,2.492
					c0.044,3.476,0.013,6.953,0.014,10.429c0.001,1.58,0.867,2.443,2.45,2.449c0.582,0.002,0.582,0.002,0.582,0.6
					c0,2.219-0.001,4.438,0.001,6.657c0.001,1.192,0.58,1.771,1.768,1.771c8.013,0.001,16.027,0.001,24.04,0
					c1.168,0,1.755-0.583,1.757-1.745c0.002-2.256,0-4.512,0.001-6.768c0-0.512,0.002-0.511,0.52-0.515
					c0.271-0.002,0.541,0.008,0.809-0.058c0.996-0.246,1.69-1.044,1.694-2.069C261.059,438.696,261.061,434.997,261.044,431.299z
					 M232.593,417.162c5.337,0,10.674,0,16.01,0c0.548,0,0.554,0.007,0.554,0.561c0.001,2.243-0.001,4.486,0.001,6.73
					c0.001,0.811,0.249,1.059,1.06,1.059c1.91,0.001,3.821,0,5.731,0.001c0.458,0,0.479,0.021,0.481,0.483
					c0.003,0.887,0.002,1.775,0,2.662c-0.001,0.477-0.024,0.498-0.504,0.499c-3.895,0.001-7.79,0-11.684,0
					c-3.882,0-7.765,0-11.647,0c-0.55,0-0.552-0.001-0.552-0.561c-0.001-3.624-0.001-7.247,0-10.871
					C232.042,417.166,232.047,417.162,232.593,417.162z M255.878,451.579c-3.883,0.001-7.766,0-11.65,0c-3.871,0-7.742,0-11.613,0
					c-0.572,0-0.574-0.002-0.574-0.579c-0.001-1.997-0.001-3.994,0.001-5.991c0-0.464,0.023-0.486,0.478-0.487
					c7.803-0.001,15.607-0.001,23.41,0c0.478,0,0.499,0.02,0.499,0.503c0.002,1.997,0.001,3.994,0,5.991
					C256.431,451.574,256.426,451.579,255.878,451.579z"/>
			</g>
			<g>
				<path style="fill:#FFFFFF;" d="M236.361,440.845c-0.338,0-0.662-0.048-0.971-0.143c-0.309-0.095-0.592-0.239-0.849-0.43
					c-0.257-0.191-0.481-0.425-0.673-0.7c-0.191-0.276-0.342-0.597-0.452-0.965l1.401-0.551c0.103,0.397,0.283,0.726,0.54,0.987
					c0.257,0.261,0.596,0.392,1.015,0.392c0.154,0,0.303-0.02,0.447-0.061c0.143-0.04,0.272-0.099,0.386-0.176
					s0.204-0.175,0.27-0.292c0.066-0.118,0.099-0.254,0.099-0.408c0-0.147-0.026-0.279-0.077-0.397
					c-0.051-0.117-0.138-0.227-0.259-0.331c-0.121-0.103-0.28-0.202-0.475-0.298c-0.195-0.095-0.435-0.195-0.722-0.298l-0.485-0.176
					c-0.213-0.073-0.429-0.173-0.645-0.298c-0.217-0.125-0.413-0.276-0.59-0.452c-0.177-0.176-0.322-0.384-0.436-0.623
					c-0.114-0.239-0.171-0.509-0.171-0.81c0-0.309,0.06-0.597,0.182-0.866c0.121-0.268,0.294-0.503,0.518-0.706
					c0.224-0.202,0.492-0.36,0.805-0.474s0.66-0.171,1.042-0.171c0.397,0,0.74,0.053,1.031,0.16
					c0.291,0.107,0.537,0.243,0.739,0.408c0.202,0.165,0.366,0.348,0.491,0.546c0.125,0.199,0.217,0.386,0.276,0.563l-1.312,0.551
					c-0.074-0.221-0.208-0.419-0.402-0.596c-0.195-0.176-0.462-0.265-0.8-0.265c-0.324,0-0.592,0.075-0.805,0.226
					c-0.213,0.151-0.32,0.348-0.32,0.59c0,0.235,0.103,0.436,0.309,0.601c0.206,0.165,0.533,0.325,0.982,0.48l0.497,0.165
					c0.316,0.111,0.605,0.237,0.866,0.381c0.261,0.143,0.485,0.314,0.673,0.513c0.187,0.199,0.331,0.425,0.43,0.678
					c0.1,0.254,0.149,0.546,0.149,0.877c0,0.412-0.083,0.767-0.248,1.064c-0.165,0.298-0.377,0.542-0.634,0.734
					c-0.258,0.191-0.548,0.335-0.872,0.43C236.986,440.797,236.67,440.845,236.361,440.845z"/>
				<path style="fill:#FFFFFF;" d="M239.516,432.771h1.61l1.633,4.754l0.287,1.015h0.088l0.309-1.015l1.699-4.754h1.61l-2.879,7.897
					h-1.566L239.516,432.771z"/>
				<path style="fill:#FFFFFF;" d="M251.097,436.334h3.871c0.022,0.089,0.04,0.195,0.055,0.32c0.015,0.125,0.023,0.25,0.023,0.375
					c0,0.507-0.078,0.985-0.232,1.434c-0.154,0.449-0.397,0.849-0.728,1.202c-0.353,0.375-0.775,0.666-1.268,0.871
					c-0.493,0.206-1.055,0.309-1.688,0.309c-0.574,0-1.114-0.103-1.621-0.309c-0.507-0.206-0.949-0.492-1.324-0.86
					c-0.375-0.367-0.673-0.803-0.894-1.307c-0.22-0.504-0.331-1.053-0.331-1.649c0-0.595,0.11-1.145,0.331-1.649
					c0.221-0.504,0.518-0.939,0.894-1.307c0.375-0.367,0.816-0.654,1.324-0.86c0.507-0.206,1.047-0.309,1.621-0.309
					c0.64,0,1.211,0.11,1.715,0.331c0.504,0.221,0.936,0.526,1.296,0.915l-1.026,1.004c-0.257-0.272-0.544-0.48-0.861-0.623
					c-0.316-0.143-0.694-0.215-1.136-0.215c-0.36,0-0.702,0.065-1.026,0.193c-0.323,0.129-0.607,0.311-0.849,0.546
					c-0.243,0.235-0.436,0.52-0.579,0.855c-0.143,0.335-0.215,0.708-0.215,1.119c0,0.412,0.072,0.785,0.215,1.12
					c0.143,0.335,0.338,0.62,0.585,0.855c0.246,0.235,0.531,0.418,0.854,0.546c0.324,0.129,0.669,0.193,1.037,0.193
					c0.419,0,0.774-0.061,1.064-0.182c0.29-0.121,0.539-0.278,0.745-0.469c0.147-0.132,0.274-0.3,0.38-0.502
					c0.107-0.202,0.189-0.428,0.248-0.678h-2.482V436.334z"/>
			</g>
			<g>
				<path style="fill:#FFFFFF;" d="M297.3,431.299c-0.006-1.224-0.959-2.121-2.189-2.14c-0.924-0.014-0.832,0.12-0.834-0.867
					c-0.003-1.097-0.007-2.194,0.003-3.292c0.003-0.379-0.112-0.691-0.362-0.976c-2.342-2.668-4.678-5.342-7.019-8.011
					c-0.12-0.137-0.275-0.244-0.414-0.366c-6.214,0-12.427,0-18.641,0c-0.794,0.293-1.14,0.868-1.138,1.709
					c0.01,3.748,0.004,7.496,0.004,11.243c0,0.556-0.003,0.589-0.55,0.551c-1.497-0.102-2.516,0.986-2.497,2.492
					c0.044,3.476,0.013,6.953,0.014,10.429c0.001,1.58,0.867,2.443,2.45,2.449c0.582,0.002,0.582,0.002,0.582,0.6
					c0,2.219-0.001,4.438,0.001,6.657c0.001,1.192,0.58,1.771,1.768,1.771c8.013,0.001,16.027,0.001,24.04,0
					c1.168,0,1.755-0.583,1.757-1.745c0.002-2.256,0-4.512,0.001-6.768c0-0.512,0.002-0.511,0.52-0.515
					c0.271-0.002,0.541,0.008,0.809-0.058c0.996-0.246,1.69-1.044,1.694-2.069C297.315,438.696,297.318,434.997,297.3,431.299z
					 M268.85,417.162c5.337,0,10.674,0,16.01,0c0.548,0,0.554,0.007,0.554,0.561c0.001,2.243-0.001,4.486,0.001,6.73
					c0.001,0.811,0.249,1.059,1.06,1.059c1.91,0.001,3.821,0,5.731,0.001c0.458,0,0.479,0.021,0.481,0.483
					c0.003,0.887,0.002,1.775,0,2.662c-0.001,0.477-0.024,0.498-0.504,0.499c-3.895,0.001-7.79,0-11.684,0
					c-3.882,0-7.765,0-11.647,0c-0.55,0-0.552-0.001-0.552-0.561c-0.001-3.624-0.001-7.247,0-10.871
					C268.299,417.166,268.303,417.162,268.85,417.162z M292.135,451.579c-3.883,0.001-7.766,0-11.65,0c-3.871,0-7.742,0-11.613,0
					c-0.572,0-0.574-0.002-0.574-0.579c-0.001-1.997-0.001-3.994,0.001-5.991c0-0.464,0.023-0.486,0.478-0.487
					c7.803-0.001,15.607-0.001,23.41,0c0.478,0,0.499,0.02,0.499,0.503c0.001,1.997,0.001,3.994,0,5.991
					C292.687,451.574,292.682,451.579,292.135,451.579z"/>
			</g>
			<g>
				<path style="fill:#FFFFFF;" d="M272.966,434.183v1.831h3.165v1.412h-3.165v1.831h3.518v1.412h-5.007v-7.897h5.007v1.412H272.966
					z"/>
				<path style="fill:#FFFFFF;" d="M277.852,440.669v-7.897h2.779c0.375,0,0.726,0.061,1.053,0.182
					c0.327,0.121,0.612,0.292,0.855,0.513c0.243,0.221,0.434,0.483,0.574,0.789c0.14,0.305,0.209,0.642,0.209,1.009
					c0,0.375-0.07,0.715-0.209,1.02c-0.14,0.305-0.331,0.568-0.574,0.789c-0.243,0.221-0.528,0.392-0.855,0.513
					c-0.327,0.121-0.678,0.182-1.053,0.182h-1.29v2.901H277.852z M280.653,436.356c0.389,0,0.684-0.111,0.882-0.331
					c0.199-0.22,0.298-0.474,0.298-0.761c0-0.14-0.024-0.276-0.072-0.408c-0.048-0.132-0.121-0.248-0.221-0.347
					c-0.099-0.099-0.222-0.178-0.37-0.237c-0.147-0.059-0.32-0.089-0.518-0.089h-1.312v2.173H280.653z"/>
				<path style="fill:#FFFFFF;" d="M286.797,440.845c-0.338,0-0.662-0.048-0.971-0.143c-0.309-0.095-0.592-0.239-0.849-0.43
					c-0.257-0.191-0.482-0.425-0.673-0.7c-0.191-0.276-0.342-0.597-0.452-0.965l1.401-0.551c0.103,0.397,0.283,0.726,0.541,0.987
					c0.257,0.261,0.595,0.392,1.015,0.392c0.154,0,0.303-0.02,0.447-0.061c0.143-0.04,0.272-0.099,0.386-0.176
					c0.114-0.077,0.204-0.175,0.27-0.292c0.066-0.118,0.1-0.254,0.1-0.408c0-0.147-0.026-0.279-0.077-0.397
					c-0.051-0.117-0.138-0.227-0.259-0.331c-0.121-0.103-0.279-0.202-0.474-0.298c-0.195-0.095-0.436-0.195-0.723-0.298
					l-0.485-0.176c-0.213-0.073-0.428-0.173-0.645-0.298c-0.217-0.125-0.414-0.276-0.59-0.452c-0.176-0.176-0.322-0.384-0.436-0.623
					c-0.114-0.239-0.171-0.509-0.171-0.81c0-0.309,0.061-0.597,0.182-0.866c0.121-0.268,0.294-0.503,0.518-0.706
					c0.224-0.202,0.493-0.36,0.805-0.474c0.312-0.114,0.66-0.171,1.042-0.171c0.397,0,0.741,0.053,1.031,0.16
					c0.29,0.107,0.537,0.243,0.739,0.408c0.202,0.165,0.365,0.348,0.491,0.546c0.125,0.199,0.217,0.386,0.276,0.563l-1.312,0.551
					c-0.074-0.221-0.208-0.419-0.403-0.596c-0.195-0.176-0.462-0.265-0.799-0.265c-0.324,0-0.592,0.075-0.805,0.226
					c-0.213,0.151-0.32,0.348-0.32,0.59c0,0.235,0.103,0.436,0.309,0.601c0.206,0.165,0.533,0.325,0.982,0.48l0.496,0.165
					c0.316,0.111,0.605,0.237,0.866,0.381c0.261,0.143,0.485,0.314,0.673,0.513c0.187,0.199,0.331,0.425,0.43,0.678
					c0.099,0.254,0.149,0.546,0.149,0.877c0,0.412-0.083,0.767-0.248,1.064c-0.165,0.298-0.377,0.542-0.634,0.734
					c-0.258,0.191-0.548,0.335-0.872,0.43C287.422,440.797,287.105,440.845,286.797,440.845z"/>
			</g>
			<g>
				<path style="fill:#FFFFFF;" d="M321.394,439.168l4.004-4.985h-3.827v-1.412h5.559v1.5l-3.96,4.985h4.004v1.412h-5.779V439.168z"
					/>
				<path style="fill:#FFFFFF;" d="M328.409,432.771h1.489v7.897h-1.489V432.771z"/>
				<path style="fill:#FFFFFF;" d="M331.486,440.669v-7.897h2.779c0.375,0,0.726,0.061,1.053,0.182
					c0.327,0.121,0.612,0.292,0.855,0.513s0.434,0.483,0.574,0.789c0.14,0.305,0.209,0.642,0.209,1.009
					c0,0.375-0.07,0.715-0.209,1.02c-0.14,0.305-0.331,0.568-0.574,0.789c-0.243,0.221-0.528,0.392-0.855,0.513
					c-0.327,0.121-0.678,0.182-1.053,0.182h-1.29v2.901H331.486z M334.288,436.356c0.389,0,0.684-0.111,0.882-0.331
					c0.199-0.22,0.298-0.474,0.298-0.761c0-0.14-0.024-0.276-0.072-0.408c-0.048-0.132-0.121-0.248-0.221-0.347
					c-0.099-0.099-0.222-0.178-0.37-0.237c-0.147-0.059-0.32-0.089-0.518-0.089h-1.312v2.173H334.288z"/>
			</g>
		</g>
		<g style="opacity:0.61;">
			<path style="fill:#FFFFFF;" d="M300.133,433.27h9.067v2.242h-9.067V433.27z M300.133,437.136h9.067v2.243h-9.067V437.136z"/>
		</g>
	</g>
	<g style="opacity:0.61;">
		<path style="fill:#FFFFFF;" d="M156.756,478.878h1.607c1.263,0,2.114,0.812,2.114,1.974c0,1.161-0.851,1.973-2.114,1.973h-1.607
			V478.878z M158.34,482.464c1.049,0,1.725-0.665,1.725-1.612c0-0.947-0.677-1.613-1.725-1.613h-1.167v3.225H158.34z"/>
		<path style="fill:#FFFFFF;" d="M165.139,480.851c0-1.15,0.879-2.007,2.075-2.007c1.184,0,2.069,0.851,2.069,2.007
			c0,1.156-0.885,2.007-2.069,2.007C166.019,482.858,165.139,482.002,165.139,480.851z M168.866,480.851
			c0-0.942-0.705-1.635-1.652-1.635c-0.953,0-1.663,0.693-1.663,1.635c0,0.941,0.71,1.635,1.663,1.635
			C168.162,482.486,168.866,481.793,168.866,480.851z"/>
		<path style="fill:#FFFFFF;" d="M179.596,478.878l-1.331,3.947h-0.44l-1.156-3.366l-1.161,3.366h-0.434l-1.331-3.947h0.429
			l1.139,3.394l1.178-3.394h0.389l1.161,3.411l1.156-3.411H179.596z"/>
		<path style="fill:#FFFFFF;" d="M187.731,478.878v3.947h-0.344l-2.537-3.202v3.202h-0.417v-3.947h0.344l2.543,3.203v-3.203H187.731
			z"/>
		<path style="fill:#FFFFFF;" d="M193.093,478.878h0.417v3.586h2.21v0.361h-2.627V478.878z"/>
		<path style="fill:#FFFFFF;" d="M200.061,480.851c0-1.15,0.879-2.007,2.075-2.007c1.184,0,2.069,0.851,2.069,2.007
			c0,1.156-0.885,2.007-2.069,2.007C200.941,482.858,200.061,482.002,200.061,480.851z M203.788,480.851
			c0-0.942-0.705-1.635-1.652-1.635c-0.953,0-1.663,0.693-1.663,1.635c0,0.941,0.71,1.635,1.663,1.635
			C203.083,482.486,203.788,481.793,203.788,480.851z"/>
		<path style="fill:#FFFFFF;" d="M211.636,481.77h-2.199l-0.474,1.054h-0.434l1.804-3.947h0.412l1.804,3.947h-0.44L211.636,481.77z
			 M211.484,481.432l-0.947-2.12l-0.947,2.12H211.484z"/>
		<path style="fill:#FFFFFF;" d="M217.28,478.878h1.607c1.263,0,2.114,0.812,2.114,1.974c0,1.161-0.851,1.973-2.114,1.973h-1.607
			V478.878z M218.864,482.464c1.049,0,1.725-0.665,1.725-1.612c0-0.947-0.677-1.613-1.725-1.613h-1.167v3.225H218.864z"/>
		<path style="fill:#FFFFFF;" d="M234.041,481.77h-2.199l-0.474,1.054h-0.434l1.804-3.947h0.412l1.804,3.947h-0.44L234.041,481.77z
			 M233.889,481.432l-0.947-2.12l-0.947,2.12H233.889z"/>
		<path style="fill:#FFFFFF;" d="M239.685,478.878h0.417v3.586h2.21v0.361h-2.627V478.878z"/>
		<path style="fill:#FFFFFF;" d="M247.082,478.878h0.417v3.586h2.21v0.361h-2.627V478.878z"/>
		<path style="fill:#FFFFFF;" d="M260.449,479.239v1.551h2.041v0.361h-2.041v1.675h-0.417v-3.947h2.706v0.361H260.449z"/>
		<path style="fill:#FFFFFF;" d="M267.678,478.878h0.417v3.947h-0.417V478.878z"/>
		<path style="fill:#FFFFFF;" d="M273.456,478.878h0.417v3.586h2.21v0.361h-2.627V478.878z"/>
		<path style="fill:#FFFFFF;" d="M283.644,482.464v0.361h-2.791v-3.947h2.706v0.361h-2.289v1.404h2.041v0.355h-2.041v1.466H283.644z
			"/>
		<path style="fill:#FFFFFF;" d="M294.672,479.239v1.551h2.041v0.361h-2.041v1.675h-0.417v-3.947h2.706v0.361H294.672z"/>
		<path style="fill:#FFFFFF;" d="M301.5,480.851c0-1.15,0.879-2.007,2.075-2.007c1.184,0,2.069,0.851,2.069,2.007
			c0,1.156-0.885,2.007-2.069,2.007C302.379,482.858,301.5,482.002,301.5,480.851z M305.226,480.851
			c0-0.942-0.705-1.635-1.652-1.635c-0.953,0-1.663,0.693-1.663,1.635c0,0.941,0.71,1.635,1.663,1.635
			C304.522,482.486,305.226,481.793,305.226,480.851z"/>
		<path style="fill:#FFFFFF;" d="M313.351,482.825l-0.902-1.269c-0.102,0.011-0.203,0.017-0.316,0.017h-1.06v1.252h-0.417v-3.947
			h1.477c1.004,0,1.613,0.507,1.613,1.353c0,0.62-0.327,1.054-0.902,1.24l0.964,1.353H313.351z M313.328,480.231
			c0-0.632-0.417-0.992-1.207-0.992h-1.048v1.979h1.048C312.911,481.218,313.328,480.851,313.328,480.231z"/>
		<path style="fill:#FFFFFF;" d="M322.907,478.878v3.947h-0.4v-3.158l-1.551,2.656h-0.197l-1.551-2.639v3.14h-0.4v-3.947h0.344
			l1.714,2.926l1.697-2.926H322.907z"/>
		<path style="fill:#FFFFFF;" d="M330.744,481.77h-2.199l-0.473,1.054h-0.434l1.804-3.947h0.411l1.804,3.947h-0.44L330.744,481.77z
			 M330.592,481.432l-0.947-2.12l-0.947,2.12H330.592z"/>
		<path style="fill:#FFFFFF;" d="M336.957,479.239h-1.387v-0.361h3.192v0.361h-1.387v3.586h-0.417V479.239z"/>
		<path style="fill:#FFFFFF;" d="M343.063,482.346l0.164-0.321c0.282,0.276,0.784,0.479,1.302,0.479c0.739,0,1.06-0.31,1.06-0.699
			c0-1.083-2.43-0.417-2.43-1.877c0-0.581,0.451-1.083,1.455-1.083c0.446,0,0.908,0.13,1.224,0.35l-0.141,0.333
			c-0.338-0.22-0.733-0.327-1.083-0.327c-0.722,0-1.043,0.321-1.043,0.716c0,1.083,2.43,0.429,2.43,1.866
			c0,0.581-0.462,1.077-1.472,1.077C343.937,482.858,343.356,482.65,343.063,482.346z"/>
	</g>
</g>
<g>
</g>
<g>
	<path style="fill:#656668;" d="M322.382,331.231c0-0.521,0-1.042,0-1.563h16.147v6.771h18.231v10.157c-3.386,0-6.771,0-10.418,0
		c3.646,2.865,6.251,6.771,7.292,11.199c1.302,5.99-0.521,11.98-4.948,16.408c-7.292,7.032-18.231,9.115-27.607,5.469
		c-5.73-2.084-10.157-6.511-12.501-11.98c-1.823-4.688-1.302-10.157,1.302-14.585c1.302-2.344,3.125-4.427,5.209-6.251
		c-3.125,0-6.251,0-9.376,0V336.7h19.793C325.507,334.356,324.205,332.533,322.382,331.231 M328.633,349.202
		c-2.344,0.781-4.167,2.084-5.469,3.907c-3.907,5.73-2.865,13.282,2.604,17.71c3.386,2.604,8.074,2.344,11.199-0.26
		c5.469-4.688,5.99-12.762,1.302-18.231C335.925,349.722,332.279,348.42,328.633,349.202 M83.558,334.096h16.147v58.599H86.684
		v-21.096H69.755c-3.386,4.167-7.813,7.292-13.022,8.855c-7.553,2.084-15.366,0.781-21.877-3.646
		c-5.209-3.386-8.595-8.855-9.636-14.845c-0.781-5.469,0.521-11.199,3.907-15.887c4.427-5.99,11.199-9.636,18.752-9.897
		c7.813-0.521,15.366,2.604,20.575,8.334h17.71c0-3.125,0.26-7.032-2.865-8.595C83.558,335.138,83.558,334.356,83.558,334.096
		 M46.576,345.816c-3.907,1.563-6.771,4.948-7.813,8.855c-1.823,5.99,0.521,12.501,5.73,15.887
		c3.646,2.084,8.334,1.823,11.459-1.042c5.99-5.469,6.511-14.845,1.042-21.096l-0.26-0.26
		C54.129,345.555,50.222,344.514,46.576,345.816 M73.662,354.41c0.26,2.344,0.521,4.688,0.26,7.032h12.501v-7.032H73.662
		 M161.17,334.096h15.106c0,27.086,0,54.172,0,81.257h-12.241c0-16.147,0-32.555,0-48.963c-4.167,0-8.595,0-13.022,0v-10.157h13.022
		c0-5.209,0-10.418,0-15.626c0-2.084-1.042-4.167-2.865-5.209V334.096 M181.744,334.096h13.022v81.257c-4.427,0-8.595,0-13.022,0
		C181.744,388.268,181.744,360.921,181.744,334.096 M255.449,333.836h15.106c0,7.553,0,14.845,0,22.398h5.73
		c0-7.553,0-14.845,0-22.398h13.022v81.257h-13.022c0-16.147,0-32.555,0-48.963h-5.73c0,16.147,0,32.555,0,48.963h-12.241v-16.147
		h-44.275v-55.995c0.26-2.084-1.042-4.427-2.865-5.469c0-0.521,0-1.042,0-1.563h36.722v10.157h-20.835v42.712h30.992v-47.661
		c0.26-2.344-1.042-4.427-2.865-5.73L255.449,333.836 M363.792,334.096c5.469,0,10.678,0,16.147,0c0,7.553,0,14.845,0,22.398h12.762
		v10.157H380.2v14.324h-13.022c0-13.022,0-26.304,0-39.326c0.26-1.823-0.521-3.646-1.823-4.948
		c-0.781-0.521-1.302-1.563-1.302-2.344 M128.354,336.18c6.251,0,12.762,0,19.012,0c0,11.199-2.865,22.398-8.074,32.295
		c7.032,5.209,13.543,10.939,19.273,17.449c-2.344,3.386-4.688,6.771-7.292,10.157c-4.688-7.292-10.678-13.803-17.189-19.533
		c-4.427,6.511-10.157,12.241-16.408,16.929c-2.084-1.823-4.167-3.907-6.251-5.73c11.72-10.418,19.273-24.742,21.096-40.108
		c0.521-3.646-0.26-8.074-3.907-9.636L128.354,336.18 M403.118,336.18h64.068v64.85H475v10.157h-76.309v-10.157h13.803
		c0-6.511,0-13.022,0-19.793c0-1.563,0-3.125-0.521-4.688s-2.604-2.344-2.604-4.167c4.948,0,9.897,0,14.845,0v28.388h7.032
		c0-9.636,0-19.012,0-28.648c4.167,0.26,8.334,0,12.501,0c0,9.376,0,19.012,0,28.388h10.418c0-18.231,0-36.462,0-54.692h-51.046
		v-10.157 M312.485,387.486H380.2v27.607h-13.022v-17.449h-54.692V387.486 M35.116,388.268c5.469,0,10.938,0,16.147,0v16.147h49.223
		c0,3.386,0,6.771,0,10.157H38.242V395.56c0.26-1.823-0.521-3.646-1.823-4.948C35.898,390.091,35.377,389.309,35.116,388.268
		 M72.359,436.449c5.99-1.042,13.282,0.26,17.189,5.469c5.209,7.553,3.125,17.97-4.427,23.179l-0.26,0.26
		c-7.292,4.167-17.97,2.865-22.658-4.427c-3.646-5.73-3.386-13.022,0.521-18.491C65.067,439.053,68.453,436.97,72.359,436.449
		 M71.839,439.314c-2.865,1.042-4.948,3.646-5.469,6.771c-1.302,6.251,0,14.324,6.251,17.71c3.125,1.823,7.032,1.563,9.897-0.521
		c2.344-2.344,3.646-5.469,3.646-8.595c0.521-4.427-0.781-9.115-3.646-12.501C79.391,438.793,75.485,438.012,71.839,439.314
		 M138.511,436.449c3.386-0.781,6.771-0.781,9.897,0.521c0,2.344,0,4.427,0,6.771h-1.563c0-1.563-0.781-3.125-2.084-4.167
		c-2.344-1.563-6.511-1.302-7.292,1.823c-0.781,2.865,2.084,4.688,3.907,6.251c3.386,2.604,7.292,5.73,7.553,10.418
		c0.26,3.907-1.823,7.553-5.73,8.855c-3.907,1.302-7.813,1.042-11.459-0.781c0-2.604,0-5.209,0-7.813
		c2.084-0.26,1.823,2.084,2.344,3.386c0.521,2.604,3.125,4.427,5.99,3.907c2.604-0.521,4.427-3.125,3.907-5.99
		c-0.26-1.042-0.781-2.084-1.823-2.865c-2.604-2.604-5.73-4.167-7.813-7.292c-1.563-2.344-2.084-5.209-1.302-7.813
		C134.084,439.053,136.167,437.491,138.511,436.449 M384.367,437.23c3.646-1.302,7.553-1.302,11.199,0c0,2.344,0,4.688,0,6.771
		c-2.084,0.26-1.563-2.344-2.604-3.386c-1.563-2.084-4.948-2.604-7.032-1.042c-0.26,0.26-0.521,0.521-0.781,0.781
		c-1.042,1.823-0.521,3.907,1.042,5.209c2.865,2.604,6.251,4.427,8.334,7.813c2.604,3.646,2.084,8.855-1.302,11.98
		c-3.386,2.344-7.553,2.865-11.459,1.823c-3.646-0.521-7.813,0.781-10.678-1.823c-2.865-3.125-5.73-6.771-8.074-10.418h-3.386
		c0,3.386,0,6.511,0.26,9.897c1.042,1.302,2.604,0.781,4.167,1.042c0,0.26,0,1.042,0,1.302H350.77v-1.302
		c1.042-0.26,3.386,0,3.386-1.563c0-8.074,0-15.887,0-23.96c0-1.823-2.344-1.823-3.646-2.344c0.26-0.26,0.26-0.781,0.521-1.042
		c2.865-0.26,5.73,0,8.595,0c3.386-0.26,6.771,0,9.897,1.302c2.604,1.563,3.907,4.688,3.386,7.553
		c-0.781,2.865-2.344,5.469-4.948,7.292c3.646,4.167,6.771,9.636,11.72,12.501c0-2.344,0-4.688,0-7.032h1.563
		c0,2.084,0.781,3.907,2.344,5.469c2.604,2.344,8.074,1.302,8.334-2.604c0.26-3.907-3.386-5.73-5.73-7.813
		c-3.125-2.084-5.209-5.209-5.73-8.855c-0.26-3.125,1.563-5.99,4.427-7.292 M359.885,439.574v13.022
		c2.084,0,4.948,0.521,6.251-1.823c1.823-2.865,1.563-6.771-0.521-9.636C364.052,439.835,361.969,439.053,359.885,439.574
		 M30.168,436.97h11.199v1.302l-1.563,0.521c2.084,4.167,4.688,8.074,6.771,12.241c2.344-3.907,4.427-8.074,6.251-12.501
		l-1.823-0.26c0-0.26,0-1.042,0-1.302H60.9c0,0.26,0,1.042,0,1.302c-1.823,0-3.646,1.042-4.948,2.604
		c-2.344,3.386-4.427,7.032-6.511,10.678c-1.823,2.865-1.042,6.511-1.042,9.636c0,1.302-0.26,3.125,0.781,4.167
		c1.042,0.26,2.344,0.521,3.386,0.521v1.302H39.284c-0.26-2.344,3.125-1.042,3.386-2.865c0.26-2.084,0-4.688,0.26-7.292
		c0.26-4.427-3.125-7.553-4.948-11.199c-2.084-2.865-3.386-7.553-7.813-7.553C30.168,437.751,30.168,437.23,30.168,436.97
		 M98.403,436.709h1.823c7.032,7.032,13.803,14.324,20.835,21.617c0-5.469,0-10.939,0-16.147c0-1.042,0-2.344-1.042-3.125
		c-1.042-0.521-2.084-0.781-3.125-0.781c0-0.26,0-1.042,0-1.302h10.418c0,0.26,0,1.042,0,1.302c-1.302,0.26-3.125,0.521-3.125,2.344
		c-0.26,8.855,0,17.97,0,27.086c-1.042-0.26-2.084,0-2.865-0.781c-6.511-6.771-13.282-13.543-20.054-20.575
		c0.26,5.99,0,11.72,0.26,17.71c0.26,2.084,2.604,2.084,4.427,2.344v1.302H94.497c0-2.084,2.865-1.042,3.386-2.865
		c0.26-1.042,0.26-2.084,0.26-3.125C98.403,453.117,98.403,445.044,98.403,436.709 M154.919,436.97h19.533c0,2.084,0,4.167,0,6.251
		c-0.521,0-0.781-0.26-1.302-0.26c-0.26-1.042-0.26-2.865-1.823-3.125c-2.344,0-4.427,0-6.771,0v9.897c2.084,0,4.427,0,6.511,0
		c1.302,0,1.042-1.823,1.302-2.604h1.302c0,2.865,0,5.469,0,8.334h-1.302c-0.26-0.781,0-2.604-1.302-2.604c-2.344,0-4.427,0-6.771,0
		c0,3.907,0,8.074,0,11.98c2.344,0,4.948,0,7.292-0.26c1.823-0.26,1.823-2.344,2.084-3.646h1.563v6.771h-20.054
		c0-0.26,0-1.042,0-1.302c1.302-0.26,3.386-0.26,3.386-2.344c0-7.813,0-15.626,0-23.44c-0.26-1.823-2.344-1.823-3.907-2.084v-1.302
		 M182.265,437.23h12.501c0,0.26,0,1.042,0,1.302c-1.042,0-1.823,0.26-2.865,0.521c-0.781,0.781-0.521,1.823-0.521,2.865
		c0,7.553,0,14.845,0,22.137c-0.26,2.344,2.865,2.084,4.167,2.084v1.302h-13.282c0-0.26,0-1.042,0-1.302
		c1.042-0.26,3.386,0,3.386-1.563c0-8.074,0-15.887,0-23.96c0.26-1.823-2.084-2.084-3.386-2.084
		C182.265,438.272,182.265,437.751,182.265,437.23 M210.132,437.23h12.501c0,0.26,0,1.042,0,1.302c-1.042,0.26-3.125,0-3.386,1.563
		c-0.26,3.907,0,7.553,0,11.459c-0.26,3.646,0.26,7.292,1.563,10.678c2.344,3.386,6.771,4.167,10.157,1.823
		c0.781-0.521,1.563-1.302,2.084-2.344c1.042-3.125,1.302-6.251,1.042-9.636c0-3.907,0.26-7.813,0-11.72
		c-0.26-1.563-2.344-1.302-3.386-1.823c0-0.26,0-1.042,0-1.302h10.938c0.26,2.344-3.386,0.781-3.386,2.865
		c-0.521,6.251,0.521,12.762-0.521,19.012c-0.781,4.427-4.427,7.813-8.855,8.595c-3.907,0.781-8.074,0-11.459-2.344
		c-2.604-2.604-4.167-6.251-3.907-10.157c-0.26-5.209,0-10.418,0-15.626C213.778,437.751,211.434,437.751,210.132,437.23
		c0-0.26,0-1.042,0-1.302 M246.854,436.189c1.042,0.26,2.084,0,2.604,0.781c6.771,6.771,13.282,13.803,20.054,20.835
		c0-5.469,0-10.939,0-16.147c0-1.042,0-2.604-1.042-3.125s-1.823-0.521-2.865-0.781v-1.302h10.418c0,0.26,0,1.042,0,1.302
		c-1.302,0.26-3.125,0.521-3.125,2.344c-0.26,8.855,0,17.97,0,26.825h-2.084c-6.771-7.032-13.803-14.064-20.835-21.096v15.887
		c0,1.302,0,2.865,1.302,3.386c1.042,0.26,2.084,0.521,3.386,0.521c0,0.26,0,1.042,0,1.302h-11.459
		c-0.26-2.344,3.125-1.042,3.386-2.865c0.26-1.042,0.26-2.084,0.26-3.125C246.854,452.596,246.854,444.523,246.854,436.189
		 M280.191,436.449h12.501v1.302c-1.042,0.26-3.125,0-3.125,1.563c-0.26,8.074,0,15.887,0,23.96
		c-0.26,2.344,2.604,2.084,4.167,2.084v1.302h-13.543c-0.26-2.344,3.386-0.521,3.386-2.865c0-8.074,0-15.887,0-23.96
		c0-1.823-2.084-1.823-3.386-2.084C280.191,437.491,280.191,436.709,280.191,436.449 M293.734,436.449c3.646,0,7.553,0,11.199,0
		c0,0.26,0.26,0.781,0.521,1.042c-0.781,0.26-1.563,0.521-2.344,0.521c0.26,1.563,0.781,3.386,1.563,4.948l5.73,15.366
		c1.563-4.167,3.125-8.074,4.948-12.241c1.302-2.604,2.084-5.209,2.865-8.074l-2.344-0.26c0-0.26,0-1.042,0-1.302h28.648v6.251
		h-1.302c-0.26-1.042,0-2.865-1.563-3.386c-2.344-0.26-4.688-0.26-7.032-0.26v9.897c2.344,0,4.427,0,6.771-0.26
		c1.302-0.26,0.781-1.823,1.042-2.604h1.302v8.074h-1.302c-0.26-0.781-0.26-1.823-0.781-2.604c-2.344-0.26-4.688-0.26-7.292-0.26
		v11.98c2.604,0,4.948,0,7.553-0.26c1.563-0.521,1.563-2.344,2.084-3.646h1.302v6.771h-19.793c0-0.26,0-1.042,0-1.302
		c1.302-0.26,3.125,0,3.125-1.823c0.26-7.553,0-15.106,0-22.398c0.521-4.167-6.251-4.167-7.292-0.781
		c-3.907,8.855-8.074,17.97-11.98,26.825h-1.563c-3.646-9.115-7.292-17.97-11.199-26.825c-0.781-1.563-2.084-2.344-3.646-2.344
		v-1.302 M399.212,436.189h12.501v1.302c-1.042,0.26-3.125,0-3.125,1.563c-0.26,6.771,0,13.543,0,20.314c0,1.563,0,3.125,0.26,4.688
		c1.042,1.302,2.865,0.781,4.167,1.042c0,0.26,0,1.042,0,1.302h-13.282c0-0.26,0-1.042,0-1.302c1.042,0,1.823-0.26,2.865-0.521
		c1.042-0.521,0.521-2.084,0.781-2.865c0-7.553,0-14.845,0-22.137c0-1.823-2.084-1.823-3.386-2.084
		C399.472,437.23,399.472,436.709,399.212,436.189 M414.838,436.189h25.523c0.26,2.084,0.521,4.167,1.042,6.251h-1.302
		c-0.521-1.302-0.521-3.125-2.084-3.386c-2.344-0.26-4.688-0.26-7.032-0.26c0,8.074,0,16.147,0,23.961
		c0,2.344,2.865,1.823,4.167,2.084v1.302H421.87v-1.302c1.042-0.26,3.386,0,3.386-1.563c0.26-8.074,0-16.408,0-24.481
		c-2.604-0.26-4.948,0-7.553,0.26c-1.302,0.521-1.302,2.084-1.823,3.125h-1.563l1.042-6.251 M443.487,436.449h11.459
		c0,1.042-0.781,1.563-1.563,1.823c2.084,4.167,4.688,8.074,6.771,12.241c2.604-3.907,4.688-8.074,6.251-12.501l-1.823-0.26
		c0-0.26,0-1.042,0-1.302h9.897v1.302c-2.604,0.26-4.948,1.823-5.99,4.167c-2.084,3.125-4.167,6.511-5.73,9.897
		c-0.781,2.084-1.042,4.427-0.781,6.511c0,1.823,0,3.646,0.26,5.469c0.521,1.563,2.604,1.042,4.167,1.563v1.302h-13.282
		c0-0.26,0-1.042,0-1.302c1.302-0.26,3.386-0.26,3.125-2.084c-0.26-4.167,1.042-8.595-1.563-12.241s-4.427-7.813-7.292-11.459
		c-1.042-1.302-2.604-2.084-4.167-2.084L443.487,436.449L443.487,436.449z"/>
	<path style="fill:#FFFFFF;" d="M235.395,35.892c-72.923,8.074-125.272,73.965-117.198,146.888s73.965,125.272,146.888,117.198
		s125.272-73.965,117.198-146.888c-5.209-46.098-33.857-85.945-76.049-105.478C284.097,37.194,259.616,33.027,235.395,35.892"/>
	<path style="fill:#FFFFFF;" d="M247.115,43.445h1.302l12.501,14.585c0-3.907,0.781-7.813,0.521-11.72
		c-0.781-0.781-1.823-1.302-2.604-1.823c2.604-0.26,4.948,0,7.553,0.781c-1.042,0.26-2.865,0.26-2.604,1.823
		c-0.521,5.73-0.521,11.199-1.042,16.929c-0.781-0.26-1.563-0.521-2.084-1.302l-11.459-13.282c-0.26,3.646-0.521,7.553-0.521,11.199
		c0,1.563,2.084,1.302,3.125,1.823c-0.781,1.042-2.084,0.521-3.125,0.521l-4.427-0.26l0.26-0.781c0.781-0.26,2.084-0.26,2.084-1.302
		C246.594,54.644,246.854,48.914,247.115,43.445"/>
	<path style="fill:#FFFFFF;" d="M228.884,46.049c2.084-1.563,4.688-1.302,7.032-2.084c0,0.26,0,0.781,0,1.042l-1.823,0.26
		c0.26,4.688,2.344,9.115,2.084,13.803c-0.781,6.511-11.72,8.595-14.585,2.604c-1.563-3.907-1.823-8.334-3.125-12.501
		c-0.521-0.521-1.563-0.26-2.084-0.521v-0.781c2.604-0.521,4.948-1.042,7.553-1.302l0.781,0.521
		c-0.521,0.521-1.823,0.521-2.084,1.302c0.26,2.865,1.042,5.73,1.563,8.595c0.26,2.084,1.042,4.167,2.344,5.469
		c2.084,1.563,4.948,1.302,6.511-0.781c0.521-0.521,0.781-1.042,0.781-1.823c0-2.865-0.521-5.99-1.302-8.855
		c-0.26-1.563-0.781-3.125-1.302-4.688L228.884,46.049"/>
	<path style="fill:#FFFFFF;" d="M274.721,46.049c2.084,0.26,4.167,0.781,6.251,1.302c0.781,0.26,1.823,0.26,2.084,1.302h-2.604
		c-1.302,4.688-2.084,9.376-3.386,14.064c-0.26,0.781-0.26,1.563-0.26,2.344c0.781,0.521,1.563,0.781,2.344,1.042v0.781
		c-2.344-0.521-4.688-1.042-7.292-1.563c-0.521,0-1.042-0.521-1.302-1.042h2.604c1.302-4.948,2.344-9.897,3.386-15.106
		C277.326,47.872,275.242,47.351,274.721,46.049"/>
	<path style="fill:#FFFFFF;" d="M289.306,49.695c2.604,0.781,5.209,1.823,7.553,3.125c-0.521,0.26-1.302,0.521-2.084,0.521
		c-0.521,4.427-0.521,9.115-0.781,13.543c3.125-3.125,6.511-6.251,9.376-9.636l-1.302-1.823c2.344,0.521,4.688,1.563,6.511,3.125
		c-1.042,0-2.604-0.26-3.646,0.521c-4.948,4.167-9.376,8.855-14.324,13.022c-0.521-6.511,0-13.022,0-19.273
		C291.129,51.518,290.087,50.737,289.306,49.695"/>
	<path style="fill:#FFFFFF;" d="M188.516,60.113c2.604-1.563,5.209-2.865,7.813-4.167c0,1.042-0.781,1.563-1.563,2.344
		c2.084,4.167,4.427,8.334,6.511,12.762c0.26,0.781,0.781,1.563,1.302,2.084c1.042-0.26,2.084-0.521,3.125-0.521
		c-2.344,1.823-4.948,3.386-7.813,4.427l-0.521-0.781l1.823-1.302c-2.344-4.688-4.688-9.376-7.032-14.064
		C191.641,59.332,189.818,60.373,188.516,60.113"/>
	<path style="fill:#FFFFFF;" d="M313.006,61.415c1.042,0.26,2.084,0.781,2.865,1.302c2.604,1.823,5.469,3.646,8.074,5.469
		l-2.084,3.386l-0.781-0.26c0.26-0.781,0.521-1.563,0.521-2.344c-1.042-1.042-2.344-2.084-3.907-2.865l-3.646,5.209
		c1.302,0.781,2.604,1.823,3.907,2.604c0.781-0.521,1.302-0.781,2.084-1.302c-0.781,1.823-1.823,3.646-2.865,5.209l-0.781-0.521
		c0.26-0.521,0.521-1.302,0.521-1.823l-3.907-2.604c-1.563,2.084-2.865,4.167-4.167,6.251c1.302,1.042,2.865,1.823,4.167,2.604
		c1.042-0.26,1.823-1.042,3.125-1.302c-0.781,1.302-1.563,2.604-2.604,3.907c-3.386-2.344-7.032-4.688-10.418-7.032
		c0-0.26,0-0.781,0-1.042l2.084,1.042c3.125-4.167,5.73-8.334,8.595-12.762C315.09,63.759,313.527,62.457,313.006,61.415"/>
	<path style="fill:#FFFFFF;" d="M172.108,70.791c2.865-2.084,5.73-4.167,8.334-6.251c0.781,1.042,1.823,2.344,2.604,3.386
		c-0.781,0-1.823-0.26-2.344-1.042c-1.563,0.781-2.865,1.563-4.167,2.604l3.907,5.209c1.302-0.781,2.344-1.823,3.646-2.865
		c-0.26-0.781-0.521-1.563-0.781-2.084c1.823,1.042,3.125,2.865,3.646,4.688c-0.781-0.26-1.302-0.521-2.084-1.042L181.223,76
		l4.688,6.251c1.563-1.042,2.865-2.084,3.907-3.386c-0.26-1.042-0.26-2.084-0.26-3.125c1.042,1.302,1.823,2.344,2.865,3.646
		c-2.865,2.084-5.73,4.167-8.334,6.251c-0.781,0.521-1.563,1.302-2.604,1.042l1.563-1.823c-2.865-4.167-5.99-8.334-9.115-12.241
		c-0.781-1.563-2.604-0.26-3.646,0C170.806,71.833,171.587,71.312,172.108,70.791"/>
	<path style="fill:#FFFFFF;" d="M233.051,33.027c74.486-9.115,142.461,43.754,151.576,118.24
		c9.115,74.486-43.754,142.461-118.24,151.576c-74.486,9.115-142.461-43.754-151.576-118.24
		c-4.948-39.847,8.074-79.955,35.42-109.385C172.108,51.779,201.277,36.934,233.051,33.027"/>
	<path style="fill:#FFFFFF;" d="M224.717,100.481c-14.324,5.209-29.43,7.813-44.535,7.813v48.181c0,6.771,0.521,13.803,1.563,20.575
		c45.317-8.334,91.675-8.334,136.992,0c0.781-5.99,1.302-12.241,1.563-18.231c0-16.929,0-33.597,0-50.525
		c-4.688,0-9.376-0.26-13.803-0.781c-19.793-2.344-39.847-8.334-55.995-20.575C242.427,92.408,233.832,97.095,224.717,100.481"/>
	<path style="fill:#FFFFFF;" d="M182.526,180.957c3.386,16.668,11.199,32.295,22.137,45.317
		c15.366-15.106,30.471-30.471,45.577-45.577c15.106,15.106,30.471,30.471,45.577,45.577c10.938-13.022,18.752-28.648,22.137-45.317
		C273.159,172.623,227.321,172.623,182.526,180.957"/>
	<path style="fill:#FFFFFF;" d="M215.862,237.473c10.418,8.855,21.877,16.147,34.378,21.617
		c12.501-5.469,23.96-12.762,34.378-21.617c-11.459-11.459-22.919-22.919-34.378-34.378
		C238.781,214.554,227.321,226.013,215.862,237.473"/>
	<path style="fill:#FFFFFF;" d="M331.758,74.177c2.344,2.084,4.688,4.427,6.771,6.771c1.823,1.823,1.823,4.427,0.26,6.511
		c-1.823,1.563-4.167,2.344-6.511,2.084c-0.26,2.865-0.781,5.469-0.781,8.334c0,1.563,1.042,2.865,1.042,4.167
		c-1.563-1.563-3.907-3.125-3.907-5.469c0.26-2.865,0.521-5.469,1.042-8.334l-1.563-1.563l-4.427,4.427
		c0.26,0.781,2.344,2.604,0.781,2.865c-2.344-1.823-4.427-4.167-5.99-6.511l2.344,1.302c2.084-1.823,3.907-3.646,5.73-5.469
		c2.084-2.084,4.167-3.907,5.99-6.251C332.279,75.739,331.758,74.958,331.758,74.177"/>
	<path style="fill:#FFFFFF;" d="M329.414,85.376c1.042,1.042,2.084,2.604,3.646,2.084c2.084-0.521,3.386-2.344,3.907-4.167
		c0.26-1.563-0.781-2.604-1.563-3.646C333.32,81.469,331.237,83.553,329.414,85.376"/>
	<path style="fill:#FFFFFF;" d="M158.826,86.157c-0.26-3.386,2.344-5.99,4.948-7.553c1.042,1.042,2.344,2.084,3.386,3.386
		c-1.563,0.781-2.865-1.042-4.427-0.26c-2.084,0.781-2.865,3.646-0.781,4.688c2.865,0.781,5.469-0.521,8.334-0.26
		c3.125,0,5.469,2.865,5.469,5.99l0,0c-0.521,3.125-2.604,5.73-5.73,7.032c-1.563-1.042-2.865-2.604-3.907-4.167
		c1.042,0.26,1.823,0.781,2.865,1.042c2.604,1.302,5.99-2.604,3.907-4.688c-2.084-2.084-5.209-0.781-7.553-0.781
		C162.472,91.366,159.607,89.282,158.826,86.157"/>
	<path style="fill:#FFFFFF;" d="M149.71,94.231c1.302-0.521,0.26,1.302,0.26,1.823c1.563,1.563,3.386,2.604,5.209,3.646
		c3.386,2.084,6.771,4.167,10.157,6.251c-1.302,1.042-2.865,1.823-4.427,1.823l-14.845,3.386l8.074,4.948
		c0.781,0.521,1.563,0.781,2.344,1.042c0.781-0.521,1.563-1.563,2.604-1.823c-1.302,2.344-2.604,4.688-4.167,6.771
		c-0.26-1.042,0.781-2.865-0.521-3.646c-4.688-3.125-9.636-5.99-14.324-8.855c0.521-0.521,1.563-1.042,2.344-1.302
		c5.73-1.302,11.459-2.604,17.189-3.907c-3.125-1.823-6.251-3.907-9.376-5.73c-1.302-0.781-2.344,0.781-3.646,1.302
		C147.106,97.877,148.408,95.793,149.71,94.231"/>
	<path style="fill:#FFFFFF;" d="M342.957,101.262c0-3.125,2.084-5.73,5.209-5.99c3.646,0,5.99,3.386,6.771,6.511
		c-1.302,0.521-2.604,2.604-4.167,2.084c0.781-1.042,2.084-2.344,1.563-3.646c-0.521-1.563-2.604-3.386-4.167-1.823
		c-1.563,1.563-1.042,4.688-1.302,6.771c0,3.125-2.604,5.73-5.73,5.99c-3.907-0.521-6.771-3.646-7.032-7.292
		c1.563-1.042,2.865-1.823,4.167-2.865c0.521,1.042-0.521,1.823-1.042,2.604c-1.823,2.084,1.042,6.251,3.646,4.948
		C343.478,106.732,342.696,103.606,342.957,101.262"/>
	<path style="fill:#FFFFFF;" d="M245.292,108.034c15.106-2.604,29.43,7.553,32.034,22.658s-7.553,29.43-22.658,32.034
		c-15.106,2.604-29.43-7.553-32.034-22.658c-0.781-3.907-0.521-7.813,0.521-11.459C226.019,118.191,234.614,110.117,245.292,108.034
		"/>
	<path style="fill:#FFFFFF;" d="M247.115,121.577c-7.553,1.823-12.501,9.376-10.678,16.929s9.376,12.501,16.929,10.678
		c7.553-1.823,12.241-9.115,10.678-16.668C262.481,124.963,254.928,120.014,247.115,121.577L247.115,121.577"/>
	<path style="fill:#FFFFFF;" d="M359.365,109.857c0.521,0.26,1.042,0.781,1.302,1.302c0.781,1.823,1.823,3.646,2.604,5.469
		c0,0.26-0.26,0.521-0.26,0.781c-0.521-0.781-1.042-1.302-1.823-1.823c-3.125,1.302-6.251,3.125-9.636,4.688
		c-1.823,0.781-3.646,1.823-5.209,2.865c-0.26,0.781,1.302,3.125,0,2.604c-1.302-2.344-2.344-4.688-3.386-7.032
		c0-0.26,0-0.781,0-1.042c0.521,0.521,1.042,1.302,1.563,1.823c1.302-0.26,2.865-1.042,3.907-1.823
		c3.386-1.823,7.032-3.386,10.418-5.209C360.146,111.941,359.365,110.638,359.365,109.857"/>
	<path style="fill:#FFFFFF;" d="M294.515,128.088c0.781-2.865,3.386-4.688,5.469-6.511c-0.26,1.563-1.042,3.125-0.521,4.688
		c1.563,2.865,4.948,4.167,6.511,6.771c0.26,2.865-2.344,4.948-4.167,7.032h3.125c-0.26,1.042-0.781,2.344-1.042,3.386
		c-3.646,0-7.553,0-11.199,0c-0.26-1.042-0.781-2.344-1.042-3.386c1.302,0,2.604,0,3.907,0c-0.26-3.125-4.167-3.907-5.469-6.771
		c0-2.344,1.823-3.907,3.125-5.469c0,1.302,0.26,2.604,1.042,3.646c1.302,1.563,3.907,2.344,4.688,4.427
		c0.26,1.823-1.042,3.125-1.823,4.427c2.344,0.26,3.646-2.344,3.646-4.427C299.724,132.515,294.775,131.994,294.515,128.088"/>
	<path style="fill:#FFFFFF;" d="M137.469,123.139c5.73-1.563,11.459,1.563,13.022,7.292c0,0.26,0,0.26,0.26,0.521
		c1.042,4.948-1.563,9.636-5.99,11.98c-5.469,2.084-11.459-0.521-13.543-5.73c0-0.26-0.26-0.521-0.26-0.781
		C129.917,130.953,132.521,125.483,137.469,123.139"/>
	<path style="fill:#FFFFFF;" d="M136.949,127.046c-2.865,1.042-4.688,3.907-4.427,7.032c0.521,1.823,1.823,3.386,3.646,4.167
		c2.604,1.563,5.73,1.823,8.855,0.781c2.604-1.042,4.427-3.646,4.427-6.511c-0.26-2.084-1.563-3.646-3.646-4.688
		C143.199,126.786,140.074,126.265,136.949,127.046"/>
	<path style="fill:#FFFFFF;" d="M362.75,125.744c1.302-0.26,2.865-0.521,4.167-0.781c1.563,5.209,3.125,10.418,4.688,15.626
		c-1.302,0.521-2.604,1.302-3.907,1.823c0.26-1.042,1.042-1.563,1.563-2.604c-0.26-1.563-0.521-3.386-1.042-4.688
		c-4.948,1.563-9.897,2.865-14.585,4.427c-1.563,0.26-0.521,2.084-0.781,3.125l-0.781,0.26c-0.781-2.865-1.563-5.469-2.344-8.334
		l0.781-0.26l1.042,1.823l15.626-4.688c-0.26-1.563-0.781-3.125-1.563-4.427C364.834,126.525,363.532,126.786,362.75,125.744"/>
	<path style="fill:#FFFFFF;" d="M193.464,132.255c2.344,0.521,5.209-0.781,7.032,0.781c0.26,4.427,0.26,9.115,0,13.543
		c-2.344,0-4.688,0-7.032,0C193.204,141.891,193.204,137.203,193.464,132.255"/>
	<path style="fill:#FFFFFF;" d="M203.361,132.515c2.084-0.26,4.167-0.26,6.251,0c0,4.688,0,9.376,0,14.064
		c-2.344,0.26-4.688,0-7.292,0c-0.26-3.907,0-7.553,0-11.459C202.319,134.338,202.319,132.776,203.361,132.515"/>
	<path style="fill:#FFFFFF;" d="M189.818,134.599h1.823c0,4.427,0,8.855,0,13.282h8.074c0.521,0.521,0.781,1.563,1.823,1.823
		s1.302-1.042,1.823-1.823c2.604,0,5.209,0,8.074,0c0-4.427,0-9.115,0-13.543l1.823,0.521c0,4.948,0.26,9.897,0,14.845
		c-2.865,0-5.469,0-8.334,0c-1.302,1.823-3.646,2.084-5.469,1.042c-0.26-0.26-0.781-0.521-1.042-1.042c-2.865,0-5.73,0-8.595,0
		C189.818,144.756,189.818,139.547,189.818,134.599"/>
	<path style="fill:#FFFFFF;" d="M295.036,145.277c2.084-0.26,4.427-0.26,6.511,0c-0.781,4.167-1.302,8.334-2.084,12.241
		c-1.042,0-2.604,0.521-2.604-0.781C296.078,153.09,295.817,148.923,295.036,145.277"/>
	<path style="fill:#FFFFFF;" d="M127.052,152.83c-0.26-2.344,0.26-4.948,1.042-7.292c0.521,1.302,0.521,2.604,1.563,3.386
		c1.823,1.563,3.907,3.125,5.99,4.688c2.084,1.563,5.209,1.563,7.813,1.823c1.823,0.26,1.563-2.084,2.604-2.865
		c0,3.125-0.26,6.251-1.042,9.115c-0.521-0.781-0.26-2.604-1.563-2.604c-2.604-0.26-5.469-1.042-8.074,0.26
		s-4.688,2.344-7.032,3.646c-1.042,0.521-1.563,2.084-2.604,2.865c0-2.604,0.521-5.209,0.781-7.813l1.302,1.302
		c2.604-1.042,5.209-2.344,7.813-3.646c-2.344-1.563-4.688-3.386-7.032-4.688L127.052,152.83"/>
	<path style="fill:#FFFFFF;" d="M372.126,145.798c0.781,2.604,1.302,5.209,1.042,7.813l-1.302-1.042
		c-2.344,1.563-4.688,3.386-7.032,4.948c2.344,1.302,4.948,2.344,7.553,3.125l1.563-1.302c0.26,2.344,0.521,4.688,0.521,7.032
		c-1.042-1.042-1.563-2.865-3.125-3.386c-2.604-1.302-5.209-2.604-7.813-3.646c-2.344-0.26-4.427,0-6.771,0.521
		c-1.563,0-1.042,2.084-1.302,3.125c-1.042-1.042-0.781-2.865-1.042-4.167s-0.781-3.386,0-4.948
		c0.521,0.781,0.521,2.604,1.823,2.344c2.865-0.26,5.99,0,8.334-2.084C367.438,151.267,371.605,149.965,372.126,145.798"/>
	<path style="fill:#FFFFFF;" d="M140.074,196.063c1.823-1.042,4.167-0.521,5.209,1.042c1.042,1.823,0.521,4.167-1.042,5.209
		c-1.042,0.781-2.344,0.781-3.646,0.26c-1.823-0.781-2.865-3.125-1.823-4.948C139.032,196.844,139.553,196.323,140.074,196.063"/>
	<path style="fill:#FFFFFF;" d="M358.323,196.063c2.084-0.521,4.167,0.521,4.688,2.604s-0.521,4.167-2.604,4.688
		c-1.302,0.521-2.865,0-3.907-0.781c-1.563-1.563-1.563-3.907,0-5.469C357.281,196.584,357.802,196.323,358.323,196.063"/>
	<path style="fill:#FFFFFF;" d="M325.247,241.64l10.938-13.022c4.427,3.646,8.855,7.292,13.282,10.938l1.563-1.563l2.084,1.823
		l-13.022,15.626l-2.084-1.823l2.344-3.125l-4.948-3.907h-1.563c0.781-1.042,1.823-2.084,2.604-3.125l5.73,4.688l1.042-1.302
		l-5.73-5.209l2.084-2.604l5.73,4.688c0.521-0.521,1.042-1.302,1.563-2.084l-11.199-9.115c-2.865,3.386-5.73,7.032-8.595,10.418
		L325.247,241.64"/>
	<path style="fill:#FFFFFF;" d="M158.565,230.701c2.865-2.084,6.771-1.563,8.855,1.302c0,0.26,0.26,0.26,0.26,0.521
		c0.781,1.563,1.302,3.125,1.563,4.688c1.042,1.302,1.823,2.344,2.865,3.386c0.521-0.781,1.042-1.563,1.302-2.604
		c1.042,1.042,1.823,2.084,2.865,3.386l-11.72,10.157l-2.344-2.604c1.302-1.302,2.865-2.604,4.167-3.646
		c-0.781-1.042-1.823-2.084-2.865-3.125c-2.084,0-4.167-0.781-5.469-2.344C155.961,236.952,155.961,233.045,158.565,230.701"/>
	<path style="fill:#FFFFFF;" d="M161.951,232.524c-1.823,0.521-2.865,2.344-2.604,4.167c0.26,0.521,0.521,1.042,0.781,1.563
		c1.563,1.302,3.646,1.042,4.948-0.521c0.521-0.521,0.781-1.563,0.781-2.344c0-1.823-1.563-3.125-3.125-2.865
		C162.472,232.264,162.211,232.264,161.951,232.524"/>
	<path style="fill:#FFFFFF;" d="M166.639,240.858l2.084,2.344l1.302-1.042c-0.781-0.781-1.563-1.563-2.084-2.604L166.639,240.858"/>
	<path style="fill:#FFFFFF;" d="M237.218,229.66c0.26,3.386,0.521,6.771,0.26,9.897l1.823,0.781c-2.084,0.26-4.167,0.26-6.251,0
		c0.781-0.26,1.302-0.521,2.084-0.781c0-2.604,0.26-4.948,0.26-7.553l-2.344,0.521C234.093,231.483,235.655,230.18,237.218,229.66"
		/>
	<path style="fill:#FFFFFF;" d="M241.125,232.264c0.521-1.823,2.344-3.125,4.427-2.604c0.781,0.26,1.563,0.781,2.084,1.563
		c0.521,1.302-0.521,2.604-1.302,3.386c1.042,0.781,2.084,1.823,2.084,3.125c0,3.646-6.771,4.427-7.553,0.521
		c-0.26-1.563,1.042-2.604,2.084-3.386C241.906,234.087,241.125,233.306,241.125,232.264"/>
	<path style="fill:#FFFFFF;" d="M242.948,232.264c0.26,0.781,1.302,1.302,2.084,1.823c0.521-1.042,1.302-2.344,0.26-3.125
		S242.687,231.222,242.948,232.264"/>
	<path style="fill:#FFFFFF;" d="M243.99,235.129c-0.781,1.042-1.823,2.084-1.042,3.386c0.26,0.781,1.302,1.302,2.344,0.781
		c0.521-0.26,0.781-0.521,0.781-0.781C246.594,237.212,245.031,236.171,243.99,235.129"/>
	<path style="fill:#FFFFFF;" d="M250.761,232.264c0-3.125,5.209-3.646,6.511-1.302c0.26,1.302-0.26,2.604-1.302,3.386
		c1.042,0.781,2.084,1.823,2.084,3.125c-0.26,3.646-6.511,4.167-7.553,0.781c-0.521-1.563,0.781-2.865,1.823-3.646
		C251.542,234.087,250.501,233.306,250.761,232.264"/>
	<path style="fill:#FFFFFF;" d="M252.584,231.743c-0.26,1.302,1.042,1.563,1.823,2.344c0.26-0.781,1.042-1.823,0.521-2.865
		S252.584,230.441,252.584,231.743"/>
	<path style="fill:#FFFFFF;" d="M254.147,239.817c2.604-0.781,1.302-3.907-0.521-4.688
		C251.803,236.431,251.542,239.556,254.147,239.817"/>
	<path style="fill:#FFFFFF;" d="M260.658,229.92h5.209c0,1.042-0.26,1.823-0.26,2.865l-1.042-1.042h-3.125
		c0,1.563,2.084,1.563,3.125,2.344c1.563,1.042,2.084,3.386,1.042,4.948c-0.26,0.26-0.26,0.521-0.521,0.521
		c-1.563,1.042-3.386,1.563-5.209,1.042c0-1.042,0-2.084,0-3.125c0.521,0.781,1.042,2.344,2.344,2.344
		c1.823,0,2.604-2.344,1.563-3.646c-0.781-1.302-2.084-1.563-3.386-2.084C260.137,232.524,260.397,231.222,260.658,229.92"/>
	<path style="fill:#FFFFFF;" d="M154.398,237.733c0.781,1.042,1.823,2.084,2.865,3.386l-3.125,2.865l8.595,9.897l-2.084,1.823
		l-10.938-12.501C151.273,241.379,153.617,240.077,154.398,237.733"/>
	<path style="fill:#FFFFFF;" d="M299.463,259.61l3.907-2.084c0.781,1.823,1.823,3.646,2.604,5.469l3.125-1.563
		c0.26,0.781,0.781,1.563,1.042,2.344l-2.865,1.563c0.521,1.042,1.042,2.344,1.563,3.646l-3.125,1.563
		c-1.563-2.865-2.865-5.99-4.167-8.855C301.026,260.652,300.505,260.131,299.463,259.61"/>
	<path style="fill:#FFFFFF;" d="M196.329,258.568l4.688,2.084c-1.302,2.604-3.125,4.948-5.469,6.771
		c1.042,2.084,1.823,4.167,2.604,6.251l-2.865,1.563c-0.521-2.344-1.042-4.427-2.084-6.511c-1.823,1.042-3.907,1.823-5.99,2.344
		c-0.26-0.781-0.521-1.302-0.781-2.084c4.167-1.302,7.553-3.907,9.636-7.553C197.11,260.391,196.589,259.35,196.329,258.568"/>
	<path style="fill:#FFFFFF;" d="M293.734,263.256l4.427-2.084l1.042,2.604l-2.084,1.042c2.344,0.781,3.907,3.125,3.646,5.469
		c-0.521,3.646-4.167,5.99-7.553,5.469c-0.781-0.26-1.563-0.521-2.344-0.781c-1.823-1.563-2.604-3.907-1.823-5.99l-1.823,1.042
		c-0.26-0.781-0.781-1.563-1.042-2.604c1.563-0.781,3.125-1.563,4.688-2.344c-0.521-0.521-1.042-0.781-1.823-1.302l3.907-1.823
		C293.213,261.954,293.473,262.475,293.734,263.256"/>
	<path style="fill:#FFFFFF;" d="M293.734,267.163c-1.563,0.781-2.344,2.604-1.563,4.167c0.26,0.521,0.781,1.042,1.302,1.302
		c1.302,0.781,3.125,0.521,4.167-1.042c0.26-0.26,0.26-0.521,0.26-1.042c0.26-1.823-0.781-3.386-2.604-3.646
		C294.775,266.902,294.254,266.902,293.734,267.163"/>
	<path style="fill:#FFFFFF;" d="M204.663,261.694c1.042,0.521,2.344,1.042,3.646,1.563l-9.115,19.533l-2.865-1.302
		c1.823-3.907,3.646-7.813,5.469-11.72l-3.386-1.563c0.26-0.781,0.781-1.563,1.042-2.604l3.125,1.563
		C204.142,265.6,204.663,263.517,204.663,261.694"/>
	<path style="fill:#FFFFFF;" d="M209.351,263.777l3.125,1.563c-3.125,6.511-5.99,13.022-9.115,19.533l-2.865-1.302
		C203.361,277.06,206.486,270.549,209.351,263.777"/>
	<path style="fill:#FFFFFF;" d="M293.473,278.362l16.147-7.813c1.042,2.344,2.084,4.427,3.125,6.771l-3.125,1.563
		c-0.521-1.302-1.302-2.865-2.084-4.167c-4.167,2.084-8.595,4.167-13.022,6.251L293.473,278.362"/>
	<path style="fill:#FFFFFF;" d="M251.021,272.111h3.907v5.73h1.563v-5.73h3.386c0,7.292,0,14.324,0,21.617h-3.386v-13.022h-1.563
		v13.022c-1.042,0-2.084,0-3.125,0v-4.167h-11.72c0-4.688,0-9.376,0-13.803c0-1.042-0.26-2.084-0.781-2.865c3.125,0,6.511,0,9.897,0
		v2.604h-5.469v11.459c2.604,0,5.469,0,8.074,0c0-3.907,0-7.813,0-11.72C251.542,273.674,251.282,272.632,251.021,272.111"/>
	<path style="fill:#003777;" d="M235.395,35.892c72.923-8.334,138.815,44.275,147.149,117.198s-44.275,138.815-117.198,147.149
		s-138.815-44.275-147.149-117.198c-4.167-37.243,7.553-74.746,32.295-102.874C172.108,55.165,202.58,39.538,235.395,35.892
		 M247.115,43.445c-0.521,5.73-0.521,11.459-1.042,16.929c0,1.042-1.302,1.042-2.084,1.302l-0.26,0.781l4.427,0.26
		c1.042,0,2.344,0.521,3.125-0.521c-0.781-0.521-3.125-0.26-2.865-1.823c0-3.646,0.26-7.553,0.521-11.199l11.459,13.282
		c0.521,0.521,1.302,1.042,2.084,1.302c0.521-5.73,0.521-11.199,1.042-16.929c0-1.563,1.563-1.563,2.604-1.823
		c-2.344-0.781-4.948-1.042-7.553-0.781c0.781,0.781,2.084,1.042,2.604,1.823c0,3.907-0.521,7.813-0.521,11.72l-12.501-14.585
		L247.115,43.445 M228.884,46.049l2.344,0.521c0.521,1.563,1.042,3.125,1.302,4.688c0.781,2.865,1.302,5.73,1.302,8.855
		c-0.521,2.604-3.125,4.167-5.73,3.386c-0.521-0.26-1.302-0.521-1.823-0.781c-1.302-1.563-2.084-3.646-2.344-5.73
		c-0.521-2.865-1.302-5.73-1.563-8.595c0.26-0.781,1.563-0.781,2.084-1.302l-0.781-0.521c-2.604,0.26-4.948,1.042-7.553,1.302v0.781
		c0.781,0.26,1.563,0,2.084,0.521c1.302,4.167,1.302,8.595,3.125,12.501c2.865,6.251,13.803,4.167,14.585-2.604
		c0.26-4.688-1.563-9.115-2.084-13.803l1.823-0.26c0-0.26,0-0.781,0-1.042C233.311,44.747,230.447,44.226,228.884,46.049
		 M274.721,46.049c0.521,1.042,2.604,1.563,1.823,2.865c-1.042,4.948-2.344,10.157-3.386,15.106h-2.604
		c0.26,0.521,0.781,0.781,1.302,1.042c2.344,0.521,4.948,1.042,7.292,1.563v-0.781c-0.781-0.26-1.563-0.521-2.344-1.042
		c0-0.781,0-1.563,0.26-2.344c1.042-4.688,2.084-9.376,3.386-14.064h2.604c-0.26-1.042-1.302-1.042-2.084-1.302
		C278.888,46.83,276.805,46.049,274.721,46.049 M289.046,49.435c0.521,1.042,1.563,1.823,1.823,3.125
		c0.26,6.511-0.521,13.022,0,19.273c4.948-4.167,9.376-8.855,14.324-13.022c1.042-1.042,2.344-0.521,3.386-0.521
		c-1.823-1.563-4.167-2.604-6.511-3.125l1.302,1.823c-3.125,3.125-6.251,6.511-9.376,9.636c0.26-4.427,0.26-9.115,0.781-13.543
		c0.781,0,1.302-0.26,2.084-0.521C294.254,51.258,291.65,50.216,289.046,49.435 M188.516,59.852c1.042,0.26,2.865-0.521,3.386,0.781
		c2.344,4.688,4.948,9.376,7.032,14.064L197.11,76l0.521,0.781c2.865-1.302,5.469-2.865,7.813-4.427
		c-1.042,0.26-2.084,0.26-3.125,0.521c-0.521-0.521-1.042-1.302-1.302-2.084c-2.084-4.167-4.427-8.334-6.511-12.762
		c0.781-0.521,1.563-1.302,1.563-2.344C193.464,56.727,190.86,58.29,188.516,59.852 M312.746,61.155
		c0.521,1.042,2.344,2.344,1.302,3.646c-2.865,4.167-5.469,8.595-8.595,12.762l-2.084-1.042c0,0.26,0,0.781,0,1.042
		c3.386,2.344,7.032,4.688,10.418,7.032c1.042-1.302,1.823-2.604,2.604-3.907c-1.042,0.26-1.823,1.042-3.125,1.302
		c-1.563-0.781-2.865-1.563-4.167-2.604c1.302-2.084,2.865-4.167,4.167-6.251l3.907,2.604c-0.26,0.521-0.521,1.302-0.521,1.823
		l0.781,0.521c1.302-1.563,2.344-3.125,3.125-4.948c-0.781,0.521-1.302,0.781-2.084,1.302c-1.302-0.781-2.604-1.563-3.907-2.604
		l3.646-5.209c1.302,0.781,2.604,1.823,3.646,2.865c0.26,0.781-0.26,1.563-0.521,2.084l0.781,0.26l2.084-3.386
		c-2.604-1.823-5.469-3.646-8.074-5.469c-0.781-0.521-1.823-1.042-2.865-1.302 M172.368,70.531
		c-0.781,0.521-1.302,1.042-1.823,1.823c1.302-0.26,2.865-1.563,3.907,0c3.125,4.167,6.251,8.074,9.115,12.501l-1.563,1.823
		c1.042,0.26,1.823-0.521,2.604-1.042c2.604-2.084,5.469-4.167,8.334-6.251c-1.042-1.302-1.823-2.604-2.865-3.646
		c0,1.042,0,2.084,0.26,3.125c-1.042,1.302-2.604,2.344-3.907,3.386L181.744,76l3.646-2.604c0.521,0.521,1.302,0.781,2.084,1.042
		c-0.521-2.084-1.823-3.646-3.646-4.688c0.26,0.781,0.521,1.563,0.781,2.084c-1.302,1.042-2.344,1.823-3.646,2.865l-3.907-5.209
		c1.302-1.042,2.604-2.084,4.167-2.604c0.521,0.781,1.302,1.042,2.344,1.042c-0.781-1.302-1.563-2.344-2.604-3.386
		C177.838,66.624,174.973,68.707,172.368,70.531 M238.26,71.833c-53.13,6.511-90.633,54.953-84.122,108.083
		s54.953,90.633,108.083,84.122c53.13-6.511,90.633-54.953,84.122-108.083c-3.646-28.909-20.054-54.692-44.796-70.058
		C282.535,73.916,260.397,68.968,238.26,71.833 M331.758,74.177c0,1.042,0.521,1.823,0.521,2.865
		c-1.823,2.084-3.907,4.167-5.99,6.251c-1.823,1.823-3.646,3.646-5.73,5.469l-2.344-1.302c1.563,2.604,3.646,4.688,5.99,6.511
		c1.563-0.26-0.781-2.084-0.781-2.865l4.427-4.427l1.563,1.563c-0.521,2.604-0.781,5.469-1.042,8.334
		c0,2.604,2.344,3.907,3.907,5.469c0-1.563-1.042-2.865-1.042-4.167c0-2.865,0.521-5.469,0.781-8.334
		c2.344,0.26,4.688-0.521,6.511-2.084c1.563-1.823,1.302-4.688-0.26-6.511C336.446,78.344,334.102,76.26,331.758,74.177
		 M158.826,86.157c0.781,3.125,3.646,4.948,6.771,4.427c2.604,0,5.469-1.302,7.553,0.781c2.084,2.084-1.302,5.99-3.907,4.688
		c-1.042-0.521-1.823-0.781-2.865-1.042c1.042,1.563,2.344,3.125,3.907,4.167c2.865-1.042,5.209-3.646,5.73-7.032
		c0.26-3.125-2.344-5.73-5.469-5.99l0,0c-2.865-0.26-5.469,1.042-8.334,0.26c-2.084-1.042-1.302-4.167,0.781-4.688
		c1.563-0.781,2.865,1.042,4.427,0.26c-1.042-1.042-2.344-2.344-3.386-3.386C161.17,80.427,158.565,82.771,158.826,86.157
		 M149.71,93.97c-1.302,1.823-2.604,3.907-3.646,5.99c1.302-0.521,2.344-2.084,3.646-1.302c3.125,1.823,6.251,3.907,9.376,5.73
		c-5.73,1.302-11.459,2.604-17.189,3.907c-0.781,0.26-1.563,0.521-2.344,1.302c4.688,3.125,9.636,5.99,14.324,9.115
		c1.302,0.781,0.521,2.344,0.521,3.646c1.563-2.084,3.125-4.427,4.167-6.771c-1.042,0-1.823,1.042-2.604,1.823
		c-0.781,0-1.563-0.521-2.344-1.042l-8.074-4.948l14.845-3.386c1.563,0,3.386-0.781,4.427-1.823
		c-3.386-2.084-6.771-4.167-10.157-6.251c-1.823-1.042-3.646-2.084-5.209-3.646C149.971,95.533,151.012,93.71,149.71,93.97
		 M342.957,101.262c-0.26,2.344,0.26,5.73-2.344,7.032s-5.73-2.604-3.646-4.948c0.521-0.781,1.823-1.563,1.042-2.604
		c-1.302,1.042-2.865,1.823-4.167,2.865c0.26,3.907,3.125,7.032,7.032,7.553c3.125-0.26,5.469-2.865,5.73-5.99
		c0.521-2.344-0.26-4.948,1.302-6.771c1.563-1.823,3.907,0,4.167,1.823c0.26,1.823-0.781,2.604-1.563,3.646
		c1.563,0.781,2.865-1.302,4.167-2.084c-1.042-3.125-3.125-6.771-6.771-6.511C345.04,95.793,342.696,98.398,342.957,101.262
		 M359.365,109.857c0,0.781,0.781,2.344-0.26,2.865c-3.386,1.823-7.032,3.386-10.418,5.209c-1.302,0.781-2.604,1.302-3.907,1.823
		c-0.521-0.521-1.042-1.302-1.563-1.823c0,0.26,0,0.781,0,1.042c1.042,2.344,2.084,4.688,3.386,7.032c1.302,0.26-0.26-1.823,0-2.604
		c1.563-1.042,3.386-2.084,5.209-2.865c3.125-1.563,6.251-3.125,9.636-4.688c0.521,0.521,1.302,1.042,1.823,1.823
		c0-0.26,0.26-0.521,0.26-0.781c-0.781-1.823-1.823-3.646-2.604-5.469C360.406,110.638,359.885,110.117,359.365,109.857
		 M137.469,123.139c-4.948,2.344-7.553,7.813-6.511,13.022c1.563,5.469,7.292,8.595,13.022,7.032c0.26,0,0.521-0.26,0.781-0.26
		c4.427-2.344,6.771-7.292,5.99-11.98c-1.302-5.73-7.032-9.376-12.762-8.074C137.99,122.879,137.73,122.879,137.469,123.139
		 M362.75,125.744c0.521,1.042,2.084,0.521,2.865,1.563c0.781,1.563,1.302,3.125,1.563,4.688l-15.626,4.688l-1.042-1.823
		l-0.781,0.26c0.781,2.865,1.563,5.469,2.344,8.334l0.781-0.26c0-1.042-1.042-2.865,0.781-3.125
		c4.948-1.563,9.897-2.865,14.585-4.427c0.521,1.563,1.042,3.125,1.042,4.948c-0.521,0.781-1.563,1.302-1.563,2.344
		c1.302-0.521,2.604-1.042,3.907-1.823c-1.563-5.209-3.125-10.418-4.688-15.626C365.615,125.483,364.313,125.483,362.75,125.744
		 M127.052,152.83l1.302-1.302c2.604,1.302,4.688,3.125,7.032,4.688c-2.604,1.302-5.209,2.344-7.813,3.646l-1.302-1.302
		c-0.26,2.604-0.521,5.209-0.781,7.813c1.042-0.781,1.302-2.344,2.604-2.865c2.344-1.302,4.688-2.344,7.032-3.646
		c2.344-1.042,5.469-0.521,8.074-0.26c1.302,0,1.042,1.823,1.563,2.604c0.781-2.865,1.302-5.99,1.042-9.115
		c-1.042,0.781-0.781,3.125-2.604,2.865c-2.604-0.26-5.73,0-7.813-1.823s-4.167-2.865-5.99-4.688
		c-1.042-0.781-1.042-2.344-1.563-3.386C127.312,148.142,126.791,150.486,127.052,152.83 M372.387,145.798
		c-0.521,3.907-4.688,5.469-7.292,7.813c-2.344,2.084-5.469,2.084-8.334,2.084c-1.302,0.26-1.302-1.563-1.823-2.344
		c-0.781,1.563,0,3.386,0,4.948s0,3.125,1.042,4.167c0.26-1.042-0.26-3.125,1.302-3.125c2.084-0.521,4.427-0.521,6.771-0.521
		c2.604,1.042,5.209,2.344,7.813,3.646c1.563,0.521,2.084,2.344,3.125,3.386c0-2.344-0.26-4.688-0.521-7.032l-1.563,1.302
		c-2.604-0.781-5.209-1.823-7.553-3.125c2.344-1.823,4.688-3.386,7.032-4.948l1.302,1.042
		C373.428,151.007,373.168,148.402,372.387,145.798 M140.074,196.063c-1.823,1.042-2.344,3.386-1.042,5.209
		c1.042,1.823,3.386,2.344,5.209,1.042c1.302-0.781,1.823-2.084,1.823-3.646c-0.26-2.084-2.084-3.646-4.167-3.386
		C141.116,195.542,140.595,195.802,140.074,196.063 M358.583,196.063c-2.084,0.521-3.125,2.865-2.604,4.688
		c0.521,2.084,2.865,3.125,4.688,2.604c1.302-0.521,2.344-1.563,2.604-2.865c0.521-2.084-1.042-4.167-3.125-4.427
		C359.625,195.802,359.104,195.802,358.583,196.063 M325.247,241.64l2.084,1.823c2.865-3.386,5.73-7.032,8.595-10.418l11.199,9.376
		c-0.521,0.521-1.042,1.302-1.563,2.084l-5.73-4.948l-2.084,2.604l5.73,4.948l-1.042,1.302l-5.73-4.948
		c-0.781,1.042-1.823,2.084-2.604,3.125h1.563l4.948,3.907l-2.344,3.125l2.084,1.823l13.022-15.626l-2.084-1.823l-1.563,1.563
		c-4.427-3.646-8.855-7.292-13.282-10.938L325.247,241.64 M158.565,230.441c-2.604,2.344-2.604,6.251-0.26,8.855
		c1.302,1.563,3.386,2.344,5.469,2.344c1.042,1.042,1.823,2.084,2.865,3.125c-1.302,1.302-2.865,2.604-4.167,3.646l2.344,2.604
		l11.72-10.157c-1.042-1.042-1.823-2.084-2.865-3.386c-0.26,1.042-0.781,1.823-1.302,2.604c-1.042-1.042-2.084-2.084-3.125-3.386
		c-0.26-1.563-0.781-3.125-1.563-4.688c-1.823-2.865-5.73-3.907-8.855-2.084C158.826,230.441,158.565,230.441,158.565,230.441
		 M154.398,237.733c-0.781,2.344-3.125,3.646-4.948,5.209l10.938,12.501l2.084-1.823l-8.595-9.897l3.125-2.865
		C156.221,239.817,155.44,238.775,154.398,237.733 M299.463,259.61c0.781,0.521,1.563,1.042,1.823,1.823
		c1.563,2.865,2.865,5.99,4.167,8.855l3.125-1.563c-0.521-1.302-1.042-2.344-1.823-3.646l3.125-1.563
		c-0.521-0.781-0.781-1.563-1.042-2.344l-3.125,1.563c-0.781-1.823-1.823-3.646-2.604-5.469L299.463,259.61 M196.329,258.568
		c0.26,1.042,0.781,2.084,0,2.865c-2.084,3.646-5.73,6.251-9.636,7.553c0.26,0.781,0.521,1.302,0.781,2.084
		c2.084-0.521,3.907-1.302,5.99-2.344c0.781,2.084,1.563,4.427,2.084,6.511l2.865-1.563c-0.781-2.084-1.563-4.427-2.604-6.251
		c2.344-1.823,4.167-4.167,5.469-6.771L196.329,258.568 M293.734,263.256c-0.26-0.521-0.521-1.042-0.781-1.563l-3.907,1.823
		c0.521,0.521,1.302,0.781,1.823,1.302c-1.563,0.781-3.125,1.563-4.688,2.344c0.26,0.781,0.781,1.563,1.042,2.604l1.823-1.042
		c-0.781,2.084,0,4.688,1.823,5.99c3.125,1.823,7.032,1.042,9.115-2.084c0.521-0.781,0.781-1.563,0.781-2.344
		c0.26-2.344-1.302-4.688-3.646-5.469l2.084-1.042l-1.042-2.604L293.734,263.256 M204.663,261.694c0,2.084-0.521,3.907-1.823,5.73
		l-3.125-1.563c-0.521,0.781-0.781,1.563-1.042,2.604l3.386,1.563c-1.823,3.907-3.646,7.813-5.469,11.72l2.865,1.302l9.115-19.793
		C207.007,262.735,205.965,262.215,204.663,261.694 M209.611,263.777c-2.865,6.511-5.99,13.022-9.115,19.533l3.125,1.563
		c2.865-6.511,5.99-13.022,9.115-19.533L209.611,263.777 M293.473,278.362l1.302,2.604c4.167-2.084,8.595-4.167,13.022-6.251
		c0.781,1.302,1.302,2.865,2.084,4.167l3.125-1.563c-1.042-2.084-2.084-4.427-3.125-6.771L293.473,278.362 M251.021,272.111
		c0.521,0.781,0.781,1.823,0.781,2.865c0,3.907,0,7.813,0,11.72c-2.604,0-5.469,0-8.334,0v-11.459h5.469v-2.604
		c-3.125,0-6.511,0-9.897,0c0.521,0.781,0.781,1.823,0.781,2.865c0,4.688,0,9.376,0,13.803h11.72v4.167c1.042,0,2.084,0,3.125,0
		v-13.022h1.563v13.022h3.386c0-7.292,0-14.324,0-21.617h-3.386v5.73h-1.563v-5.73L251.021,272.111 M329.414,85.376
		c2.084-2.084,3.907-3.907,5.99-5.99c0.781,1.042,2.084,2.344,1.563,3.646c-0.521,2.084-1.823,3.646-3.907,4.167
		C331.497,87.98,330.456,86.417,329.414,85.376 M224.717,100.481c9.115-3.125,17.71-7.813,25.523-13.543
		c16.147,12.241,35.941,18.491,55.995,20.575c4.688,0.521,9.376,0.781,13.803,0.781c0,16.929,0,33.597,0,50.525
		c0,5.99-0.521,12.241-1.563,18.231c-45.317-8.334-91.675-8.334-136.992,0c-1.042-6.771-1.563-13.803-1.563-20.575v-48.442
		C195.287,108.034,210.393,105.43,224.717,100.481 M245.292,108.034c-15.106,2.604-25.263,17.189-22.658,32.295
		s17.189,25.263,32.295,22.658c15.106-2.604,25.263-17.189,22.658-32.295c-1.302-7.553-5.73-14.324-12.241-18.491
		C259.355,108.294,252.324,106.992,245.292,108.034 M294.515,128.088c0.26,3.907,5.209,4.427,6.511,7.813
		c0,2.084-1.302,4.688-3.646,4.427c0.781-1.563,2.084-2.865,1.823-4.427c-1.042-2.084-3.386-2.604-4.688-4.427
		c-0.781-1.042-1.042-2.344-1.042-3.646c-1.302,1.563-3.125,3.125-3.125,5.469c1.042,2.604,4.948,3.646,5.469,6.771
		c-1.302,0-2.604,0-3.907,0c0.26,1.302,0.781,2.344,1.042,3.386c3.646,0,7.553,0,11.199,0c0.521-1.302,0.781-2.344,1.042-3.386
		h-3.125c1.823-2.084,4.427-4.167,4.167-7.032c-1.563-2.865-4.948-4.167-6.511-6.771c-0.521-1.563,0.26-3.125,0.521-4.688
		C297.901,123.66,295.296,125.223,294.515,128.088 M193.464,132.255c-0.26,4.688-0.26,9.636,0,14.324c2.344,0,4.688,0,7.032,0
		c0.26-4.427,0.26-9.115,0-13.543C198.673,131.474,195.548,132.776,193.464,132.255 M203.361,132.515
		c-1.302,0.26-1.042,1.823-1.042,2.865c0,3.907,0,7.553,0,11.459c2.344,0,4.948,0,7.292,0c0-4.688,0-9.376,0-14.064
		C207.528,132.255,205.184,132.255,203.361,132.515 M189.558,134.599c-0.26,4.948-0.26,10.157,0,15.106c2.865,0,5.73,0,8.595,0
		c1.302,1.823,3.646,2.084,5.469,1.042c0.26-0.26,0.781-0.521,1.042-1.042c2.865,0,5.469,0,8.334,0c0.26-4.948,0.26-9.897,0-14.845
		l-1.823-0.521c0,4.427,0,9.115,0,13.543c-2.604,0-5.209,0-8.074,0c-0.521,0.781-1.042,1.563-1.823,1.563
		c-1.042,0-1.302-1.042-1.823-1.563h-7.813c0-4.427,0-8.855,0-13.282L189.558,134.599 M295.036,145.277
		c0.521,3.907,1.042,7.813,1.823,11.459c0,1.563,1.823,0.781,2.604,0.781c0.521-4.167,1.302-8.334,2.084-12.241
		C299.203,145.016,297.119,145.016,295.036,145.277 M247.115,121.577c7.553-1.563,15.106,3.125,16.929,10.678
		c1.563,7.553-3.125,15.106-10.678,16.929c-7.553,1.563-15.106-3.125-16.929-10.678c-0.521-2.344-0.521-4.948,0.26-7.292
		C238.26,126.265,242.166,122.879,247.115,121.577 M136.949,127.046c2.865-0.781,6.251-0.521,8.855,1.042
		c1.823,0.781,3.125,2.604,3.646,4.688c0,2.865-1.823,5.469-4.427,6.511c-2.865,0.781-5.99,0.521-8.855-0.781
		c-1.823-0.781-3.125-2.344-3.646-4.167C132,130.953,133.823,128.088,136.949,127.046 M182.526,180.957
		c44.796-8.074,90.633-8.074,135.429,0c-3.386,16.668-10.938,32.295-22.137,45.317c-15.106-15.106-30.471-30.471-45.577-45.577
		c-15.106,15.106-30.471,30.471-45.577,45.577C193.464,213.252,185.911,197.625,182.526,180.957 M215.862,237.473
		c11.459-11.459,22.919-22.919,34.378-34.378c11.459,11.459,22.919,22.919,34.378,34.378c-10.418,8.855-21.877,16.147-34.378,21.617
		C237.739,253.62,226.28,246.328,215.862,237.473 M237.218,229.66c-1.563,0.781-2.865,1.823-4.167,3.125l2.344-0.521
		c0,2.604,0,4.948-0.26,7.553c-0.781,0.26-1.302,0.521-2.084,0.781c2.084,0.26,4.167,0.26,6.251,0l-1.823-0.781
		C237.478,236.171,237.478,232.785,237.218,229.66 M241.125,232.264c0,1.042,1.042,1.823,1.563,2.604
		c-1.042,0.781-2.344,2.084-2.084,3.386c0.781,3.646,7.292,3.125,7.553-0.521c0.26-1.563-1.042-2.344-2.084-3.125
		c1.042-0.781,2.084-2.084,1.302-3.386c-1.042-1.563-3.386-2.084-4.948-1.042C241.906,230.701,241.385,231.483,241.125,232.264
		 M250.761,232.264c0,1.042,0.781,1.823,1.563,2.604c-1.302,0.781-2.604,2.084-1.823,3.646c1.042,3.386,7.292,2.865,7.553-0.781
		c0-1.563-1.042-2.344-2.084-3.125c1.042-0.781,1.563-2.084,1.302-3.386C255.709,228.618,250.761,229.139,250.761,232.264
		 M260.658,229.92c-0.26,1.302-0.26,2.865-0.521,4.167c1.302,0.521,2.604,0.781,3.386,2.084c0.781,1.302,0.26,3.646-1.823,3.646
		c-1.302,0-1.563-1.563-2.344-2.344c0,1.042,0,2.084,0,3.125c1.823,0.521,3.646,0,5.209-1.042c1.563-1.302,1.563-3.646,0.26-5.209
		c-0.26-0.26-0.26-0.26-0.521-0.521c-1.042-0.781-3.125-0.781-3.125-2.344h3.125l1.042,1.042c0.26-1.042,0.26-1.823,0.26-2.865
		L260.658,229.92 M242.948,232.264c-0.26-1.042,1.302-2.344,2.084-1.302s0.26,2.084-0.26,3.125
		C244.25,233.566,243.208,233.045,242.948,232.264 M252.584,231.743c0-1.302,1.823-1.563,2.604-0.521s-0.26,1.823-0.521,2.865
		C253.886,233.566,252.324,233.045,252.584,231.743 M162.211,232.524c1.563-0.521,3.386,0.26,3.907,2.084
		c0,0.26,0.26,0.521,0.26,0.781c0,1.823-1.563,3.646-3.386,3.646c-0.781,0-1.563-0.26-2.344-0.781
		c-1.302-1.302-1.302-3.646,0.26-4.948C160.909,232.785,161.43,232.524,162.211,232.524 M243.99,235.129
		c1.042,0.781,2.865,1.823,2.084,3.386c-0.26,0.781-1.302,1.302-2.344,0.781c-0.521-0.26-0.781-0.521-0.781-0.781
		C242.166,237.212,243.208,235.91,243.99,235.129 M254.147,239.556c-2.604-0.26-2.084-3.386-0.521-4.688
		C255.449,235.91,256.751,239.035,254.147,239.556 M166.639,240.858l1.302-1.302c0.781,0.781,1.563,1.563,2.084,2.604l-1.302,1.042
		L166.639,240.858 M293.734,266.902c1.563-0.521,3.386,0.26,3.907,1.823c0.26,0.521,0.26,1.042,0,1.563
		c-0.26,1.563-1.823,2.604-3.386,2.344c-0.26,0-0.781-0.26-1.042-0.26c-1.563-0.781-2.084-2.865-1.042-4.167
		C292.692,267.684,293.213,267.163,293.734,266.902z"/>
</g>
</svg>
