<?xml version="1.0" encoding="UTF-8" standalone="no"?>
<!-- Created with Inkscape (http://www.inkscape.org/) -->

<svg
   width="2000"
   height="2000"
   viewBox="0 0 529.16665 529.16667"
   version="1.1"
   id="svg24993"
   inkscape:version="1.1.1 (3bf5ae0d25, 2021-09-20)"
   sodipodi:docname="chula-eng-and-tokyo-tech.svg"
   xmlns:inkscape="http://www.inkscape.org/namespaces/inkscape"
   xmlns:sodipodi="http://sodipodi.sourceforge.net/DTD/sodipodi-0.dtd"
   xmlns="http://www.w3.org/2000/svg"
   xmlns:svg="http://www.w3.org/2000/svg">
  <sodipodi:namedview
     id="namedview24995"
     pagecolor="#505050"
     bordercolor="#eeeeee"
     borderopacity="1"
     inkscape:pageshadow="0"
     inkscape:pageopacity="0"
     inkscape:pagecheckerboard="0"
     inkscape:document-units="px"
     showgrid="false"
     units="px"
     inkscape:zoom="0.70710678"
     inkscape:cx="1066.317"
     inkscape:cy="1036.6185"
     inkscape:window-width="3840"
     inkscape:window-height="2066"
     inkscape:window-x="2292"
     inkscape:window-y="-12"
     inkscape:window-maximized="1"
     inkscape:current-layer="layer1" />
  <defs
     id="defs24990" />
  <g
     inkscape:groupmode="layer"
     id="layer2"
     inkscape:label="Layer 2">
    <rect
       style="fill:#ffffff;stroke-width:0.264583"
       id="rect25938"
       width="530.22498"
       height="533.92914"
       x="-0.52916664"
       y="0" />
  </g>
  <g
     inkscape:label="Layer 1"
     inkscape:groupmode="layer"
     id="layer1">
    <path
       style="fill:#000000;stroke-width:0.310263"
       d="m 162.15957,354.4077 h -1.70645 v -11.01434 -11.01435 h 1.50001 1.50001 l 6.95466,8.11202 6.95466,8.11202 0.0853,-5.00938 0.0853,-5.00939 h 1.69877 1.69876 v 7.91171 7.91171 h -1.49499 -1.495 l -6.80455,-7.75321 -6.80455,-7.75321 -0.23268,-0.004 -0.2327,-0.004 v 7.75657 7.75659 z m 23.42486,0 h -1.5513 v -1.70645 -1.70645 h 1.5513 1.55132 v 1.70645 1.70645 z m 4.8253,0 h -1.72266 v -1.72267 -1.72265 l 1.62888,0.0938 1.62888,0.0938 0.0938,1.62888 0.0938,1.62889 z m 4.79287,0 h -1.55132 v -1.70645 -1.70645 h 1.55132 1.55131 v 1.70645 1.70645 z m 19.33811,0 h -1.29472 l -0.31871,-1.00836 -0.31871,-1.00836 -2.9896,-9.58422 -2.98959,-9.5842 -0.16185,-0.42178 -0.16185,-0.42177 h 1.88146 1.88144 l 0.97073,3.1802 0.97073,3.1802 1.38195,4.48534 1.38197,4.48536 0.0702,0.0702 0.0702,0.0702 2.02071,-5.33124 2.02072,-5.33126 h 1.96903 1.96904 l 1.75776,4.80908 1.75777,4.80907 0.25961,0.62053 0.2596,0.62053 0.29322,-1.08591 0.29321,-1.08594 2.17227,-6.74821 2.17229,-6.74823 h 1.86442 1.86443 l -0.15183,0.38783 -0.15184,0.38783 -3.51962,10.6168 -3.51961,10.61678 -1.24961,0.009 -1.24962,0.009 -1.01339,-2.73466 -1.01339,-2.73465 -1.48346,-3.79762 -1.48347,-3.79763 -2.45863,6.53228 -2.45862,6.53228 h -1.29472 z m -24.1472,-4.65395 h -1.70644 v -1.70645 -1.70644 h 1.70644 1.70645 v 1.70644 1.70645 z m 4.80909,0 h -1.55132 v -1.70645 -1.70644 h 1.55132 1.55131 v 1.70644 1.70645 z m 4.8253,0 h -1.72267 v -1.72266 -1.72266 l 1.62888,0.0938 1.62888,0.0938 0.0938,1.62887 0.0938,1.62889 z m -9.63439,-4.65394 h -1.70644 v -1.70645 -1.70645 h 1.70644 1.70645 v 1.70645 1.70645 z m 4.80909,0 h -1.55132 v -1.70645 -1.70645 h 1.55132 1.55131 v 1.70645 1.70645 z m 4.80908,0 h -1.70645 v -1.70645 -1.70645 h 1.70645 1.70645 v 1.70645 1.70645 z m 4.63773,0 h -1.72266 l 0.0938,-1.62889 0.0938,-1.62888 1.62887,-0.0938 1.6289,-0.0938 v 1.72266 1.72267 z m -14.2559,-4.65395 h -1.70644 v -1.70645 -1.70645 h 1.70644 1.70645 v 1.70645 1.70645 z m 4.80909,0 h -1.55132 v -1.70645 -1.70645 h 1.55132 1.55131 v 1.70645 1.70645 z m 4.80908,0 h -1.70645 v -1.70645 -1.70645 h 1.70645 1.70645 v 1.70645 1.70645 z m -19.02948,-4.65395 h -1.49961 l -0.20684,-0.20684 -0.20684,-0.20685 v -1.4996 -1.49961 h 1.70645 1.70645 v 1.70645 1.70645 z m 4.60223,0 h -1.5513 v -1.70645 -1.70645 h 1.5513 1.55132 v 1.70645 1.70645 z m 4.80908,0 h -1.70644 v -1.70645 -1.70645 h 1.70644 1.70645 v 1.70645 1.70645 z m 4.80909,0 h -1.55132 v -1.70645 -1.70645 h 1.55132 1.55131 v 1.70645 1.70645 z M 44.259566,234.61576 l -2.792369,-0.0257 -2.171842,-0.40433 -2.171841,-0.40434 -1.551317,-0.53019 -1.551316,-0.53019 -2.171842,-1.12294 -2.171842,-1.12294 -2.661816,-2.64604 -2.661819,-2.64605 -1.295685,-2.32698 -1.295685,-2.32696 -0.779924,-2.43928 -0.779924,-2.43926 -0.29649,-2.85927 -0.296491,-2.85926 0.30551,-2.68871 0.305513,-2.68869 0.742361,-2.33771 0.742363,-2.33773 1.318977,-2.24069 1.318979,-2.24071 2.522995,-2.48211 2.522998,-2.4821 1.764017,-1.04082 1.764019,-1.04081 1.82884,-0.7387 1.82884,-0.7387 2.233799,-0.46989 2.233796,-0.46989 h 3.663091 3.663091 l 3.001039,0.76127 3.001039,0.76127 2.510281,1.33301 2.510282,1.33299 2.068353,1.9112 2.06834,1.9112 0.887542,1.28073 0.887554,1.28072 -0.283018,0.24225 -0.283031,0.24223 -2.087607,1.60762 -2.087619,1.60761 h -0.14678 -0.14678 l -2.303891,-2.30387 -2.303884,-2.30388 -2.208834,-1.11235 -2.208836,-1.11236 -1.940252,-0.45746 -1.940252,-0.45746 h -2.637237 -2.637237 l -1.98472,0.46784 -1.984715,0.46784 -2.181371,1.14627 -2.181367,1.14628 -1.728914,1.60187 -1.728914,1.60188 -1.17344,1.97633 -1.173443,1.97633 -0.671909,2.17184 -0.67191,2.17185 v 3.25776 3.25777 l 0.671147,2.18471 0.671149,2.18473 1.213393,1.84869 1.213395,1.84869 1.512124,1.45523 1.512126,1.45522 1.86158,1.11546 1.861579,1.11544 1.551315,0.46975 1.551316,0.46974 2.326974,0.27292 2.326974,0.27292 2.425913,-0.30063 2.425916,-0.30062 1.762637,-0.64907 1.762639,-0.64909 2.076058,-1.36699 2.076054,-1.36699 1.412152,-1.57065 1.412138,-1.57064 2.138711,1.58549 2.138711,1.58549 0.389976,0.46988 0.389965,0.46989 -1.235397,1.46613 -1.235385,1.46613 -1.798045,1.45718 -1.798033,1.45719 -2.09873,1.10285 -2.098726,1.10284 -1.970646,0.60466 -1.970644,0.60466 -2.016712,0.32343 -2.016711,0.32341 -2.792368,-0.0257 z m 92.148164,-0.008 -2.17185,-0.0294 -1.24105,-0.2491 -1.24105,-0.24911 -1.77618,-0.66705 -1.77619,-0.66706 -1.81807,-1.33838 -1.81808,-1.33839 -1.28964,-1.93127 -1.28966,-1.93127 -0.5344,-1.59763 -0.53439,-1.59762 -0.10496,-18.07281 -0.10495,-18.07284 h 3.26179 3.26179 l 0.0896,17.60744 0.0897,17.60742 0.53148,1.12603 0.53148,1.12604 0.76083,0.90419 0.76083,0.90421 1.81033,0.91727 1.81032,0.91727 2.38445,0.10952 2.38445,0.10953 1.64897,-0.76808 1.64896,-0.76807 0.98965,-0.98883 0.98964,-0.98884 0.68634,-1.41779 0.68635,-1.4178 0.24329,-3.60546 0.24329,-3.60545 0.0198,-13.88427 0.0199,-13.88429 h 3.28523 3.28523 l -0.14477,16.67664 -0.14477,16.67665 -0.50081,2.32696 -0.50083,2.32698 -0.93677,1.90692 -0.93677,1.90691 -2.02327,1.89268 -2.02328,1.89268 -1.22115,0.62298 -1.22115,0.62298 -1.9489,0.45948 -1.94892,0.45949 -2.17184,-0.0294 z m 57.16598,-0.95928 -3.33533,0.0881 v -0.13334 -0.13336 l 9.49707,-20.27694 9.49707,-20.27696 1.40912,-3.02506 1.40914,-3.02507 h 1.05638 1.05638 l 0.64746,1.47375 0.64746,1.47375 9.91684,21.40816 9.91685,21.40815 0.15852,0.54296 0.15852,0.54296 h -3.24066 -3.24065 l -3.58926,-7.67901 -3.58926,-7.67902 h -8.90001 -8.90003 l -3.06807,6.51553 -3.06807,6.51553 -0.55207,1.08592 -0.55207,1.08592 z m 19.44811,-21.03083 h 6.07104 l -0.0106,-0.23269 -0.0105,-0.2327 -2.90097,-6.20527 -2.90098,-6.20527 -0.26835,0.14345 -0.26834,0.14344 -2.71257,5.73282 -2.71256,5.73281 -0.17828,0.56171 -0.17829,0.5617 h 6.07105 z M 78.694707,233.40506 H 75.441019 V 210.13534 186.8656 h 3.257757 3.257769 v 9.30789 9.3079 h 10.238681 10.238694 v -9.3079 -9.30789 h 3.25776 3.25777 v 23.26974 23.26972 h -3.25777 -3.25776 v -10.70832 -10.7083 l -10.161134,0.0818 -10.161111,0.0819 -0.08162,10.6265 -0.08162,10.62652 z m 96.030523,0 h -11.79 V 210.13534 186.8656 h 3.25775 3.25777 v 20.1671 20.1671 h 8.53224 8.53223 v 3.10262 3.10264 z"
       id="path1514"
       sodipodi:nodetypes="ccccccccccccccccccccccccccccccccccccccccccccccccccccccccccccccccccccccccccccccccccccccccccccccccccccccccccccccccccccccccccccccccccccccccccccccccccccccccccccccccccccccccccccccccccccccccccccccccccccccccccccccccccccccccccccccccccccccccccccccccccccccccccccccccccccccccccccccccccccccccccccccccccccccccccccccccccccccccccccccccccccccccccccccccccccccccccccccccccccccccccccccccccccccccccccccccccccccccccccccccccccccccccccccccccccccccccccccccccccccccccccccccccccccc" />
    <path
       style="fill:#a11d2a;fill-opacity:1;stroke-width:0.310263"
       d="m 123.57368,355.00018 -0.197,-0.0279 -1.00148,-0.28935 -1.00146,-0.28938 0.10893,-0.93603 0.10894,-0.93604 -0.94992,-0.49123 -0.94991,-0.49121 -0.55792,0.34842 -0.55792,0.34843 h -0.41367 -0.41365 l -0.69594,-0.80042 -0.69594,-0.80039 0.49247,-0.75161 0.49247,-0.75161 -0.48097,-0.93007 -0.48098,-0.93011 h -0.93049 -0.9305 l -0.30259,-0.79585 -0.30258,-0.79587 v -0.39275 -0.39277 l 0.77565,-0.41513 0.77566,-0.41513 v -1.04013 -1.04016 l -0.77566,-0.35339 -0.77565,-0.35342 v -0.3954 -0.3954 l 0.30258,-0.79585 0.30259,-0.79586 h 0.9305 0.93049 l 0.49356,-0.95443 0.49355,-0.95443 -0.51825,-0.79096 -0.51825,-0.79095 0.92453,-0.92452 0.92451,-0.92453 0.77648,0.50881 0.77648,0.50876 0.81376,-0.37079 0.81377,-0.37077 v -0.97379 -0.97379 l 1.03039,-0.3726 1.03038,-0.37259 h 0.31599 0.31601 l 0.35341,0.77566 0.35341,0.77566 h 1.09922 1.09923 l 0.35909,-0.78813 0.3591,-0.78814 0.95287,0.2041 0.95287,0.20409 0.2327,0.13695 0.2327,0.13695 v 0.90451 0.90451 l 0.9301,0.48097 0.93008,0.48097 0.71969,-0.47154 0.71969,-0.47157 0.87735,0.91578 0.87736,0.91573 -1.51878,1.39746 -1.51878,1.39746 -0.24952,0.0124 -0.24953,0.0124 -0.99153,-0.93626 -0.99153,-0.93622 -1.53006,-0.45996 -1.53006,-0.45993 h -0.66304 -0.66303 l -1.63633,0.48593 -1.63634,0.48593 -1.32608,1.32611 -1.32606,1.32606 -0.54394,1.63763 -0.54393,1.6376 0.19493,1.42208 0.19492,1.42213 0.65087,1.34449 0.65086,1.34454 1.3784,1.05247 1.37842,1.0525 1.5792,0.33868 1.57921,0.33869 1.12038,-0.20258 1.12037,-0.20256 0.93079,-0.45867 0.93079,-0.45866 0.98814,-0.93733 0.98816,-0.93735 1.64908,1.57919 1.64909,1.5792 -0.82998,0.83632 -0.82998,0.83635 -0.92552,-0.38337 -0.92553,-0.38336 -0.80416,0.5269 -0.80417,0.52691 v 0.86476 0.86474 l -0.97709,0.34064 -0.97709,0.34061 h -0.21416 -0.21416 l -0.35342,-0.77566 -0.35341,-0.77566 h -1.08543 -1.08541 l -0.50824,0.77566 -0.50822,0.77566 -0.19702,-0.0279 z m -30.951474,-0.59254 h -1.98874 l 0.7861,-1.55132 0.78611,-1.5513 h 1.86053 1.86051 l -0.49773,1.16349 -0.49774,1.16347 -0.16015,0.38783 -0.16015,0.38783 z m 19.578134,0 h -2.03189 l -0.57136,-1.31862 -0.57136,-1.31862 -3.24728,-7.13604 -3.24728,-7.13606 -0.16232,-0.46539 -0.16232,-0.4654 -0.82076,1.86158 -0.82076,1.86158 -1.780354,3.94685 -1.78035,3.94683 -1.92811,0.009 -1.92813,0.009 0.57471,-1.31861 0.57471,-1.31862 2.47825,-5.42961 2.47825,-5.42961 0.56151,-1.16348 0.561504,-1.16349 h 1.90179 1.90178 l 0.561,1.16349 0.56102,1.16348 4.03265,8.84251 4.03264,8.84249 0.43219,1.00836 0.43218,1.00836 h -2.03191 z m 35.3814,0 h -1.70188 l -0.0821,-9.38545 -0.0821,-9.38547 -0.38783,-0.0388 -0.38783,-0.0388 -3.25776,-0.0388 -3.25776,-0.0388 v -1.55132 -1.5513 h 9.47924 9.47923 l -0.0938,1.62888 -0.0938,1.62887 h -3.9561 -3.9561 l 2.5e-4,9.38547 2.3e-4,9.38545 z M 49.162912,322.1403 H 19.782183 l 1.069216,-1.13493 1.069219,-1.13491 3.236619,-3.36391 3.236619,-3.36387 h 21.125167 21.125172 l 2.935245,-2.94751 2.935244,-2.9475 h 1.014481 1.014481 v 7.44632 7.44631 z m 151.624428,-0.17173 -4.49882,0.11656 -1.08592,-0.13196 -1.08593,-0.13195 -2.88101,-0.46956 -2.88101,-0.46955 -2.5486,-0.79843 -2.54858,-0.7984 -2.79237,-1.39699 -2.79237,-1.39698 -2.38693,-1.71154 -2.38692,-1.71151 -2.26702,-2.37205 -2.26703,-2.37206 -0.7285,-0.88586 -0.7285,-0.88583 -1.32566,-2.05696 -1.32565,-2.05692 -0.81105,-1.60923 -0.81105,-1.60925 -0.78399,-2.08286 -0.78399,-2.08289 -0.6436,-3.13368 -0.64361,-3.13367 -0.0123,-4.34368 -0.0123,-4.34369 0.66436,-3.17514 0.66436,-3.17513 0.80487,-2.25447 0.80487,-2.25447 1.27605,-2.47078 1.27604,-2.47081 1.77196,-2.38983 1.77198,-2.38988 2.26998,-2.21482 2.26997,-2.2148 2.51308,-1.68709 2.51308,-1.68708 3.00121,-1.42169 3.00121,-1.42169 3.63847,-0.93902 3.63847,-0.93901 5.31374,-0.1651 5.31374,-0.16508 2.59797,0.36822 2.59797,0.36821 2.88072,0.75451 2.88073,0.75452 2.2649,0.94288 2.2649,0.94288 2.76609,1.5853 2.76609,1.5853 0.86446,0.65651 0.86445,0.65649 2.70358,2.20845 2.70356,2.20845 0.85979,0.91801 0.85977,0.91799 -3.03162,2.98096 -3.03163,2.98098 -0.73795,0.6342 -0.73798,0.63424 -2.32305,-2.16948 -2.32305,-2.16945 -2.55817,-1.70217 -2.55817,-1.70213 -2.60279,-1.21385 -2.60278,-1.21383 -2.94751,-0.81267 -2.94749,-0.81267 -3.56803,-0.18389 -3.56802,-0.18388 -2.73851,0.51831 -2.73851,0.51831 -2.61211,0.94516 -2.61209,0.94517 -2.61188,1.63978 -2.61188,1.6398 -1.42028,1.1872 -1.42028,1.18721 -1.53278,1.8892 -1.53279,1.88916 -1.24319,2.15838 -1.2432,2.15835 -1.00199,2.9475 -1.00199,2.94749 -0.14089,3.81339 -0.14089,3.81338 0.36449,1.92648 0.3645,1.92649 0.48745,1.55132 0.48744,1.55132 1.2346,2.4821 1.23459,2.4821 1.53888,2.08097 1.53886,2.08096 1.65771,1.51505 1.65769,1.51502 1.75384,1.16413 1.75384,1.16415 2.60861,1.22244 2.60861,1.22242 2.41502,0.674 2.41502,0.67398 5.58474,0.014 5.58474,0.014 2.46454,-0.71361 2.46455,-0.7136 2.37572,-1.23596 2.37571,-1.236 2.06703,-1.77356 2.06703,-1.77358 1.27143,-1.70571 1.27142,-1.70567 0.86159,-1.70722 0.8616,-1.7072 0.50028,-1.68519 0.50028,-1.6852 v -0.25395 -0.25395 H 213.66328 202.9592 v -4.80907 -4.80908 h 16.28882 16.28881 l -0.002,2.55967 -0.002,2.55966 -0.44765,2.9475 -0.44763,2.94751 -0.80213,2.79237 -0.80213,2.79237 -1.1951,2.51567 -1.1951,2.51567 -1.1403,1.67288 -1.14029,1.67289 -1.83944,2.06876 -1.83946,2.06875 -2.41666,1.82103 -2.41665,1.82099 -2.6382,1.28889 -2.6382,1.2889 -2.73038,0.79123 -2.73039,0.79123 -1.91364,0.32395 -1.91366,0.32392 -4.4988,0.11656 z M 96.390206,320.27873 h -5.73346 l -0.084,-13.50067 -0.084,-13.50064 4.26612,-4.25777 4.26612,-4.25774 v -0.31874 -0.31873 l -4.18855,-4.17992 -4.18856,-4.17993 v -13.73346 -13.73347 h 2.57369 2.5737 l 12.241384,14.31866 12.24137,14.31864 0.31499,0.34129 0.315,0.34129 7.13132,8.36258 7.13131,8.36263 0.99996,1.1004 0.99995,1.10045 0.008,-24.12297 0.008,-24.12297 h 5.895 5.89499 v 35.99054 35.99053 h -2.62182 -2.62181 l -0.24811,-0.44085 -0.24812,-0.44086 -4.68857,-5.37658 -4.68856,-5.37658 -6.1805,-7.13605 -6.18049,-7.13606 -5.8699,-6.82579 -5.86992,-6.82578 -3.54362,-4.03343 -3.54363,-4.03342 -0.27233,-0.10343 -0.27234,-0.10343 v 23.91612 23.91614 z M 39.9554,310.04004 h -8.378498 l 0.601463,-0.58258 0.601464,-0.58257 12.077236,-12.14511 12.077236,-12.14513 -6.490411,-6.5862 -6.490411,-6.58617 -6.052219,-6.14685 -6.052221,-6.14683 -0.06881,-0.0755 -0.06881,-0.0755 8.290787,-0.0754 8.290785,-0.0754 12.717749,12.73415 12.717757,12.73414 -3.741592,3.80234 -3.741604,3.80237 -8.955699,9.07519 -8.955701,9.0752 z m 37.657457,-48.47514 -0.77566,0.081 -3.226823,-3.10611 -3.226823,-3.10611 H 49.405694 28.427832 L 24.09246,251.09 19.757088,246.74631 H 49.155984 78.55488 l -0.08314,7.36876 -0.08314,7.36876 z"
       id="path1514-6"
       sodipodi:nodetypes="cccccccccccccccccccccccccccccccccccccccccccccccccccccccccccccccccccccccccccccccccccccccccccccccccccccccccccccccccccccccccccccccccccccccccccccccccccccccccccccccccccccccccccccccccccccccccccccccccccccccccccccccccccccccccccccccccccccccccccccccccccccccccccccccccccccccccccccccccccccccccccccccccccccccccccccccccccccccccccccccccccccccccccccccccccccccccccccccccccccccccccccccccccccccccccccccccccccccccccccccccccccccccccccccccccccccc" />
    <g
       fill="#231f20"
       id="g25421"
       transform="matrix(1.7791106,0,0,1.7791106,309,185.94914)">
      <path
         d="m 63.9414,40.37891 c 0.11328,0.30859 0.11328,0.41797 0.043,0.45703 -0.0664,0.0391 -0.1875,0.0273 -0.35937,-0.24219 -0.004,-0.0117 -0.0117,-0.0195 -0.0195,-0.0312 -0.004,-0.008 -0.008,-0.0117 -0.008,-0.0195 -1.14062,-1.88281 -2.01953,-4.33594 -2.19531,-5.12891 -0.21875,-0.98828 -0.61328,-2.24218 -0.62109,-5.74218 -0.008,-4.19532 -1.14844,-4.69922 -4.4375,-4.96875 -4.10547,-0.33594 -4.51563,2.15234 -4.66797,2.91797 -0.48828,2.46093 -0.81641,4.61328 -0.3711,5.20312 0.61328,0.8125 0.79688,1.32031 1.42969,2.58984 1.10156,2.20704 2.76953,8.53125 3.65625,12.06641 0.0898,0.35156 0.11719,0.46484 0.0469,0.50391 -0.0703,0.043 -0.19922,0.0508 -0.3711,-0.35157 -1.20312,-2.875 -3.22656,-7.57812 -3.92969,-9.14843 -1.00781,-2.2461 -2.17578,-2.76563 -2.58593,-2.76563 -0.40625,0 -1.57422,0.51953 -2.58203,2.76563 -0.70704,1.57031 -2.73047,6.27343 -3.9336,9.14843 -0.16797,0.40235 -0.29687,0.39454 -0.37109,0.35157 -0.0703,-0.0391 -0.0391,-0.15235 0.0469,-0.50391 0.88672,-3.53516 2.55469,-9.85937 3.66016,-12.06641 0.63281,-1.26953 0.81641,-1.77734 1.42578,-2.58984 0.44922,-0.58984 0.12109,-2.74219 -0.37109,-5.20312 -0.14844,-0.76563 -0.5586,-3.25391 -4.66407,-2.91797 -3.29296,0.26953 -4.42968,0.77343 -4.4414,4.96875 -0.008,3.5 -0.40235,4.7539 -0.6211,5.74218 -0.17187,0.79297 -1.05468,3.2461 -2.1914,5.12891 -0.004,0.008 -0.008,0.0117 -0.0117,0.0195 -0.004,0.0117 -0.0117,0.0195 -0.0195,0.0312 -0.17188,0.26953 -0.29297,0.28125 -0.35547,0.24219 -0.0742,-0.0391 -0.0742,-0.14844 0.0391,-0.45703 0.45313,-1.27344 1.14063,-3.78906 1.14063,-6.28906 0,-1.87891 -0.19922,-8.3125 0.0195,-9.56641 0.22265,-1.25781 -0.14063,-3.09766 3.38672,-4.11719 0,0 2.12109,-0.62109 4.29297,-0.97656 0.90625,-0.23047 2.25,-0.25 2.71875,-1.22656 0.67578,-1.41797 0.87109,-3.83594 1.99609,-5.19141 0.10937,-0.12891 0.29687,-0.32812 0.42187,-0.60937 0.16797,-0.37891 0.38282,-0.44532 0.41407,-0.44532 0.0312,0 0.24609,0.0664 0.41797,0.44532 0.125,0.28125 0.3125,0.48046 0.41796,0.60937 1.125,1.35547 1.32032,3.77344 1.9961,5.19141 0.46875,0.97656 1.8125,0.99609 2.71875,1.22656 2.17187,0.35547 4.29687,0.97656 4.29687,0.97656 3.52735,1.01953 3.16407,2.85938 3.38282,4.11719 0.21875,1.25391 0.0195,7.6875 0.0195,9.56641 0,2.5 0.6914,5.01562 1.14062,6.28906 z M 78.05468,58.85938 H 21.04687 l 5.79688,-5.875 V 7.57031 l -5.79688,-5.875 h 57.00781 l -5.79297,5.875 V 52.98438 Z M 19.27343,60.55469 H 79.82812 V 0 H 19.27343 Z m 0,0"
         id="path25401" />
      <path
         d="M 10.80468,77.9336 H 6.23437 V 91.96875 H 4.55078 V 77.9336 H 0 v -1.42188 h 10.80468 z m 0,0"
         id="path25403" />
      <path
         d="m 15.51562,81.95703 c -2.39844,0 -3.39453,2.35547 -3.39453,4.48438 0,2.46094 1.36328,4.44922 3.35156,4.44922 2.01172,0 3.41406,-1.98828 3.41406,-4.48828 0,-1.96875 -0.95312,-4.44532 -3.37109,-4.44532 m 5.09766,4.38672 c 0,4.1211 -2.72266,5.86719 -5.17969,5.86719 -2.84375,0 -5.03906,-2.13281 -5.03906,-5.70703 0,-3.77735 2.35937,-5.86719 5.17968,-5.86719 3.02735,0 5.03907,2.3125 5.03907,5.70703"
         id="path25405" />
      <path
         d="M 31.75781,91.96875 H 29.6875 l -3.82032,-5.46484 -1.01562,1.16015 v 4.30469 h -1.6836 v -16.25 h 1.6836 V 86.0586 h 0.043 c 0.26172,-0.38672 0.64843,-0.875 0.95312,-1.23829 l 3.3086,-3.92187 h 2.03515 l -4.16406,4.57031 z m 0,0"
         id="path25407" />
      <path
         d="m 42.00781,80.89844 -2.94531,7.83984 c -1.31641,3.59766 -2.25391,5.66797 -3.63282,6.96875 -0.93359,0.85157 -1.84765,1.19532 -2.2539,1.29688 l -0.46875,-1.41797 c 2.57812,-0.95703 3.57422,-3.76172 3.57422,-3.98438 0,-0.10156 -0.0391,-0.26171 -0.1211,-0.46484 L 32.24218,80.89844 h 1.84766 l 2.41406,6.72266 c 0.28516,0.77343 0.53125,1.64453 0.71094,2.3164 h 0.0625 c 0.18359,-0.67187 0.44531,-1.5039 0.71094,-2.35547 l 2.23437,-6.68359 z m 0,0"
         id="path25409" />
      <path
         d="m 48.17968,81.95703 c -2.39843,0 -3.39062,2.35547 -3.39062,4.48438 0,2.46094 1.35937,4.44922 3.34765,4.44922 2.01172,0 3.41407,-1.98828 3.41407,-4.48828 0,-1.96875 -0.95313,-4.44532 -3.3711,-4.44532 m 5.09766,4.38672 c 0,4.1211 -2.72266,5.86719 -5.17969,5.86719 -2.84375,0 -5.03515,-2.13281 -5.03515,-5.70703 0,-3.77735 2.35546,-5.86719 5.17968,-5.86719 3.02344,0 5.03516,2.3125 5.03516,5.70703"
         id="path25411" />
      <path
         d="m 68.35937,77.9336 h -4.57031 v 14.03515 h -1.6836 V 77.9336 h -4.55078 v -1.42188 h 10.80469 z m 0,0"
         id="path25413" />
      <path
         d="m 75.11718,85.36719 c 0.0234,-1.50391 -0.60937,-3.45313 -2.78125,-3.45313 -2.03125,0 -2.92578,1.92969 -3.08593,3.45313 z M 76.19531,91.5 c -0.62891,0.30469 -1.78906,0.69141 -3.47266,0.69141 -3.23047,0 -5.16015,-2.27344 -5.16015,-5.58594 0,-3.47266 1.95312,-5.96875 4.9375,-5.96875 3.41015,0 4.28515,3.125 4.28515,5.05469 0,0.38672 -0.0195,0.67187 -0.043,0.93359 H 69.207 c 0.0234,3.07031 1.76953,4.22656 3.75781,4.22656 1.38281,0 2.21484,-0.28515 2.90625,-0.57031 z m 0,0"
         id="path25415" />
      <path
         d="m 87.17968,91.5625 c -0.48828,0.24219 -1.58593,0.62891 -3.00781,0.62891 -3.16797,0 -5.26172,-2.25391 -5.26172,-5.64453 0,-3.41407 2.25781,-5.91016 5.66797,-5.91016 1.24219,0 2.23438,0.36328 2.66016,0.58594 l -0.42578,1.36328 c -0.46875,-0.26563 -1.19922,-0.57031 -2.27344,-0.57031 -2.5586,0 -3.90235,2.05078 -3.90235,4.42578 0,2.68359 1.60547,4.37109 3.83985,4.37109 1.09765,0 1.85156,-0.30469 2.39844,-0.55078 z m 0,0"
         id="path25417" />
      <path
         d="m 98.79296,91.96875 h -1.6875 v -6.53906 c 0,-1.80859 -0.64843,-3.375 -2.55859,-3.375 -1.30078,0 -2.92578,1.07812 -2.92578,3.10937 v 6.80469 H 89.9375 v -16.25 h 1.68359 v 6.88672 h 0.043 c 0.73047,-1.21875 2.07031,-1.96875 3.42969,-1.96875 1.36328,0 3.69921,0.83203 3.69921,4.58984 z m 0,0"
         id="path25419" />
    </g>
    <rect
       style="fill:#808080;stroke-width:0.147434"
       id="rect25462"
       width="1.9746627"
       height="182.51527"
       x="264.33749"
       y="178.77332" />
  </g>
</svg>
