<?xml version="1.0" encoding="UTF-8" standalone="no"?>
<!-- Created with Inkscape (http://www.inkscape.org/) -->

<svg
   version="1.1"
   id="svg9"
   width="1152"
   height="1152"
   viewBox="0 0 1152 1152"
   xmlns="http://www.w3.org/2000/svg"
   xmlns:svg="http://www.w3.org/2000/svg">
  <defs
     id="defs13" />
  <g
     id="g15">
    <rect x="0" y="0" width="1152" height="1152" fill="white" />
    <path
       style="fill:#000000"
       d="m 693.94498,846.46844 h -5.5 v -35.5 -35.5 h 4.83463 4.83463 l 22.41537,26.14561 22.41537,26.1456 0.27477,-16.1456 0.27477,-16.14561 h 5.47523 5.47523 v 25.5 25.5 h -4.81846 -4.81847 l -21.93153,-24.98913 -21.93154,-24.98914 -0.75,-0.0109 -0.75,-0.0109 v 25 25 z m 75.5,0 h -5 v -5.5 -5.5 h 5 5 v 5.5 5.5 z m 15.55226,0 h -5.55226 v -5.55226 -5.55226 l 5.25,0.30226 5.25,0.30226 0.30226,5.25 0.30226,5.25 z m 15.44774,0 h -5 v -5.5 -5.5 h 5 5 v 5.5 5.5 z m 62.32808,0 h -4.17298 l -1.0272,-3.25 -1.02721,-3.25 -9.63568,-30.89061 -9.63569,-30.8906 -0.52165,-1.3594 -0.52165,-1.35939 h 6.06405 6.06404 l 3.12873,10.25 3.12872,10.25 4.45415,14.45659 4.45415,14.4566 0.2264,0.2264 0.2264,0.22641 6.5129,-17.183 6.51289,-17.183 h 6.34635 6.34635 l 5.6654,15.5 5.66539,15.5 0.83673,2 0.83672,2 0.94506,-3.5 0.94505,-3.5 7.0014,-21.75 7.00141,-21.75 h 6.00918 6.00918 l -0.48938,1.25 -0.48937,1.25 -11.34396,34.21866 -11.34396,34.21866 -4.0276,0.0313 -4.0276,0.0313 -3.26622,-8.81399 -3.26623,-8.81399 -4.78131,-12.23999 -4.78131,-12.23998 -7.92434,21.05397 -7.92434,21.05398 h -4.17297 z m -77.82808,-15 h -5.5 v -5.5 -5.5 h 5.5 5.5 v 5.5 5.5 z m 15.5,0 h -5 v -5.5 -5.5 h 5 5 v 5.5 5.5 z m 15.55226,0 h -5.55226 v -5.55226 -5.55226 l 5.25,0.30226 5.25,0.30226 0.30226,5.25 0.30226,5.25 z m -31.05226,-15 h -5.5 v -5.5 -5.5 h 5.5 5.5 v 5.5 5.5 z m 15.5,0 h -5 v -5.5 -5.5 h 5 5 v 5.5 5.5 z m 15.5,0 h -5.5 v -5.5 -5.5 h 5.5 5.5 v 5.5 5.5 z m 14.94774,0 h -5.55226 l 0.30226,-5.25 0.30226,-5.25 5.25,-0.30226 5.25,-0.30226 v 5.55226 5.55226 z m -45.94774,-15 h -5.5 v -5.5 -5.5 h 5.5 5.5 v 5.5 5.5 z m 15.5,0 h -5 v -5.5 -5.5 h 5 5 v 5.5 5.5 z m 15.5,0 h -5.5 v -5.5 -5.5 h 5.5 5.5 v 5.5 5.5 z m -61.33333,-15 h -4.83334 l -0.66666,-0.66667 -0.66667,-0.66666 v -4.83334 -4.83333 h 5.5 5.5 v 5.5 5.5 z m 14.83333,0 h -5 v -5.5 -5.5 h 5 5 v 5.5 5.5 z m 15.5,0 h -5.5 v -5.5 -5.5 h 5.5 5.5 v 5.5 5.5 z m 15.5,0 h -5 v -5.5 -5.5 h 5 5 v 5.5 5.5 z m -486.5,-326.0978 -9,-0.0827 -7,-1.3032 -7,-1.3032 -5,-1.70884 -5,-1.70884 -7,-3.61933 -7,-3.61932 -8.57922,-8.52839 -8.57923,-8.52838 -4.17608,-7.5 -4.17609,-7.5 -2.51375,-7.86196 -2.51375,-7.86195 -0.95561,-9.21562 -0.95561,-9.21562 0.98468,-8.66586 0.98469,-8.66586 2.39268,-7.53462 2.39269,-7.53461 4.25116,-7.22195 4.25116,-7.22195 8.13179,-8 8.1318,-8 5.68555,-3.35461 5.68556,-3.35462 5.89448,-2.38088 5.89448,-2.38089 7.19969,-1.5145 7.19968,-1.5145 h 11.8064 11.8064 l 9.67256,2.45365 9.67256,2.45364 8.09081,4.29636 8.09082,4.29635 6.66643,6.15992 6.66642,6.15993 2.86062,4.12788 2.86063,4.12787 -0.9122,0.78076 -0.9122,0.78076 -6.72853,5.18144 -6.72854,5.18144 h -0.47308 -0.47308 l -7.42558,-7.42559 -7.42559,-7.42558 -7.11923,-3.58519 -7.11923,-3.58519 -6.25357,-1.47444 -6.25357,-1.47445 h -8.5 -8.5 l -6.39689,1.50788 -6.39688,1.50788 -7.03071,3.69453 -7.0307,3.69453 -5.57241,5.16296 -5.57241,5.16296 -3.78208,6.36985 -3.78209,6.36985 -2.16561,7 -2.16561,7 v 10.5 10.5 l 2.16315,7.04153 2.16316,7.04152 3.91085,5.95848 3.91086,5.95847 4.87368,4.6903 4.87369,4.6903 6,3.59517 6,3.59516 5,1.51402 5,1.51401 7.5,0.87965 7.5,0.87964 7.81889,-0.96894 7.8189,-0.96893 5.6811,-2.09203 5.68111,-2.09203 6.69128,-4.40591 6.69127,-4.40592 4.55145,-5.0623 4.55144,-5.0623 6.89322,5.11015 6.89321,5.11016 1.25691,1.51447 1.2569,1.51448 -3.98177,4.72543 -3.98176,4.72542 -5.7952,4.69661 -5.79521,4.69662 -6.76434,3.55456 -6.76434,3.55456 -6.35153,1.94885 -6.35153,1.94884 -6.5,1.04243 -6.5,1.04242 -9,-0.0827 z m 297,-0.0265 -7,-0.0948 -4,-0.80288 -4,-0.80288 -5.72477,-2.14996 -5.72476,-2.14997 -5.85978,-4.31372 -5.85977,-4.31372 -4.15664,-6.22461 -4.15663,-6.22461 -1.7224,-5.14926 -1.72241,-5.14926 -0.33835,-58.25 -0.33835,-58.25 h 10.51299 10.51298 l 0.28895,56.75 0.28894,56.75 1.71298,3.62928 1.71298,3.62928 2.45222,2.91429 2.45222,2.9143 5.8348,2.95642 5.8348,2.95643 7.68526,0.35295 7.68526,0.35294 5.31474,-2.47557 5.31474,-2.47556 3.18969,-3.18708 3.18969,-3.18707 2.21214,-4.56966 2.21213,-4.56966 0.78414,-11.62064 0.78413,-11.62065 0.064,-44.75 0.0641,-44.75003 h 10.58853 10.58853 l -0.46659,53.75 -0.46659,53.75 -1.61417,7.5 -1.61418,7.5 -3.01929,6.14612 -3.01929,6.14613 -6.52116,6.10023 -6.52116,6.10022 -3.93583,2.00791 -3.93584,2.00792 -6.28148,1.48095 -6.28148,1.48096 -7,-0.0948 z m 184.25,-3.09182 -10.75,0.28383 v -0.42977 -0.42978 l 30.6097,-65.35406 30.60971,-65.35405 4.54172,-9.75 4.54173,-9.75 h 3.4048 3.4048 l 2.0868,4.75 2.08679,4.75 31.9627,69 31.9627,69 0.51091,1.75 0.5109,1.75 h -10.44485 -10.44486 l -11.56842,-24.75 -11.56843,-24.75 H 857.96629 829.2809 l -9.88861,21 -9.8886,21 -1.77935,3.5 -1.77936,3.5 z m 62.68261,-67.78388 h 19.56739 l -0.035,-0.75 -0.035,-0.75 -9.35004,-20 -9.35004,-20 -0.86492,0.46233 -0.86492,0.46233 -8.74278,18.47725 -8.74279,18.47726 -0.5746,1.81041 -0.57461,1.81042 h 19.56739 z m -432.94574,67 h -10.48687 v -75 -75 h 10.5 10.5 v 30 30 h 33 33 v -30 -30 h 10.5 10.5 v 75 75 h -10.5 -10.5 v -34.51366 -34.51367 l -32.75,0.26367 -32.75,0.26366 -0.26313,34.25 -0.26313,34.25 z m 309.51313,0 h -38 v -75 -75 h 10.5 10.5 v 65 65 h 27.5 27.5 v 10 10 z"
       id="path1514" />
    <path
       style="fill:#a11d2a;fill-opacity:1"
       d="m 569.57997,848.37807 -0.63499,-0.09 -3.22781,-0.9326 -3.22781,-0.9327 0.35127,-3.0169 0.35126,-3.0169 -3.06166,-1.5833 -3.06167,-1.5832 -1.79822,1.123 -1.79822,1.123 h -1.33324 -1.33323 l -2.24308,-2.5798 -2.24308,-2.5797 1.58727,-2.4225 1.58726,-2.4225 -1.5502,-2.9977 -1.5502,-2.9978 h -2.99907 -2.99907 l -0.97525,-2.5651 -0.97525,-2.5651 v -1.2659 -1.2659 l 2.5,-1.338 2.5,-1.338 v -3.3524 -3.3525 l -2.5,-1.139 -2.5,-1.1391 v -1.2744 -1.2744 l 0.97525,-2.5651 0.97525,-2.5651 h 2.99907 2.99907 l 1.59076,-3.0762 1.59077,-3.0762 -1.67036,-2.5493 -1.67037,-2.5493 2.97979,-2.9798 2.97979,-2.9798 2.50266,1.6399 2.50266,1.6398 2.62283,-1.1951 2.62283,-1.195 v -3.1386 -3.1386 l 3.321,-1.2009 3.321,-1.2009 h 1.01848 1.01849 l 1.13908,2.5 1.13907,2.5 h 3.54288 3.54288 l 1.15738,-2.5402 1.15738,-2.5402 3.07118,0.6578 3.07118,0.6578 0.75,0.4414 0.75,0.4414 v 2.9153 2.9153 l 2.99776,1.5502 2.99776,1.5502 2.31961,-1.5198 2.31961,-1.5199 2.82776,2.9516 2.82775,2.9515 -4.89512,4.5041 -4.89513,4.5041 -0.80423,0.04 -0.80424,0.04 -3.19576,-3.0176 -3.19577,-3.0175 -4.9315,-1.4825 -4.9315,-1.4824 h -2.137 -2.137 l -5.27404,1.5662 -5.27403,1.5662 -4.27404,4.2741 -4.27404,4.274 -1.75312,5.2782 -1.75312,5.2781 0.62824,4.5835 0.62825,4.5836 2.09778,4.3334 2.09779,4.3335 4.44272,3.3922 4.44272,3.3923 5.0899,1.0916 5.0899,1.0916 3.61105,-0.6529 3.61104,-0.6529 3,-1.4783 3,-1.4783 3.18488,-3.0211 3.18487,-3.0211 5.31513,5.0898 5.31512,5.0899 -2.67508,2.6955 -2.67508,2.6956 -2.98303,-1.2356 -2.98304,-1.2356 -2.59188,1.6982 -2.59189,1.6983 v 2.7872 2.7871 l -3.14922,1.0979 -3.14923,1.0978 h -0.69026 -0.69026 l -1.13908,-2.5 -1.13907,-2.5 h -3.49839 -3.49838 l -1.63807,2.5 -1.63806,2.5 -0.63499,-0.09 z m -99.75882,-1.9098 h -6.40986 l 2.53369,-5 2.53369,-5 h 5.99658 5.99657 l -1.60423,3.75 -1.60423,3.75 -0.51618,1.25 -0.51618,1.25 z m 63.10171,0 h -6.54895 l -1.84153,-4.25 -1.84152,-4.25 -10.46622,-23 -10.46622,-23 -0.52315,-1.5 -0.52316,-1.5 -2.64537,6 -2.64537,6 -5.73819,12.721 -5.7382,12.7209 -6.21446,0.029 -6.21447,0.029 1.85233,-4.25 1.85233,-4.25 7.98757,-17.5 7.98757,-17.5 1.80978,-3.75 1.80977,-3.75 h 6.12958 6.12958 l 1.80818,3.75 1.80819,3.75 12.99748,28.5 12.99748,28.5 1.39297,3.25 1.39296,3.25 h -6.54896 z m 114.03678,0 h -5.48533 l -0.26467,-30.25 -0.26466,-30.25 -1.25,-0.125 -1.25,-0.125 -10.5,-0.125 -10.5,-0.125 v -5 -5 h 30.55226 30.55226 l -0.30226,5.25 -0.30226,5.25 h -12.75077 -12.75078 l 7.8e-4,30.25 7.7e-4,30.25 z M 329.74881,742.46837 h -94.69616 l 3.44616,-3.658 3.44617,-3.6579 10.43185,-10.8421 10.43185,-10.842 h 68.0879 68.0879 l 9.4605,-9.5 9.4605,-9.5 h 3.26975 3.26975 v 24 24 z m 488.69617,-0.5535 -14.5,0.3757 -3.5,-0.4253 -3.5,-0.4253 -9.2857,-1.5134 -9.28571,-1.5134 -8.21429,-2.5734 -8.2143,-2.5733 -9,-4.5026 -9,-4.5026 -7.69323,-5.5164 -7.69323,-5.5163 -7.30677,-7.6453 -7.30677,-7.6453 -2.34802,-2.8552 -2.34801,-2.8551 -4.27267,-6.6297 -4.27267,-6.6296 -2.61407,-5.1867 -2.61408,-5.1867 -2.52686,-6.7132 -2.52685,-6.7133 -2.07438,-10.1001 -2.07438,-10.1 -0.0397,-14 -0.0397,-14 2.14129,-10.2337 2.14129,-10.2337 2.59415,-7.2663 2.59415,-7.2663 4.11276,-7.9635 4.11276,-7.9636 5.71119,-7.7026 5.7112,-7.70274 7.31629,-7.1385 7.31629,-7.1385 8.09983,-5.43759 8.09983,-5.43759 9.67312,-4.5822 9.67313,-4.5822 11.72705,-3.02652 11.72704,-3.02651 17.12654,-0.53209 17.12654,-0.53209 8.37346,1.18679 8.37346,1.18678 9.28475,2.43184 9.28476,2.43184 7.29994,3.03897 7.29994,3.03897 8.9153,5.10954 8.91531,5.10954 2.78621,2.11596 2.78621,2.11596 8.71379,7.11798 8.71379,7.11796 2.77114,2.9588 2.77114,2.9588 -9.77114,9.6078 -9.77114,9.6079 -2.37852,2.0441 -2.37852,2.0442 -7.48735,-6.9924 -7.48735,-6.9923 -8.24517,-5.4862 -8.24518,-5.4861 -8.38895,-3.9123 -8.38896,-3.91226 -9.5,-2.61929 -9.5,-2.6193 -11.5,-0.59269 -11.5,-0.59268 -8.8264,1.67055 -8.82641,1.67055 -8.41898,3.04634 -8.41898,3.04635 -8.41828,5.28513 -8.41829,5.2852 -4.57764,3.8264 -4.57765,3.8265 -4.94027,6.089 -4.94027,6.0889 -4.00691,6.9566 -4.0069,6.9565 -3.2295,9.5 -3.2295,9.5 -0.45409,12.2908 -0.45409,12.2908 1.17478,6.2092 1.17478,6.2092 1.57109,5 1.57108,5 3.97918,8 3.97919,8 4.95989,6.7071 4.95989,6.7071 5.34287,4.8831 5.34287,4.883 5.65276,3.7521 5.65276,3.7521 8.40773,3.94 8.40773,3.94 7.78378,2.1723 7.78378,2.1723 18,0.045 18,0.045 7.94341,-2.3 7.94342,-2.3 7.6571,-3.9836 7.6571,-3.9837 6.66217,-5.7163 6.66216,-5.7164 4.09791,-5.4976 4.0979,-5.4975 2.77698,-5.5025 2.77698,-5.5024 1.61243,-5.4315 1.61244,-5.4315 v -0.8185 -0.8185 h -34.5 -34.5 v -15.5 -15.5 h 52.5 52.5 l -0.006,8.25 -0.006,8.25 -1.44278,9.5 -1.44278,9.5 -2.58531,9 -2.5853,9 -3.8519,8.1082 -3.8519,8.1082 -3.67526,5.3918 -3.67527,5.3918 -5.92864,6.6678 -5.92865,6.6677 -7.78908,5.8693 -7.78907,5.8692 -8.50309,4.1542 -8.50309,4.1542 -8.80023,2.5502 -8.80022,2.5502 -6.16782,1.0441 -6.16782,1.044 -14.5,0.3757 z m -336.47931,-5.4465 h -18.4793 l -0.2707,-43.5136 -0.27069,-43.5135 13.75,-13.7231 13.75,-13.723 v -1.0273 -1.0273 l -13.5,-13.4722 -13.5,-13.4722 v -44.2639 -44.26394 h 8.29519 8.29519 l 39.45481,46.15004 39.45481,46.15 1.01526,1.1 1.01527,1.1 22.98473,26.9532 22.98474,26.9533 3.22294,3.5467 3.22294,3.5468 0.0271,-77.75 0.027,-77.75004 h 19 19 v 116.00004 116 h -8.45031 -8.45031 l -0.79969,-1.4209 -0.79969,-1.4209 -15.11158,-17.3291 -15.11158,-17.3291 -19.92018,-23 -19.92018,-23 -18.91913,-22 -18.91914,-22 -11.42135,-13 -11.42135,-13 -0.87775,-0.3334 -0.87776,-0.3333 v 77.0833 77.0834 z m -181.89332,-33 h -27.00449 l 1.93856,-1.8777 1.93856,-1.8777 38.92578,-39.1445 38.92578,-39.1446 -20.91905,-21.2278 -20.91905,-21.2277 -19.50673,-19.8117 -19.50673,-19.81168 -0.22178,-0.24345 -0.22179,-0.24345 26.72179,-0.24315 26.72178,-0.24315 40.9902,41.04308 40.99021,41.043 -12.05942,12.2552 -12.05943,12.2553 -28.86485,29.25 -28.86485,29.25 z m 121.37263,-156.2388 -2.5,0.2612 -10.40028,-10.01122 -10.40027,-10.01122 h -67.61312 -67.61312 l -13.97321,-14 -13.97321,-14 h 94.75471 94.7547 l -0.2681,23.75 -0.2681,23.75004 z"
       id="path1514-6" />
  </g>
</svg>
