<?xml version="1.0" encoding="UTF-8" standalone="no"?>
<!-- Created with Inkscape (http://www.inkscape.org/) -->

<svg
   width="2000"
   height="2000"
   viewBox="0 0 529.16665 529.16667"
   version="1.1"
   id="svg24993"
   inkscape:version="1.1.1 (3bf5ae0d25, 2021-09-20)"
   sodipodi:docname="chula-eng-and-agu.svg"
   xmlns:inkscape="http://www.inkscape.org/namespaces/inkscape"
   xmlns:sodipodi="http://sodipodi.sourceforge.net/DTD/sodipodi-0.dtd"
   xmlns="http://www.w3.org/2000/svg"
   xmlns:svg="http://www.w3.org/2000/svg">
  <sodipodi:namedview
     id="namedview24995"
     pagecolor="#505050"
     bordercolor="#eeeeee"
     borderopacity="1"
     inkscape:pageshadow="0"
     inkscape:pageopacity="0"
     inkscape:pagecheckerboard="0"
     inkscape:document-units="px"
     showgrid="false"
     units="px"
     inkscape:zoom="0.70710678"
     inkscape:cx="1088.9444"
     inkscape:cy="1023.8906"
     inkscape:window-width="3840"
     inkscape:window-height="2066"
     inkscape:window-x="2292"
     inkscape:window-y="-12"
     inkscape:window-maximized="1"
     inkscape:current-layer="layer1" />
  <defs
     id="defs24990" />
  <g
     inkscape:groupmode="layer"
     id="layer2"
     inkscape:label="Layer 2">
    <rect
       style="fill:#ffffff;stroke-width:0.264583"
       id="rect25938"
       width="530.22498"
       height="533.92914"
       x="-0.52916664"
       y="0" />
    <g
       style="clip-rule:evenodd;fill-rule:evenodd;stroke-linejoin:round;stroke-miterlimit:2"
       id="g26160"
       transform="matrix(0.30697203,0,0,0.30697203,321.18737,176.00552)">
      <g
         transform="scale(4.16667)"
         id="g26141">
        <path
   d="m 111.638,56.743 -14.05,-4.62 c -2.185,0.938 -3.076,1.622 -5.009,2.439 2.03,1.215 3.819,2.901 4.705,5.369 0.441,1.189 0.83,2.868 0.83,4.657 0,3.148 -1.963,7.237 -5.107,9.175 -0.146,0.106 -0.065,0.291 0.09,0.369 l 11.979,3.919 c -2.759,6.96 -6.081,13.753 -9.972,20.372 -12.993,22.097 -28.54,35.403 -35.66,40.759 C 52.303,133.826 36.759,120.52 23.781,98.423 19.868,91.794 16.543,84.99 13.768,78.019 l 1.691,-0.578 c -0.387,-0.893 -0.922,-2.305 -0.922,-3.224 0,-0.813 0.146,-2.124 0.461,-2.925 1.076,-2.857 3.289,-4.365 5.005,-5.09 1.161,-0.481 2.609,-0.951 3.669,-1.105 l 0.551,-7.059 c -0.785,0.064 -2.048,0.437 -2.419,0.582 -1.231,0.531 -2.02,0.886 -2.551,1.259 l -0.76,0.4 c -1.258,0.474 -2.488,-0.813 -2.108,-2.573 -1.839,0.061 -2.787,-1.072 -1.78,-3.273 L 7.254,56.905 C 4.993,46.701 3.84,36.158 3.864,25.255 c 20.519,2.763 41.025,-4.446 55.58,-19.557 14.548,15.111 35.036,22.32 55.572,19.557 0.009,10.855 -1.137,21.341 -3.378,31.488 z m 7.197,-35.95 -2.29,0.502 C 95.912,24.774 75.073,17.476 60.805,1.786 L 59.444,0.285 58.076,1.786 C 43.804,17.476 22.957,24.774 2.327,21.295 L 0.044,20.793 0.013,22.95 c -0.355,27.656 6.639,53.771 20.516,77.341 14.043,23.89 31.124,38.05 37.811,42.916 l 1.104,0.793 1.084,-0.793 c 6.693,-4.866 23.774,-19.026 37.816,-42.916 13.862,-23.57 20.873,-49.685 20.516,-77.341 z"
   style="fill:#133a20;fill-rule:nonzero"
   id="path26121" />

        <path
   d="m 71.322,91.685 c 1.044,0 1.903,-0.853 1.903,-1.905 0,-1.052 -0.859,-1.908 -1.903,-1.908 -1.06,0 -1.909,0.856 -1.909,1.908 0,1.052 0.849,1.905 1.909,1.905 z"
   style="fill:#133a20;fill-rule:nonzero"
   id="path26123" />

        <path
   d="m 87.675,100.719 c -0.792,0 -1.453,0.668 -1.453,1.469 0,0.813 0.661,1.468 1.453,1.468 0.818,0 1.469,-0.655 1.469,-1.468 0,-0.801 -0.651,-1.469 -1.469,-1.469 z"
   style="fill:#133a20;fill-rule:nonzero"
   id="path26125" />

        <path
   d="m 46.109,101.84 -1.707,1.299 c 0,0 -0.437,0.137 -0.792,-0.057 -0.535,-0.295 -1.563,-1.036 -2.686,-1.695 v -6.088 h 5.185 z m 6.082,0.219 c -0.547,0.385 -0.531,0.393 -0.826,0.113 -0.179,-0.154 -0.705,-0.547 -0.943,-0.753 V 89.368 c 0.105,-0.134 0.211,-0.162 0.3,-0.121 0.396,0.165 0.812,0.254 1.076,-0.05 0.194,-0.238 0.566,-0.583 0.889,-0.995 0.316,-0.412 0.154,-0.545 -0.387,-0.723 -0.494,-0.171 -2.412,-0.826 -3.747,-1.575 -1.314,-0.756 -1.57,-0.914 -1.781,-1.076 -0.222,-0.157 -0.452,-0.077 -0.704,0.179 -0.25,0.243 -1.715,1.678 -1.884,1.848 -0.155,0.169 -0.244,0.651 0.268,0.624 0.121,-0.008 0.315,0.096 0.582,0.15 0.729,0.165 0.978,0.388 1.075,0.578 v 5.987 h -5.185 l -0.009,-7.48 c 0,-0.308 -0.255,-0.627 -0.582,-0.627 -0.32,0 -0.551,0.336 -0.551,0.655 l 0.016,14.063 c -0.437,-0.203 -0.785,-0.288 -1.169,-0.393 -0.336,-0.114 -0.821,-0.209 -1.307,-0.239 L 37.16,89.554 c 0.029,-0.162 -0.065,-1.266 -0.065,-1.266 -0.267,-1.322 -0.942,-2.355 -2.24,-2.934 -1.821,-0.82 -3.569,-0.425 -4.912,0.466 -0.623,0.42 -0.465,0.182 -2.16,1.686 0,0 -0.323,0.911 0.355,0.481 0.85,-0.533 1.311,-0.723 1.53,-0.785 0.348,-0.092 1.263,-0.439 2.442,0.045 1.19,0.474 1.402,2.779 1.402,2.779 v 10.738 c -0.155,0.085 -0.317,0.174 -0.446,0.275 -2.237,1.622 -2.419,3.915 -1.837,5.753 0.595,1.825 2.549,3.071 3.982,3.455 0.971,0.259 1.148,-0.085 0.809,-0.279 -0.206,-0.126 -1.235,-0.449 -1.828,-0.918 -0.963,-0.757 -1.919,-2.388 -1.045,-4.103 1.19,-2.343 3.61,-1.784 5.575,-0.489 0.511,0.351 1.387,0.857 1.753,1.113 0.764,0.516 1.338,0.516 2.128,0 0.925,-0.649 3.397,-2.509 3.397,-2.509 0.239,-0.179 0.385,0.023 0.543,0.19 0.271,0.303 0.967,0.922 1.428,1.347 0.618,0.591 1.262,0.781 2.297,0.044 1.715,-1.233 2.318,-1.558 2.753,-2.096 0.432,-0.533 0.101,-1.156 -0.83,-0.488 z"
   style="fill:#133a20;fill-rule:nonzero"
   id="path26127" />

        <path
   d="m 67.164,102.066 c -0.502,0.223 -0.502,0.256 -0.681,0.341 -0.169,0.096 -0.618,-0.487 -0.618,-0.487 l 0.02,-6.912 c 0,0 0.141,-0.061 0.19,-0.28 0.029,-0.225 0.044,-0.336 -0.242,-0.465 -0.588,-0.267 -1.937,-1.538 -2.517,-2.205 -0.44,-0.505 -1.129,-0.064 -1.282,0.182 -0.345,0.506 -2.274,1.756 -3.262,2.169 -0.121,0.044 -0.185,-0.05 -0.185,-0.05 0,0 -1.594,-2.115 -1.756,-2.253 -0.146,-0.158 -0.574,-0.149 -0.865,0.134 0,0 -1.603,1.356 -2.045,1.72 -0.101,0.061 -0.342,0.174 -0.342,0.263 -0.018,0.258 0.485,0.518 0.485,0.518 0,0 0.477,0 0.694,-0.114 0.462,-0.202 0.929,0.453 0.929,1.073 v 6.216 c -0.281,0.551 -0.494,0.864 -0.24,1.085 0.162,0.15 1.003,0.267 1.756,0.809 0.733,0.498 1.294,0.967 1.294,0.967 0,0 0.599,0.531 1.112,0.177 0.571,-0.407 1.818,-1.366 2.028,-1.52 0.044,-0.027 0.347,-1.011 -0.425,-0.59 -0.06,0.031 -0.146,0.072 -0.255,0.133 -0.469,0.336 -0.671,0.145 -0.943,0.032 -0.586,-0.254 -0.886,-0.436 -1.153,-0.809 v -6.76 l 1.118,-0.627 c 0,0 0.687,-0.384 1.25,-0.562 0.586,-0.197 0.853,0.106 0.853,0.106 l 0.66,0.686 v 7.079 c -0.3,0.301 -0.555,0.868 0.574,1.166 1.141,0.304 1.566,0.871 1.566,0.871 0,0 0.719,0.788 1.237,0.109 0.51,-0.68 1.667,-1.708 1.667,-1.708 0,0 0.357,-0.906 -0.622,-0.494 z"
   style="fill:#133a20;fill-rule:nonzero"
   id="path26129" />

        <path
   d="m 73.807,102.489 c -0.081,-0.058 -0.834,-0.43 -0.867,-0.69 V 94.89 c 0,-0.307 0.146,-0.368 0.228,-0.424 0.348,-0.24 0.469,-0.398 -0.109,-0.862 l -1.34,-1.084 c -0.349,-0.316 -0.765,-0.299 -1.06,0 l -1.469,1.521 c -0.253,0.145 -0.376,0.405 0.109,0.525 0.106,0.032 0.457,0.158 0.442,0.381 v 6.852 c 0,0.203 -0.332,0.446 -0.57,0.624 -0.511,0.359 -0.042,0.623 0.128,0.725 0.551,0.351 1.723,1.325 1.849,1.451 0.469,0.466 0.656,0.252 1.012,-0.108 0.361,-0.401 0.813,-0.915 1.375,-1.299 0.603,-0.421 0.475,-0.6 0.272,-0.703 z"
   style="fill:#133a20;fill-rule:nonzero"
   id="path26131" />

        <path
   d="m 85.692,101.315 v -6.296 l 0.251,-0.413 c 0,0 0.62,-0.55 0.07,-0.877 -0.741,-0.428 -1.818,-1.404 -1.971,-1.614 -0.271,-0.401 -0.918,-0.477 -1.352,0.045 -0.379,0.453 -1.713,1.69 -1.771,1.76 -0.211,0.194 -0.315,0.772 0.251,0.646 0.214,-0.044 0.648,-0.218 0.826,-0.306 0.08,-0.034 0.202,-0.061 0.291,0.047 l 0.336,0.43 0.02,7.897 c 0,0 -0.365,0.731 -1.004,0.089 -0.579,-0.583 -1.452,-1.024 -1.659,-1.23 0,0 -0.032,-6.247 -0.081,-7.084 -0.074,-0.906 -0.162,-1.716 -1.229,-2.42 -1.582,-1.019 -1.335,-1.711 0.008,-2.614 1.481,-1.007 2.343,-1.869 2.152,-2.981 -0.259,-1.428 -0.267,-1.396 -0.315,-1.736 -0.05,-0.314 -0.482,-0.728 -0.535,0.292 -0.055,1.023 -0.081,1.112 -1.666,2.226 -1.579,1.112 -3.654,1.831 -2.031,4.255 0.533,0.813 0.482,1.445 0.482,1.445 v 8.964 c 0,0 -0.576,0.74 0.238,0.999 0.788,0.243 1.319,0.449 2.314,1.004 0.979,0.563 1.319,0.882 1.471,1.04 0.156,0.152 0.673,0.274 1.03,-0.089 0.371,-0.353 1.326,-1.171 1.658,-1.421 0.502,-0.344 2.346,-1.589 2.346,-1.589 0,0 0.267,-0.203 0.114,-0.365 -0.041,-0.039 -0.089,-0.048 -0.244,-0.104 z"
   style="fill:#133a20;fill-rule:nonzero"
   id="path26133" />

        <path
   d="M 35.065,47.77 45.79,60.761 c 1.809,-1.708 5.272,-0.219 3.819,3.102 0,0 -0.999,1.983 -1.153,2.311 -0.162,0.327 -0.162,0.441 0.316,0.275 0.51,-0.17 10.672,-3.455 10.672,-3.455 l 9.12,3.014 C 64.258,57.411 68.134,48.009 73.637,44.424 L 59.444,39.658 Z"
   style="fill:#133a20;fill-rule:nonzero"
   id="path26135" />

        <path
   d="m 93.809,50.606 c -0.331,0.145 -4.789,2.2 -6.086,2.807 -0.198,0.085 -0.274,-0.024 -0.213,-0.258 0.06,-0.235 0.579,-1.829 0.739,-2.355 0.268,-0.931 -1.097,-1.315 -1.444,-0.307 -0.214,0.643 -1.282,3.94 -1.282,3.94 0,0 -1.845,0.85 -1.991,0.923 -0.104,0.052 -0.25,-0.037 -0.181,-0.296 0.084,-0.255 2.129,-6.546 2.129,-6.546 l 3.013,-0.999 c 1.034,1.889 3.815,2.791 5.453,2.723 0.218,-0.009 0.203,0.222 -0.137,0.368 z m -3.052,7.99 c 0.405,0.644 0.872,2.075 1.094,3.148 -0.826,0.521 -2.088,1.072 -3.407,0.789 -1.817,-0.393 -2.743,-1.59 -3.172,-2.351 0,0 1.387,-4.418 1.489,-4.713 0.086,-0.17 0.131,-0.186 0.391,-0.069 0.273,0.13 1.963,0.716 3.605,3.196 z m 1.165,4.883 c 0.062,1.723 -0.293,3.407 -1.451,5.029 -0.17,0.222 -0.304,0.376 -0.449,-0.004 -0.267,-0.692 -0.926,-1.962 -2.388,-2.678 -1.204,-0.587 -2.544,-0.704 -3.664,-0.38 -0.364,0.133 -0.447,0.064 -0.34,-0.239 0.052,-0.239 0.687,-2.245 0.971,-3.136 0.081,-0.226 0.145,-0.416 0.404,-0.081 0.405,0.543 1.069,1.166 2.492,1.639 1.904,0.643 3.151,0.186 4.184,-0.336 0.177,-0.125 0.241,0.02 0.241,0.186 z m -4.87,8.234 c -2.5,1.274 -3.947,1.221 -5.834,1.007 l 1.804,-5.668 c 0.786,-0.268 1.432,-0.697 2.933,-0.486 2.134,0.308 3.192,2.711 3.331,3.419 -0.575,0.501 -1.462,1.315 -2.234,1.728 z M 98.173,48.789 c -0.989,0.3 -1.572,0.648 -3.304,-0.194 -1.06,-0.514 -2.164,-1.65 -2.574,-2.735 -0.272,-0.728 -0.558,-0.999 -1.197,-0.809 -1.137,0.336 -12.793,4.236 -13.521,4.547 -0.72,0.308 -0.429,1.655 0.607,1.307 1.048,-0.348 1.007,-0.267 1.893,-0.578 0.9,-0.308 0.9,-0.271 0.729,0.23 -0.146,0.498 -2.492,9.115 -4.037,12.169 -1.037,2.039 -2.088,2.356 -2.392,2.546 -0.304,0.194 -0.506,0.768 0.153,0.619 0.847,-0.195 2.393,-0.85 3.929,-1.854 2.31,-1.501 3.043,-3.382 3.043,-3.382 l 1.124,-3.317 2.307,-1.08 -5.139,16.146 C 77.925,71.87 75.987,70.231 75.086,68.925 73.127,66.02 71.04,61.262 74.479,52.447 c 1.958,-5.017 5.008,-7.752 7.249,-8.63 1.141,-0.441 1.206,-0.943 -0.295,-0.793 -4.552,0.433 -11.154,4.329 -12.83,12.275 -1.293,6.153 1.893,11.927 5.305,14.904 3.439,2.986 9.624,5.551 16.3,3.156 6.045,-2.274 6.809,-8.775 5.533,-12.517 -1.277,-3.836 -4.813,-5.543 -6.949,-6.085 l -0.17,-0.195 c 0,0 9.605,-4.506 10.297,-4.854 0.687,-0.336 0.254,-1.238 -0.746,-0.919 z"
   style="fill:#133a20;fill-rule:nonzero"
   id="path26137" />

        <path
   d="m 27.783,58.924 0.777,-9.621 6.007,7.173 z m 19.589,2.71 c -0.336,0 -0.6,0.166 -0.753,0.421 L 45.94,63.544 28.17,42.134 c -0.671,-0.761 -0.76,-0.562 -0.799,0.081 l -0.26,2.982 c -1.408,0.368 -3.893,1.221 -5.186,2.003 -2.249,1.367 -3.958,2.929 -5.106,5.093 -0.793,1.513 -1.036,2.711 -1.117,3.289 v 0.073 c 0,0.251 0.105,0.433 0.364,0.433 0.162,0 0.324,-0.138 0.409,-0.247 l 0.166,-0.259 c 0.683,-0.959 2.144,-2.687 4.021,-3.71 2.881,-1.586 4.948,-1.938 6.069,-2.023 l -0.138,1.42 c -0.476,0.065 -1.383,0.291 -2.97,0.927 -1.602,0.647 -3.167,2.071 -4.054,3.131 -0.695,0.833 -1.439,2.148 -1.763,2.747 l -0.016,0.041 c -0.025,0.061 -0.05,0.137 -0.05,0.21 0,0.255 0.203,0.449 0.462,0.449 0.106,0 0.376,-0.194 0.462,-0.263 0.594,-0.424 1.732,-1.1 3.277,-1.675 1.286,-0.486 3.082,-0.744 4.176,-0.728 l -0.806,10.466 c -1.13,-0.012 -2.334,0.126 -4.204,0.821 -2.735,1.012 -6.546,4.956 -3.944,9.556 0.845,1.492 2.723,2.949 3.524,3.379 0.914,0.506 2.428,1.012 2.428,1.012 0.047,0.014 0.103,0.027 0.16,0.027 0.259,0 0.474,-0.197 0.474,-0.444 0,-0.183 -0.126,-0.336 -0.288,-0.409 0,0 -3.923,-1.837 -4.79,-4.156 -0.865,-2.321 0.065,-5.425 2.945,-5.979 2.856,-0.55 4.938,0.441 5.721,0.898 0.777,0.453 2.25,1.643 3.075,2.137 0.453,0.359 0.785,0.412 1.02,-0.066 l 3.039,-5.752 c 0.076,-0.106 0.116,-0.223 0.116,-0.348 0,-0.393 -0.574,-0.931 -0.99,-0.931 -0.297,0 -0.684,0.324 -0.805,0.563 l -0.859,1.553 c 0,0 -1.313,-0.979 -3.649,-1.541 -0.299,-0.069 -0.797,-0.154 -1.148,-0.203 l 0.226,-2.277 10.562,-3.888 c 0,0 6.313,7.675 6.575,7.982 0.271,0.299 0.761,0.344 1.068,-0.206 0.297,-0.547 2.736,-5.503 2.736,-5.503 0.039,-0.092 0.064,-0.194 0.064,-0.307 0,-0.445 -0.526,-0.858 -0.995,-0.858 z"
   style="fill:#133a20;fill-rule:nonzero"
   id="path26139" />

    </g>
    </g>
  </g>
  <g
     inkscape:label="Layer 1"
     inkscape:groupmode="layer"
     id="layer1">
    <path
       style="fill:#000000;stroke-width:0.310263"
       d="m 162.15957,354.4077 h -1.70645 v -11.01434 -11.01435 h 1.50001 1.50001 l 6.95466,8.11202 6.95466,8.11202 0.0853,-5.00938 0.0853,-5.00939 h 1.69877 1.69876 v 7.91171 7.91171 h -1.49499 -1.495 l -6.80455,-7.75321 -6.80455,-7.75321 -0.23268,-0.004 -0.2327,-0.004 v 7.75657 7.75659 z m 23.42486,0 h -1.5513 v -1.70645 -1.70645 h 1.5513 1.55132 v 1.70645 1.70645 z m 4.8253,0 h -1.72266 v -1.72267 -1.72265 l 1.62888,0.0938 1.62888,0.0938 0.0938,1.62888 0.0938,1.62889 z m 4.79287,0 h -1.55132 v -1.70645 -1.70645 h 1.55132 1.55131 v 1.70645 1.70645 z m 19.33811,0 h -1.29472 l -0.31871,-1.00836 -0.31871,-1.00836 -2.9896,-9.58422 -2.98959,-9.5842 -0.16185,-0.42178 -0.16185,-0.42177 h 1.88146 1.88144 l 0.97073,3.1802 0.97073,3.1802 1.38195,4.48534 1.38197,4.48536 0.0702,0.0702 0.0702,0.0702 2.02071,-5.33124 2.02072,-5.33126 h 1.96903 1.96904 l 1.75776,4.80908 1.75777,4.80907 0.25961,0.62053 0.2596,0.62053 0.29322,-1.08591 0.29321,-1.08594 2.17227,-6.74821 2.17229,-6.74823 h 1.86442 1.86443 l -0.15183,0.38783 -0.15184,0.38783 -3.51962,10.6168 -3.51961,10.61678 -1.24961,0.009 -1.24962,0.009 -1.01339,-2.73466 -1.01339,-2.73465 -1.48346,-3.79762 -1.48347,-3.79763 -2.45863,6.53228 -2.45862,6.53228 h -1.29472 z m -24.1472,-4.65395 h -1.70644 v -1.70645 -1.70644 h 1.70644 1.70645 v 1.70644 1.70645 z m 4.80909,0 h -1.55132 v -1.70645 -1.70644 h 1.55132 1.55131 v 1.70644 1.70645 z m 4.8253,0 h -1.72267 v -1.72266 -1.72266 l 1.62888,0.0938 1.62888,0.0938 0.0938,1.62887 0.0938,1.62889 z m -9.63439,-4.65394 h -1.70644 v -1.70645 -1.70645 h 1.70644 1.70645 v 1.70645 1.70645 z m 4.80909,0 h -1.55132 v -1.70645 -1.70645 h 1.55132 1.55131 v 1.70645 1.70645 z m 4.80908,0 h -1.70645 v -1.70645 -1.70645 h 1.70645 1.70645 v 1.70645 1.70645 z m 4.63773,0 h -1.72266 l 0.0938,-1.62889 0.0938,-1.62888 1.62887,-0.0938 1.6289,-0.0938 v 1.72266 1.72267 z m -14.2559,-4.65395 h -1.70644 v -1.70645 -1.70645 h 1.70644 1.70645 v 1.70645 1.70645 z m 4.80909,0 h -1.55132 v -1.70645 -1.70645 h 1.55132 1.55131 v 1.70645 1.70645 z m 4.80908,0 h -1.70645 v -1.70645 -1.70645 h 1.70645 1.70645 v 1.70645 1.70645 z m -19.02948,-4.65395 h -1.49961 l -0.20684,-0.20684 -0.20684,-0.20685 v -1.4996 -1.49961 h 1.70645 1.70645 v 1.70645 1.70645 z m 4.60223,0 h -1.5513 v -1.70645 -1.70645 h 1.5513 1.55132 v 1.70645 1.70645 z m 4.80908,0 h -1.70644 v -1.70645 -1.70645 h 1.70644 1.70645 v 1.70645 1.70645 z m 4.80909,0 h -1.55132 v -1.70645 -1.70645 h 1.55132 1.55131 v 1.70645 1.70645 z M 44.259566,234.61576 l -2.792369,-0.0257 -2.171842,-0.40433 -2.171841,-0.40434 -1.551317,-0.53019 -1.551316,-0.53019 -2.171842,-1.12294 -2.171842,-1.12294 -2.661816,-2.64604 -2.661819,-2.64605 -1.295685,-2.32698 -1.295685,-2.32696 -0.779924,-2.43928 -0.779924,-2.43926 -0.29649,-2.85927 -0.296491,-2.85926 0.30551,-2.68871 0.305513,-2.68869 0.742361,-2.33771 0.742363,-2.33773 1.318977,-2.24069 1.318979,-2.24071 2.522995,-2.48211 2.522998,-2.4821 1.764017,-1.04082 1.764019,-1.04081 1.82884,-0.7387 1.82884,-0.7387 2.233799,-0.46989 2.233796,-0.46989 h 3.663091 3.663091 l 3.001039,0.76127 3.001039,0.76127 2.510281,1.33301 2.510282,1.33299 2.068353,1.9112 2.06834,1.9112 0.887542,1.28073 0.887554,1.28072 -0.283018,0.24225 -0.283031,0.24223 -2.087607,1.60762 -2.087619,1.60761 h -0.14678 -0.14678 l -2.303891,-2.30387 -2.303884,-2.30388 -2.208834,-1.11235 -2.208836,-1.11236 -1.940252,-0.45746 -1.940252,-0.45746 h -2.637237 -2.637237 l -1.98472,0.46784 -1.984715,0.46784 -2.181371,1.14627 -2.181367,1.14628 -1.728914,1.60187 -1.728914,1.60188 -1.17344,1.97633 -1.173443,1.97633 -0.671909,2.17184 -0.67191,2.17185 v 3.25776 3.25777 l 0.671147,2.18471 0.671149,2.18473 1.213393,1.84869 1.213395,1.84869 1.512124,1.45523 1.512126,1.45522 1.86158,1.11546 1.861579,1.11544 1.551315,0.46975 1.551316,0.46974 2.326974,0.27292 2.326974,0.27292 2.425913,-0.30063 2.425916,-0.30062 1.762637,-0.64907 1.762639,-0.64909 2.076058,-1.36699 2.076054,-1.36699 1.412152,-1.57065 1.412138,-1.57064 2.138711,1.58549 2.138711,1.58549 0.389976,0.46988 0.389965,0.46989 -1.235397,1.46613 -1.235385,1.46613 -1.798045,1.45718 -1.798033,1.45719 -2.09873,1.10285 -2.098726,1.10284 -1.970646,0.60466 -1.970644,0.60466 -2.016712,0.32343 -2.016711,0.32341 -2.792368,-0.0257 z m 92.148164,-0.008 -2.17185,-0.0294 -1.24105,-0.2491 -1.24105,-0.24911 -1.77618,-0.66705 -1.77619,-0.66706 -1.81807,-1.33838 -1.81808,-1.33839 -1.28964,-1.93127 -1.28966,-1.93127 -0.5344,-1.59763 -0.53439,-1.59762 -0.10496,-18.07281 -0.10495,-18.07284 h 3.26179 3.26179 l 0.0896,17.60744 0.0897,17.60742 0.53148,1.12603 0.53148,1.12604 0.76083,0.90419 0.76083,0.90421 1.81033,0.91727 1.81032,0.91727 2.38445,0.10952 2.38445,0.10953 1.64897,-0.76808 1.64896,-0.76807 0.98965,-0.98883 0.98964,-0.98884 0.68634,-1.41779 0.68635,-1.4178 0.24329,-3.60546 0.24329,-3.60545 0.0198,-13.88427 0.0199,-13.88429 h 3.28523 3.28523 l -0.14477,16.67664 -0.14477,16.67665 -0.50081,2.32696 -0.50083,2.32698 -0.93677,1.90692 -0.93677,1.90691 -2.02327,1.89268 -2.02328,1.89268 -1.22115,0.62298 -1.22115,0.62298 -1.9489,0.45948 -1.94892,0.45949 -2.17184,-0.0294 z m 57.16598,-0.95928 -3.33533,0.0881 v -0.13334 -0.13336 l 9.49707,-20.27694 9.49707,-20.27696 1.40912,-3.02506 1.40914,-3.02507 h 1.05638 1.05638 l 0.64746,1.47375 0.64746,1.47375 9.91684,21.40816 9.91685,21.40815 0.15852,0.54296 0.15852,0.54296 h -3.24066 -3.24065 l -3.58926,-7.67901 -3.58926,-7.67902 h -8.90001 -8.90003 l -3.06807,6.51553 -3.06807,6.51553 -0.55207,1.08592 -0.55207,1.08592 z m 19.44811,-21.03083 h 6.07104 l -0.0106,-0.23269 -0.0105,-0.2327 -2.90097,-6.20527 -2.90098,-6.20527 -0.26835,0.14345 -0.26834,0.14344 -2.71257,5.73282 -2.71256,5.73281 -0.17828,0.56171 -0.17829,0.5617 h 6.07105 z M 78.694707,233.40506 H 75.441019 V 210.13534 186.8656 h 3.257757 3.257769 v 9.30789 9.3079 h 10.238681 10.238694 v -9.3079 -9.30789 h 3.25776 3.25777 v 23.26974 23.26972 h -3.25777 -3.25776 v -10.70832 -10.7083 l -10.161134,0.0818 -10.161111,0.0819 -0.08162,10.6265 -0.08162,10.62652 z m 96.030523,0 h -11.79 V 210.13534 186.8656 h 3.25775 3.25777 v 20.1671 20.1671 h 8.53224 8.53223 v 3.10262 3.10264 z"
       id="path1514"
       sodipodi:nodetypes="ccccccccccccccccccccccccccccccccccccccccccccccccccccccccccccccccccccccccccccccccccccccccccccccccccccccccccccccccccccccccccccccccccccccccccccccccccccccccccccccccccccccccccccccccccccccccccccccccccccccccccccccccccccccccccccccccccccccccccccccccccccccccccccccccccccccccccccccccccccccccccccccccccccccccccccccccccccccccccccccccccccccccccccccccccccccccccccccccccccccccccccccccccccccccccccccccccccccccccccccccccccccccccccccccccccccccccccccccccccccccccccccccccccccc" />
    <path
       style="fill:#a11d2a;fill-opacity:1;stroke-width:0.310263"
       d="m 123.57368,355.00018 -0.197,-0.0279 -1.00148,-0.28935 -1.00146,-0.28938 0.10893,-0.93603 0.10894,-0.93604 -0.94992,-0.49123 -0.94991,-0.49121 -0.55792,0.34842 -0.55792,0.34843 h -0.41367 -0.41365 l -0.69594,-0.80042 -0.69594,-0.80039 0.49247,-0.75161 0.49247,-0.75161 -0.48097,-0.93007 -0.48098,-0.93011 h -0.93049 -0.9305 l -0.30259,-0.79585 -0.30258,-0.79587 v -0.39275 -0.39277 l 0.77565,-0.41513 0.77566,-0.41513 v -1.04013 -1.04016 l -0.77566,-0.35339 -0.77565,-0.35342 v -0.3954 -0.3954 l 0.30258,-0.79585 0.30259,-0.79586 h 0.9305 0.93049 l 0.49356,-0.95443 0.49355,-0.95443 -0.51825,-0.79096 -0.51825,-0.79095 0.92453,-0.92452 0.92451,-0.92453 0.77648,0.50881 0.77648,0.50876 0.81376,-0.37079 0.81377,-0.37077 v -0.97379 -0.97379 l 1.03039,-0.3726 1.03038,-0.37259 h 0.31599 0.31601 l 0.35341,0.77566 0.35341,0.77566 h 1.09922 1.09923 l 0.35909,-0.78813 0.3591,-0.78814 0.95287,0.2041 0.95287,0.20409 0.2327,0.13695 0.2327,0.13695 v 0.90451 0.90451 l 0.9301,0.48097 0.93008,0.48097 0.71969,-0.47154 0.71969,-0.47157 0.87735,0.91578 0.87736,0.91573 -1.51878,1.39746 -1.51878,1.39746 -0.24952,0.0124 -0.24953,0.0124 -0.99153,-0.93626 -0.99153,-0.93622 -1.53006,-0.45996 -1.53006,-0.45993 h -0.66304 -0.66303 l -1.63633,0.48593 -1.63634,0.48593 -1.32608,1.32611 -1.32606,1.32606 -0.54394,1.63763 -0.54393,1.6376 0.19493,1.42208 0.19492,1.42213 0.65087,1.34449 0.65086,1.34454 1.3784,1.05247 1.37842,1.0525 1.5792,0.33868 1.57921,0.33869 1.12038,-0.20258 1.12037,-0.20256 0.93079,-0.45867 0.93079,-0.45866 0.98814,-0.93733 0.98816,-0.93735 1.64908,1.57919 1.64909,1.5792 -0.82998,0.83632 -0.82998,0.83635 -0.92552,-0.38337 -0.92553,-0.38336 -0.80416,0.5269 -0.80417,0.52691 v 0.86476 0.86474 l -0.97709,0.34064 -0.97709,0.34061 h -0.21416 -0.21416 l -0.35342,-0.77566 -0.35341,-0.77566 h -1.08543 -1.08541 l -0.50824,0.77566 -0.50822,0.77566 -0.19702,-0.0279 z m -30.951474,-0.59254 h -1.98874 l 0.7861,-1.55132 0.78611,-1.5513 h 1.86053 1.86051 l -0.49773,1.16349 -0.49774,1.16347 -0.16015,0.38783 -0.16015,0.38783 z m 19.578134,0 h -2.03189 l -0.57136,-1.31862 -0.57136,-1.31862 -3.24728,-7.13604 -3.24728,-7.13606 -0.16232,-0.46539 -0.16232,-0.4654 -0.82076,1.86158 -0.82076,1.86158 -1.780354,3.94685 -1.78035,3.94683 -1.92811,0.009 -1.92813,0.009 0.57471,-1.31861 0.57471,-1.31862 2.47825,-5.42961 2.47825,-5.42961 0.56151,-1.16348 0.561504,-1.16349 h 1.90179 1.90178 l 0.561,1.16349 0.56102,1.16348 4.03265,8.84251 4.03264,8.84249 0.43219,1.00836 0.43218,1.00836 h -2.03191 z m 35.3814,0 h -1.70188 l -0.0821,-9.38545 -0.0821,-9.38547 -0.38783,-0.0388 -0.38783,-0.0388 -3.25776,-0.0388 -3.25776,-0.0388 v -1.55132 -1.5513 h 9.47924 9.47923 l -0.0938,1.62888 -0.0938,1.62887 h -3.9561 -3.9561 l 2.5e-4,9.38547 2.3e-4,9.38545 z M 49.162912,322.1403 H 19.782183 l 1.069216,-1.13493 1.069219,-1.13491 3.236619,-3.36391 3.236619,-3.36387 h 21.125167 21.125172 l 2.935245,-2.94751 2.935244,-2.9475 h 1.014481 1.014481 v 7.44632 7.44631 z m 151.624428,-0.17173 -4.49882,0.11656 -1.08592,-0.13196 -1.08593,-0.13195 -2.88101,-0.46956 -2.88101,-0.46955 -2.5486,-0.79843 -2.54858,-0.7984 -2.79237,-1.39699 -2.79237,-1.39698 -2.38693,-1.71154 -2.38692,-1.71151 -2.26702,-2.37205 -2.26703,-2.37206 -0.7285,-0.88586 -0.7285,-0.88583 -1.32566,-2.05696 -1.32565,-2.05692 -0.81105,-1.60923 -0.81105,-1.60925 -0.78399,-2.08286 -0.78399,-2.08289 -0.6436,-3.13368 -0.64361,-3.13367 -0.0123,-4.34368 -0.0123,-4.34369 0.66436,-3.17514 0.66436,-3.17513 0.80487,-2.25447 0.80487,-2.25447 1.27605,-2.47078 1.27604,-2.47081 1.77196,-2.38983 1.77198,-2.38988 2.26998,-2.21482 2.26997,-2.2148 2.51308,-1.68709 2.51308,-1.68708 3.00121,-1.42169 3.00121,-1.42169 3.63847,-0.93902 3.63847,-0.93901 5.31374,-0.1651 5.31374,-0.16508 2.59797,0.36822 2.59797,0.36821 2.88072,0.75451 2.88073,0.75452 2.2649,0.94288 2.2649,0.94288 2.76609,1.5853 2.76609,1.5853 0.86446,0.65651 0.86445,0.65649 2.70358,2.20845 2.70356,2.20845 0.85979,0.91801 0.85977,0.91799 -3.03162,2.98096 -3.03163,2.98098 -0.73795,0.6342 -0.73798,0.63424 -2.32305,-2.16948 -2.32305,-2.16945 -2.55817,-1.70217 -2.55817,-1.70213 -2.60279,-1.21385 -2.60278,-1.21383 -2.94751,-0.81267 -2.94749,-0.81267 -3.56803,-0.18389 -3.56802,-0.18388 -2.73851,0.51831 -2.73851,0.51831 -2.61211,0.94516 -2.61209,0.94517 -2.61188,1.63978 -2.61188,1.6398 -1.42028,1.1872 -1.42028,1.18721 -1.53278,1.8892 -1.53279,1.88916 -1.24319,2.15838 -1.2432,2.15835 -1.00199,2.9475 -1.00199,2.94749 -0.14089,3.81339 -0.14089,3.81338 0.36449,1.92648 0.3645,1.92649 0.48745,1.55132 0.48744,1.55132 1.2346,2.4821 1.23459,2.4821 1.53888,2.08097 1.53886,2.08096 1.65771,1.51505 1.65769,1.51502 1.75384,1.16413 1.75384,1.16415 2.60861,1.22244 2.60861,1.22242 2.41502,0.674 2.41502,0.67398 5.58474,0.014 5.58474,0.014 2.46454,-0.71361 2.46455,-0.7136 2.37572,-1.23596 2.37571,-1.236 2.06703,-1.77356 2.06703,-1.77358 1.27143,-1.70571 1.27142,-1.70567 0.86159,-1.70722 0.8616,-1.7072 0.50028,-1.68519 0.50028,-1.6852 v -0.25395 -0.25395 H 213.66328 202.9592 v -4.80907 -4.80908 h 16.28882 16.28881 l -0.002,2.55967 -0.002,2.55966 -0.44765,2.9475 -0.44763,2.94751 -0.80213,2.79237 -0.80213,2.79237 -1.1951,2.51567 -1.1951,2.51567 -1.1403,1.67288 -1.14029,1.67289 -1.83944,2.06876 -1.83946,2.06875 -2.41666,1.82103 -2.41665,1.82099 -2.6382,1.28889 -2.6382,1.2889 -2.73038,0.79123 -2.73039,0.79123 -1.91364,0.32395 -1.91366,0.32392 -4.4988,0.11656 z M 96.390206,320.27873 h -5.73346 l -0.084,-13.50067 -0.084,-13.50064 4.26612,-4.25777 4.26612,-4.25774 v -0.31874 -0.31873 l -4.18855,-4.17992 -4.18856,-4.17993 v -13.73346 -13.73347 h 2.57369 2.5737 l 12.241384,14.31866 12.24137,14.31864 0.31499,0.34129 0.315,0.34129 7.13132,8.36258 7.13131,8.36263 0.99996,1.1004 0.99995,1.10045 0.008,-24.12297 0.008,-24.12297 h 5.895 5.89499 v 35.99054 35.99053 h -2.62182 -2.62181 l -0.24811,-0.44085 -0.24812,-0.44086 -4.68857,-5.37658 -4.68856,-5.37658 -6.1805,-7.13605 -6.18049,-7.13606 -5.8699,-6.82579 -5.86992,-6.82578 -3.54362,-4.03343 -3.54363,-4.03342 -0.27233,-0.10343 -0.27234,-0.10343 v 23.91612 23.91614 z M 39.9554,310.04004 h -8.378498 l 0.601463,-0.58258 0.601464,-0.58257 12.077236,-12.14511 12.077236,-12.14513 -6.490411,-6.5862 -6.490411,-6.58617 -6.052219,-6.14685 -6.052221,-6.14683 -0.06881,-0.0755 -0.06881,-0.0755 8.290787,-0.0754 8.290785,-0.0754 12.717749,12.73415 12.717757,12.73414 -3.741592,3.80234 -3.741604,3.80237 -8.955699,9.07519 -8.955701,9.0752 z m 37.657457,-48.47514 -0.77566,0.081 -3.226823,-3.10611 -3.226823,-3.10611 H 49.405694 28.427832 L 24.09246,251.09 19.757088,246.74631 H 49.155984 78.55488 l -0.08314,7.36876 -0.08314,7.36876 z"
       id="path1514-6"
       sodipodi:nodetypes="cccccccccccccccccccccccccccccccccccccccccccccccccccccccccccccccccccccccccccccccccccccccccccccccccccccccccccccccccccccccccccccccccccccccccccccccccccccccccccccccccccccccccccccccccccccccccccccccccccccccccccccccccccccccccccccccccccccccccccccccccccccccccccccccccccccccccccccccccccccccccccccccccccccccccccccccccccccccccccccccccccccccccccccccccccccccccccccccccccccccccccccccccccccccccccccccccccccccccccccccccccccccccccccccccccccccc" />
    <rect
       style="fill:#808080;stroke-width:0.147434"
       id="rect25462"
       width="1.9746627"
       height="182.51527"
       x="264.33749"
       y="178.77332" />
  </g>
</svg>
