<svg height="115.51172pt" viewBox="0 0 566.92968 115.51172" width="566.92969pt" xmlns="http://www.w3.org/2000/svg"><g fill="#2d3979"><path d="m535.33593 64.347656c0 10.76172 4.37891 15.76562 11.13672 15.76562s11.13281-5.0039 11.13281-15.76562-4.375-15.76563-11.13281-15.76563-11.13672 5.00391-11.13672 15.76563m31.59375 0c0 14.39062-7.94531 22.58594-20.45703 22.58594-12.57812 0-20.52344-8.19532-20.52344-22.58594 0-14.39063 7.94532-22.58594 20.52344-22.58594 12.51172 0 20.45703 8.19531 20.45703 22.58594m-80.58203-21.83594h9.76172l9.00781 18.51953h.125l9.26172-18.51953h9.44531l-14.44922 26.33985v17.33203h-8.76171v-17.20703zm-25.33594 22.46094v21.21094h-8.75781v-43.67188h8.75781v19.14844h.125l12.88672-19.14844h10.19922l-14.89062 20.39844 18.33203 23.27344h-11.01172l-15.51563-21.21094zm-48.60937-.625c0 10.76172 4.3789 15.76562 11.13672 15.76562 6.75781 0 11.13672-5.0039 11.13672-15.76562s-4.37891-15.76563-11.13672-15.76563c-6.75782 0-11.13672 5.00391-11.13672 15.76563m31.59375 0c0 14.39062-7.94531 22.58594-20.45703 22.58594-12.57422 0-20.51953-8.19532-20.51953-22.58594 0-14.39063 7.94531-22.58594 20.51953-22.58594 12.51172 0 20.45703 8.19531 20.45703 22.58594m-44.35547-21.83594v7.44531l-11.94922-.0625v36.28907h-8.88281v-36.28907l-11.95312.0625v-7.44531zm-75.13672 43.67188v-43.67188h24.83984v7.25781h-16.20703v10.44922h15.39063v7.19532h-15.39063v11.44921h16.58203v7.32032zm-8.63281-8.57422.25 7.57031c-2.4375.94141-5.69141 1.44141-9.25781 1.44141-13.07422 0-21.21094-8.13282-21.21094-22.27344 0-14.14063 8.13672-22.27344 20.71094-22.27344 3.5664 0 6.32031.25391 9.50781 1.50391l-.5 7.57031c-2.75391-1.44141-5.12891-1.94141-8.38281-1.94141-7.25782 0-12.01172 4.62891-12.01172 14.89063 0 10.32422 5.0039 15.20312 12.07422 15.20312 3.1289 0 5.75781-.375 8.82031-1.6914m-45.91797-.75-.375-34.34766h7.94531v43.67188h-11.07422l-14.20312-34.53516h-.125l.3789 34.53516h-7.88671v-43.67188h11.19921l14.07813 34.34766zm-59.18359 9.32422v-43.67188h24.83593v7.25781h-16.20312v10.44922h15.39062v7.19532h-15.39062v11.44921h16.57812v7.32032zm-10.50782 0h-8.76172v-43.67188h8.76172zm-17.39453-8.57422.25 7.57031c-2.4375.94141-5.69139 1.44141-9.25781 1.44141-13.07422 0-21.21094-8.13282-21.21094-22.27344 0-14.14063 8.13673-22.27344 20.71094-22.27344 3.56642 0 6.32031.25391 9.50781 1.50391l-.5 7.57031c-2.75389-1.44141-5.12889-1.94141-8.38281-1.94141-7.25781 0-12.01172 4.62891-12.01172 14.89063 0 10.32422 5.00391 15.20312 12.07422 15.20312 3.12892 0 5.75392-.375 8.82031-1.6914m-38.84764-34.28125-.69142 7.13281c-3.37891-1.37891-6.06641-1.87891-8.69531-1.87891-4.56641 0-7.44531 1.9375-7.44531 4.94141 0 2.69141 1.44141 4.37891 7.75781 6.69531 7.94531 2.87891 11.32423 6.63282 11.32423 13.07422 0 8.51172-6.00392 13.64063-16.14063 13.64063-4.06641 0-7.88281-.625-11.44922-1.87891l.8125-7.69531c3.62891 1.8164 7.13281 2.5039 10.13672 2.5039 4.81641 0 7.82031-1.9375 7.82031-5.4414 0-3.31641-1.8164-5.07031-8.25781-7.50781-7.63281-2.81641-10.88672-6.32032-10.88672-12.51563 0-7.75391 6.19531-12.63672 15.32813-12.63672 3.8164 0 7.00781.4375 10.38672 1.56641m124.77734-32.50391v-2.80469h3.48047v-1.35156c0-4.2539 1.51562-6.66797 5.4414-6.66797.8711 0 1.64454.0977 2.35157.28907l-.28907 2.93359c-.51562-.19531-1.03125-.29297-1.60937-.29297-1.77344 0-2.38281 1.0625-2.38281 3.67188v1.41796h4.05859v2.80469h-4.05859v13.65625h-3.51172v-13.65625zm-5.76172 5.41016c0-3.51172-1.73828-5.73438-4.47656-5.73438s-4.47656 2.22266-4.47656 5.73438 1.73827 5.73437 4.47656 5.73437c2.73827 0 4.47656-2.22265 4.47656-5.73437m-12.69141 0c0-5.15235 3.38281-8.63281 8.21485-8.63281 4.83202 0 8.21094 3.48046 8.21094 8.63281 0 5.15234-3.37892 8.63281-8.21094 8.63281-4.83203 0-8.21485-3.48047-8.21485-8.63281m-17.39063-5.96094c-2.09375 0-3.73827 1.41797-3.96094 4.38281h7.40625c0-2.99609-1.38281-4.38281-3.44531-4.38281m-7.57031 5.86328c0-5.08984 3.09375-8.53515 7.66798-8.53515 4.34764 0 6.85937 2.73828 6.85937 8.60156 0 .44922-.0312.77344-.0625 1.09375h-10.85548c.0937 2.86719 2.09375 4.64062 5.08986 4.64062 1.76952 0 3.21875-.42187 4.60546-1.25781l.12891 3.1875c-1.38673.67969-3.15625 1-5.05859 1-5.21875 0-8.375-3.25391-8.375-8.73047m-9.94922 2.86719v-8.17969h-2.9336v-2.80469h2.96485v-3.67187l3.38281-1.16016v4.83203h4.02734v2.80469h-4.02734v7.1836c0 2.64062.41797 3.86328 2.48047 3.86328.60937 0 1.16016-.12891 1.64062-.32032l.0977 2.86719c-.74219.25391-1.64453.41797-2.60937.41797-3.83204 0-5.02344-2.12891-5.02344-5.83203m-20.29302-.64453v-10.3711h3.51172v8.34375c0 3.41407.45312 5.50782 3.1914 5.50782 2.41407 0 3.99219-2.51172 3.99219-5.47657v-8.375h3.54297v11.24219c0 2.0625.0664 3.86328.19531 5.25h-3.35156c-.0937-.67578-.16016-1.54687-.16016-2.60937h-.0625c-.80859 1.70703-2.54687 2.99609-5.3164 2.99609-3.38281 0-5.54297-2.44922-5.54297-6.50781m-10.88281.64453v-8.17969h-2.9336v-2.80469h2.96485v-3.67187l3.38281-1.16016v4.83203h4.02734v2.80469h-4.02734v7.1836c0 2.64062.41797 3.86328 2.48047 3.86328.61328 0 1.16015-.12891 1.64062-.32032l.0977 2.86719c-.74219.25391-1.64063.41797-2.60938.41797-3.83203 0-5.02343-2.12891-5.02343-5.83203m-6.15235 5.47656h-3.57422v-16.49219h3.57422zm.0977-19.55469h-3.76953v-3.76562h3.76953zm-14.81649 14.07813v-8.17969h-2.92968v-2.80469h2.96093v-3.67187l3.38282-1.16016v4.83203h4.02734v2.80469h-4.02734v7.1836c0 2.64062.41796 3.86328 2.48046 3.86328.61329 0 1.16016-.12891 1.64454-.32032l.0937 2.86719c-.73829.25391-1.64063.41797-2.60547.41797-3.83594 0-5.02735-2.12891-5.02735-5.83203m-15.26562 5.02344.22656-3.0586c1.35156.74219 2.73828 1.09375 3.99219 1.09375 1.54687 0 2.80469-.70703 2.80469-2.02734 0-1.22266-.70704-1.77344-3.1875-2.83203-2.86719-1.22656-3.9336-2.41797-3.9336-4.67188 0-3.0625 2.38672-4.92968 5.89453-4.92968 1.44922 0 2.83594.22656 3.9336.67578l-.32422 2.89843c-1.22266-.61328-2.35156-.83593-3.51172-.83593-1.41406 0-2.51172.67578-2.51172 1.89843 0 1.22657.77344 1.70704 2.93359 2.54688 2.86329 1.16016 4.25 2.44531 4.25 4.96094 0 3.34765-2.54687 5.12109-6.12109 5.12109-1.60937 0-2.99609-.25781-4.44531-.83984m-18.16406-16.03907h3.41406c.0664.70704.0976 1.80469.0976 2.67188h.0625c1.03125-1.93359 2.86719-3.05859 5.08985-3.05859 4.2539 0 5.73437 2.89843 5.73437 7.34375v9.53515h-3.54297v-8.05469c0-3.34765-.22656-5.82812-3.15625-5.82812-1.38671 0-2.60937.90234-3.35156 2.25391-.48437.90234-.70703 2.16015-.70703 3.96093v7.66797h-3.51172v-11.5c0-1.67578 0-3.41406-.1289-4.99219m-5.1211 16.49219h-3.76953v-22.48437h3.76953zm0 0"/><path d="m82.011715 1.996096c-34.95703 0-64.0664 10.10156-80.41406 23.79297-.93359.79687-1.59766 1.85937-1.59766 3.32421v25.25391c0-.53125.39844-.92969 1.19922-1.59375 22.46094-18.07812 51.70313-23.52734 80.8125-23.52734zm0 0"/><path d="m82.015625 84.621096v-25.33594c0 .66406-1.19922.92969-3.05859 1.0625-30.17579 1.86328-59.01954 11.16797-78.95704 25.39062v29.773444c18.54297-12.80078 45.48047-23.765624 71.03125-27.382814.3125-.043 6.55469-.95313 7.33594-1.07031.94922-.14453 2.91797-.35547 3.48828-1.60157.1211-.25781.16016-.60156.16016-.83593"/></g><path d="m82.011715 59.285156c0-.66406-.66406-1.32813-1.72656-2.125-13.89062-9.6875-31.30078-16.54688-51.36719-19.75781-9.94922 3.60156-19.30859 8.60156-27.71875 15.37109-.80078.66406-1.19922 1.0625-1.19922 1.59375s.26563.66406 1.32813.79688c13.09766 1.39453 28.3125 4.87109 42.30859 10.89453 11.23047-3 23.16407-4.96094 35.32032-5.71094 1.85937-.13281 3.05468-.39844 3.05468-1.0625" fill="#758bbc"/></svg>