<?xml version="1.0" encoding="UTF-8"?><svg id="b" xmlns="http://www.w3.org/2000/svg" width="150" height="225.85" viewBox="0 0 150 225.85"><defs><style>.d{fill:#de5c8e;}</style></defs><g id="c"><path class="d" d="m67.57,59.9l-39.31,90.19v9.99l7.06-7.67,33.53-92c-.42-.15-.84-.32-1.28-.51"/><path class="d" d="m64.77,58.38l-43.83,77.07-1.96,10.98,7.93-7.56,39.02-79.76c-.38-.22-.76-.45-1.16-.72"/><path class="d" d="m62.54,56.65L14.81,117.35l-4.27,11.6,9.59-6.36L63.34,57.33c-.28-.23-.55-.45-.8-.68"/><path class="d" d="m60.31,54.2L10.65,99.81l-3.73,9.65,7.99-3.19,46.32-50.96c-.34-.38-.65-.75-.92-1.11"/><path class="d" d="m58.71,51.61l-47.53,29.33-5.17,7.46,7.52-1.2,45.93-34.25c-.27-.43-.52-.88-.75-1.34"/><path class="d" d="m57.58,48.8l-44.09,16.83-6.1,5.97,8.45-.47,42.2-21c-.16-.41-.31-.86-.45-1.33"/><path class="d" d="m56.95,45.77l-38.93,6.3-6.55,4.1,7.39,1.45,38.29-10.55c-.08-.42-.14-.85-.19-1.29"/><path class="d" d="m21.97,41.06l-5.13,2.05,5.16,2.14,34.83-1.56c0-.37.02-.74.04-1.1l-34.9-1.53Z"/><path class="d" d="m22.86,34.58l5.34,3.02,28.94,3.03c.08-.46.18-.89.29-1.3l-28.26-6.13-6.3,1.38Z"/><path class="d" d="m35.27,25.97h-6.61l4.95,3.95,24.47,7.45c.14-.36.3-.71.46-1.05l-23.28-10.36Z"/><path class="d" d="m40.45,19.68l-4.53-.31,2.21,3.94,21.49,11.1c.2-.31.41-.61.63-.91l-19.8-13.83Z"/><path class="d" d="m47.19,15.11l-4.51-1.07,1.34,4.25,17.56,13.62c.26-.27.52-.54.81-.8l-15.2-16Z"/><path class="d" d="m64.11,29.68c.32-.23.66-.46,1.02-.69l-11.46-18.38-4.24-2.01.62,4.69,14.06,16.38Z"/><path class="d" d="m68.24,27.42l-7.5-20.45-3.71-2.57-.36,4.49,10.52,18.97c.34-.15.69-.3,1.05-.44"/><path class="d" d="m70.61,26.68c.4-.1.81-.18,1.23-.25l-3.13-21.36-3.1-3.34-1.14,4.43,6.14,20.51Z"/><path class="d" d="m75,26.14c.22,0,.44,0,.65.02l1.51-22.16-2.17-4-2.15,3.87,1.55,22.29c.2-.01.41-.02.61-.02"/><path class="d" d="m82.43,59.9c-.44.19-.86.36-1.28.51l33.53,92,7.06,7.67v-9.99l-39.31-90.19Z"/><path class="d" d="m85.23,58.38c-.4.27-.79.51-1.16.72l39.02,79.76,7.93,7.56-1.96-10.98-43.83-77.07Z"/><path class="d" d="m87.46,56.65c-.25.23-.52.45-.8.68l43.21,65.26,9.59,6.36-4.27-11.6-47.73-60.7Z"/><path class="d" d="m135.09,106.27l7.99,3.19-3.73-9.65-49.66-45.62c-.27.36-.58.73-.92,1.11l46.32,50.96Z"/><path class="d" d="m136.47,87.19l7.52,1.2-5.17-7.46-47.53-29.33c-.23.46-.48.9-.75,1.34l45.93,34.25Z"/><path class="d" d="m134.17,71.13l8.45.47-6.1-5.97-44.09-16.83c-.14.48-.29.92-.45,1.33l42.2,21Z"/><path class="d" d="m138.53,56.17l-6.55-4.1-38.93-6.3c-.05.44-.11.88-.19,1.29l38.29,10.55,7.39-1.45Z"/><path class="d" d="m128,45.25l5.16-2.14-5.13-2.05-34.9,1.53c.03.37.04.74.04,1.1l34.83,1.56Z"/><path class="d" d="m120.84,33.2l-28.26,6.13c.11.41.2.84.29,1.3l28.94-3.03,5.34-3.02-6.3-1.38Z"/><path class="d" d="m114.73,25.97l-23.28,10.36c.16.34.32.69.46,1.04l24.47-7.45,4.95-3.95h-6.61Z"/><path class="d" d="m109.55,19.68l-19.8,13.83c.22.3.43.6.63.9l21.49-11.1,2.21-3.94-4.53.31Z"/><path class="d" d="m102.81,15.11l-15.2,16c.29.27.55.53.81.8l17.56-13.62,1.34-4.25-4.51,1.07Z"/><path class="d" d="m85.89,29.68l14.06-16.38.62-4.69-4.24,2.01-11.46,18.38c.36.22.7.45,1.02.69"/><path class="d" d="m81.76,27.42c.36.14.71.29,1.05.44l10.52-18.97-.36-4.49-3.71,2.57-7.5,20.45Z"/><path class="d" d="m79.39,26.68l6.14-20.51-1.14-4.43-3.1,3.34-3.13,21.36c.42.07.83.15,1.23.25"/><path class="d" d="m64.24,181.21c1.98-1.5,3.45-2.9,4.55-4.33l-.1-.14c-.64-.93-1.5-2.17-1.62-3.39-.73.65-1.53,1.3-2.44,1.98-.12.09-.25.13-.39.13s-.27-.04-.39-.13c-.91-.67-1.71-1.33-2.44-1.98-.12,1.21-.98,2.46-1.62,3.39l-.1.14c1.1,1.43,2.57,2.83,4.55,4.33"/><path class="d" d="m37.81,176.23c1.14,1.66,2.74,3.25,5.02,4.98,1.98-1.5,3.45-2.9,4.55-4.33l-.1-.14c-.64-.93-1.5-2.17-1.62-3.39-.73.65-1.53,1.3-2.44,1.98-.12.09-.25.13-.39.13s-.27-.04-.39-.13c-.91-.68-1.73-1.34-2.46-1.99-.58.79-1.63,1.56-2.66,2.18.11.16.22.32.32.47l.17.24Z"/><path class="d" d="m60.13,173.07c0-.35-.11-.65-.24-.89h-2.01c-.13.24-.24.54-.24.89,0,.81.67,1.85,1.24,2.68.57-.83,1.24-1.87,1.24-2.68"/><path class="d" d="m70.84,173.07c0-.35-.11-.65-.24-.89h-2.01c-.13.24-.24.54-.24.89,0,.81.67,1.85,1.24,2.68.57-.83,1.24-1.87,1.24-2.68"/><path class="d" d="m49.42,173.07c0-.35-.11-.65-.24-.89h-2.01c-.13.24-.24.54-.24.89,0,.81.67,1.85,1.24,2.68.57-.83,1.24-1.87,1.24-2.68"/><path class="d" d="m53.53,181.21c1.98-1.5,3.45-2.9,4.55-4.33l-.1-.14c-.64-.93-1.5-2.17-1.62-3.38-.87.78-1.73,1.45-2.44,1.97-.12.09-.25.13-.39.13s-.27-.04-.39-.13c-.91-.67-1.71-1.33-2.44-1.98-.12,1.21-.97,2.46-1.62,3.39l-.1.15c1.1,1.43,2.57,2.83,4.55,4.33"/><path class="d" d="m74.95,181.21c1.98-1.5,3.45-2.9,4.55-4.33l-.1-.14c-.64-.93-1.5-2.17-1.62-3.38-.87.78-1.73,1.45-2.44,1.97-.12.09-.25.13-.39.13s-.27-.04-.39-.13c-.91-.67-1.71-1.33-2.44-1.98-.12,1.21-.98,2.46-1.62,3.39l-.1.14c1.1,1.43,2.57,2.83,4.55,4.33"/><path class="d" d="m107.07,181.21c2.28-1.73,3.88-3.31,5.02-4.98l.17-.24c.11-.16.23-.33.35-.51-1.03-.63-2.07-1.4-2.63-2.19-.75.67-1.58,1.34-2.52,2.04-.12.09-.25.13-.39.13s-.27-.04-.39-.13c-.71-.53-1.56-1.2-2.44-1.97-.12,1.21-.98,2.46-1.62,3.38l-.1.14c1.1,1.43,2.57,2.83,4.55,4.33"/><path class="d" d="m102.96,173.07c0-.35-.11-.65-.24-.89h-2.01c-.13.24-.24.54-.24.89,0,.81.67,1.85,1.24,2.68.57-.83,1.24-1.87,1.24-2.68"/><path class="d" d="m117.95,177.76c-.81-.28-1.66-.54-2.51-.79-.17-.07-.85-.38-1.69-.84-.14.21-.28.42-.41.61l-.16.23c-1.7,2.47-4.07,4.37-5.71,5.58-.12.09-.25.13-.39.13s-.27-.04-.39-.13c-1.41-1.05-3.37-2.6-4.96-4.59-1.6,1.99-3.55,3.54-4.96,4.59-.12.09-.25.13-.39.13s-.27-.04-.39-.13c-1.41-1.05-3.37-2.6-4.96-4.59-1.6,1.99-3.55,3.54-4.96,4.59-.12.09-.25.13-.39.13s-.27-.04-.39-.13c-1.41-1.05-3.36-2.6-4.96-4.59-1.6,1.99-3.55,3.54-4.96,4.59-.12.09-.25.13-.39.13s-.27-.04-.39-.13c-1.41-1.05-3.37-2.6-4.96-4.59-1.6,1.99-3.55,3.54-4.96,4.59-.12.09-.25.13-.39.13s-.27-.04-.39-.13c-1.41-1.05-3.37-2.6-4.96-4.59-1.6,1.99-3.55,3.54-4.96,4.59-.12.09-.25.13-.39.13s-.27-.04-.39-.13c-1.41-1.05-3.37-2.6-4.96-4.59-1.6,1.99-3.55,3.54-4.96,4.59-.12.09-.25.13-.39.13s-.27-.04-.39-.13c-1.64-1.21-4.01-3.11-5.71-5.58l-.16-.24c-.12-.18-.25-.37-.38-.56-.94.5-1.67.82-1.67.82h.01c-.83.25-1.65.5-2.44.77-9.82,3.33-15.68,7.98-17.19,13.54l120.21-.12c-1.56-5.52-7.4-10.12-17.15-13.43"/><path class="d" d="m81.54,173.07c0-.35-.11-.65-.24-.89h-2.01c-.13.24-.24.54-.24.89,0,.81.67,1.85,1.24,2.68.57-.83,1.24-1.87,1.24-2.68"/><path class="d" d="m85.66,181.21c1.98-1.5,3.45-2.9,4.55-4.33l-.1-.14c-.64-.93-1.5-2.17-1.62-3.39-.73.65-1.53,1.3-2.44,1.98-.12.09-.25.13-.39.13s-.27-.04-.39-.13c-.91-.67-1.71-1.33-2.44-1.98-.12,1.21-.98,2.46-1.62,3.39l-.1.14c1.1,1.43,2.57,2.83,4.55,4.33"/><path class="d" d="m92.25,173.07c0-.35-.11-.65-.24-.89h-2.01c-.13.24-.24.54-.24.89,0,.81.67,1.85,1.24,2.68.57-.83,1.24-1.87,1.24-2.68"/><path class="d" d="m96.36,181.21c1.98-1.5,3.45-2.9,4.55-4.33l-.1-.14c-.64-.93-1.5-2.17-1.62-3.39-.73.65-1.53,1.3-2.44,1.98-.12.09-.25.13-.39.13s-.27-.04-.39-.13c-.91-.67-1.71-1.33-2.44-1.98-.12,1.21-.98,2.46-1.62,3.39l-.1.14c1.1,1.43,2.57,2.83,4.55,4.33"/><path class="d" d="m32.05,211.82c10.77,3.65,25.62,5.58,42.93,5.58s32.17-1.93,42.94-5.58c9.82-3.33,15.68-7.86,17.19-13.43H14.9c1.56,5.51,7.4,10.12,17.15,13.43"/><path class="d" d="m14.52,196.5c-.04-.39-.07-.78-.07-1.18,0-.57.05-1.12.12-1.65h120.81c.08.54.12,1.09.12,1.65,0,.4-.02.79-.07,1.18H14.52Z"/><path class="d" d="m6.11,183.52h0c2.13,0,4.16,1.8,4.83,4.28.4,1.47.28,2.97-.33,4.23-.56,1.16-1.49,1.97-2.6,2.27-.32.08-.64.13-.97.13-2.13,0-4.16-1.8-4.83-4.28-.4-1.47-.28-2.97.33-4.23.56-1.16,1.49-1.97,2.6-2.27.32-.09.64-.13.97-.13m0-1.98c-.49,0-.99.06-1.49.2-3.47.93-5.41,4.93-4.33,8.93.92,3.43,3.76,5.74,6.74,5.74.49,0,.99-.06,1.49-.2,3.47-.93,5.41-4.93,4.33-8.93-.92-3.43-3.76-5.74-6.74-5.74"/><path class="d" d="m9.92,196.36h0c.22,0,.42.04.61.12.57.26.99.97,1.15,1.95.21,1.28-.05,2.84-.71,4.29-1.15,2.55-3.11,3.92-4.37,3.92-.22,0-.42-.04-.61-.12-.57-.26-.99-.97-1.15-1.95-.21-1.28.05-2.84.71-4.29,1.15-2.55,3.11-3.92,4.37-3.92m0-1.98c-2.24,0-4.78,2-6.18,5.09-1.71,3.77-1.07,7.74,1.43,8.87.45.2.93.3,1.43.3,2.24,0,4.78-2,6.18-5.08,1.71-3.77,1.07-7.74-1.43-8.87-.45-.2-.93-.3-1.43-.3"/><path class="d" d="m9.64,198.53c-1.9,0-3.45-1.55-3.45-3.45s1.55-3.45,3.45-3.45,3.44,1.54,3.44,3.45-1.54,3.45-3.44,3.45"/><rect class="d" x="12.42" y="199.9" width="1.32" height="10.78"/><path class="d" d="m16.39,212.61c.2-.21.32-.47.32-.76,0-.23-.09-.44-.22-.63l-3.41-4.35-3.33,4.25c-.17.22-.28.46-.28.72,0,.29.12.55.32.76h6.61Z"/><rect class="d" x="9.46" y="211.75" width="7.25" height="14.1"/><path class="d" d="m143.89,183.52c.33,0,.65.04.97.13,1.11.3,2.04,1.11,2.6,2.27.61,1.26.73,2.76.33,4.23-.67,2.48-2.7,4.28-4.83,4.28-.33,0-.65-.04-.97-.13-1.11-.3-2.04-1.11-2.6-2.27-.61-1.26-.73-2.76-.33-4.23.67-2.48,2.7-4.28,4.83-4.28m0-1.98c-2.98,0-5.82,2.31-6.74,5.74-1.08,4,.86,7.99,4.33,8.93.49.13.99.2,1.49.2,2.98,0,5.82-2.31,6.74-5.74,1.08-4-.86-7.99-4.33-8.93-.49-.13-.99-.2-1.49-.2"/><path class="d" d="m140.08,196.36c1.26,0,3.22,1.37,4.37,3.92,1.3,2.87.84,5.67-.44,6.25-.19.08-.39.12-.61.12-1.26,0-3.22-1.37-4.37-3.92-.66-1.45-.92-3.02-.71-4.29.16-.98.58-1.7,1.15-1.95.19-.08.39-.12.61-.12m0-1.98c-.49,0-.98.1-1.43.3-2.49,1.13-3.13,5.1-1.43,8.87,1.4,3.09,3.94,5.08,6.18,5.08.49,0,.98-.1,1.43-.3,2.49-1.13,3.13-5.1,1.43-8.87-1.4-3.09-3.93-5.09-6.18-5.09"/><path class="d" d="m140.36,198.53c1.9,0,3.45-1.55,3.45-3.45s-1.55-3.45-3.45-3.45-3.44,1.54-3.44,3.45,1.54,3.45,3.44,3.45"/><rect class="d" x="136.26" y="199.9" width="1.32" height="10.78"/><path class="d" d="m133.61,212.61c-.2-.21-.32-.47-.32-.76,0-.23.09-.44.22-.63l3.41-4.35,3.33,4.25c.17.22.28.46.28.72,0,.29-.12.55-.32.76h-6.61Z"/><rect class="d" x="133.29" y="211.75" width="7.25" height="14.1"/><path class="d" d="m89.47,143.57c.06,2.58,1.01,4.98,2.63,6.62,1.19,1.19,2.63,3.31,3.12,6.88h-40.61c.48-3.54,1.92-5.68,3.11-6.89,1.62-1.65,2.57-4.05,2.63-6.61h29.11m1.31-1.32h-31.74v1.07c0,2.33-.83,4.49-2.26,5.94-1.54,1.55-3.34,4.36-3.62,9.12h43.51c-.29-4.77-2.1-7.58-3.64-9.12-1.43-1.44-2.25-3.61-2.25-5.94v-1.07Z"/><path class="d" d="m74.97,40.09h.12c1.48.13,2.65,1.38,2.65,2.85,0,1.57-1.28,2.85-2.85,2.85s-2.85-1.28-2.85-2.85c0-1.45,1.15-2.69,2.61-2.83h.12s.21-.01.21-.01m.23-1.32h-.69v.02c-2.12.2-3.8,2-3.8,4.14,0,2.3,1.87,4.16,4.17,4.16s4.17-1.87,4.17-4.16c0-2.17-1.7-3.97-3.85-4.15v-.02Z"/><path class="d" d="m76.18,52.2v5.35c-.02,1.32.05,2.63.21,3.89l2.72,21.82h-8.37l2.73-21.82c.12-.94.21-3.5.2-3.87v-5.37h2.51m1.32-1.32h-5.14v6.69c0,.35-.09,2.82-.19,3.71l-2.91,23.3h11.35l-2.9-23.3c-.16-1.23-.22-2.47-.2-3.71v-6.69Z"/><path class="d" d="m82.47,109.6l2.2,10.31.05.24.13.2c.19.3.38.57.56.82.74,1.01,1.63,2.82,1.96,5.87h-24.81c.32-3.02,1.21-4.84,1.96-5.88.19-.26.38-.55.57-.85l.13-.2.05-.24,2.19-10.27h15.01m1.06-1.32h-17.13l-2.41,11.31c-.18.28-.37.56-.54.8-.98,1.36-2.12,3.8-2.3,7.96h27.64c-.18-4.16-1.33-6.62-2.32-7.96-.17-.23-.34-.49-.52-.76l-2.42-11.36Z"/><path class="d" d="m79.24,88.08c0,1.56.36,2.98,1,4.01.05.08.11.18.18.27.38.57.85,1.28,1.04,2.28v4.57h-13.07v-4.58c.19-.98.65-1.69,1.02-2.26.07-.11.13-.2.19-.3.64-1.03.99-2.45,1-3.99h8.64m1.32-1.32h-11.27v1.28c0,1.31-.3,2.52-.8,3.34-.39.63-1.16,1.63-1.41,3.14v6.01h15.7v-6.01c-.26-1.51-1.02-2.51-1.42-3.14-.51-.81-.8-2.03-.8-3.34v-1.28Z"/><path class="d" d="m74.93,96.51c-1.39,0-2.52-1.13-2.52-2.52s1.14-2.52,2.52-2.52,2.51,1.13,2.51,2.52-1.13,2.52-2.51,2.52"/><path class="d" d="m74.93,116.1c-1.39,0-2.52-1.13-2.52-2.52s1.14-2.52,2.52-2.52,2.51,1.13,2.51,2.52-1.13,2.52-2.51,2.52"/><path class="d" d="m84,103.52c.25,0,.47.21.47.47v.25c0,.25-.21.47-.47.47h-18.05c-.25,0-.47-.21-.47-.47v-.25c0-.25.21-.47.47-.47h18.05m0-1.32h-18.05c-.98,0-1.78.8-1.78,1.78v.25c0,.98.8,1.78,1.78,1.78h18.05c.98,0,1.78-.8,1.78-1.78v-.25c0-.98-.8-1.78-1.78-1.78"/><path class="d" d="m71.16,158.38h-13.77l-.2-.23c-.52-.61-.79-1.34-.79-2.09,0-.65.22-1.29.67-1.96l7.19-10.15,7.33,10.34c.26.43.56,1.02.56,1.77s-.27,1.48-.79,2.09l-.2.23Zm-13.13-1.32h12.49c.16-.25.31-.6.31-1.01,0-.32-.11-.65-.35-1.05l-6.22-8.78-6.1,8.62c-.3.44-.44.83-.44,1.22,0,.41.14.76.31,1.01"/><path class="d" d="m81.81,158.38h-13.77l-.2-.23c-.52-.61-.79-1.34-.79-2.09,0-.65.22-1.29.67-1.96l7.19-10.15,7.33,10.34c.26.43.56,1.02.56,1.77s-.27,1.48-.79,2.09l-.2.23Zm-13.13-1.32h12.49c.16-.25.31-.6.31-1.01,0-.32-.11-.65-.35-1.05l-6.22-8.78-6.1,8.62c-.3.44-.44.83-.44,1.22,0,.41.14.76.31,1.01"/><path class="d" d="m92.45,158.38h-13.77l-.2-.23c-.52-.61-.79-1.34-.79-2.09,0-.65.22-1.29.67-1.96l7.19-10.15,7.33,10.34c.26.43.56,1.02.56,1.77s-.27,1.48-.79,2.09l-.2.23Zm-13.13-1.32h12.49c.16-.25.31-.6.31-1.01,0-.32-.11-.65-.35-1.05l-6.22-8.78-6.1,8.62c-.3.44-.44.83-.44,1.22,0,.41.14.76.31,1.01"/><path class="d" d="m57.89,113.62c1.04,1.22,1.04,2.22,1.04,2.26v.06s0,.04,0,.04c0,.05,0,1.05-1.04,2.27-.06-.11-.11-.2-.17-.3l-.06-.11-.02-.04-.03-.04s-.42-.7-.42-1.83c0-1.15.42-1.82.42-1.83l.03-.04.02-.04.06-.11c.05-.09.11-.19.17-.3m-1.38-2.72c.24.38.38.8.41,1.23.04.54-.16.81-.41,1.24,0,0-.64.96-.64,2.56,0,1.6.64,2.56.64,2.56.25.43.44.71.41,1.24-.03.44-.17.85-.41,1.23.54-.19,1-.49,1.33-.84,2.43-2,2.41-4.03,2.4-4.19,0-.16.03-2.19-2.4-4.19-.33-.36-.79-.65-1.33-.84"/><path class="d" d="m63.96,120.34c-.46-2.08-2.33-3.58-4.46-3.58v-1.32c2.74,0,5.16,1.94,5.75,4.62l-1.29.28Z"/><path class="d" d="m92.03,113.62c.06.11.11.2.17.3l.06.11.02.04.02.04s.42.7.42,1.83c0,1.15-.42,1.82-.42,1.83l-.02.04-.02.04-.06.11c-.05.09-.11.19-.17.3-1.04-1.22-1.04-2.22-1.04-2.27v-.06s0-.04,0-.04c0-.05,0-1.05,1.04-2.27m1.38-2.72c-.54.19-1,.49-1.33.84-2.43,2-2.41,4.03-2.4,4.19,0,.16-.03,2.19,2.4,4.19.33.36.79.65,1.33.84-.24-.38-.38-.8-.41-1.23-.04-.54.16-.81.41-1.24,0,0,.64-.96.64-2.56,0-1.6-.64-2.56-.64-2.56-.25-.43-.44-.71-.41-1.24.03-.44.17-.85.41-1.23"/><path class="d" d="m86.02,120.14l-1.27-.34c.69-2.56,3.02-4.35,5.68-4.35v1.32c-2.06,0-3.88,1.39-4.41,3.38"/><path class="d" d="m61.5,90.88c1.04,1.22,1.04,2.22,1.04,2.26v.06s0,.04,0,.04c0,.05,0,1.05-1.04,2.27-.06-.11-.11-.2-.17-.3l-.06-.11-.02-.04-.02-.04s-.42-.7-.42-1.83c0-1.15.42-1.82.42-1.83l.02-.04.02-.04.06-.11c.05-.09.11-.19.17-.3m-1.38-2.72c.24.38.38.8.41,1.23.04.54-.16.81-.41,1.24,0,0-.64.96-.64,2.56,0,1.6.64,2.56.64,2.56.25.43.44.71.41,1.24-.03.44-.17.85-.41,1.23.54-.19,1-.49,1.33-.84,2.43-2,2.41-4.03,2.4-4.19,0-.16.03-2.19-2.4-4.19-.33-.36-.79-.65-1.33-.84"/><path class="d" d="m67.07,96.31c-.81-1.42-2.33-2.3-3.97-2.3v-1.32c2.11,0,4.06,1.14,5.11,2.96l-1.14.65Z"/><path class="d" d="m88.35,90.9c.06.11.11.2.17.3l.06.11.02.04.03.04s.42.7.42,1.83c0,1.15-.42,1.82-.42,1.83l-.03.04-.02.04-.06.11c-.06.09-.11.19-.17.3-1.04-1.22-1.04-2.22-1.04-2.26v-.06s0-.04,0-.04c0-.05,0-1.05,1.04-2.27m1.38-2.72c-.54.19-1,.49-1.33.84-2.43,2-2.41,4.03-2.4,4.19,0,.16-.03,2.19,2.4,4.19.33.36.79.65,1.33.84-.24-.38-.38-.8-.41-1.23-.04-.54.16-.81.41-1.24,0,0,.64-.96.64-2.56,0-1.6-.64-2.56-.64-2.56-.25-.43-.44-.71-.41-1.24.03-.44.17-.85.41-1.23"/><path class="d" d="m82.79,96.32l-1.14-.66c1.05-1.81,3-2.94,5.09-2.94v1.32c-1.62,0-3.14.87-3.96,2.28"/><path class="d" d="m50.7,130.9c1.04,1.22,1.04,2.22,1.04,2.27v.06s0,.04,0,.04c0,.05,0,1.05-1.04,2.27-.06-.11-.11-.2-.17-.3l-.06-.11v-.02s-.04-.04-.04-.04c-.02-.03-.43-.7-.43-1.84,0-1.15.42-1.82.42-1.83l.02-.04.02-.04.06-.11c.05-.09.11-.19.17-.3m-1.38-2.72c.24.38.38.8.41,1.23.04.54-.16.81-.41,1.24,0,0-.64.96-.64,2.56,0,1.6.64,2.56.64,2.56.25.43.44.71.41,1.24-.03.44-.17.85-.41,1.23.54-.19,1-.49,1.33-.84,2.43-2,2.41-4.03,2.4-4.19,0-.16.03-2.19-2.4-4.19-.33-.36-.79-.65-1.33-.84"/><path class="d" d="m56.81,137.92c-.33-2.22-2.27-3.89-4.52-3.89v-1.32c2.89,0,5.39,2.15,5.82,5.01l-1.3.2Z"/><path class="d" d="m99.3,130.9c.06.11.11.2.17.3l.06.11v.02s.04.04.04.04c.02.03.43.7.43,1.84,0,1.15-.42,1.82-.42,1.83l-.03.04-.02.04-.06.11c-.06.09-.11.19-.17.3-1.04-1.22-1.04-2.22-1.04-2.26v-.06s0-.04,0-.04c0-.05,0-1.05,1.04-2.27m1.38-2.72c-.54.19-1,.49-1.33.84-2.43,2-2.41,4.03-2.4,4.19,0,.16-.03,2.19,2.4,4.19.33.36.79.65,1.33.84-.24-.38-.38-.8-.41-1.23-.04-.54.16-.81.41-1.24,0,0,.64-.96.64-2.56,0-1.6-.64-2.56-.64-2.56-.25-.43-.44-.71-.41-1.24.03-.44.17-.85.41-1.23"/><path class="d" d="m93.18,137.93l-1.3-.19c.42-2.86,2.92-5.02,5.82-5.02v1.32c-2.25,0-4.19,1.67-4.52,3.89"/><path class="d" d="m89.38,131.92h.02s.05,0,.05,0h.06s0,0,0,0c1.85.02,3.35,1.53,3.35,3.39s-1.51,3.38-3.37,3.39c-.02,0-.04,0-.06,0h-.06s-28.84,0-28.84,0h-.03s-.04,0-.04,0h-.02s-.02,0-.02,0c-.02,0-.05,0-.07,0-1.86-.02-3.36-1.53-3.36-3.39s1.5-3.37,3.36-3.39h.03s.04,0,.04,0h.04s.05,0,.07,0h28.84m.09-1.32s-.02,0-.02,0-.02,0-.02,0h-28.92s-.04,0-.06,0-.04,0-.06,0c-2.6,0-4.71,2.11-4.71,4.71s2.11,4.71,4.71,4.71c.02,0,.04,0,.06,0,.02,0,.04,0,.06,0h28.92s.01,0,.02,0,.02,0,.02,0c2.6,0,4.71-2.11,4.71-4.71s-2.11-4.71-4.71-4.71"/><polygon class="d" points="80.78 139.19 82.91 139.19 87.84 135.32 82.93 131.47 80.82 131.47 85.71 135.32 80.78 139.19"/><polygon class="d" points="69.3 139.19 64.37 135.32 69.28 131.47 67.15 131.47 62.24 135.32 67.17 139.19 69.3 139.19"/><path class="d" d="m75.04,137.83c-1.39,0-2.52-1.13-2.52-2.52s1.14-2.52,2.52-2.52,2.51,1.13,2.51,2.52-1.13,2.52-2.51,2.52"/><path class="d" d="m95.95,162.08h.02s.06,0,.06,0h.05c1.85.02,3.35,1.53,3.35,3.39s-1.5,3.38-3.36,3.39c-.02,0-.03,0-.05,0h-.06s0,0,0,0h-42.03s-.04,0-.04,0h-.02s-.02,0-.02,0c-.02,0-.05,0-.07,0-1.86-.02-3.36-1.53-3.36-3.39s1.5-3.37,3.36-3.39h.05s.06,0,.06,0c.02,0,.05,0,.08,0h42m.09-1.32s-.02,0-.02,0-.02,0-.02,0h-42.08s-.04,0-.06,0-.04,0-.06,0c-2.6,0-4.71,2.11-4.71,4.71s2.11,4.71,4.71,4.71c.02,0,.04,0,.06,0,.02,0,.04,0,.06,0h42.08s.02,0,.02,0,.02,0,.02,0c2.6,0,4.71-2.11,4.71-4.71s-2.11-4.71-4.71-4.71"/><polygon class="d" points="85.32 169.85 87.45 169.85 93.02 165.49 87.85 161.43 85.74 161.43 90.89 165.49 85.32 169.85"/><polygon class="d" points="80.02 169.85 82.15 169.85 87.72 165.49 82.55 161.43 80.44 161.43 85.59 165.49 80.02 169.85"/><polygon class="d" points="69.83 169.85 64.26 165.49 69.43 161.43 67.3 161.43 62.12 165.49 67.69 169.85 69.83 169.85"/><polygon class="d" points="64.74 169.85 59.18 165.49 64.35 161.43 62.2 161.43 57.04 165.49 62.61 169.85 64.74 169.85"/><path class="d" d="m74.93,167.99c-1.39,0-2.52-1.14-2.52-2.52s1.14-2.52,2.52-2.52,2.51,1.13,2.51,2.52-1.13,2.52-2.51,2.52"/><path class="d" d="m52.73,167.99c-1.39,0-2.52-1.14-2.52-2.52s1.14-2.52,2.52-2.52,2.51,1.13,2.51,2.52-1.13,2.52-2.51,2.52"/><path class="d" d="m97.17,167.99c-1.39,0-2.52-1.14-2.52-2.52s1.14-2.52,2.52-2.52,2.51,1.13,2.51,2.52-1.13,2.52-2.51,2.52"/><path class="d" d="m87.85,127.04h-5.1c.09-.28.15-.57.15-.86,0-.71-.31-1.27-.58-1.67l-1.16-1.48,3.65-4.66-.34-1.7-4.15,5.29-5.37-6.85-5.37,6.85-4.4-5.6-.45,1.56,4.01,5.11-1.02,1.3c-.47.63-.69,1.23-.69,1.85,0,.3.06.58.15.86h-5.49l-.15,1.32h26.53l-.23-1.32Zm-17.3,0h-1.91c-.16-.22-.29-.51-.29-.86,0-.33.14-.66.42-1.05l.81-1.03.93,1.18c.23.35.33.63.33.9,0,.35-.14.64-.29.86m7.92-2.71c-.47.63-.69,1.23-.69,1.85,0,.3.06.58.15.86h-5.92c.09-.28.15-.57.15-.86,0-.71-.31-1.27-.58-1.67l-1.16-1.48,4.53-5.78,4.54,5.78-1.02,1.3Zm2.83,2.71h-1.91c-.16-.22-.29-.51-.29-.86,0-.33.14-.66.42-1.05l.81-1.03.93,1.18c.23.35.33.63.33.9,0,.35-.14.64-.29.86"/><polygon class="d" points="82.97 142.99 80.26 146.81 77.55 142.99 75.94 142.99 80.26 149.09 84.58 142.99 82.97 142.99"/><polygon class="d" points="72.32 142.99 69.62 146.81 66.91 142.99 65.29 142.99 69.62 149.09 73.93 142.99 72.32 142.99"/></g></svg>