<?xml version="1.0" encoding="UTF-8" standalone="no"?>
<!-- Created with Inkscape (http://www.inkscape.org/) -->

<svg
   width="2000"
   height="2000"
   viewBox="0 0 529.16665 529.16667"
   version="1.1"
   id="svg24993"
   inkscape:version="1.1.1 (3bf5ae0d25, 2021-09-20)"
   sodipodi:docname="uni-4-collab.svg"
   xmlns:inkscape="http://www.inkscape.org/namespaces/inkscape"
   xmlns:sodipodi="http://sodipodi.sourceforge.net/DTD/sodipodi-0.dtd"
   xmlns="http://www.w3.org/2000/svg"
   xmlns:svg="http://www.w3.org/2000/svg">
  <sodipodi:namedview
     id="namedview24995"
     pagecolor="#505050"
     bordercolor="#eeeeee"
     borderopacity="1"
     inkscape:pageshadow="0"
     inkscape:pageopacity="0"
     inkscape:pagecheckerboard="0"
     inkscape:document-units="px"
     showgrid="false"
     units="px"
     inkscape:zoom="0.70710678"
     inkscape:cx="1507.5517"
     inkscape:cy="1224.7089"
     inkscape:window-width="3840"
     inkscape:window-height="2066"
     inkscape:window-x="2292"
     inkscape:window-y="-12"
     inkscape:window-maximized="1"
     inkscape:current-layer="layer2" />
  <defs
     id="defs24990">
    <style
       id="style27733">.cls-1{fill:#aa985d;}</style>
  </defs>
  <g
     inkscape:groupmode="layer"
     id="layer2"
     inkscape:label="Layer 2">
    <rect
       style="fill:#ffffff;stroke-width:0.264583"
       id="rect25938"
       width="530.22498"
       height="533.92914"
       x="-0.52916664"
       y="0" />
    <rect
       style="fill:#808080;stroke-width:1.47314"
       id="rect26365"
       width="465"
       height="2"
       x="30"
       y="266.71451" />
  </g>
  <g
     inkscape:label="Layer 1"
     inkscape:groupmode="layer"
     id="layer1">
    <path
       style="fill:#000000;stroke-width:0.310263"
       d="m 162.15948,235.63438 h -1.70645 v -11.01434 -11.01435 h 1.50001 1.50001 l 6.95465,8.11202 6.95466,8.11202 0.0853,-5.00938 0.0853,-5.00939 h 1.69877 1.69876 v 7.91171 7.91171 h -1.49499 -1.495 l -6.80455,-7.75321 -6.80454,-7.75321 -0.23268,-0.004 -0.2327,-0.004 v 7.75657 7.75659 z m 23.42484,0 h -1.5513 v -1.70645 -1.70645 h 1.5513 1.55132 v 1.70645 1.70645 z m 4.8253,0 h -1.72266 v -1.72267 -1.72265 l 1.62888,0.0938 1.62888,0.0938 0.0938,1.62888 0.0938,1.62889 z m 4.79287,0 h -1.55132 v -1.70645 -1.70645 h 1.55132 1.55131 v 1.70645 1.70645 z m 19.33809,0 h -1.29471 l -0.31871,-1.00836 -0.31871,-1.00836 -2.9896,-9.58422 -2.98959,-9.5842 -0.16185,-0.42178 -0.16185,-0.42177 h 1.88146 1.88144 l 0.97073,3.1802 0.97073,3.1802 1.38195,4.48534 1.38196,4.48536 0.0702,0.0702 0.0702,0.0702 2.02071,-5.33124 2.02072,-5.33126 h 1.96903 1.96904 l 1.75776,4.80908 1.75777,4.80907 0.25961,0.62053 0.2596,0.62053 0.29322,-1.08591 0.29321,-1.08594 2.17227,-6.74821 2.17228,-6.74823 h 1.86442 1.86443 l -0.15183,0.38783 -0.15184,0.38783 -3.51962,10.6168 -3.5196,10.61678 -1.24961,0.009 -1.24962,0.009 -1.01339,-2.73466 -1.01339,-2.73465 -1.48346,-3.79762 -1.48347,-3.79763 -2.45863,6.53228 -2.45862,6.53228 h -1.29472 z m -24.14718,-4.65395 h -1.70644 v -1.70645 -1.70644 h 1.70644 1.70645 v 1.70644 1.70645 z m 4.80909,0 h -1.55132 v -1.70645 -1.70644 h 1.55132 1.55131 v 1.70644 1.70645 z m 4.82529,0 h -1.72266 v -1.72266 -1.72266 l 1.62887,0.0938 1.62888,0.0938 0.0938,1.62887 0.0938,1.62889 z m -9.63438,-4.65394 h -1.70644 v -1.70645 -1.70645 h 1.70644 1.70645 v 1.70645 1.70645 z m 4.80909,0 h -1.55132 v -1.70645 -1.70645 h 1.55132 1.55131 v 1.70645 1.70645 z m 4.80907,0 h -1.70644 v -1.70645 -1.70645 h 1.70644 1.70645 v 1.70645 1.70645 z m 4.63773,0 h -1.72266 l 0.0938,-1.62889 0.0938,-1.62888 1.62887,-0.0938 1.6289,-0.0938 v 1.72266 1.72267 z m -14.25589,-4.65395 h -1.70644 v -1.70645 -1.70645 h 1.70644 1.70645 v 1.70645 1.70645 z m 4.80909,0 h -1.55132 v -1.70645 -1.70645 h 1.55132 1.55131 v 1.70645 1.70645 z m 4.80907,0 h -1.70644 v -1.70645 -1.70645 h 1.70644 1.70645 v 1.70645 1.70645 z m -19.02946,-4.65395 h -1.49961 l -0.20684,-0.20684 -0.20684,-0.20685 v -1.4996 -1.49961 h 1.70645 1.70645 v 1.70645 1.70645 z m 4.60222,0 h -1.5513 v -1.70645 -1.70645 h 1.5513 1.55132 v 1.70645 1.70645 z m 4.80908,0 h -1.70644 v -1.70645 -1.70645 h 1.70644 1.70645 v 1.70645 1.70645 z m 4.80909,0 h -1.55132 v -1.70645 -1.70645 h 1.55132 1.55131 v 1.70645 1.70645 z M 44.25955,115.84244 l -2.792367,-0.0257 -2.171841,-0.40433 -2.171839,-0.40434 -1.551316,-0.53019 -1.551315,-0.53019 -2.171841,-1.12294 -2.17184,-1.12294 -2.661815,-2.64604 -2.661817,-2.64605 -1.295684,-2.32698 -1.295684,-2.32696 -0.779924,-2.439281 -0.779923,-2.43926 -0.29649,-2.85927 -0.296491,-2.85926 0.30551,-2.68871 0.305513,-2.68869 0.74236,-2.337711 0.742363,-2.33773 1.318976,-2.240691 1.318978,-2.24071 2.522993,-2.48211 2.522997,-2.4821 1.764016,-1.04082 1.764017,-1.04081 1.828839,-0.7387 1.828839,-0.7387 2.233798,-0.46989 2.233794,-0.46989 h 3.663089 3.663089 l 3.001037,0.76127 3.001037,0.76127 2.510279,1.33301 2.51028,1.33299 2.068352,1.9112 2.068339,1.9112 0.887541,1.28073 0.887554,1.28072 -0.283018,0.24225 -0.283031,0.24223 -2.087606,1.60762 -2.087617,1.607611 h -0.14678 -0.14678 l -2.30389,-2.303871 -2.303882,-2.30388 -2.208833,-1.11235 -2.208834,-1.11236 -1.940251,-0.45746 -1.940251,-0.45746 H 44.724945 42.08771 l -1.984719,0.46784 -1.984714,0.46784 -2.181369,1.14627 -2.181366,1.14628 -1.728913,1.60187 -1.728913,1.601881 -1.173439,1.97633 -1.173442,1.97633 -0.671909,2.171841 -0.671909,2.17185 v 3.25776 3.25777 l 0.671146,2.18471 0.671149,2.18473 1.213392,1.848691 1.213394,1.84869 1.512123,1.45523 1.512125,1.45522 1.861579,1.11546 1.861578,1.11544 1.551314,0.46975 1.551315,0.46974 2.326972,0.27292 2.326973,0.27292 2.425911,-0.30063 2.425915,-0.30062 1.762636,-0.64907 1.762637,-0.64909 2.076057,-1.36699 2.076053,-1.36699 1.412151,-1.57065 1.412137,-1.57064 2.13871,1.58549 2.138709,1.58549 0.389976,0.46988 0.389965,0.46989 -1.235397,1.46613 -1.235384,1.46613 -1.798044,1.45718 -1.798031,1.45719 -2.098729,1.10285 -2.098725,1.10284 -1.970644,0.60466 -1.970643,0.60466 -2.016711,0.32343 -2.01671,0.32341 -2.792366,-0.0257 z m 92.14811,-0.008 -2.17185,-0.0294 -1.24105,-0.2491 -1.24105,-0.24911 -1.77618,-0.66705 -1.77619,-0.66706 -1.81807,-1.33838 -1.81808,-1.33839 -1.28964,-1.93127 -1.28966,-1.93127 -0.5344,-1.59763 -0.53439,-1.59762 -0.10495,-18.072811 -0.10495,-18.072842 h 3.26178 3.26179 l 0.0896,17.607442 0.0897,17.607421 0.53148,1.12603 0.53148,1.12604 0.76083,0.90419 0.76083,0.90421 1.81033,0.91727 1.81032,0.91727 2.38445,0.10952 2.38444,0.10953 1.64897,-0.76808 1.64896,-0.76807 0.98965,-0.98883 0.98964,-0.98884 0.68634,-1.41779 0.68635,-1.4178 0.24329,-3.605461 0.24329,-3.60545 0.0198,-13.884271 0.0199,-13.884291 h 3.28523 3.28522 l -0.14476,16.676641 -0.14477,16.676652 -0.50081,2.32696 -0.50083,2.32698 -0.93677,1.90692 -0.93677,1.90691 -2.02327,1.89268 -2.02328,1.89268 -1.22115,0.62298 -1.22115,0.62298 -1.9489,0.45948 -1.94892,0.45949 -2.17183,-0.0294 z m 57.16594,-0.95928 -3.33533,0.0881 v -0.13334 -0.13336 l 9.49706,-20.276941 9.49707,-20.276962 1.40912,-3.02506 1.40914,-3.02507 h 1.05638 1.05638 l 0.64745,1.47375 0.64746,1.47375 9.91684,21.408162 9.91684,21.408151 0.15852,0.54296 0.15852,0.54296 h -3.24066 -3.24064 l -3.58926,-7.67901 -3.58926,-7.679021 h -8.9 -8.90003 l -3.06807,6.515531 -3.06806,6.51553 -0.55207,1.08592 -0.55207,1.08592 z m 19.4481,-21.030831 h 6.07103 l -0.0106,-0.23269 -0.0105,-0.2327 -2.90097,-6.20527 -2.90097,-6.205271 -0.26835,0.14345 -0.26834,0.14344 -2.71257,5.732821 -2.71256,5.73281 -0.17828,0.56171 -0.17829,0.5617 h 6.07105 z M 78.694669,114.63174 H 75.440983 V 91.362019 68.092277 h 3.257755 3.257767 v 9.30789 9.307902 h 10.238674 10.238691 v -9.307902 -9.30789 h 3.25775 3.25777 v 23.269742 23.269721 h -3.25777 -3.25775 V 103.92342 93.215119 l -10.161131,0.0818 -10.161104,0.0819 -0.08162,10.626501 -0.08162,10.62652 z m 96.030461,0 H 162.93514 V 91.362019 68.092277 h 3.25775 3.25776 v 20.167102 20.167101 h 8.53224 8.53222 v 3.10262 3.10264 z"
       id="path1514"
       sodipodi:nodetypes="ccccccccccccccccccccccccccccccccccccccccccccccccccccccccccccccccccccccccccccccccccccccccccccccccccccccccccccccccccccccccccccccccccccccccccccccccccccccccccccccccccccccccccccccccccccccccccccccccccccccccccccccccccccccccccccccccccccccccccccccccccccccccccccccccccccccccccccccccccccccccccccccccccccccccccccccccccccccccccccccccccccccccccccccccccccccccccccccccccccccccccccccccccccccccccccccccccccccccccccccccccccccccccccccccccccccccccccccccccccccccccccccccccccccc" />
    <path
       style="fill:#a11d2a;fill-opacity:1;stroke-width:0.310263"
       d="m 123.57361,236.22686 -0.197,-0.0279 -1.00148,-0.28935 -1.00146,-0.28938 0.10893,-0.93603 0.10894,-0.93604 -0.94991,-0.49123 -0.94991,-0.49121 -0.55792,0.34842 -0.55792,0.34843 h -0.41367 -0.41365 l -0.69594,-0.80042 -0.69594,-0.80039 0.49247,-0.75161 0.49247,-0.75161 -0.48097,-0.93007 -0.48098,-0.93011 h -0.93049 -0.9305 l -0.30259,-0.79585 -0.30258,-0.79587 v -0.39275 -0.39277 l 0.77565,-0.41513 0.77566,-0.41513 v -1.04013 -1.04016 l -0.77566,-0.35339 -0.77565,-0.35342 v -0.3954 -0.3954 l 0.30258,-0.79585 0.30259,-0.79586 h 0.9305 0.93049 l 0.49356,-0.95443 0.49355,-0.95443 -0.51825,-0.79096 -0.51825,-0.79095 0.92453,-0.92452 0.92451,-0.92453 0.77648,0.50881 0.77648,0.50876 0.81376,-0.37079 0.81376,-0.37077 v -0.97379 -0.97379 l 1.03039,-0.3726 1.03038,-0.37259 h 0.31599 0.31601 l 0.35341,0.77566 0.35341,0.77566 h 1.09922 1.09923 l 0.35909,-0.78813 0.3591,-0.78814 0.95287,0.2041 0.95287,0.20409 0.2327,0.13695 0.2327,0.13695 v 0.90451 0.90451 l 0.9301,0.48097 0.93008,0.48097 0.71969,-0.47154 0.71969,-0.47157 0.87735,0.91578 0.87736,0.91573 -1.51878,1.39746 -1.51878,1.39746 -0.24952,0.0124 -0.24953,0.0124 -0.99153,-0.93626 -0.99153,-0.93622 -1.53006,-0.45996 -1.53006,-0.45993 h -0.66304 -0.66303 l -1.63633,0.48593 -1.63634,0.48593 -1.32607,1.32611 -1.32606,1.32606 -0.54394,1.63763 -0.54393,1.6376 0.19493,1.42208 0.19492,1.42213 0.65087,1.34449 0.65086,1.34454 1.37839,1.05247 1.37842,1.0525 1.5792,0.33868 1.57921,0.33869 1.12038,-0.20258 1.12037,-0.20256 0.93079,-0.45867 0.93079,-0.45866 0.98814,-0.93733 0.98816,-0.93735 1.64908,1.57919 1.64909,1.5792 -0.82998,0.83632 -0.82998,0.83635 -0.92552,-0.38337 -0.92553,-0.38336 -0.80416,0.5269 -0.80417,0.52691 v 0.86476 0.86474 l -0.97709,0.34064 -0.97709,0.34061 h -0.21416 -0.21416 l -0.35342,-0.77566 -0.35341,-0.77566 h -1.08543 -1.08541 l -0.50824,0.77566 -0.50822,0.77566 -0.19702,-0.0279 z M 92.622159,235.63432 H 90.63342 l 0.7861,-1.55132 0.786109,-1.5513 h 1.860529 1.860509 l -0.49773,1.16349 -0.497739,1.16347 -0.16015,0.38783 -0.16015,0.38783 z m 19.578121,0 h -2.03189 l -0.57136,-1.31862 -0.57136,-1.31862 -3.24728,-7.13604 -3.24727,-7.13606 -0.16232,-0.46539 -0.16232,-0.4654 -0.82076,1.86158 -0.82076,1.86158 -1.780355,3.94685 -1.780349,3.94683 -1.928108,0.009 -1.928129,0.009 0.574709,-1.31861 0.57471,-1.31862 2.478248,-5.42961 2.478249,-5.42961 0.56151,-1.16348 0.561505,-1.16349 h 1.90179 1.90178 l 0.561,1.16349 0.56101,1.16348 4.03265,8.84251 4.03264,8.84249 0.43219,1.00836 0.43218,1.00836 h -2.03191 z m 35.38138,0 h -1.70188 l -0.0821,-9.38545 -0.0821,-9.38547 -0.38783,-0.0388 -0.38783,-0.0388 -3.25776,-0.0388 -3.25776,-0.0388 v -1.55132 -1.5513 h 9.47924 9.47922 l -0.0938,1.62888 -0.0938,1.62887 h -3.9561 -3.95609 l 2.5e-4,9.38547 2.3e-4,9.38545 z M 49.162893,203.36698 h -29.38071 l 1.069215,-1.13493 1.069219,-1.13491 3.236616,-3.36391 3.236617,-3.36387 h 21.125154 21.125158 l 2.935243,-2.94751 2.935242,-2.9475 h 1.014481 1.01448 v 7.44632 7.44631 z m 151.624327,-0.17173 -4.49881,0.11656 -1.08592,-0.13196 -1.08593,-0.13195 -2.88101,-0.46956 -2.88101,-0.46955 -2.5486,-0.79843 -2.54858,-0.7984 -2.79236,-1.39699 -2.79237,-1.39698 -2.38693,-1.71154 -2.38692,-1.71151 -2.26702,-2.37205 -2.26703,-2.37206 -0.7285,-0.88586 -0.72849,-0.88583 -1.32566,-2.05696 -1.32565,-2.05692 -0.81105,-1.60923 -0.81105,-1.60925 -0.78399,-2.08286 -0.78399,-2.08289 -0.6436,-3.13368 -0.64361,-3.13367 -0.0123,-4.34368 -0.0123,-4.34369 0.66436,-3.17514 0.66436,-3.17513 0.80487,-2.25447 0.80487,-2.25447 1.27605,-2.47078 1.27604,-2.47081 1.77196,-2.38983 1.77197,-2.38988 2.26998,-2.21482 2.26997,-2.2148 2.51308,-1.68709 2.51308,-1.68708 3.00121,-1.42169 3.0012,-1.42169 3.63847,-0.93902 3.63847,-0.93901 5.31374,-0.1651 5.31373,-0.16508 2.59797,0.36822 2.59797,0.36821 2.88072,0.75451 2.88073,0.75452 2.26489,0.94288 2.2649,0.94288 2.76609,1.5853 2.76609,1.5853 0.86446,0.65651 0.86445,0.65649 2.70358,2.20845 2.70355,2.20845 0.85979,0.91801 0.85977,0.91799 -3.03161,2.98096 -3.03163,2.98098 -0.73795,0.6342 -0.73798,0.63424 -2.32305,-2.16948 -2.32305,-2.16945 -2.55817,-1.70217 -2.55817,-1.70213 -2.60278,-1.21385 -2.60278,-1.21383 -2.94751,-0.81267 -2.94749,-0.81267 -3.56803,-0.18389 -3.56801,-0.18388 -2.73851,0.51831 -2.73851,0.51831 -2.61211,0.94516 -2.61209,0.94517 -2.61188,1.63978 -2.61187,1.6398 -1.42028,1.1872 -1.42028,1.18721 -1.53278,1.8892 -1.53279,1.88916 -1.24319,2.15838 -1.2432,2.15835 -1.00199,2.9475 -1.00199,2.94749 -0.14089,3.81339 -0.14089,3.81338 0.36449,1.92648 0.3645,1.92649 0.48745,1.55132 0.48744,1.55132 1.2346,2.4821 1.23459,2.4821 1.53888,2.08097 1.53886,2.08096 1.65771,1.51505 1.65769,1.51502 1.75384,1.16413 1.75383,1.16415 2.60861,1.22244 2.60861,1.22242 2.41502,0.674 2.41502,0.67398 5.58473,0.014 5.58474,0.014 2.46454,-0.71361 2.46455,-0.7136 2.37572,-1.23596 2.3757,-1.236 2.06703,-1.77356 2.06703,-1.77358 1.27143,-1.70571 1.27142,-1.70567 0.86159,-1.70722 0.8616,-1.7072 0.50028,-1.68519 0.50028,-1.6852 v -0.25395 -0.25395 h -10.70407 -10.70408 v -4.80907 -4.80908 h 16.28881 16.2888 l -0.002,2.55967 -0.002,2.55966 -0.44765,2.9475 -0.44763,2.94751 -0.80213,2.79237 -0.80213,2.79237 -1.1951,2.51567 -1.1951,2.51567 -1.14029,1.67288 -1.14029,1.67289 -1.83944,2.06876 -1.83946,2.06875 -2.41666,1.82103 -2.41665,1.82099 -2.6382,1.28889 -2.6382,1.2889 -2.73037,0.79123 -2.73039,0.79123 -1.91364,0.32395 -1.91366,0.32392 -4.4988,0.11656 z M 96.390157,201.50541 H 90.6567 l -0.084,-13.50067 -0.084,-13.50064 4.266117,-4.25777 4.266117,-4.25774 v -0.31874 -0.31873 l -4.188546,-4.17992 -4.188558,-4.17993 v -13.73346 -13.73347 h 2.573689 2.573698 l 12.241373,14.31866 12.24137,14.31864 0.31499,0.34129 0.31499,0.34129 7.13132,8.36258 7.13131,8.36263 0.99996,1.1004 0.99994,1.10045 0.008,-24.12297 0.008,-24.12297 h 5.895 5.89499 v 35.99054 35.99053 h -2.62182 -2.62181 l -0.24811,-0.44085 -0.24812,-0.44086 -4.68857,-5.37658 -4.68855,-5.37658 -6.1805,-7.13605 -6.18049,-7.13606 -5.86989,-6.82579 -5.86992,-6.82578 -3.54362,-4.03343 -3.54362,-4.03342 -0.27233,-0.10343 -0.27234,-0.10343 v 23.91612 23.91614 z m -56.43477,-10.23869 h -8.378493 l 0.601463,-0.58258 0.601464,-0.58257 12.077228,-12.14511 12.077228,-12.14513 -6.490407,-6.5862 -6.490407,-6.58617 -6.052215,-6.14685 -6.052217,-6.14683 -0.06881,-0.0755 -0.06881,-0.0755 8.290782,-0.0754 8.29078,-0.0754 12.71774,12.73415 12.717749,12.73414 -3.741589,3.80234 -3.741602,3.80237 -8.955693,9.07519 -8.955695,9.0752 z m 37.657433,-48.47514 -0.77566,0.081 -3.226821,-3.10611 -3.226821,-3.10611 H 49.405675 28.427826 l -4.335369,-4.34368 -4.335369,-4.34369 h 29.398877 29.398877 l -0.08314,7.36876 -0.08314,7.36876 z"
       id="path1514-6"
       sodipodi:nodetypes="cccccccccccccccccccccccccccccccccccccccccccccccccccccccccccccccccccccccccccccccccccccccccccccccccccccccccccccccccccccccccccccccccccccccccccccccccccccccccccccccccccccccccccccccccccccccccccccccccccccccccccccccccccccccccccccccccccccccccccccccccccccccccccccccccccccccccccccccccccccccccccccccccccccccccccccccccccccccccccccccccccccccccccccccccccccccccccccccccccccccccccccccccccccccccccccccccccccccccccccccccccccccccccccccccccccccc" />
    <g
       fill="#231f20"
       id="g25421"
       transform="matrix(1.7791095,0,0,1.7791106,308.99981,67.175817)">
      <path
         d="m 63.9414,40.37891 c 0.11328,0.30859 0.11328,0.41797 0.043,0.45703 -0.0664,0.0391 -0.1875,0.0273 -0.35937,-0.24219 -0.004,-0.0117 -0.0117,-0.0195 -0.0195,-0.0312 -0.004,-0.008 -0.008,-0.0117 -0.008,-0.0195 -1.14062,-1.88281 -2.01953,-4.33594 -2.19531,-5.12891 -0.21875,-0.98828 -0.61328,-2.24218 -0.62109,-5.74218 -0.008,-4.19532 -1.14844,-4.69922 -4.4375,-4.96875 -4.10547,-0.33594 -4.51563,2.15234 -4.66797,2.91797 -0.48828,2.46093 -0.81641,4.61328 -0.3711,5.20312 0.61328,0.8125 0.79688,1.32031 1.42969,2.58984 1.10156,2.20704 2.76953,8.53125 3.65625,12.06641 0.0898,0.35156 0.11719,0.46484 0.0469,0.50391 -0.0703,0.043 -0.19922,0.0508 -0.3711,-0.35157 -1.20312,-2.875 -3.22656,-7.57812 -3.92969,-9.14843 -1.00781,-2.2461 -2.17578,-2.76563 -2.58593,-2.76563 -0.40625,0 -1.57422,0.51953 -2.58203,2.76563 -0.70704,1.57031 -2.73047,6.27343 -3.9336,9.14843 -0.16797,0.40235 -0.29687,0.39454 -0.37109,0.35157 -0.0703,-0.0391 -0.0391,-0.15235 0.0469,-0.50391 0.88672,-3.53516 2.55469,-9.85937 3.66016,-12.06641 0.63281,-1.26953 0.81641,-1.77734 1.42578,-2.58984 0.44922,-0.58984 0.12109,-2.74219 -0.37109,-5.20312 -0.14844,-0.76563 -0.5586,-3.25391 -4.66407,-2.91797 -3.29296,0.26953 -4.42968,0.77343 -4.4414,4.96875 -0.008,3.5 -0.40235,4.7539 -0.6211,5.74218 -0.17187,0.79297 -1.05468,3.2461 -2.1914,5.12891 -0.004,0.008 -0.008,0.0117 -0.0117,0.0195 -0.004,0.0117 -0.0117,0.0195 -0.0195,0.0312 -0.17188,0.26953 -0.29297,0.28125 -0.35547,0.24219 -0.0742,-0.0391 -0.0742,-0.14844 0.0391,-0.45703 0.45313,-1.27344 1.14063,-3.78906 1.14063,-6.28906 0,-1.87891 -0.19922,-8.3125 0.0195,-9.56641 0.22265,-1.25781 -0.14063,-3.09766 3.38672,-4.11719 0,0 2.12109,-0.62109 4.29297,-0.97656 0.90625,-0.23047 2.25,-0.25 2.71875,-1.22656 0.67578,-1.41797 0.87109,-3.83594 1.99609,-5.19141 0.10937,-0.12891 0.29687,-0.32812 0.42187,-0.60937 0.16797,-0.37891 0.38282,-0.44532 0.41407,-0.44532 0.0312,0 0.24609,0.0664 0.41797,0.44532 0.125,0.28125 0.3125,0.48046 0.41796,0.60937 1.125,1.35547 1.32032,3.77344 1.9961,5.19141 0.46875,0.97656 1.8125,0.99609 2.71875,1.22656 2.17187,0.35547 4.29687,0.97656 4.29687,0.97656 3.52735,1.01953 3.16407,2.85938 3.38282,4.11719 0.21875,1.25391 0.0195,7.6875 0.0195,9.56641 0,2.5 0.6914,5.01562 1.14062,6.28906 z M 78.05468,58.85938 H 21.04687 l 5.79688,-5.875 V 7.57031 l -5.79688,-5.875 h 57.00781 l -5.79297,5.875 V 52.98438 Z M 19.27343,60.55469 H 79.82812 V 0 H 19.27343 Z m 0,0"
         id="path25401" />
      <path
         d="M 10.80468,77.9336 H 6.23437 V 91.96875 H 4.55078 V 77.9336 H 0 v -1.42188 h 10.80468 z m 0,0"
         id="path25403" />
      <path
         d="m 15.51562,81.95703 c -2.39844,0 -3.39453,2.35547 -3.39453,4.48438 0,2.46094 1.36328,4.44922 3.35156,4.44922 2.01172,0 3.41406,-1.98828 3.41406,-4.48828 0,-1.96875 -0.95312,-4.44532 -3.37109,-4.44532 m 5.09766,4.38672 c 0,4.1211 -2.72266,5.86719 -5.17969,5.86719 -2.84375,0 -5.03906,-2.13281 -5.03906,-5.70703 0,-3.77735 2.35937,-5.86719 5.17968,-5.86719 3.02735,0 5.03907,2.3125 5.03907,5.70703"
         id="path25405" />
      <path
         d="M 31.75781,91.96875 H 29.6875 l -3.82032,-5.46484 -1.01562,1.16015 v 4.30469 h -1.6836 v -16.25 h 1.6836 V 86.0586 h 0.043 c 0.26172,-0.38672 0.64843,-0.875 0.95312,-1.23829 l 3.3086,-3.92187 h 2.03515 l -4.16406,4.57031 z m 0,0"
         id="path25407" />
      <path
         d="m 42.00781,80.89844 -2.94531,7.83984 c -1.31641,3.59766 -2.25391,5.66797 -3.63282,6.96875 -0.93359,0.85157 -1.84765,1.19532 -2.2539,1.29688 l -0.46875,-1.41797 c 2.57812,-0.95703 3.57422,-3.76172 3.57422,-3.98438 0,-0.10156 -0.0391,-0.26171 -0.1211,-0.46484 L 32.24218,80.89844 h 1.84766 l 2.41406,6.72266 c 0.28516,0.77343 0.53125,1.64453 0.71094,2.3164 h 0.0625 c 0.18359,-0.67187 0.44531,-1.5039 0.71094,-2.35547 l 2.23437,-6.68359 z m 0,0"
         id="path25409" />
      <path
         d="m 48.17968,81.95703 c -2.39843,0 -3.39062,2.35547 -3.39062,4.48438 0,2.46094 1.35937,4.44922 3.34765,4.44922 2.01172,0 3.41407,-1.98828 3.41407,-4.48828 0,-1.96875 -0.95313,-4.44532 -3.3711,-4.44532 m 5.09766,4.38672 c 0,4.1211 -2.72266,5.86719 -5.17969,5.86719 -2.84375,0 -5.03515,-2.13281 -5.03515,-5.70703 0,-3.77735 2.35546,-5.86719 5.17968,-5.86719 3.02344,0 5.03516,2.3125 5.03516,5.70703"
         id="path25411" />
      <path
         d="m 68.35937,77.9336 h -4.57031 v 14.03515 h -1.6836 V 77.9336 h -4.55078 v -1.42188 h 10.80469 z m 0,0"
         id="path25413" />
      <path
         d="m 75.11718,85.36719 c 0.0234,-1.50391 -0.60937,-3.45313 -2.78125,-3.45313 -2.03125,0 -2.92578,1.92969 -3.08593,3.45313 z M 76.19531,91.5 c -0.62891,0.30469 -1.78906,0.69141 -3.47266,0.69141 -3.23047,0 -5.16015,-2.27344 -5.16015,-5.58594 0,-3.47266 1.95312,-5.96875 4.9375,-5.96875 3.41015,0 4.28515,3.125 4.28515,5.05469 0,0.38672 -0.0195,0.67187 -0.043,0.93359 H 69.207 c 0.0234,3.07031 1.76953,4.22656 3.75781,4.22656 1.38281,0 2.21484,-0.28515 2.90625,-0.57031 z m 0,0"
         id="path25415" />
      <path
         d="m 87.17968,91.5625 c -0.48828,0.24219 -1.58593,0.62891 -3.00781,0.62891 -3.16797,0 -5.26172,-2.25391 -5.26172,-5.64453 0,-3.41407 2.25781,-5.91016 5.66797,-5.91016 1.24219,0 2.23438,0.36328 2.66016,0.58594 l -0.42578,1.36328 c -0.46875,-0.26563 -1.19922,-0.57031 -2.27344,-0.57031 -2.5586,0 -3.90235,2.05078 -3.90235,4.42578 0,2.68359 1.60547,4.37109 3.83985,4.37109 1.09765,0 1.85156,-0.30469 2.39844,-0.55078 z m 0,0"
         id="path25417" />
      <path
         d="m 98.79296,91.96875 h -1.6875 v -6.53906 c 0,-1.80859 -0.64843,-3.375 -2.55859,-3.375 -1.30078,0 -2.92578,1.07812 -2.92578,3.10937 v 6.80469 H 89.9375 v -16.25 h 1.68359 v 6.88672 h 0.043 c 0.73047,-1.21875 2.07031,-1.96875 3.42969,-1.96875 1.36328,0 3.69921,0.83203 3.69921,4.58984 z m 0,0"
         id="path25419" />
    </g>
    <rect
       style="fill:#808080;stroke-width:0.218261"
       id="rect25462"
       width="1.9746614"
       height="400"
       x="264.33734"
       y="60" />
    <g
       id="g27627"
       transform="matrix(1.1931062,0,0,1.1931062,-453.17967,-164.64748)">
      <path
         style="fill:#ee3239;stroke-width:0.524653"
         d="m 690.79791,492.94929 -0.85691,-1.30782 0.30758,-1.22551 c 0.16917,-0.67402 0.90254,-1.49659 1.62971,-1.82791 l 1.32214,-0.6024 1.24216,0.47226 c 3.21201,1.22121 2.1081,5.79919 -1.39838,5.79919 h -1.38939 z m -3.97673,-11.67737 c -0.85209,-1.00967 -8.28516,-14.43231 -13.80056,-24.92104 -1.93463,-3.67913 -3.55582,-6.68946 -3.60264,-6.68961 -0.0468,-1.6e-4 -0.003,3.19373 0.0979,7.09754 l 0.183,7.09783 -7.52815,-0.14589 -7.52814,-0.14588 v -16.78891 -16.78891 l 9.70609,-0.12414 9.70609,-0.12414 4.87573,8.57417 c 2.68165,4.7158 6.06979,10.91011 7.5292,13.76513 1.45941,2.85503 2.6887,5.23072 2.73175,5.27931 0.043,0.0486 0.005,-6.15545 -0.0848,-13.78675 l -0.16303,-13.87511 7.50817,0.14577 7.50818,0.14576 0.13625,25.38581 0.13624,25.38581 -0.59397,0.7157 -0.59398,0.7157 h -7.72425 -7.72424 z m 72.59467,0.28856 -0.62959,-0.62958 v -27.7017 -27.70171 l -61.77794,-0.008 c -33.97786,-0.004 -62.08089,-0.20027 -62.45117,-0.43522 l -0.67324,-0.42719 0.14858,-6.25411 0.14859,-6.25411 h 81.05895 81.05895 l 0.14859,6.25411 0.14858,6.25411 -0.67324,0.42719 c -0.37028,0.23495 -5.21805,0.4308 -10.77281,0.43522 l -10.09958,0.008 v 28.01283 28.01283 l -0.82989,0.31846 c -0.45644,0.17515 -3.83259,0.31846 -7.50255,0.31846 h -6.67265 z"
         id="path27633" />
      <path
         style="fill:#632f8d;stroke-width:0.524653"
         d="m 675.89103,491.3715 c 0,-1.87563 0.17707,-3.41056 0.39349,-3.41096 0.21641,-3.9e-4 0.31084,1.32862 0.20984,2.95336 l -0.18365,2.95407 0.7083,0.44885 0.7083,0.44886 -0.91814,0.008 -0.91814,0.008 z m 37.46486,2.68777 c -0.15248,-0.39736 -0.20409,-1.8545 -0.11469,-3.23807 l 0.16254,-2.51559 0.66894,-0.13283 c 0.36791,-0.073 0.42693,-0.0128 0.13116,0.13387 -0.29577,0.14669 -0.53777,1.52587 -0.53777,3.06485 v 2.79815 l 0.65582,0.26463 0.65581,0.26463 -0.67228,0.0414 c -0.36976,0.0228 -0.79704,-0.2837 -0.94953,-0.68106 z m 36.95724,0.25755 0.7083,-0.44885 -0.18365,-2.95407 c -0.101,-1.62474 -0.007,-2.95375 0.20984,-2.95336 0.21642,4e-4 0.39349,1.53533 0.39349,3.41096 v 3.41025 l -0.91814,-0.008 -0.91814,-0.008 0.7083,-0.44886 z m 21.0517,0.11954 c 0.29577,-0.14669 0.53777,-1.52587 0.53777,-3.06486 0,-1.53898 -0.242,-2.91816 -0.53777,-3.06485 -0.29578,-0.14668 -0.23675,-0.20571 0.13116,-0.13116 l 0.66893,0.13554 v 3.06047 3.06048 l -0.66893,0.13554 c -0.36791,0.0745 -0.42694,0.0155 -0.13116,-0.13116 z m -136.83322,-3.19602 -0.0882,-3.27908 h 0.78698 0.78698 l -0.0946,2.75443 -0.0946,2.75443 -0.27309,-2.62327 -0.2731,-2.62327 -0.33112,3.14792 -0.33112,3.14792 z m 44.20188,0.003 0.0431,-3.01938 1.97199,-0.055 1.97199,-0.055 -1.81555,0.21633 -1.81554,0.21633 -0.19957,2.85806 -0.19958,2.85806 0.0431,-3.01938 z m 44.90099,0.71439 v -2.29975 l -1.10209,-0.28821 -1.1021,-0.2882 0.34608,-0.55997 c 0.19035,-0.30798 1.51262,-0.55996 2.93839,-0.55996 h 2.5923 v 0.57377 c 0,0.31557 -0.4598,0.69401 -1.02178,0.84097 l -1.02178,0.2672 -0.19819,2.17579 -0.1982,2.17578 -0.0917,-2.24668 -0.0917,-2.24669 1.18047,-0.47449 1.18047,-0.47449 -2.62327,0.0382 c -1.44279,0.021 -2.09205,0.14051 -1.44279,0.26556 l 1.18047,0.22737 v 2.58678 c 0,1.42273 -0.11805,2.58678 -0.26233,2.58678 -0.14428,0 -0.26233,-1.03489 -0.26233,-2.29975 z m 4.29643,-0.71701 -0.0992,-3.27908 2.22978,0.0882 2.22978,0.0882 -1.94217,0.20429 -1.94217,0.20429 -0.18841,2.9866 -0.1884,2.98659 z m 29.90061,0.30605 -0.0946,-2.97304 -0.65582,-0.26463 -0.65582,-0.26463 0.67228,-0.0414 c 0.96723,-0.0596 1.25451,1.04748 1.02763,3.96014 l -0.19914,2.55658 z m -102.1895,1.00558 -0.99946,-1.18047 1.18047,0.99946 c 1.10935,0.93925 1.41932,1.36148 0.99946,1.36148 -0.0996,0 -0.63077,-0.53121 -1.18047,-1.18047 z m 1.57396,0 -0.99946,-1.18047 1.18047,0.99946 c 1.10935,0.93925 1.41932,1.36148 0.99946,1.36148 -0.0996,0 -0.63077,-0.53121 -1.18047,-1.18047 z m 51.59705,0.83301 c 0.3607,-0.14555 0.95093,-0.14555 1.31163,0 0.3607,0.14554 0.0656,0.26463 -0.65582,0.26463 -0.7214,0 -1.01651,-0.11909 -0.65581,-0.26463 z m 20.10941,-1.00789 0.0414,-1.00559 0.27556,0.68861 c 0.15156,0.37873 0.13292,0.83125 -0.0414,1.00559 -0.17434,0.17434 -0.29834,-0.13554 -0.27556,-0.68861 z m 53.97795,-1.65724 0.28225,-2.41237 0.66894,-0.13377 c 0.36791,-0.0736 0.42693,-0.0137 0.13116,0.13294 -0.29577,0.14669 -0.53777,1.17747 -0.53777,2.29063 0,1.11316 -0.18604,2.1389 -0.41341,2.27943 -0.22738,0.14053 -0.2864,-0.83006 -0.13117,-2.15686 z m 1.21213,0.38933 c 0,-1.29852 0.10232,-1.82973 0.22737,-1.18047 0.12506,0.64926 0.12506,1.71168 0,2.36094 -0.12505,0.64926 -0.22737,0.11804 -0.22737,-1.18047 z m -135.26583,-1.18047 -2.07393,-2.22978 2.22978,2.07393 c 2.07367,1.92873 2.47087,2.38562 2.07393,2.38562 -0.0857,0 -1.08912,-1.0034 -2.22978,-2.22977 z m 22.5601,0 -2.07393,-2.22978 2.22977,2.07393 c 2.07368,1.92873 2.47087,2.38562 2.07393,2.38562 -0.0857,0 -1.08911,-1.0034 -2.22977,-2.22977 z m 27.80663,0 -2.07393,-2.22978 2.22977,2.07393 c 2.07368,1.92873 2.47088,2.38562 2.07393,2.38562 -0.0857,0 -1.08911,-1.0034 -2.22977,-2.22977 z m -43.29893,-0.52466 c 0.69956,-0.79354 1.64393,-1.42415 2.09861,-1.40137 l 0.82669,0.0414 -0.78698,0.28769 c -0.43284,0.15823 -1.37722,0.78885 -2.09861,1.40138 l -1.31164,1.11369 z m 62.13897,0.77259 0.35228,-0.57001 -1.45169,-0.21942 -1.45169,-0.21943 1.70512,-0.0786 c 1.6975,-0.0783 2.25306,0.57013 1.09941,1.28313 l -0.60572,0.37435 z m 10.95918,-0.11677 0.21151,-0.78698 1.79589,-0.0739 1.79588,-0.0739 -1.57226,0.25239 c -0.86474,0.13881 -1.76806,0.5262 -2.00739,0.86086 l -0.43514,0.60848 z m 4.59026,-0.19809 c 0,-0.10894 0.41316,-0.52211 0.91814,-0.91814 l 0.91815,-0.72006 -0.72006,0.91815 c -0.68539,0.87394 -1.11623,1.15186 -1.11623,0.72005 z m 4.49328,-0.48036 c 0.19703,-0.51742 0.49039,-0.8086 0.65193,-0.64707 0.16153,0.16154 3.3e-4,0.58488 -0.35823,0.94078 l -0.65192,0.64707 z m -57.61444,-0.19367 c 0.3607,-0.14555 0.95094,-0.14555 1.31164,0 0.3607,0.14554 0.0656,0.26463 -0.65582,0.26463 -0.7214,0 -1.01652,-0.11909 -0.65582,-0.26463 z m 5.77119,0 c 0.3607,-0.14555 0.95093,-0.14555 1.31163,0 0.3607,0.14554 0.0656,0.26463 -0.65581,0.26463 -0.7214,0 -1.01652,-0.11909 -0.65582,-0.26463 z m 22.30775,-0.0161 c 0.51048,-0.13302 1.21876,-0.12427 1.57396,0.0195 0.35521,0.14372 -0.0625,0.25255 -0.92812,0.24186 l -1.57396,-0.0194 0.92812,-0.24186 z m 52.75048,0.005 c 0.37873,-0.15156 0.83124,-0.13292 1.00558,0.0414 0.17434,0.17434 -0.13554,0.29834 -0.6886,0.27556 l -1.00559,-0.0414 z m 3.63978,0.0109 c 0.3607,-0.14554 0.95093,-0.14554 1.31163,0 0.3607,0.14555 0.0656,0.26463 -0.65581,0.26463 -0.7214,0 -1.01652,-0.11908 -0.65582,-0.26463 z m 3.14792,0 c 0.3607,-0.14554 0.95093,-0.14554 1.31163,0 0.3607,0.14555 0.0656,0.26463 -0.65581,0.26463 -0.7214,0 -1.01652,-0.11908 -0.65582,-0.26463 z m 5.24653,0 c 0.3607,-0.14554 0.95094,-0.14554 1.31164,0 0.3607,0.14555 0.0656,0.26463 -0.65582,0.26463 -0.7214,0 -1.01652,-0.11908 -0.65582,-0.26463 z m 3.14792,0 c 0.3607,-0.14554 0.95094,-0.14554 1.31164,0 0.3607,0.14555 0.0656,0.26463 -0.65582,0.26463 -0.7214,0 -1.01652,-0.11908 -0.65582,-0.26463 z m 9.44377,0 c 0.36069,-0.14554 0.95093,-0.14554 1.31163,0 0.3607,0.14555 0.0656,0.26463 -0.65582,0.26463 -0.7214,0 -1.01651,-0.11908 -0.65581,-0.26463 z m 3.14792,0 c 0.36069,-0.14554 0.95093,-0.14554 1.31163,0 0.3607,0.14555 0.0656,0.26463 -0.65582,0.26463 -0.7214,0 -1.01651,-0.11908 -0.65581,-0.26463 z m 5.50886,-0.0111 1.70512,-0.35856 -2.09861,-0.35397 -2.09862,-0.35397 2.2735,-0.0745 2.2735,-0.0745 -0.21529,0.65582 c -0.11841,0.3607 -0.96441,0.71484 -1.88001,0.78698 l -1.66472,0.13109 1.70513,-0.35856 z m -152.27316,-0.90818 0.51716,-0.51716 0.51716,0.51716 0.51716,0.51716 h -1.03432 -1.03432 z m 66.62349,0.21736 -2.36094,-0.36705 2.19881,-0.0788 c 1.20935,-0.0433 2.34473,0.1573 2.52307,0.44586 0.17834,0.28856 0.2513,0.48919 0.16213,0.44586 -0.0892,-0.0433 -1.22455,-0.24398 -2.52307,-0.44586 z m 9.18143,0 -2.62326,-0.3598 2.75443,-0.0824 2.75443,-0.0824 v 0.52465 c 0,0.28856 -0.059,0.48756 -0.13117,0.44223 -0.0721,-0.0453 -1.31163,-0.24434 -2.75443,-0.44223 z m -55.97396,-0.3584 c 0.37874,-0.15155 0.83125,-0.13292 1.00559,0.0414 0.17434,0.17434 -0.13554,0.29834 -0.68861,0.27556 l -1.00558,-0.0414 z m 23.58273,-0.0126 c 0.65263,-0.12549 1.597,-0.12073 2.09862,0.0106 0.50161,0.13131 -0.0324,0.23399 -1.18659,0.22817 l -2.09861,-0.0106 z m 50.36061,0.0236 c 0.3607,-0.14555 0.95094,-0.14555 1.31164,0 0.3607,0.14554 0.0656,0.26463 -0.65582,0.26463 -0.7214,0 -1.01652,-0.11909 -0.65582,-0.26463 z m 24.65871,0 c 0.3607,-0.14555 0.95094,-0.14555 1.31164,0 0.36069,0.14554 0.0656,0.26463 -0.65582,0.26463 -0.7214,0 -1.01652,-0.11909 -0.65582,-0.26463 z m 4.98421,-0.0283 c 0.79354,-0.12022 2.09205,-0.12022 2.88559,0 0.79354,0.12021 0.14428,0.21856 -1.44279,0.21856 -1.58708,0 -2.23634,-0.0983 -1.4428,-0.21856 z m 8.92632,-5.3e-4 c 0.79751,-0.12059 1.97798,-0.11737 2.62327,0.007 0.64529,0.12453 -0.007,0.2232 -1.45001,0.21926 -1.4428,-0.004 -1.97076,-0.10583 -1.17326,-0.22642 z m 12.06703,0 c 0.7975,-0.12059 1.97797,-0.11737 2.62327,0.007 0.64529,0.12453 -0.007,0.2232 -1.45001,0.21926 -1.4428,-0.004 -1.97077,-0.10583 -1.17326,-0.22642 z m -152.1567,-6.26702 -0.65582,-0.26463 v -25.92662 -25.92663 h 8.13213 8.13213 v 19.14985 19.14985 h 10.18783 c 5.60331,0 10.56128,0.14331 11.01772,0.31846 l 0.82989,0.31846 v 6.13478 6.13478 l -0.62958,0.62958 -0.62959,0.62959 -17.86444,-0.0414 c -9.82545,-0.0228 -18.15957,-0.16053 -18.52027,-0.30607 z m 73.84497,-26.06844 v -26.57409 l 12.46051,0.0135 c 6.85329,0.007 14.7639,0.23761 17.57913,0.51147 l 5.11861,0.49792 2.61564,1.12522 2.61565,1.12522 1.80576,1.99876 c 2.11118,2.33683 2.9179,4.83422 2.92196,9.04559 l 0.003,3.03765 -1.0184,1.99623 c -0.56012,1.09792 -1.85863,2.73396 -2.88559,3.63564 -2.06128,1.80963 -2.25108,2.19613 -1.0787,2.19613 0.4338,0 1.94369,1.12145 3.35532,2.49211 l 2.5666,2.4921 0.65391,3.14792 0.65391,3.14792 -0.56282,3.34272 -0.56281,3.34272 -1.49781,2.42847 -1.4978,2.42847 -2.79049,1.67342 c -1.53478,0.92039 -4.00529,1.9418 -5.49002,2.26981 l -2.69953,0.59638 -16.13309,0.30139 -16.13309,0.3014 z m 29.173,12.82714 1.62871,-0.99316 0.32567,-1.62837 c 0.40755,-2.03772 -0.27456,-3.89546 -1.83042,-4.98522 l -1.19916,-0.83993 h -5.91678 -5.91677 v 4.72188 4.72188 l 5.64003,-0.002 5.64002,-0.002 1.6287,-0.99316 z m -1.72537,-19.01829 c 1.6144,-0.84975 1.91578,-1.46135 1.92492,-3.90621 l 0.008,-2.14846 -1.09147,-0.98776 -1.09147,-0.98777 -5.4667,-0.20236 -5.4667,-0.20236 v 4.51906 4.51906 h 5.0187 5.0187 z m 45.0857,32.26693 -0.65582,-0.27197 v -25.92662 -25.92663 h 7.8747 7.8747 l -0.13606,26.10151 -0.13606,26.10151 -7.08282,0.0971 c -3.89556,0.0534 -7.37794,-0.0253 -7.73864,-0.17489 z"
         id="path27631" />
      <path
         style="fill:#221f20;stroke-width:0.524653"
         d="m 635.06263,491.24034 0.0946,-3.01676 0.1965,2.49211 0.19651,2.4921 h 1.51425 c 0.83283,0 1.66016,0.23609 1.8385,0.52465 l 0.32425,0.52466 h -2.12957 -2.12958 z m 5.44142,1.88198 c 0.83596,-2.63389 1.85983,-4.63641 2.37055,-4.63641 0.56898,0 3.15725,5.3363 2.78223,5.73621 -0.11725,0.12504 -0.49257,-0.0521 -0.83403,-0.39349 -0.75381,-0.75381 -3.5589,-0.82962 -3.5589,-0.0962 0,0.28856 -0.252,0.52466 -0.56001,0.52466 h -0.56001 z m 3.38312,-1.18325 c 0,-0.63596 -0.69086,-1.8792 -1.04425,-1.8792 -0.22403,0 -0.53081,0.47219 -0.68173,1.04931 l -0.2744,1.0493 h 1.00019 c 0.5501,0 1.00019,-0.0987 1.00019,-0.21941 z m 3.14792,-0.67404 v -2.99208 l 2.09861,2.04925 2.09862,2.04924 v -1.91181 c 0,-1.05148 0.23609,-2.05771 0.52465,-2.23605 l 0.52465,-0.32425 v 3.28536 3.28536 l -2.09861,-2.04924 -2.09861,-2.04924 v 1.94276 c 0,1.06852 -0.2361,1.94277 -0.52466,1.94277 h -0.52465 z m 6.82049,0.10647 v -2.88559 h 0.52466 c 0.28856,0 0.52465,0.51334 0.52465,1.14076 v 1.14076 l 1.21428,-1.14076 c 1.63853,-1.53932 2.41394,-1.45733 0.95044,0.1005 l -1.1661,1.24126 1.38362,1.64434 c 1.70055,2.02099 0.68856,2.20998 -1.07919,0.20153 l -1.26989,-1.4428 -0.0166,1.4428 c -0.009,0.79354 -0.25267,1.4428 -0.54123,1.4428 h -0.52466 z m 6.82815,0.24291 c 0.57291,-1.45348 1.04165,-2.752 1.04165,-2.8856 0,-0.13359 0.30729,-0.2429 0.68286,-0.2429 0.75079,0 3.17755,5.25065 2.6498,5.73322 -0.18061,0.16516 -0.43379,0.005 -0.56261,-0.35552 -0.27849,-0.77976 -3.09205,-0.88351 -3.55703,-0.13117 -0.17834,0.28856 -0.54297,0.52466 -0.81028,0.52466 -0.26732,0 -0.0173,-1.18921 0.55561,-2.64269 z m 2.57768,-0.57611 -0.59951,-1.12019 -0.46022,0.7267 c -0.71599,1.13055 -0.56629,1.51367 0.59147,1.51367 h 1.06777 z m 6.33377,0.22673 v -2.99208 l 2.09862,2.04925 2.09861,2.04924 v -1.94276 c 0,-1.06852 0.2361,-1.94277 0.52465,-1.94277 h 0.52466 v 2.99207 2.99207 l -2.09862,-2.04924 -2.09861,-2.04924 v 1.94276 c 0,1.06852 -0.23609,1.94277 -0.52465,1.94277 h -0.52466 z m 6.8205,0.13744 c 0,-1.57005 0.23609,-3.00055 0.52465,-3.17889 l 0.52466,-0.32425 v 3.17888 3.17889 h -0.52466 -0.52465 z m 2.62327,-0.031 v -2.88559 h 2.04248 2.04248 l 0.32751,0.85348 c 0.44549,1.16091 -0.59977,2.29443 -2.11578,2.29443 h -1.24739 v 1.31163 c 0,0.7214 -0.23609,1.31164 -0.52465,1.31164 h -0.52465 v -2.8856 z m 3.54403,-1.44279 c -0.11879,-0.3607 -0.7287,-0.73126 -1.35535,-0.82347 l -1.13938,-0.16767 v 0.82347 0.82347 h 1.35536 1.35535 l -0.21598,-0.65581 z m 2.22715,1.44278 v -2.88559 h 2.04248 2.04248 l 0.32751,0.85348 c 0.44549,1.16092 -0.59976,2.29444 -2.11577,2.29444 h -1.24739 v 1.31163 c 0,0.7214 -0.23609,1.31164 -0.52465,1.31164 h -0.52466 z m 3.54404,-1.44279 c -0.11879,-0.3607 -0.7287,-0.73127 -1.35536,-0.82347 l -1.13937,-0.16766 v 0.82347 0.82347 h 1.35535 1.35536 z m 9.04764,1.33632 v -2.99208 l 2.09862,2.04925 2.09861,2.04924 v -2.23606 -2.23605 l 0.52466,0.32425 c 0.28855,0.17834 0.52465,1.65675 0.52465,3.28536 v 2.96111 l -2.09862,-2.04924 -2.09861,-2.04924 v 1.94276 c 0,1.06852 -0.23609,1.94277 -0.52465,1.94277 h -0.52466 z m 9.44377,0.0763 v -2.91577 l 2.21586,0.16134 2.21588,0.16133 0.45256,2.30205 0.45257,2.30207 -0.70098,0.44433 c -0.38555,0.24439 -1.58635,0.44796 -2.66844,0.45238 l -1.96745,0.008 z m 4.09917,1.21063 0.17499,-0.91814 h -1.61243 -1.61243 v 0.69954 c 0,1.03003 0.60724,1.46298 1.80934,1.29004 0.58605,-0.0843 1.14428,-0.56646 1.24053,-1.07144 z m -0.4266,-2.75443 v -0.78698 h -1.31163 -1.31164 v 0.78698 0.78698 h 1.31164 1.31163 z m 3.14792,1.57396 v -2.88559 h 0.52465 0.52466 v 2.88559 2.8856 h -0.52466 -0.52465 z m 3.64737,0.56129 c 0.87954,-1.27837 1.59916,-2.44388 1.59916,-2.59003 0,-0.14614 -0.7673,-0.36094 -1.70512,-0.47732 l -1.70512,-0.2116 2.4921,-0.084 c 1.37066,-0.0462 2.4921,0.0466 2.4921,0.20619 0,0.15959 -0.59551,1.16299 -1.32336,2.22978 l -1.32335,1.93961 1.32335,0.16601 c 2.25513,0.28291 1.45478,1.14563 -1.06278,1.14563 h -2.38615 z m 6.8457,-0.26247 v -2.58678 l -1.18047,-0.22737 c -0.64926,-0.12505 0,-0.24455 1.44279,-0.26556 l 2.62327,-0.0382 -1.2331,0.49396 -1.23309,0.49396 0.18757,2.35838 c 0.10316,1.29711 0.009,2.35838 -0.2097,2.35838 -0.2185,0 -0.39727,-1.16405 -0.39727,-2.58678 z m 4.19722,-0.24371 v -2.83049 l 2.09862,-0.20013 c 1.15424,-0.11007 2.09861,-0.0318 2.09861,0.17398 0,0.20576 -0.74912,0.44809 -1.66472,0.53851 -0.91559,0.0904 -1.7616,0.45953 -1.88,0.82023 l -0.2153,0.65581 h 1.35536 c 0.74545,0 1.35536,0.2361 1.35536,0.52466 0,0.28856 -0.59024,0.52465 -1.31164,0.52465 h -1.31163 v 0.78698 0.78698 h 1.83629 c 1.00995,0 1.83628,0.23609 1.83628,0.52465 v 0.52466 h -2.09861 -2.09862 z m 6.29585,1.78118 c -1.30699,-1.30699 -1.34,-2.72223 -0.0899,-3.85358 1.0781,-0.97567 3.76243,-1.18079 3.76243,-0.28751 v 0.58078 l -0.82499,-0.31658 c -1.16086,-0.44546 -2.84758,0.58076 -2.84758,1.7325 0,1.31141 1.33714,2.3287 2.61995,1.99324 1.26921,-0.33191 1.91478,0.43403 0.74437,0.88316 -1.41499,0.54298 -2.27686,0.35546 -3.36432,-0.73201 z m 5.77118,-1.83629 v -2.88559 h 0.52466 c 0.28856,0 0.52465,0.47219 0.52465,1.04931 v 1.0493 h 1.57396 1.57396 v -1.01834 c 0,-0.56009 0.23609,-1.16426 0.52465,-1.3426 l 0.52466,-0.32425 v 3.17888 3.17889 h -0.52466 c -0.28856,0 -0.52465,-0.59024 -0.52465,-1.31164 v -1.31163 h -1.57396 -1.57396 v 1.31163 c 0,0.7214 -0.23609,1.31164 -0.52465,1.31164 h -0.52466 z m 9.44376,-0.29329 v -3.17888 l 0.52466,0.32425 c 0.28856,0.17834 0.52465,1.60884 0.52465,3.17889 v 2.85463 h -0.52465 -0.52466 z m 2.62327,0.29329 c 0,-1.58707 0.17966,-2.88559 0.39925,-2.88559 0.21959,0 0.9843,0.70828 1.69936,1.57396 0.71507,0.86568 1.47978,1.57396 1.69937,1.57396 0.21959,0 0.39925,-0.70828 0.39925,-1.57396 0,-0.86568 0.23609,-1.57396 0.52465,-1.57396 h 0.52466 v 2.99207 2.99207 l -2.09862,-2.04924 -2.09861,-2.04924 v 1.94276 c 0,1.06852 -0.2361,1.94277 -0.52466,1.94277 h -0.52465 z m 7.17027,2.53583 c -0.70768,-0.70767 -0.31665,-1.07235 0.90036,-0.83971 0.68757,0.13145 1.41357,-0.0254 1.61331,-0.34865 l 0.36318,-0.58763 -1.64178,-0.57233 -1.64177,-0.57233 0.15963,-1.11922 0.15962,-1.11922 1.70513,-0.16441 c 0.93781,-0.0904 1.70512,0.0464 1.70512,0.30399 0,0.25761 -0.50732,0.44964 -1.12737,0.42673 -0.62006,-0.0229 -1.22058,0.22528 -1.33448,0.55154 l -0.20712,0.59321 1.35695,0.34057 c 1.61983,0.40656 2.20154,1.59844 1.30647,2.67693 -0.66172,0.79733 -2.68753,1.06025 -3.31725,0.43053 z m 6.99537,-2.23701 v -2.58678 l -1.18047,-0.22737 c -0.64926,-0.12505 0.11805,-0.22737 1.70513,-0.22737 1.58707,0 2.35438,0.10232 1.70512,0.22737 l -1.18047,0.22737 v 2.58678 2.58678 h -0.52465 -0.52466 z m 4.19723,-0.29882 v -2.88559 h 0.52465 0.52466 v 2.88559 2.8856 h -0.52466 -0.52465 z m 4.19723,0.26233 v -2.62327 h -1.04931 c -0.57712,0 -1.04945,-0.17707 -1.04963,-0.39349 -1.8e-4,-0.21642 1.23931,-0.28877 2.75443,-0.16079 1.51511,0.12799 2.22354,0.32148 1.57428,0.42999 l -1.18047,0.19727 v 2.58678 2.58678 h -0.52465 -0.52465 z m 5.11537,2.05659 -0.91815,-0.53477 v -2.33487 c 0,-2.97739 0.9363,-3.06293 1.15031,-0.10509 l 0.16133,2.22977 h 1.31163 1.31163 l 0.16134,-2.22977 c 0.0887,-1.22638 0.32652,-2.22978 0.52843,-2.22978 0.5995,0 0.0289,4.95027 -0.619,5.36967 -0.82232,0.53233 -1.99796,0.46945 -3.08752,-0.16516 z m 7.47631,-2.0201 v -2.58678 l -1.18047,-0.19727 c -0.64926,-0.10851 0.0592,-0.302 1.57428,-0.42999 1.51512,-0.12798 2.75461,-0.0556 2.75443,0.16079 -1.7e-4,0.21642 -0.47251,0.39349 -1.04963,0.39349 h -1.0493 v 2.62327 2.62327 h -0.52466 -0.52465 z m 4.19723,-0.44385 v -3.03062 l 2.22977,0.26312 2.22978,0.26313 -1.70512,0.17747 -1.70513,0.17748 v 0.75374 0.75373 h 1.31164 c 0.72139,0 1.31163,0.2361 1.31163,0.52466 0,0.28856 -0.59024,0.52465 -1.31163,0.52465 h -1.31164 v 0.78698 0.78698 h 1.57396 c 0.86568,0 1.57396,0.23609 1.57396,0.52465 v 0.52466 h -2.09861 -2.09861 z"
         id="path27629" />
    </g>
    <g
       id="g27843"
       transform="matrix(0.2627676,0,0,0.2627676,555.50511,219.03355)">
      <path
         class="cls-1"
         d="m -1297.1371,810.8031 v 0 a 14.753296,14.753296 0 1 0 14.5161,14.70586 14.61098,14.61098 0 0 0 -14.8482,-14.70586 z m 0,27.18213 a 12.476259,12.476259 0 0 1 0,-24.90508 v 0 a 12.476259,12.476259 0 0 1 0,24.90508 z"
         id="path27769"
         style="stroke-width:4.74382" />
      <path
         class="cls-1"
         d="m -1294.7651,826.03078 v 0 a 4.0796893,4.0796893 0 0 0 3.1783,-3.98481 4.032251,4.032251 0 0 0 -1.4706,-3.41555 8.8709523,8.8709523 0 0 0 -5.1234,-1.2334 30.597669,30.597669 0 0 0 -4.7438,0.37951 v 16.41363 h 2.6092 v -7.0683 h 1.85 a 3.0834861,3.0834861 0 0 1 3.5105,2.89373 11.053112,11.053112 0 0 0 1.1385,4.17457 h 2.7515 a 12.096753,12.096753 0 0 1 -1.0437,-4.03225 c -0.2846,-2.56167 -1.2334,-3.88994 -2.6565,-4.12713 z m -3.558,-1.04363 h -1.8974 v -5.59772 h 1.8974 c 2.9412,0 3.9848,1.42315 3.9848,2.84629 0,1.42316 -1.8026,2.75143 -3.9848,2.75143 z"
         id="path27771"
         style="stroke-width:4.74382" />
      <path
         class="cls-1"
         d="M -1762.4114,331.34473 Z"
         id="path27773"
         style="stroke-width:4.74382" />
      <path
         class="cls-1"
         d="m -1694.5273,492.06551 v 128.08328 h 68.7854 l 7.2582,-38.18779 h 30.9296 c -11.3377,58.58623 -69.6867,99.14593 -143.6429,99.14593 -5.076,0 -10.1992,0 -15.2752,-0.56926 -40.9867,-3.17836 -78.6526,-16.3662 -106.0719,-36.90696 -30.2656,-22.96011 -46.1574,-53.60522 -46.015,-88.70952 a 131.16675,131.16675 0 0 1 45.1137,-98.33948 167.88396,167.88396 0 0 1 104.0795,-40.70202 c 2.4668,0 4.7439,0 7.4952,0 a 215.5594,215.5594 0 0 1 132.8272,48.57676 23.244741,23.244741 0 0 0 2.7513,2.18216 25.426901,25.426901 0 0 1 2.6566,2.13473 l 1.0436,0.90132 h 78.9848 V 331.29729 h -80.1232 v 39.5635 c -33.7287,-21.5844 -91.3662,-43.35855 -158.681,-43.35855 h -1.1386 a 277.51374,277.51374 0 0 0 -195.5404,82.16304 c -41.6982,42.36235 -64.2788,94.16492 -63.6147,145.87261 0.759,55.59763 27.5142,107.4002 75.4743,145.87261 45.8253,36.81208 108.0169,57.9221 170.493,57.9221 7.7325,0 15.5598,-0.33206 23.2448,-0.94876 61.6697,-5.02846 116.7929,-18.9753 155.55,-39.94301 v 17.12521 h 85.0567 V 581.961 h 29.3643 v 178.13062 h -44.3073 v 80.12321 h 197.4854 v -80.12321 h -44.3073 V 581.961 h 100.1422 l 6.9734,38.47241 h 69.1176 V 492.35015 Z m -67.8841,-160.72078 z"
         id="path27775"
         style="stroke-width:4.74382" />
    </g>
  </g>
</svg>
